<svg width="989" height="805" viewBox="0 0 989 805" fill="none" xmlns="http://www.w3.org/2000/svg">
<path d="M125.525 110.516L120.06 264.117L101.445 514.709L52.3528 515.227L99.1011 292.685L125.525 110.516Z" fill="#564F3A"/>
<path d="M125.959 170.35C116.243 164.625 109.831 154.204 108.133 141.378C106.435 128.553 109.59 114.373 116.905 101.959C124.219 89.5446 135.093 79.9127 147.134 75.1821C159.176 70.4514 171.399 71.0095 181.115 76.7336L153.537 123.542L125.959 170.35Z" fill="#68B456"/>
<path d="M122.347 161.547C121.335 150.316 126.064 139.031 135.496 130.175C144.928 121.319 158.288 115.617 172.639 114.324C186.989 113.03 201.154 116.251 212.017 123.278C222.88 130.305 229.552 140.562 230.564 151.793L176.455 156.67L122.347 161.547Z" fill="#62A353"/>
<path d="M111.842 163.55C117.671 153.897 128.16 147.597 141.004 146.037C153.847 144.477 167.992 147.785 180.327 155.232C192.661 162.68 202.176 173.657 206.776 185.749C211.377 197.841 210.687 210.057 204.859 219.711L158.351 191.63L111.842 163.55Z" fill="#5A8F4E"/>
<path d="M19.1834 123.665C23.4198 113.215 32.7872 105.343 45.2249 101.781C57.6626 98.2195 72.1518 99.2596 85.505 104.673C98.8581 110.086 109.981 119.429 116.428 130.646C122.874 141.863 124.116 154.036 119.88 164.486L69.5315 144.076L19.1834 123.665Z" fill="#62A353"/>
<path d="M18.2394 199.59C14.8776 188.826 17.117 176.797 24.465 166.149C31.8131 155.5 43.6677 147.105 57.4212 142.809C71.1746 138.514 85.7003 138.67 97.8026 143.243C109.905 147.817 118.592 156.433 121.954 167.197L70.0968 183.393L18.2394 199.59Z" fill="#5A8F4E"/>
<path d="M202.616 293.012L203.38 365.364L186.55 562.686L153.796 563.032L192.392 376.481L202.616 293.012Z" fill="#564F3A"/>
<path d="M202.905 332.933C196.423 329.114 192.145 322.161 191.012 313.604C189.879 305.046 191.984 295.586 196.864 287.303C201.744 279.021 208.999 272.594 217.033 269.438C225.067 266.282 233.223 266.654 239.705 270.473L221.305 301.703L202.905 332.933Z" fill="#68B456"/>
<path d="M200.496 327.059C199.821 319.566 202.976 312.037 209.269 306.128C215.562 300.219 224.476 296.415 234.05 295.552C243.625 294.689 253.075 296.838 260.323 301.526C267.571 306.214 272.022 313.058 272.698 320.551L236.597 323.805L200.496 327.059Z" fill="#62A353"/>
<path d="M193.487 328.396C197.376 321.955 204.374 317.753 212.943 316.712C221.512 315.671 230.95 317.878 239.179 322.847C247.409 327.816 253.757 335.139 256.826 343.207C259.896 351.275 259.436 359.426 255.547 365.866L224.517 347.131L193.487 328.396Z" fill="#5A8F4E"/>
<path d="M131.667 301.784C134.493 294.812 140.743 289.56 149.042 287.184C157.34 284.807 167.007 285.501 175.916 289.113C184.825 292.724 192.247 298.958 196.548 306.442C200.849 313.926 201.677 322.047 198.851 329.02L165.259 315.402L131.667 301.784Z" fill="#62A353"/>
<path d="M131.037 352.441C128.794 345.26 130.288 337.234 135.19 330.13C140.093 323.025 148.002 317.424 157.178 314.558C166.355 311.692 176.046 311.796 184.121 314.847C192.195 317.899 197.991 323.648 200.234 330.829L165.635 341.635L131.037 352.441Z" fill="#5A8F4E"/>
<path d="M300.695 159.911L289.068 303.041L279.97 507.794L237.717 508.24L265.643 316.397L300.695 159.911Z" fill="#564F3A"/>
<path d="M307.08 203.15C298.718 198.223 293.199 189.254 291.738 178.215C290.277 167.176 292.992 154.972 299.287 144.287C305.582 133.602 314.942 125.312 325.306 121.24C335.67 117.169 346.19 117.649 354.552 122.576L330.816 162.863L307.08 203.15Z" fill="#68B456"/>
<path d="M303.972 195.573C303.101 185.906 307.172 176.194 315.29 168.572C323.407 160.949 334.907 156.042 347.258 154.929C359.609 153.815 371.801 156.588 381.15 162.635C390.5 168.683 396.242 177.511 397.113 187.178L350.543 191.375L303.972 195.573Z" fill="#62A353"/>
<path d="M294.931 197.297C299.947 188.989 308.975 183.567 320.029 182.224C331.083 180.882 343.258 183.729 353.874 190.138C364.49 196.548 372.679 205.996 376.639 216.404C380.599 226.811 380.005 237.325 374.989 245.634L334.96 221.465L294.931 197.297Z" fill="#5A8F4E"/>
<path d="M215.181 162.968C218.827 153.974 226.889 147.199 237.594 144.133C248.299 141.068 260.77 141.963 272.263 146.622C283.756 151.281 293.329 159.322 298.878 168.977C304.426 178.631 305.495 189.108 301.849 198.103L258.515 180.536L215.181 162.968Z" fill="#62A353"/>
<path d="M214.368 228.316C211.475 219.052 213.402 208.699 219.727 199.534C226.051 190.369 236.254 183.143 248.091 179.446C259.929 175.749 272.431 175.883 282.847 179.82C293.263 183.756 300.741 191.172 303.634 200.436L259.001 214.376L214.368 228.316Z" fill="#5A8F4E"/>
<path d="M464.869 66.3549L451.36 232.653L440.79 470.548L391.698 471.066L424.144 248.17L464.869 66.3549Z" fill="#564F3A"/>
<path d="M472.289 116.592C462.573 110.868 456.161 100.447 454.463 87.6212C452.765 74.7954 455.92 60.6157 463.235 48.2015C470.549 35.7873 481.423 26.1554 493.465 21.4247C505.506 16.6941 517.729 17.2522 527.445 22.9763L499.867 69.7843L472.289 116.592Z" fill="#68B456"/>
<path d="M468.677 107.789C467.665 96.5586 472.395 85.274 481.826 76.418C491.258 67.562 504.618 61.8601 518.969 60.5666C533.319 59.2731 547.484 62.4941 558.347 69.5209C569.21 76.5476 575.882 86.8047 576.894 98.0355L522.786 102.912L468.677 107.789Z" fill="#62A353"/>
<path d="M458.172 109.793C464.001 100.14 474.49 93.8402 487.334 92.2804C500.177 90.7206 514.322 94.0282 526.657 101.476C538.991 108.923 548.506 119.9 553.106 131.992C557.707 144.084 557.017 156.301 551.189 165.954L504.681 137.873L458.172 109.793Z" fill="#5A8F4E"/>
<path d="M365.513 69.9079C369.75 59.4576 379.117 51.5857 391.555 48.0239C403.993 44.4622 418.482 45.5023 431.835 50.9155C445.188 56.3287 456.312 65.6716 462.758 76.8888C469.205 88.1059 470.446 100.279 466.21 110.729L415.862 90.3184L365.513 69.9079Z" fill="#62A353"/>
<path d="M364.569 145.833C361.208 135.069 363.447 123.04 370.795 112.391C378.143 101.743 389.998 93.3475 403.751 89.0519C417.505 84.7563 432.03 84.9124 444.133 89.4859C456.235 94.0595 464.923 102.676 468.284 113.439L416.427 129.636L364.569 145.833Z" fill="#5A8F4E"/>
<path d="M989 653.614C989 681.741 948.327 697.649 918.452 721.52C741.656 862.784 584.02 778.293 341.757 778.293C0.614397 778.293 24.8466 680.549 24.8466 583.51C24.8466 486.472 0.614397 451.732 341.757 451.732C677.178 495.067 941.364 555.52 989 653.614Z" fill="#ECE4BD"/>
<path d="M964.528 654.502C964.528 682.629 923.855 698.537 893.98 722.407C717.184 863.672 559.549 779.181 317.285 779.181C-23.8573 779.181 0.374962 681.437 0.374962 584.398C0.374962 487.359 -23.8573 452.62 317.285 452.62C652.706 495.955 916.892 556.407 964.528 654.502Z" fill="#FFF3B3"/>
</svg>
