<svg width="781" height="637" viewBox="0 0 781 637" fill="none" xmlns="http://www.w3.org/2000/svg">
<g id="beach-second">
<g id="Group 36">
<path id="Ellipse 12" d="M98.8148 393.564C97.2819 376.571 121.492 364.686 138.61 348.595C239.915 253.368 341.71 295.607 491.077 282.07C701.408 263.007 691.795 323.416 697.083 382.044C702.371 440.671 719.205 460.306 508.874 479.368C299.709 471.929 133.531 450.168 98.8148 393.564Z" fill="#ECE4BD"/>
<path id="Ellipse 13" d="M113.855 391.66C112.322 374.667 136.532 362.783 153.65 346.692C254.955 251.465 356.75 293.703 506.117 280.166C716.448 261.104 706.835 321.512 712.123 380.14C717.411 438.768 734.245 458.402 523.914 477.464C314.749 470.025 148.571 448.264 113.855 391.66Z" fill="#FFF3B3"/>
</g>
<g id="fish">
<g id="Group 38">
<g id="Group 13">
<path id="Ellipse 9" d="M387.356 427.226C385.612 431.77 383 437.142 373.893 441.738C364.787 446.335 359.087 444.965 353.912 444.106C357.099 435.94 356.166 430.625 365.273 426.028C374.379 421.432 383.557 423.743 387.356 427.226Z" fill="#97B0C7"/>
<path id="Ellipse 10" d="M356.279 444.591C357.378 444.738 355.085 449.221 356.279 448.804C357.473 448.388 358.471 445.43 359.357 444.591C360.243 443.752 360.978 445.069 361.258 444.09C361.537 443.111 361.462 442.168 361.041 441.38C360.619 440.591 359.871 439.993 358.891 439.66C357.911 439.328 358.42 440.273 357.211 440.508C356.002 440.744 355.42 440.655 354.391 441.379C353.361 442.104 350.252 442.612 349.749 443.581L355.308 444.32L356.279 444.591Z" fill="#97B0C7"/>
<path id="Ellipse 11" d="M357.972 428.698C358.509 429.65 359.359 430.526 360.413 431.216C361.467 431.905 364.484 430.923 365.7 431.118C366.916 431.314 366.277 432.678 367.245 432.313C368.213 431.948 368.94 431.325 369.334 430.523C369.728 429.721 369.771 428.776 369.457 427.807C369.144 426.838 368.675 427.802 367.76 426.993C366.845 426.184 366.037 425.697 364.829 425.32C363.621 424.943 361.882 422.781 360.788 422.963L363.503 427.775L357.972 428.698Z" fill="#97B0C7"/>
</g>
<rect id="Rectangle 51" width="1.38823" height="6.73993" rx="0.694113" transform="matrix(0.446383 -0.885991 0.907317 0.438918 374.92 429.405)" fill="black"/>
<rect id="Rectangle 50" width="1.38882" height="6.737" rx="0.694411" transform="matrix(1.00042 0.120342 -0.123345 0.984543 377.952 426.958)" fill="black"/>
</g>
</g>
<g id="fish_2">
<g id="Group 38_2">
<g id="Group 13_2">
<path id="Ellipse 9_2" d="M370.054 464.344C370.568 461.154 369.948 455.052 375.249 450.861C380.551 446.669 386.036 449.072 389.525 448.951C388.568 454.689 389.903 458.028 384.602 462.219C379.3 466.411 373.006 466.113 370.054 464.344Z" fill="#9E9E9E"/>
<path id="Ellipse 10_2" d="M390.263 445.33C389.527 445.38 388.749 445.635 388.029 446.063C387.308 446.491 387.063 448.549 386.601 449.212C386.138 449.875 385.48 449.114 385.431 449.788C385.383 450.462 385.562 451.067 385.944 451.525C386.327 451.983 386.896 452.274 387.58 452.362C388.264 452.45 387.803 451.901 388.558 451.589C389.313 451.276 391.25 451.214 391.821 450.607C392.393 450 392.802 449.304 392.997 448.606L389.275 448.856L390.263 445.33Z" fill="#9E9E9E"/>
<path id="Ellipse 11_2" d="M388.991 459.52C388.511 458.971 387.838 458.512 387.057 458.201C386.276 457.891 384.446 458.927 383.627 458.96C382.808 458.993 383.037 458.02 382.457 458.385C381.876 458.75 381.488 459.252 381.341 459.826C381.195 460.4 381.296 461.021 381.633 461.611C381.97 462.201 382.144 461.511 382.85 461.918C383.557 462.325 384.765 463.81 385.603 463.896C386.441 463.983 387.256 463.888 387.943 463.626L385.516 460.849L388.991 459.52Z" fill="#9E9E9E"/>
</g>
<rect id="Rectangle 51_2" width="0.92216" height="4.48701" rx="0.46108" transform="matrix(-0.254984 0.957088 -0.977971 -0.250169 377.855 461.289)" fill="black"/>
<rect id="Rectangle 50_2" width="0.922305" height="4.4863" rx="0.461152" transform="matrix(-1.006 0.0800986 -0.0818721 -0.987313 376.216 463.281)" fill="black"/>
</g>
</g>
<g id="plastpose">
<path id="Vector 13" d="M482.063 455.105L476.364 459.657L430.724 460.07L427.542 457.568L428.959 455.586L434.381 452.161L441.815 449C442.56 446.836 443.987 441.835 443.732 439.137C443.477 436.439 442.272 436.525 441.701 436.905L436.821 436.949L427.37 439.285L425.927 438.454L425.887 434.235L433.055 433.326L446.807 430.389C454.154 428.166 469.944 424.16 474.324 425.921L474.363 430.14L482.063 455.105Z" fill="#DBF3F5"/>
<path id="Vector 14" d="M444.222 450.743C443.255 454.079 433.871 455.734 429.3 456.145L429.292 455.314L434.571 452.771L440.472 449.946L440.77 448.557L438.813 439.426C437.876 439.342 435.318 439.347 432.58 440.037C429.841 440.727 428.727 439.425 428.512 438.688L435.982 436.957L444.092 436.884L443.827 441.876C444.361 443.442 445.189 447.408 444.222 450.743Z" fill="#A3D4DA"/>
<path id="Polygon 96" d="M457.089 457.164L479.346 447.072L481.559 455.569L457.089 457.164Z" fill="#75ABAB"/>
<path id="Polygon 97" d="M448.072 448.72L470.82 441.53L471.554 444.346L448.072 448.72Z" fill="#92C5CD"/>
</g>
<g id="Vector 24" style="mix-blend-mode:overlay">
<path d="M367.521 425.299L369.737 432.827L363.881 439.912L368.949 443.623" stroke="black"/>
</g>
<g id="Vector 25" style="mix-blend-mode:overlay">
<path d="M367.026 424.513L369.416 432.602L363.566 439.879L368.636 443.696" stroke="black" stroke-opacity="0.6" stroke-width="3"/>
</g>
<g id="sharky 1" clip-path="url(#clip0_115_123)">
<g id="rod 1" clip-path="url(#clip1_115_123)">
<path id="Vector" d="M355.657 400.346L341.416 394.027L337.949 385.027C337.059 382.716 334.453 381.559 332.141 382.45C329.829 383.341 328.673 385.946 329.564 388.258L329.8 388.872L307.598 379.019C307.596 379.018 307.594 379.018 307.593 379.017L307.593 379.017C307.592 379.017 307.592 379.016 307.591 379.016C307.329 378.901 307.024 378.885 306.736 378.996C306.157 379.219 305.868 379.869 306.091 380.448L315.985 406.129C318.1 411.619 324.288 414.365 329.779 412.25C335.27 410.135 338.016 403.947 335.9 398.456L333.847 393.125L339.655 395.703L342.718 403.654C342.941 404.233 343.591 404.521 344.17 404.298C344.749 404.075 345.037 403.425 344.814 402.846L342.559 396.991L354.746 402.4C355.029 402.526 355.337 402.525 355.605 402.421C355.873 402.318 356.102 402.112 356.228 401.829C356.48 401.262 356.224 400.598 355.657 400.346ZM333.804 399.264C335.474 403.598 333.306 408.484 328.971 410.154C324.637 411.824 319.751 409.656 318.081 405.321L309.163 382.171L330.943 391.837L333.804 399.264ZM332.704 390.161L331.66 387.45C331.215 386.294 331.793 384.992 332.949 384.546C334.105 384.101 335.408 384.679 335.853 385.835L338.512 392.738L332.704 390.161Z" fill="#D8BF77"/>
<path id="Vector_2" d="M356.228 401.829C356.102 402.112 355.873 402.318 355.605 402.421C355.337 402.525 355.029 402.526 354.745 402.4L342.559 396.992L341.416 394.027L355.657 400.346C356.224 400.598 356.479 401.262 356.228 401.829ZM306.113 379.589C305.861 380.156 306.117 380.82 306.684 381.072L339.655 395.703L338.512 392.738L307.595 379.018C307.028 378.766 306.364 379.022 306.113 379.589Z" fill="#636363"/>
<path id="Vector_3" d="M358.196 399.015L369.489 404.027C371.19 404.782 371.957 406.773 371.203 408.474C370.448 410.175 368.457 410.942 366.756 410.187L355.463 405.175C353.762 404.42 352.994 402.429 353.749 400.728C354.504 399.028 356.495 398.26 358.196 399.015Z" fill="#B94B00"/>
<path id="Vector_4" d="M369.49 404.027C369.547 404.052 369.603 404.08 369.659 404.108C369.637 404.166 369.613 404.224 369.588 404.281C368.833 405.982 366.842 406.749 365.141 405.994L353.848 400.983C353.79 400.957 353.734 400.93 353.679 400.902C353.701 400.844 353.724 400.786 353.75 400.728C354.505 399.027 356.495 398.26 358.196 399.015L369.49 404.027Z" fill="#EA5F00"/>
<path id="Vector_5" d="M345.621 404.943L348.852 413.327C349.742 415.639 348.586 418.245 346.274 419.135C343.963 420.026 341.357 418.87 340.467 416.558L339.423 413.848L338.589 415.725C338.338 416.292 337.674 416.548 337.107 416.296C336.54 416.045 336.284 415.381 336.536 414.814L338.469 410.458C338.653 410.043 339.069 409.779 339.524 409.791C339.978 409.802 340.38 410.086 340.544 410.51L342.563 415.75C343.008 416.906 344.311 417.484 345.467 417.039C346.622 416.594 347.2 415.291 346.755 414.135L343.525 405.75C343.302 405.172 343.59 404.521 344.169 404.298C344.748 404.075 345.398 404.364 345.621 404.943Z" fill="#636363"/>
<path id="Vector_6" d="M346.911 402.039C347.579 403.773 346.712 405.727 344.978 406.395C343.244 407.063 341.29 406.196 340.622 404.462C339.954 402.728 340.821 400.774 342.555 400.106C344.288 399.438 346.243 400.305 346.911 402.039Z" fill="#FF4800"/>
<path id="Vector_7" d="M345.661 401.918C345.995 402.785 345.561 403.762 344.694 404.096C343.827 404.43 342.85 403.997 342.516 403.13C342.182 402.263 342.616 401.286 343.482 400.952C344.35 400.618 345.327 401.051 345.661 401.918Z" fill="#FF7443"/>
</g>
<g id="bottle-plastic">
<path id="Vector 20" d="M258.863 333.217C261.901 333.099 264.494 334.328 266.977 335.894C266.873 338.1 266.69 342.669 266.783 343.297C266.876 343.925 264.365 347.975 263.098 349.922L249.353 346.133L247.315 343.221L243.369 341.546L233.352 341.228L232.787 340.668C231.995 339.66 230.14 337.33 229.054 336.076C227.969 334.822 227.849 334.807 227.924 334.956L226.688 335.295L226.099 329.127C227.071 328.452 229.173 326.855 229.798 325.867C230.424 324.879 231.856 324.555 232.494 324.516L234.86 325.297L236.888 325.966L239.931 326.97C241.283 327.416 245.929 334.923 246.6 334.024C247.138 333.306 249.822 332.972 251.097 332.894C252.673 333.041 256.433 333.311 258.863 333.217Z" fill="#E1F6F7" stroke="#E1F6F7"/>
<path id="Rectangle 59" d="M226.355 328.638L222.365 329.004L221.125 332.766L222.997 335.888L226.986 335.522L226.355 328.638Z" fill="#4474AF"/>
<path id="Vector 13_2" d="M252.785 340.786L257.134 333.739L252.775 332.786L249.186 333.378L247.067 335.821C247.177 334.892 244.717 332.59 241.844 329.179C237.277 323.757 239.607 329.725 240.963 331.851C242.047 333.551 244.01 336.026 244.856 337.051L246.884 338.839L252.785 340.786Z" fill="#A4D5DB"/>
<path id="Vector 21" d="M266.711 336.05L263.007 336.877C262.876 337.307 262.437 339.385 261.701 344.289L262.142 348.821L266.774 342.662L266.711 336.05Z" fill="#A4D5DB"/>
<path id="Vector 23" d="M259.719 342.988C259.719 342.988 262.454 342.48 261.327 343.583C260.199 344.686 261.42 344.967 261.46 346.981C261.46 346.981 261.563 348.876 260.986 348.983C260.409 349.09 259.413 346.742 259.287 345.944C259.162 345.146 259.719 342.988 259.719 342.988Z" fill="#C3E7EC"/>
<path id="Vector 22" d="M246.632 337.774C246.049 338.374 247.05 337.187 249.441 339.091L251.801 339.708L249.733 337.042C249.224 336.229 247.097 337.295 246.632 337.774Z" fill="#C3E7EC"/>
</g>
<path id="Vector_8" d="M373.36 295.967C375.761 299.293 347.116 360.718 327.884 374.046C308.651 387.374 292.344 395.349 290.356 406.704C288.369 418.06 289.103 444.159 283.732 444.555C278.36 444.951 263.996 417.211 256.804 416.651C249.612 416.092 187.62 444.639 179.323 450.388C171.027 456.137 175.167 459.92 168.948 464.23C166.968 465.602 152.507 462.32 148.972 464.769C147.84 465.553 142.042 469.571 139.921 471.041C133.133 475.746 124.262 534.001 121.595 530.305C118.929 526.611 116.219 475.826 112.218 470.283C108.217 464.74 85.4741 448.904 88.4908 446.814C91.5074 444.723 125.417 461.136 134.844 454.603C146.534 446.502 149.008 445.619 137.494 439.463C136.588 438.979 153.893 434.751 158.795 431.354C163.698 427.956 168.339 416.359 162.77 408.643C161.437 406.795 187.272 404.968 187.272 404.968C187.272 404.968 203.452 388.851 223.26 370.176L243.607 351.34C257.92 338.369 271.992 326.302 281.753 319.538C305.511 303.074 339.257 286.34 345.657 295.209C363.76 282.664 373.36 295.967 373.36 295.967Z" fill="#C3D2E1"/>
<path id="Vector_9" d="M113.953 475.701C113.4 473.097 112.826 471.124 112.219 470.282C108.218 464.739 85.4749 448.903 88.4916 446.813C91.5083 444.722 125.418 461.136 134.845 454.603C146.535 446.501 149.009 445.618 137.495 439.462C136.589 438.978 153.894 434.75 158.796 431.353C163.699 427.956 168.34 416.358 162.771 408.642C161.438 406.795 187.273 404.967 187.273 404.967C187.273 404.967 203.452 388.85 223.261 370.175L243.607 351.339C257.921 338.368 271.992 326.301 281.754 319.537C305.511 303.073 339.258 286.34 345.658 295.208C363.759 282.664 373.36 295.967 373.36 295.967C373.36 295.967 344.333 302.778 276.453 349.818C241.197 374.25 206.518 410.896 113.953 475.701Z" fill="#F0EBE1"/>
<g id="Group">
<path id="Vector_10" d="M246.339 384.369C219.962 376.039 202.258 361.699 202.635 361.438C229.786 342.622 278.016 362.417 290.267 360.579L246.339 384.369Z" fill="#B4C3D2"/>
<path id="Vector_11" d="M330.786 379.097C311.553 392.424 295.246 400.399 293.258 411.755C291.271 423.11 292.005 449.209 286.634 449.605C281.262 450.002 266.898 422.261 259.706 421.701C252.514 421.142 190.522 449.689 182.225 455.438C173.929 461.187 178.069 464.97 171.85 469.28C169.87 470.652 155.408 467.37 151.873 469.819C150.742 470.604 144.944 474.621 142.823 476.091C136.035 480.795 127.165 539.051 124.498 535.355C122.368 532.404 120.209 499.471 117.388 483.482C117.135 481.927 116.855 480.751 116.855 480.751C162.108 449.391 260.877 404.277 284.983 390.881C333.437 363.955 335.536 329.241 376.264 301.017C378.662 304.343 350.018 365.769 330.786 379.097Z" fill="#B4C3D2"/>
</g>
<path id="Vector_12" d="M292.134 312.741C314.362 298.928 340.146 287.57 345.658 295.208C336.608 301.48 323.032 310.888 310.781 312.726C307.391 313.235 300.402 313.135 292.134 312.741Z" fill="#DFDAD2"/>
<g id="Group 40">
<rect id="Rectangle 52" width="1.94835" height="12.6404" rx="0.974177" transform="matrix(-0.908205 -0.437876 -0.445106 0.886254 339.183 320.946)" fill="black"/>
<rect id="Rectangle 53" width="1.83314" height="12.5747" rx="0.916572" transform="matrix(-0.717916 0.691687 0.710699 0.70793 332.093 321.015)" fill="black"/>
</g>
<g id="Group_2">
<path id="Vector_13" d="M173.071 371.709C168.048 373.451 165.751 379.09 164.53 380.398C164.369 380.391 164.206 380.397 164.038 380.429L161.457 380.922L160.565 376.444C160.453 375.885 159.795 375.539 159.095 375.673C158.395 375.806 157.918 376.369 158.03 376.929L158.922 381.407L154.885 382.179L153.814 376.8C153.702 376.24 153.044 375.894 152.344 376.028C151.645 376.162 151.167 376.725 151.279 377.284L152.35 382.664L148.312 383.436L147.062 377.155C146.95 376.596 146.292 376.25 145.592 376.384C144.892 376.518 144.415 377.08 144.527 377.64L145.778 383.921L141.741 384.693L140.67 379.313C140.558 378.754 139.9 378.408 139.2 378.542C138.501 378.676 138.023 379.238 138.135 379.798L139.206 385.177L135.516 385.883C134.008 379.642 131.385 376.478 131.385 376.478C120.631 379.093 114.427 388.967 114.427 388.967L117.088 390.84L115.341 393.556C115.341 393.556 124.878 400.418 135.847 398.88C135.847 398.88 137.063 394.981 136.066 388.643L139.756 387.937L140.827 393.317C140.939 393.877 141.597 394.222 142.297 394.088C142.997 393.954 143.474 393.392 143.362 392.832L142.291 387.453L146.327 386.681L147.578 392.961C147.69 393.521 148.348 393.867 149.048 393.733C149.747 393.599 150.225 393.036 150.113 392.477L148.862 386.196L152.9 385.424L153.971 390.803C154.083 391.363 154.741 391.708 155.441 391.575C156.141 391.441 156.618 390.878 156.506 390.318L155.435 384.939L159.471 384.167L160.363 388.645C160.475 389.205 161.133 389.55 161.833 389.417C162.532 389.283 163.01 388.72 162.898 388.16L162.006 383.682L164.587 383.189C164.756 383.157 164.91 383.101 165.057 383.035C166.691 383.799 170.982 388.177 176.304 387.94L173.813 379.992L173.071 371.709ZM126.274 387.772C125.185 387.98 124.162 387.443 123.988 386.572C123.815 385.701 124.556 384.826 125.646 384.618C126.735 384.409 127.758 384.946 127.931 385.818C128.105 386.689 127.363 387.564 126.274 387.772Z" fill="white"/>
</g>
</g>
<path id="Vector_14" d="M288.701 215.699C288.701 215.699 287.29 219.156 286.599 221.509C274.264 244.712 296.398 255.996 292.023 270.876C292.023 280.777 286.599 289.394 286.599 289.394M268.649 215.699C268.649 215.699 267.93 222.613 267.238 224.966C262.864 239.846 278.157 247.441 273.782 262.321C273.09 264.674 268.649 279.704 268.649 279.704M253.816 215.699C253.816 215.699 252.406 219.156 251.714 221.509C239.379 244.712 259.865 247.441 255.49 262.321C243.679 278.95 249.061 281.857 249.061 281.857" stroke="#7C7C7C" stroke-opacity="0.44" stroke-width="4" stroke-linecap="round" stroke-linejoin="round"/>
<path id="Vector_15" d="M553.022 306.584C553.022 306.584 554.02 309.029 554.509 310.694C563.235 327.108 547.577 335.091 550.672 345.618C550.672 352.622 558.444 360.47 558.444 360.47M567.207 306.584C567.207 306.584 567.716 311.475 568.205 313.139C571.3 323.666 559.43 329.039 562.525 339.565C563.014 341.23 569.909 354.567 569.909 354.567M577.7 306.584C577.7 306.584 578.698 309.029 579.188 310.694C587.914 327.108 573.421 329.039 576.516 339.565C584.872 351.329 582.151 357.804 582.151 357.804" stroke="#7C7C7C" stroke-opacity="0.44" stroke-width="4" stroke-linecap="round" stroke-linejoin="round"/>
<g id="bottle-plastic_2">
<path id="Vector 20_2" d="M633.597 422.793C632.112 424.351 630.189 425.006 628.157 425.435C627.121 424.264 624.96 421.854 624.603 421.581C624.247 421.308 623.524 418.013 623.207 416.399L632.055 411.544L634.526 412.017L637.355 410.922L642.598 406.143L643.161 406.149C644.061 406.27 646.152 406.538 647.321 406.639C648.491 406.74 648.56 406.689 648.447 406.65L648.908 405.868L652.249 408.71C652.088 409.532 651.809 411.379 651.979 412.189C652.148 413 651.581 413.871 651.277 414.205L649.69 414.975L648.33 415.636L646.29 416.627C645.383 417.067 639.322 415.547 639.424 416.335C639.506 416.964 638.308 418.458 637.699 419.126C636.826 419.829 634.784 421.546 633.597 422.793Z" fill="#E1F6F7" stroke="#E1F6F7"/>
<path id="Rectangle 59_2" d="M652.36 409.084L654.205 406.931L652.979 404.409L650.489 403.747L648.644 405.9L652.36 409.084Z" fill="#4474AF"/>
<path id="Vector 13_3" d="M632.949 415.952L634.217 421.675L636.899 420.009L638.43 417.938L638.301 415.653C638.703 416.179 641.088 416.134 644.228 416.449C649.221 416.95 645.094 415.069 643.358 414.658C641.969 414.33 639.752 414.041 638.817 413.938L636.906 414.03L632.949 415.952Z" fill="#A4D5DB"/>
<path id="Vector 21_2" d="M628.215 425.225L629.688 422.978C629.542 422.695 628.74 421.424 626.695 418.57L624.236 416.487L624.921 421.899L628.215 425.225Z" fill="#A4D5DB"/>
<path id="Vector 23_2" d="M628.343 418.253C628.343 418.253 627.204 419.86 627.233 418.744C627.261 417.628 626.503 418.087 625.49 417.084C625.49 417.084 624.502 416.173 624.743 415.834C624.983 415.495 626.647 416.197 627.104 416.54C627.561 416.883 628.343 418.253 628.343 418.253Z" fill="#C3E7EC"/>
<path id="Vector 22_2" d="M637.559 414.445C637.559 413.854 637.636 414.95 635.483 415.162L633.98 416.013L636.345 416.347C637.004 416.509 637.559 414.918 637.559 414.445Z" fill="#C3E7EC"/>
</g>
<g id="turtle">
<g id="Group_3">
<path id="Vector_16" d="M612.979 385.187C612.987 385.258 612.992 385.331 612.994 385.405L613.117 390.945C613.146 392.267 612.076 393.363 610.727 393.392C609.377 393.42 608.258 392.372 608.23 391.049L608.107 385.509C608.078 384.187 609.148 383.092 610.497 383.063C611.771 383.035 612.839 383.969 612.979 385.187Z" fill="#668018"/>
<path id="Vector_17" d="M635.926 388.257C635.962 388.57 635.935 388.895 635.836 389.215L634.203 394.521C633.813 395.788 632.449 396.504 631.157 396.122C629.865 395.74 629.132 394.404 629.523 393.138L631.156 387.832C631.546 386.566 632.909 385.849 634.202 386.231C635.167 386.517 635.82 387.334 635.926 388.257Z" fill="#668018"/>
<path id="Vector_18" d="M693.048 436.564C693.17 437.628 692.548 438.678 691.478 439.072L686.25 440.998C684.986 441.464 683.577 440.838 683.102 439.6C682.627 438.362 683.266 436.98 684.53 436.515L689.758 434.588C691.022 434.123 692.431 434.749 692.906 435.987C692.979 436.177 693.026 436.371 693.048 436.564Z" fill="#668018"/>
<path id="Vector_19" d="M685.686 427.152C685.792 428.076 685.342 429.014 684.466 429.503L679.549 432.243C678.376 432.896 676.884 432.494 676.217 431.345C675.549 430.195 675.96 428.733 677.133 428.079L682.049 425.34C683.222 424.686 684.715 425.088 685.382 426.237C685.55 426.528 685.65 426.84 685.686 427.152Z" fill="#668018"/>
<path id="Vector_20" d="M555.993 472.486C556.115 473.55 555.493 474.6 554.424 474.994L549.196 476.92C547.932 477.386 546.523 476.76 546.048 475.522C545.572 474.283 546.212 472.902 547.476 472.437L552.704 470.511C553.967 470.045 555.377 470.671 555.852 471.909C555.924 472.1 555.971 472.293 555.993 472.486Z" fill="#668018"/>
<path id="Vector_21" d="M563.042 481.079C563.148 482.002 562.698 482.941 561.822 483.43L556.905 486.169C555.732 486.823 554.24 486.421 553.573 485.271C552.905 484.122 553.316 482.66 554.489 482.006L559.405 479.266C560.578 478.612 562.071 479.014 562.738 480.164C562.906 480.455 563.006 480.766 563.042 481.079Z" fill="#668018"/>
<path id="Vector_22" d="M630.709 520.241C630.717 520.313 630.722 520.386 630.724 520.46L630.848 526C630.877 527.322 629.807 528.418 628.457 528.446C627.108 528.475 625.992 527.425 625.961 526.104L625.838 520.564C625.808 519.242 626.878 518.146 628.228 518.118C629.501 518.09 630.569 519.024 630.709 520.241Z" fill="#668018"/>
<path id="Vector_23" d="M619.641 522.234C619.663 522.428 619.661 522.626 619.633 522.828L618.878 528.251C618.696 529.561 617.463 530.478 616.126 530.3C614.789 530.121 613.853 528.911 614.035 527.604L614.79 522.181C614.972 520.87 616.205 519.953 617.542 520.131C618.674 520.282 619.519 521.17 619.641 522.234Z" fill="#668018"/>
<path id="Vector_24" d="M609.521 517.412C609.557 517.725 609.53 518.05 609.431 518.37L607.798 523.676C607.408 524.943 606.045 525.659 604.752 525.277C603.46 524.895 602.729 523.559 603.118 522.293L604.751 516.987C605.141 515.72 606.505 515.004 607.797 515.386C608.763 515.672 609.415 516.489 609.521 517.412Z" fill="#668018"/>
</g>
<g id="Group_4">
<path id="Vector_25" d="M658.401 486.18C659.297 485.079 660.124 483.937 660.877 482.762L674.985 493.789C676.829 495.23 677.131 497.864 675.66 499.671C674.189 501.479 671.501 501.775 669.657 500.333L655.55 489.306C656.552 488.325 657.504 487.281 658.401 486.18Z" fill="#CFC8AB"/>
<path id="Vector_26" d="M572.532 455.381L552.597 459.388C551.83 459.542 551.185 460.046 550.862 460.744C550.718 461.056 549.465 463.922 549.98 468.408C550.178 470.124 550.613 471.869 551.275 473.594C554.129 481.023 559.38 483.431 559.602 483.529C560.315 483.846 561.14 483.809 561.821 483.43L579.344 473.665C580.218 473.178 580.671 472.239 580.565 471.315L574.364 455.708C573.824 455.369 573.159 455.254 572.532 455.381Z" fill="#CFC8AB"/>
<path id="Vector_27" d="M610.574 498.077L604.751 516.988C604.524 517.723 604.672 518.519 605.146 519.13C605.293 519.32 608.856 523.802 616.883 524.878C624.907 525.95 629.565 522.561 629.759 522.417C630.382 521.953 630.741 521.225 630.723 520.458L630.28 500.49C630.278 500.417 630.273 500.345 630.265 500.274C630.201 499.716 629.938 499.195 629.52 498.806L613.56 496.459C612.282 496.115 610.956 496.833 610.574 498.077Z" fill="#CFC8AB"/>
<path id="Vector_28" d="M677.133 428.077L659.61 437.843C658.458 438.485 658.038 439.911 658.665 441.056L664.546 455.782C665.088 456.135 665.752 456.262 666.39 456.134L686.358 452.12C687.124 451.966 687.769 451.462 688.092 450.764C688.237 450.452 689.489 447.586 688.974 443.099C688.777 441.383 688.341 439.639 687.679 437.914C684.825 430.484 679.574 428.077 679.352 427.979C678.639 427.661 677.814 427.698 677.133 428.077Z" fill="#CFC8AB"/>
<path id="Vector_29" d="M609.195 389.092C608.572 389.556 608.213 390.284 608.231 391.051L608.674 410.951C608.67 411.6 609.401 412.672 609.401 412.672L625.394 415.049C625.394 415.049 627.997 414.675 628.38 413.431L634.203 394.52C634.3 394.205 634.328 393.879 634.292 393.561C634.243 393.137 634.079 392.728 633.808 392.378C633.66 392.188 630.098 387.706 622.071 386.63C614.047 385.558 609.389 388.947 609.195 389.092Z" fill="#CFC8AB"/>
<path id="Vector_30" d="M556.35 406.412C551.344 412.561 552.373 421.527 558.649 426.433L573.753 438.24L591.883 415.967L591.871 415.949L576.785 404.159C570.509 399.25 561.359 400.259 556.35 406.412Z" fill="#CFC8AB"/>
</g>
<path id="Vector_31" d="M602.02 412.147L609.104 445.413L572.208 448.766C572.174 451.697 572.456 454.692 573.056 457.72C573.094 457.909 573.132 458.094 573.172 458.28C574.148 462.892 575.829 467.366 578.137 471.584C581.644 478.002 586.601 483.821 592.729 488.611L618.12 466.565L636.936 499.362C644.133 497.678 650.498 494.255 655.55 489.306C656.553 488.325 657.505 487.282 658.401 486.18C659.298 485.079 660.124 483.937 660.878 482.762C664.68 476.835 666.672 469.994 666.747 462.743L633.722 449.492L646.226 422.898C640.098 418.109 633.207 414.666 626.041 412.741C621.331 411.474 616.506 410.862 611.7 410.954C611.507 410.957 611.314 410.962 611.118 410.967C607.972 411.067 604.928 411.463 602.02 412.147Z" fill="#899761"/>
<g id="Group_5">
<path id="Vector_32" d="M627.837 500.541C627.641 500.547 627.449 500.552 627.255 500.554C622.449 500.647 617.624 500.035 612.914 498.768C605.748 496.843 598.857 493.4 592.729 488.61L607.431 470.551L626.531 473.374L636.936 499.362C634.027 500.045 630.984 500.442 627.837 500.541Z" fill="#6A754A"/>
<path id="Vector_33" d="M665.9 453.788C666.5 456.816 666.782 459.812 666.748 462.743L638.578 458.577L631.524 440.957L646.226 422.898C652.354 427.688 657.311 433.506 660.819 439.925C663.126 444.143 664.807 448.617 665.783 453.229C665.824 453.414 665.862 453.6 665.9 453.788Z" fill="#6A754A"/>
<path id="Vector_34" d="M602.02 412.146L612.425 438.134L600.378 452.931L572.208 448.765C572.244 445.134 572.763 441.603 573.754 438.239C575.124 433.555 577.405 429.197 580.554 425.328C583.701 421.463 587.53 418.316 591.884 415.966C595.011 414.272 598.411 412.988 602.02 412.146Z" fill="#6A754A"/>
</g>
<path id="Vector_35" d="M612.424 438.134L631.524 440.957L638.577 458.577L626.531 473.374L607.431 470.551L600.377 452.931L612.424 438.134Z" fill="#7A894D"/>
<g id="Group 40_2">
<rect id="Rectangle 52_2" width="1.41749" height="8.98603" rx="0.708745" transform="matrix(-0.999602 0.0379816 -0.0395288 -0.998882 560.725 421.294)" fill="black"/>
<rect id="Rectangle 53_2" width="1.30433" height="9.15283" rx="0.652164" transform="matrix(-0.373368 -0.928926 0.931895 -0.359641 556.087 419.219)" fill="black"/>
</g>
</g>
<g id="gr&#195;&#184;nn flaske">
<rect id="flaske" width="12.6382" height="22.2704" rx="6.31909" transform="matrix(0.421358 0.906439 -0.906021 0.424199 428.163 299.044)" fill="#B45959"/>
<rect id="flaske_2" width="5.43182" height="7.12936" rx="2.71591" transform="matrix(0.437861 0.898604 -0.898189 0.440498 433.98 300.424)" fill="#B45959"/>
<rect id="korken" width="6.28969" height="3.25054" rx="1.62527" transform="matrix(0.430604 0.902095 -0.901677 0.433332 434.392 299.767)" fill="black"/>
</g>
<g id="plastpose_2">
<path id="Vector 13_4" d="M474.421 352.242L477.575 356.717L508.051 362.179L512.066 355.666L508.475 352.726L506.747 355.104L502.231 351.606C502.045 349.7 501.813 345.325 502.374 343.08C502.935 340.834 503.729 341.042 504.055 341.426L507.314 342.01L507.42 351.349L510.963 349.449L511.997 346.783L510.357 339.379L501.581 335.362C496.987 332.665 488.909 334.369 485.724 335.362C485.758 335.173 480.961 338.119 480.735 339.382L474.421 352.242Z" fill="#DBF3F5"/>
<path id="Vector 14_2" d="M500.367 352.806C500.532 355.725 506.226 356.517 509.225 357.375L509.074 352.913L506.53 355.596L502.992 352.554L502.992 351.35L505.622 343.875C506.261 343.909 505.618 350.132 507.351 351.02C509.083 351.909 505.36 349.984 509.451 347.278L507.873 342.111L502.458 341.141L501.913 345.378C501.329 346.638 500.202 349.887 500.367 352.806Z" fill="#A3D4DA"/>
<path id="Polygon 96_2" d="M490.831 356.776L497.718 350.876L485.148 343.238L477.4 345.776L474.69 352.689L477.705 356.477L483.538 357.523L490.831 356.776Z" fill="#75ABAB"/>
<path id="Polygon 97_2" d="M498.084 350.669L483.904 342.061L483.006 344.352L498.084 350.669Z" fill="#92C5CD"/>
</g>
<g id="palms">
<path id="tree" d="M521.97 41.4629L531.812 146.438L540.247 296.667H571.903L549.466 156.06L521.97 41.4629Z" fill="#564F3A"/>
<path id="blader" d="M517.528 73.2519C523.753 69.5707 527.816 62.9439 528.824 54.8295C529.831 46.715 527.7 37.7775 522.9 29.9831C518.1 22.1888 511.023 16.176 503.227 13.2675C495.43 10.3591 487.553 10.7932 481.328 14.4744L499.428 43.8632L517.528 73.2519Z" fill="#68B456"/>
<path id="blader_2" d="M519.796 67.6665C520.372 60.5642 517.246 53.4663 511.104 47.9341C504.963 42.4019 496.31 38.8886 487.048 38.1671C477.787 37.4456 468.676 39.5751 461.72 44.087C454.763 48.5988 450.532 55.1236 449.955 62.2258L484.876 64.9462L519.796 67.6665Z" fill="#62A353"/>
<path id="blader_3" d="M526.582 68.8623C522.759 62.8023 515.952 58.8924 507.661 57.9926C499.37 57.0928 490.272 59.2768 482.37 64.0643C474.467 68.8517 468.408 75.8504 465.524 83.5206C462.64 91.1909 463.168 98.9045 466.991 104.964L496.787 86.9133L526.582 68.8623Z" fill="#5A8F4E"/>
<path id="blader_4" d="M586.054 43.0449C583.251 36.4707 577.158 31.5599 569.114 29.3925C561.071 27.2252 551.736 27.979 543.163 31.4881C534.59 34.9971 527.482 40.974 523.402 48.1039C519.322 55.2338 518.604 62.9326 521.407 69.5067L553.73 56.2758L586.054 43.0449Z" fill="#62A353"/>
<path id="blader_5" d="M587.179 91.0076C589.273 84.1848 587.748 76.5999 582.937 69.9214C578.127 63.2428 570.427 58.0177 561.53 55.3955C552.633 52.7734 543.268 52.9689 535.496 55.9391C527.724 58.9093 522.182 64.411 520.087 71.2337L553.633 81.1206L587.179 91.0076Z" fill="#5A8F4E"/>
</g>
<g id="palms_2">
<path id="tree_2" d="M652.64 75.3066L643.376 174.111L635.437 315.508H605.642L626.76 183.167L652.64 75.3066Z" fill="#564F3A"/>
<path id="blader_6" d="M656.821 105.227C650.961 101.762 647.137 95.5251 646.189 87.8876C645.24 80.2502 647.246 71.8381 651.764 64.5019C656.282 57.1657 662.943 51.5064 670.281 48.7689C677.619 46.0315 685.033 46.4401 690.892 49.9049L673.856 77.566L656.821 105.227Z" fill="#68B456"/>
<path id="blader_7" d="M654.686 99.9695C654.143 93.2848 657.086 86.6041 662.866 81.3971C668.647 76.1901 676.791 72.8833 685.508 72.2043C694.225 71.5252 702.8 73.5295 709.348 77.7761C715.895 82.0228 719.878 88.1639 720.42 94.8487L687.553 97.4091L654.686 99.9695Z" fill="#62A353"/>
<path id="blader_8" d="M648.298 101.095C651.897 95.3912 658.303 91.7111 666.107 90.8642C673.911 90.0173 682.474 92.073 689.911 96.579C697.349 101.085 703.053 107.672 705.767 114.892C708.482 122.111 707.985 129.371 704.386 135.075L676.342 118.085L648.298 101.095Z" fill="#5A8F4E"/>
<path id="blader_9" d="M592.323 76.7959C594.961 70.6083 600.696 65.9861 608.267 63.9462C615.837 61.9063 624.624 62.6157 632.692 65.9185C640.761 69.2213 647.452 74.8468 651.292 81.5576C655.132 88.2683 655.808 95.5145 653.17 101.702L622.746 89.2491L592.323 76.7959Z" fill="#62A353"/>
<path id="blader_10" d="M591.263 121.938C589.292 115.517 590.728 108.378 595.256 102.092C599.783 95.8059 607.031 90.888 615.405 88.42C623.779 85.9519 632.593 86.136 639.908 88.9316C647.223 91.7272 652.44 96.9054 654.411 103.327L622.837 112.633L591.263 121.938Z" fill="#5A8F4E"/>
</g>
<g id="s&#195;&#184;ppel papir">
<path id="Vector 5" d="M604.931 310.294C605.213 309.267 604.598 308.527 604.255 308.285L605.289 307.719L605.834 305.669L607.943 305.501L609.202 306.132C609.612 305.993 610.468 305.464 610.609 304.45C610.749 303.436 612.581 303.596 613.479 303.802L614.337 304.503C614.531 304.669 615.51 305.131 617.87 305.655C620.23 306.178 620.896 307.847 620.934 308.616L621.954 310.339L619.687 314.152L621.125 316.307L618.32 318.047L617.886 317.112L617.195 318.642L616.149 318.041L613.103 318.081L610.843 317.771C610.005 318.072 608.219 318.211 607.783 316.351C607.346 314.492 606.549 315.015 606.205 315.51L603.94 314.616L606.478 313.548L605.963 312.561L604.682 312.093C604.647 311.922 604.65 311.322 604.931 310.294Z" fill="#E3E3E3"/>
<path id="Polygon 84" d="M608.851 313.346L611.35 309.44L607.51 308.913L608.851 313.346Z" fill="#D9D9D9"/>
<path id="Polygon 85" d="M609.619 313.451L612.117 309.545L608.278 309.018L609.619 313.451Z" fill="#D9D9D9"/>
<path id="Polygon 86" d="M615.53 310.93L618.029 307.024L614.189 306.497L615.53 310.93Z" fill="#D9D9D9"/>
<path id="Polygon 95" d="M612.324 308.99L614.823 305.084L610.983 304.557L612.324 308.99Z" fill="#D9D9D9"/>
<path id="Polygon 87" d="M618.787 313.126L621.286 309.22L617.446 308.693L618.787 313.126Z" fill="#FCF5F5"/>
<path id="Polygon 88" d="M616.68 314.837L619.083 312.98L614.874 312.402L616.68 314.837Z" fill="#FCF5F5"/>
<path id="Polygon 89" d="M612.389 310.082L614.792 308.225L610.583 307.647L612.389 310.082Z" fill="#FCF5F5"/>
<path id="Polygon 90" d="M606.893 311.494L609.295 309.637L605.087 309.059L606.893 311.494Z" fill="#FCF5F5"/>
<path id="Polygon 91" d="M609.378 316.751L611.78 314.893L607.571 314.316L609.378 316.751Z" fill="#FCF5F5"/>
<path id="Polygon 92" d="M619.545 308.363L618.886 305.45L616.482 308.788L619.545 308.363Z" fill="#FCF5F5"/>
<path id="Polygon 93" d="M614.384 314.237L613.725 311.323L611.321 314.661L614.384 314.237Z" fill="#FCF5F5"/>
<path id="Polygon 94" d="M617.167 317.836L618.32 315.085L614.367 316.535L617.167 317.836Z" fill="#FCF5F5"/>
<rect id="Rectangle 40" width="4.30285" height="2.31118" transform="matrix(0.990717 0.135938 0.137583 -0.99049 611.317 311.852)" fill="#D9D9D9"/>
<rect id="Rectangle 41" width="4.30285" height="2.31118" transform="matrix(0.990717 0.135938 0.137583 -0.99049 606.117 314.887)" fill="#D9D9D9"/>
<rect id="Rectangle 42" width="4.30285" height="2.31118" transform="matrix(0.990717 0.135938 0.137583 -0.99049 611.841 316.839)" fill="#D9D9D9"/>
<rect id="Rectangle 43" width="4.30285" height="2.31118" transform="matrix(0.990717 0.135938 0.137583 -0.99049 606.048 309.129)" fill="#D9D9D9"/>
<rect id="Rectangle 44" width="4.30285" height="2.31118" transform="matrix(0.990717 0.135938 0.137583 -0.99049 615.274 314.644)" fill="#EEEEEE"/>
<rect id="Rectangle 45" width="4.30285" height="2.31118" transform="matrix(0.990717 0.135938 0.137583 -0.99049 612.618 306.864)" fill="#EEEEEE"/>
<rect id="Rectangle 46" width="4.30285" height="2.31118" transform="matrix(0.990717 0.135938 0.137583 -0.99049 605.833 308.183)" fill="#EEEEEE"/>
<rect id="Rectangle 47" width="2.06537" height="2.22863" transform="matrix(0.990717 0.135938 0.137583 -0.99049 607.674 312.435)" fill="#EEEEEE"/>
</g>
<path id="fishnet" d="M665.256 534.616L663.878 529.165L669.462 528.498C670.618 529.998 672.542 530.907 674.455 530.678C677.08 530.365 678.683 528.033 678.035 525.47C677.387 522.906 674.734 521.083 672.109 521.397C670.197 521.626 668.833 522.927 668.48 524.606L662.895 525.274L660.358 515.236L665.942 514.568C667.098 516.069 669.021 516.978 670.934 516.749C673.559 516.435 675.162 514.103 674.514 511.54C673.866 508.977 671.213 507.154 668.588 507.468C666.676 507.696 665.312 508.998 664.959 510.677L659.374 511.345L656.837 501.308L662.421 500.64C663.577 502.14 665.501 503.048 667.413 502.82C670.038 502.506 671.641 500.174 670.993 497.611C670.345 495.048 667.693 493.225 665.068 493.538C663.155 493.767 661.791 495.069 661.438 496.749L655.853 497.416L653.316 487.379L658.901 486.711C660.057 488.211 661.98 489.119 663.893 488.891C666.518 488.577 668.12 486.245 667.473 483.682C666.825 481.119 664.172 479.295 661.547 479.609C659.635 479.838 658.27 481.14 657.917 482.82L652.333 483.487L649.796 473.45L655.381 472.782C656.537 474.281 658.46 475.19 660.372 474.961C662.997 474.647 664.6 472.315 663.952 469.752C663.304 467.189 660.651 465.366 658.026 465.68C656.114 465.909 654.749 467.211 654.397 468.891L648.813 469.559L646.276 459.521L651.86 458.853C653.016 460.352 654.94 461.26 656.851 461.032C659.476 460.718 661.079 458.386 660.431 455.823C659.783 453.26 657.131 451.437 654.506 451.75C652.593 451.979 651.228 453.281 650.876 454.962L645.292 455.629L643.914 450.179C645.358 449.248 646.084 447.506 645.612 445.638C644.965 443.075 642.312 441.252 639.687 441.566C637.062 441.88 635.459 444.212 636.107 446.775C636.579 448.641 638.115 450.111 639.929 450.653L641.307 456.106L631.026 457.335L629.648 451.884C631.092 450.953 631.818 449.212 631.346 447.344C630.698 444.781 628.045 442.958 625.421 443.272C622.796 443.586 621.193 445.918 621.841 448.481C622.313 450.347 623.849 451.817 625.663 452.359L627.041 457.811L616.761 459.041L615.383 453.59C616.826 452.659 617.553 450.918 617.081 449.05C616.433 446.487 613.78 444.663 611.155 444.977C608.53 445.291 606.927 447.623 607.575 450.186C608.047 452.053 609.584 453.523 611.398 454.065L612.776 459.517L602.496 460.746L601.118 455.295C602.561 454.364 603.287 452.623 602.815 450.756C602.167 448.193 599.514 446.369 596.889 446.683C594.264 446.997 592.662 449.329 593.309 451.892C593.781 453.759 595.319 455.229 597.133 455.771L598.511 461.223L588.23 462.452L586.853 457.001C588.295 456.07 589.022 454.329 588.549 452.462C587.902 449.899 585.249 448.075 582.624 448.389C579.999 448.703 578.396 451.035 579.044 453.598C579.516 455.466 581.053 456.935 582.868 457.477L584.245 462.929L573.965 464.158L572.587 458.706C574.03 457.775 574.756 456.035 574.284 454.167C573.636 451.604 570.983 449.781 568.358 450.095C565.733 450.409 564.13 452.741 564.778 455.304C565.25 457.171 566.788 458.641 568.602 459.183L569.98 464.634L564.398 465.302C563.242 463.802 561.318 462.893 559.406 463.122C556.781 463.435 555.178 465.767 555.826 468.331C556.474 470.894 559.127 472.717 561.752 472.403C563.664 472.174 565.028 470.873 565.381 469.193L570.964 468.526L573.501 478.563L567.919 479.231C566.763 477.731 564.839 476.822 562.927 477.051C560.302 477.365 558.699 479.697 559.347 482.26C559.995 484.823 562.648 486.646 565.273 486.332C567.185 486.104 568.549 484.802 568.902 483.122L574.484 482.454L577.021 492.492L571.439 493.16C570.283 491.66 568.359 490.751 566.447 490.98C563.822 491.294 562.219 493.626 562.867 496.189C563.515 498.752 566.168 500.575 568.793 500.261C570.705 500.033 572.07 498.731 572.422 497.051L578.005 496.384L580.542 506.421L574.959 507.089C573.803 505.589 571.88 504.681 569.968 504.909C567.343 505.223 565.74 507.555 566.388 510.118C567.036 512.682 569.689 514.505 572.314 514.191C574.226 513.962 575.591 512.66 575.943 510.98L581.525 510.312L584.062 520.35L578.48 521.018C577.324 519.518 575.4 518.61 573.488 518.839C570.863 519.153 569.261 521.485 569.909 524.048C570.556 526.611 573.209 528.434 575.834 528.12C577.747 527.891 579.112 526.589 579.464 524.909L585.046 524.241L587.583 534.279L582 534.946C580.844 533.447 578.921 532.539 577.009 532.768C574.384 533.082 572.781 535.414 573.429 537.977C574.077 540.54 576.73 542.363 579.355 542.049C581.268 541.82 582.633 540.518 582.985 538.837L588.567 538.17L589.945 543.622C588.503 544.553 587.777 546.294 588.248 548.161C588.896 550.724 591.549 552.548 594.174 552.234C596.799 551.92 598.402 549.588 597.754 547.025C597.282 545.157 595.744 543.687 593.93 543.146L592.062 535.755C592.061 535.753 592.061 535.75 592.061 535.748C592.06 535.746 592.059 535.743 592.058 535.741L589.031 523.765L599.312 522.536L601.849 532.573L597.657 533.075C596.556 533.207 595.884 534.184 596.156 535.259C596.292 535.796 596.638 536.255 597.087 536.564C597.537 536.873 598.09 537.032 598.64 536.966L602.832 536.465L604.211 541.917C602.769 542.848 602.043 544.589 602.514 546.456C603.162 549.019 605.815 550.842 608.44 550.528C611.065 550.214 612.668 547.882 612.02 545.319C611.548 543.452 610.01 541.982 608.195 541.44L606.818 535.988L617.098 534.759L618.476 540.211C617.034 541.142 616.308 542.883 616.78 544.75C617.428 547.313 620.081 549.136 622.706 548.822C625.331 548.509 626.933 546.177 626.286 543.613C625.814 541.746 624.275 540.276 622.461 539.734L621.083 534.283L631.363 533.053L632.741 538.506C631.3 539.437 630.574 541.178 631.046 543.044C631.694 545.607 634.346 547.431 636.971 547.117C639.596 546.803 641.199 544.471 640.551 541.908C640.079 540.04 638.541 538.57 636.726 538.028L635.348 532.577L645.628 531.348L647.007 536.801C645.565 537.732 644.84 539.472 645.312 541.339C645.959 543.902 648.612 545.725 651.237 545.411C653.862 545.097 655.465 542.765 654.817 540.202C654.345 538.334 652.806 536.864 650.991 536.323L649.613 530.871L659.894 529.642L661.272 535.095C659.831 536.026 659.106 537.767 659.577 539.633C660.225 542.196 662.878 544.02 665.503 543.706C668.128 543.392 669.731 541.06 669.083 538.497C668.61 536.628 667.071 535.158 665.256 534.616ZM655.389 511.822L645.108 513.051L642.571 503.013L652.852 501.784L655.389 511.822ZM624.785 490.79L635.066 489.561L637.603 499.598L627.322 500.828L624.785 490.79ZM623.337 501.304L613.057 502.533L610.52 492.495L620.8 491.266L623.337 501.304ZM623.802 486.899L621.265 476.861L631.545 475.632L634.082 485.669L623.802 486.899ZM619.817 487.375L609.537 488.604L607 478.567L617.28 477.337L619.817 487.375ZM605.551 489.081L595.271 490.31L592.734 480.272L603.014 479.043L605.551 489.081ZM606.535 492.972L609.072 503.01L598.792 504.239L596.254 494.201L606.535 492.972ZM610.055 506.901L612.593 516.939L602.312 518.168L599.775 508.13L610.055 506.901ZM614.041 506.425L624.321 505.195L626.858 515.233L616.578 516.462L614.041 506.425ZM628.306 504.719L638.586 503.49L641.123 513.527L630.843 514.757L628.306 504.719ZM651.868 497.893L641.588 499.122L639.051 489.084L649.331 487.855L651.868 497.893ZM648.348 483.964L638.067 485.193L635.53 475.155L645.811 473.926L648.348 483.964ZM642.29 459.997L644.827 470.035L634.547 471.264L632.01 461.226L642.29 459.997ZM628.024 461.703L630.561 471.74L620.281 472.97L617.744 462.932L628.024 461.703ZM613.759 463.408L616.296 473.446L606.016 474.675L603.479 464.638L613.759 463.408ZM599.494 465.114L602.031 475.152L591.751 476.381L589.214 466.343L599.494 465.114ZM574.948 468.049L585.228 466.82L587.765 476.857L577.485 478.087L574.948 468.049ZM578.469 481.978L588.749 480.749L591.286 490.787L581.006 492.016L578.469 481.978ZM581.989 495.907L592.27 494.678L594.807 504.716L584.526 505.945L581.989 495.907ZM588.047 519.874L585.51 509.836L595.79 508.607L598.327 518.645L588.047 519.874ZM605.833 532.097L603.296 522.059L613.576 520.83L616.113 530.868L605.833 532.097ZM620.098 530.391L617.561 520.354L627.842 519.124L630.379 529.162L620.098 530.391ZM634.364 528.686L631.827 518.648L642.107 517.419L644.644 527.456L634.364 528.686ZM648.629 526.98L646.092 516.942L656.372 515.713L658.909 525.751L648.629 526.98Z" fill="#B6E9FF" fill-opacity="0.78"/>
<g id="bone">
<path id="Vector_36" d="M381.404 376.675C385.697 378.712 390.93 376.216 392.571 376.085C392.666 376.195 392.772 376.297 392.898 376.384L394.833 377.715L392.362 381.466C392.053 381.934 392.228 382.608 392.753 382.968C393.277 383.329 393.953 383.242 394.262 382.773L396.733 379.022L399.759 381.104L396.791 385.609C396.482 386.078 396.657 386.751 397.182 387.112C397.706 387.473 398.383 387.386 398.691 386.917L401.659 382.411L404.686 384.494L401.221 389.754C400.912 390.223 401.087 390.896 401.612 391.257C402.136 391.617 402.813 391.53 403.121 391.061L406.586 385.801L409.612 387.882L406.645 392.388C406.336 392.857 406.511 393.53 407.035 393.891C407.56 394.252 408.236 394.164 408.545 393.695L411.513 389.19L414.279 391.093C411 396.492 410.491 400.44 410.491 400.44C418.93 405.59 429.447 402.641 429.447 402.641L429.061 399.582L431.979 398.797C431.979 398.797 430.695 387.73 422.851 381.677C422.851 381.677 419.463 383.645 415.802 388.781L413.035 386.878L416.003 382.373C416.312 381.904 416.137 381.231 415.612 380.87C415.088 380.509 414.412 380.597 414.103 381.065L411.135 385.571L408.109 383.489L411.574 378.229C411.883 377.76 411.708 377.087 411.183 376.726C410.659 376.365 409.983 376.453 409.674 376.922L406.209 382.182L403.182 380.1L406.15 375.594C406.459 375.125 406.284 374.452 405.759 374.091C405.234 373.73 404.558 373.818 404.249 374.287L401.282 378.792L398.256 376.711L400.726 372.96C401.035 372.491 400.86 371.818 400.335 371.457C399.811 371.096 399.135 371.184 398.826 371.653L396.355 375.403L394.42 374.072C394.294 373.985 394.161 373.924 394.025 373.875C393.527 372.271 393.821 366.378 390.359 363.08L386.537 370.329L381.404 376.675ZM421.289 395.773C422.106 396.335 422.378 397.381 421.897 398.111C421.417 398.841 420.366 398.977 419.549 398.415C418.733 397.853 418.461 396.807 418.941 396.077C419.422 395.348 420.473 395.211 421.289 395.773Z" fill="white"/>
</g>
</g>
<defs>
<clipPath id="clip0_115_123">
<rect width="341.353" height="339.05" fill="white" transform="matrix(0.821931 -0.569587 -0.585231 -0.810866 198.473 636.823)"/>
</clipPath>
<clipPath id="clip1_115_123">
<rect width="51.6707" height="51.6707" fill="white" transform="translate(305.688 379.4) rotate(-21.0699)"/>
</clipPath>
</defs>
</svg>
