<svg width="241" height="222" viewBox="0 0 241 222" fill="none" xmlns="http://www.w3.org/2000/svg">
<g id="big_garbage">
<g id="bag-two">
<g id="plastpose">
<path id="Vector 13" d="M185.655 53.6762L191.452 56.1732L224.69 43.1797L224.713 34.3602L219.412 33.634L219.146 37.012L212.601 36.2964C211.269 34.5346 208.406 30.3751 207.605 27.8308C206.803 25.2866 207.708 25.0122 208.26 25.1931L211.814 23.8038L217.545 32.9165L219.883 28.9154L219.293 25.6726L213.22 19.3846L202.176 20.725C196.036 20.8429 189.125 27.3842 186.594 30.2789C186.513 30.0724 183.574 35.8579 184.112 37.235L185.655 53.6762Z" fill="#DBF3F5"/>
<path id="Vector 14" d="M211.494 38.5968C213.415 41.3664 219.488 38.7129 222.952 37.7498L220.116 33.4556L219.232 37.6254L213.922 36.7678L213.197 35.5842L211.277 26.6538C211.926 26.3026 215.044 32.8045 217.281 32.6338C219.519 32.4632 214.701 32.815 217.09 27.6912L212.427 23.5644L206.52 25.8731L208.538 30.3648C208.723 31.9549 209.574 35.8273 211.494 38.5968Z" fill="#A3D4DA"/>
<path id="Polygon 96" d="M205.258 43.2329L208.471 33.2859L191.516 33.3535L185.431 40.5162L186.934 48.9419L192.179 50.8474L198.54 48.3609L205.258 43.2329Z" fill="#C8ECEC"/>
<path id="Polygon 97" d="M200.189 33.1063L191.139 33.727L186.092 40.4634L189.509 40.6549L200.189 33.1063Z" fill="#AFDAE1"/>
</g>
</g>
<g class="bottle-plastic">
<path id="Vector 20" d="M46.5882 118.248C50.0888 118.112 53.0772 119.528 55.9376 121.332C55.8188 123.875 55.6078 129.14 55.7147 129.863C55.8215 130.587 52.9281 135.254 51.4681 137.497L35.6298 133.132L33.2814 129.776L28.7347 127.845L17.1925 127.479L16.5414 126.834C15.6288 125.672 13.4907 122.988 12.2397 121.542C10.9888 120.097 10.8504 120.08 10.9375 120.252L9.51284 120.643L8.83418 113.535C9.95467 112.757 12.376 110.918 13.0973 109.779C13.8186 108.64 15.4681 108.267 16.2027 108.222L18.9296 109.122L21.267 109.893L24.773 111.05C26.3312 111.564 31.6846 120.214 32.4582 119.179C33.0771 118.35 36.1702 117.965 37.6394 117.876C39.4555 118.045 43.7878 118.356 46.5882 118.248Z" fill="#E1F6F7" stroke="#E1F6F7"/>
<path id="Rectangle 59" d="M9.12892 112.972L4.53223 113.394L3.10297 117.728L5.26018 121.326L9.85687 120.904L9.12892 112.972Z" fill="#4474AF"/>
<path id="Vector 13_2" d="M39.585 126.97L44.5958 118.849L39.5738 117.752L35.4379 118.434L32.9965 121.248C33.123 120.179 30.2879 117.525 26.9778 113.596C21.7145 107.347 24.4004 114.225 25.9622 116.674C27.2117 118.633 29.4736 121.485 30.4484 122.666L32.7848 124.726L39.585 126.97Z" fill="#A4D5DB"/>
<path id="Vector 21" d="M55.6316 121.513L51.3635 122.465C51.213 122.961 50.707 125.355 49.8587 131.007L50.3667 136.229L55.7052 129.132L55.6316 121.513Z" fill="#A4D5DB"/>
<path id="Vector 23" d="M47.5738 129.507C47.5738 129.507 50.7258 128.922 49.4265 130.193C48.1271 131.464 49.5344 131.788 49.5798 134.109C49.5798 134.109 49.699 136.292 49.0343 136.415C48.3696 136.539 47.2214 133.833 47.0768 132.913C46.9322 131.994 47.5738 129.507 47.5738 129.507Z" fill="#C3E7EC"/>
<path id="Vector 22" d="M32.4935 123.5C31.8224 124.191 32.9753 122.823 35.7303 125.016L38.4506 125.728L36.067 122.655C35.4809 121.719 33.0303 122.947 32.4935 123.5Z" fill="#C3E7EC"/>
</g>
<g class="paperball">
<path id="Vector 5" d="M72.3899 64.0987C72.0765 62.9225 72.7406 62.0814 73.1118 61.8078L71.9833 61.1538L71.3763 58.8082L69.0825 58.6009L67.7179 59.3133C67.271 59.1527 66.3372 58.5417 66.1772 57.3824C66.0171 56.2232 64.0271 56.3931 63.0521 56.623L62.1236 57.4181C61.9136 57.6059 60.8529 58.127 58.2906 58.7094C55.7283 59.2918 55.0156 61.194 54.9795 62.0722L53.8818 64.0339L56.373 68.4058L54.8239 70.8585L57.8853 72.8653L58.3518 71.8005L59.1129 73.5532L60.2459 72.8728L63.5586 72.9395L66.0129 72.6006C66.9265 72.9509 68.8691 73.1209 69.3312 70.9993C69.7934 68.8777 70.6633 69.4816 71.0405 70.0488L73.4972 69.0428L70.7307 67.8051L71.2834 66.6808L72.6738 66.1554C72.7098 65.9599 72.7033 65.2749 72.3899 64.0987Z" fill="#E3E3E3"/>
<path id="Polygon 84" d="M68.1476 67.5597L65.4039 63.0798L69.5748 62.504L68.1476 67.5597Z" fill="#D9D9D9"/>
<path id="Polygon 86" d="M60.8712 64.7536L58.1275 60.2736L62.2984 59.6978L60.8712 64.7536Z" fill="#D9D9D9"/>
<path id="Polygon 95" d="M64.3429 62.559L61.5992 58.079L65.7701 57.5032L64.3429 62.559Z" fill="#D9D9D9"/>
<path id="Polygon 87" d="M57.3439 67.2411L54.6002 62.7612L58.7711 62.1854L57.3439 67.2411Z" fill="#FCF5F5"/>
<path id="Polygon 89" d="M64.2793 63.8066L61.6546 61.6681L66.2265 61.0369L64.2793 63.8066Z" fill="#FCF5F5"/>
<path id="Polygon 90" d="M70.2657 65.4572L67.6409 63.3187L72.2128 62.6875L70.2657 65.4572Z" fill="#FCF5F5"/>
<path id="Polygon 91" d="M67.5996 71.4457L64.9749 69.3072L69.5468 68.6761L67.5996 71.4457Z" fill="#FCF5F5"/>
<rect id="Rectangle 40" x="65.4561" y="65.8352" width="4.67483" height="2.64249" transform="rotate(172.14 65.4561 65.8352)" fill="#D9D9D9"/>
<rect id="Rectangle 41" x="71.1318" y="69.3394" width="4.67483" height="2.64249" transform="rotate(172.14 71.1318 69.3394)" fill="#D9D9D9"/>
<rect id="Rectangle 42" x="64.9219" y="71.53" width="4.67483" height="2.64249" transform="rotate(172.14 64.9219 71.53)" fill="#D9D9D9"/>
<rect id="Rectangle 45" x="64.0078" y="60.1282" width="4.67483" height="2.64249" transform="rotate(172.14 64.0078 60.1282)" fill="#EEEEEE"/>
<rect id="Rectangle 47" x="69.4219" y="66.5266" width="2.24392" height="2.54811" transform="rotate(172.14 69.4219 66.5266)" fill="#EEEEEE"/>
</g>
<g class="paperball_2">
<path id="Vector 5_2" d="M25.3899 167.099C25.0765 165.923 25.7406 165.082 26.1118 164.808L24.9833 164.154L24.3763 161.808L22.0825 161.601L20.7179 162.314C20.271 162.153 19.3372 161.542 19.1772 160.383C19.0171 159.223 17.0271 159.393 16.0521 159.623L15.1236 160.418C14.9136 160.606 13.8529 161.127 11.2906 161.71C8.72826 162.292 8.01557 164.194 7.97952 165.072L6.88177 167.034L9.37301 171.406L7.82395 173.859L10.8853 175.866L11.3518 174.801L12.1129 176.553L13.2459 175.873L16.5586 175.94L19.0129 175.601C19.9265 175.951 21.8691 176.121 22.3312 174C22.7934 171.878 23.6633 172.482 24.0405 173.049L26.4972 172.043L23.7307 170.805L24.2834 169.681L25.6738 169.156C25.7098 168.96 25.7033 168.275 25.3899 167.099Z" fill="#E3E3E3"/>
<path id="Polygon 84_2" d="M21.1476 170.56L18.4039 166.08L22.5748 165.504L21.1476 170.56Z" fill="#D9D9D9"/>
<path id="Polygon 86_2" d="M13.8712 167.754L11.1275 163.274L15.2984 162.698L13.8712 167.754Z" fill="#D9D9D9"/>
<path id="Polygon 95_2" d="M17.3429 165.559L14.5992 161.079L18.7701 160.503L17.3429 165.559Z" fill="#D9D9D9"/>
<path id="Polygon 87_2" d="M10.3439 170.241L7.60019 165.761L11.7711 165.186L10.3439 170.241Z" fill="#FCF5F5"/>
<path id="Polygon 89_2" d="M17.2793 166.807L14.6546 164.668L19.2265 164.037L17.2793 166.807Z" fill="#FCF5F5"/>
<path id="Polygon 90_2" d="M23.2657 168.457L20.6409 166.319L25.2128 165.688L23.2657 168.457Z" fill="#FCF5F5"/>
<path id="Polygon 91_2" d="M20.5996 174.446L17.9749 172.307L22.5468 171.676L20.5996 174.446Z" fill="#FCF5F5"/>
<rect id="Rectangle 40_2" x="18.4561" y="168.835" width="4.67483" height="2.64249" transform="rotate(172.14 18.4561 168.835)" fill="#D9D9D9"/>
<rect id="Rectangle 41_2" x="24.1318" y="172.34" width="4.67483" height="2.64249" transform="rotate(172.14 24.1318 172.34)" fill="#D9D9D9"/>
<rect id="Rectangle 42_2" x="17.9219" y="174.53" width="4.67483" height="2.64249" transform="rotate(172.14 17.9219 174.53)" fill="#D9D9D9"/>
<rect id="Rectangle 44" x="14.1738" y="171.999" width="4.67483" height="2.64249" transform="rotate(172.14 14.1738 171.999)" fill="#EEEEEE"/>
<rect id="Rectangle 45_2" x="17.0078" y="163.128" width="4.67483" height="2.64249" transform="rotate(172.14 17.0078 163.128)" fill="#EEEEEE"/>
<rect id="Rectangle 47_2" x="22.4219" y="169.527" width="2.24392" height="2.54811" transform="rotate(172.14 22.4219 169.527)" fill="#EEEEEE"/>
</g>
<rect id="Rectangle 44_2" x="61.1738" y="68.9988" width="4.67483" height="2.64249" transform="rotate(172.14 61.1738 68.9988)" fill="#EEEEEE"/>
<g class="paperball_3">
<path id="Vector 5_3" d="M238.39 172.099C238.076 170.923 238.741 170.082 239.112 169.808L237.983 169.154L237.376 166.808L235.083 166.601L233.718 167.314C233.271 167.153 232.337 166.542 232.177 165.383C232.017 164.223 230.027 164.393 229.052 164.623L228.124 165.418C227.914 165.606 226.853 166.127 224.291 166.71C221.728 167.292 221.016 169.194 220.98 170.072L219.882 172.034L222.373 176.406L220.824 178.859L223.885 180.866L224.352 179.801L225.113 181.553L226.246 180.873L229.559 180.94L232.013 180.601C232.926 180.951 234.869 181.121 235.331 179C235.793 176.878 236.663 177.482 237.041 178.049L239.497 177.043L236.731 175.805L237.283 174.681L238.674 174.156C238.71 173.96 238.703 173.275 238.39 172.099Z" fill="#E3E3E3"/>
<path id="Polygon 84_3" d="M234.148 175.56L231.404 171.08L235.575 170.504L234.148 175.56Z" fill="#D9D9D9"/>
<path id="Polygon 86_3" d="M226.871 172.754L224.128 168.274L228.298 167.698L226.871 172.754Z" fill="#D9D9D9"/>
<path id="Polygon 95_3" d="M230.343 170.559L227.599 166.079L231.77 165.503L230.343 170.559Z" fill="#D9D9D9"/>
<path id="Polygon 87_3" d="M223.344 175.241L220.6 170.761L224.771 170.186L223.344 175.241Z" fill="#FCF5F5"/>
<path id="Polygon 89_3" d="M230.279 171.807L227.655 169.668L232.227 169.037L230.279 171.807Z" fill="#FCF5F5"/>
<path id="Polygon 90_3" d="M236.266 173.457L233.641 171.319L238.213 170.688L236.266 173.457Z" fill="#FCF5F5"/>
<path id="Polygon 91_3" d="M233.6 179.446L230.975 177.307L235.547 176.676L233.6 179.446Z" fill="#FCF5F5"/>
<rect id="Rectangle 40_3" x="231.456" y="173.835" width="4.67483" height="2.64249" transform="rotate(172.14 231.456 173.835)" fill="#D9D9D9"/>
<rect id="Rectangle 41_3" x="237.132" y="177.34" width="4.67483" height="2.64249" transform="rotate(172.14 237.132 177.34)" fill="#D9D9D9"/>
<rect id="Rectangle 42_3" x="230.922" y="179.53" width="4.67483" height="2.64249" transform="rotate(172.14 230.922 179.53)" fill="#D9D9D9"/>
<rect id="Rectangle 44_3" x="227.174" y="176.999" width="4.67483" height="2.64249" transform="rotate(172.14 227.174 176.999)" fill="#EEEEEE"/>
<rect id="Rectangle 45_3" x="230.008" y="168.128" width="4.67483" height="2.64249" transform="rotate(172.14 230.008 168.128)" fill="#EEEEEE"/>
<rect id="Rectangle 47_3" x="235.422" y="174.527" width="2.24392" height="2.54811" transform="rotate(172.14 235.422 174.527)" fill="#EEEEEE"/>
</g>
<g id="paperball_4">
<path id="Vector 5_4" d="M116.39 211.099C116.076 209.923 116.741 209.082 117.112 208.808L115.983 208.154L115.376 205.808L113.083 205.601L111.718 206.314C111.271 206.153 110.337 205.542 110.177 204.383C110.017 203.223 108.027 203.393 107.052 203.623L106.124 204.418C105.914 204.606 104.853 205.127 102.291 205.71C99.7283 206.292 99.0156 208.194 98.9795 209.072L97.8818 211.034L100.373 215.406L98.8239 217.859L101.885 219.866L102.352 218.801L103.113 220.553L104.246 219.873L107.559 219.94L110.013 219.601C110.926 219.951 112.869 220.121 113.331 218C113.793 215.878 114.663 216.482 115.041 217.049L117.497 216.043L114.731 214.805L115.283 213.681L116.674 213.156C116.71 212.96 116.703 212.275 116.39 211.099Z" fill="#E3E3E3"/>
<path id="Polygon 84_4" d="M112.148 214.56L109.404 210.08L113.575 209.504L112.148 214.56Z" fill="#D9D9D9"/>
<path id="Polygon 86_4" d="M104.871 211.754L102.128 207.274L106.298 206.698L104.871 211.754Z" fill="#D9D9D9"/>
<path id="Polygon 95_4" d="M108.343 209.559L105.599 205.079L109.77 204.503L108.343 209.559Z" fill="#D9D9D9"/>
<path id="Polygon 87_4" d="M101.344 214.241L98.6002 209.761L102.771 209.186L101.344 214.241Z" fill="#FCF5F5"/>
<path id="Polygon 89_4" d="M108.279 210.807L105.655 208.668L110.227 208.037L108.279 210.807Z" fill="#FCF5F5"/>
<path id="Polygon 90_4" d="M114.266 212.457L111.641 210.319L116.213 209.688L114.266 212.457Z" fill="#FCF5F5"/>
<path id="Polygon 91_4" d="M111.6 218.446L108.975 216.307L113.547 215.676L111.6 218.446Z" fill="#FCF5F5"/>
<rect id="Rectangle 40_4" x="109.456" y="212.835" width="4.67483" height="2.64249" transform="rotate(172.14 109.456 212.835)" fill="#D9D9D9"/>
<rect id="Rectangle 41_4" x="115.132" y="216.34" width="4.67483" height="2.64249" transform="rotate(172.14 115.132 216.34)" fill="#D9D9D9"/>
<rect id="Rectangle 42_4" x="108.922" y="218.53" width="4.67483" height="2.64249" transform="rotate(172.14 108.922 218.53)" fill="#D9D9D9"/>
<rect id="Rectangle 44_4" x="105.174" y="215.999" width="4.67483" height="2.64249" transform="rotate(172.14 105.174 215.999)" fill="#EEEEEE"/>
<rect id="Rectangle 45_4" x="108.008" y="207.128" width="4.67483" height="2.64249" transform="rotate(172.14 108.008 207.128)" fill="#EEEEEE"/>
<rect id="Rectangle 47_4" x="113.422" y="213.527" width="2.24392" height="2.54811" transform="rotate(172.14 113.422 213.527)" fill="#EEEEEE"/>
</g>
<g id="paperball_5">
<path id="Vector 5_5" d="M135.39 109.099C135.076 107.923 135.741 107.082 136.112 106.808L134.983 106.154L134.376 103.808L132.083 103.601L130.718 104.314C130.271 104.153 129.337 103.542 129.177 102.383C129.017 101.223 127.027 101.393 126.052 101.623L125.124 102.418C124.914 102.606 123.853 103.127 121.291 103.71C118.728 104.292 118.016 106.194 117.98 107.072L116.882 109.034L119.373 113.406L117.824 115.859L120.885 117.866L121.352 116.801L122.113 118.553L123.246 117.873L126.559 117.94L129.013 117.601C129.926 117.951 131.869 118.121 132.331 116C132.793 113.878 133.663 114.482 134.041 115.049L136.497 114.043L133.731 112.805L134.283 111.681L135.674 111.156C135.71 110.96 135.703 110.275 135.39 109.099Z" fill="#E3E3E3"/>
<path id="Polygon 84_5" d="M131.148 112.56L128.404 108.08L132.575 107.504L131.148 112.56Z" fill="#D9D9D9"/>
<path id="Polygon 86_5" d="M123.871 109.754L121.128 105.274L125.298 104.698L123.871 109.754Z" fill="#D9D9D9"/>
<path id="Polygon 95_5" d="M127.343 107.559L124.599 103.079L128.77 102.503L127.343 107.559Z" fill="#D9D9D9"/>
<path id="Polygon 87_5" d="M120.344 112.241L117.6 107.761L121.771 107.186L120.344 112.241Z" fill="#FCF5F5"/>
<path id="Polygon 89_5" d="M127.279 108.807L124.655 106.668L129.227 106.037L127.279 108.807Z" fill="#FCF5F5"/>
<path id="Polygon 90_5" d="M133.266 110.457L130.641 108.319L135.213 107.688L133.266 110.457Z" fill="#FCF5F5"/>
<path id="Polygon 91_5" d="M130.6 116.446L127.975 114.307L132.547 113.676L130.6 116.446Z" fill="#FCF5F5"/>
<rect id="Rectangle 40_5" x="128.456" y="110.835" width="4.67483" height="2.64249" transform="rotate(172.14 128.456 110.835)" fill="#D9D9D9"/>
<rect id="Rectangle 41_5" x="134.132" y="114.34" width="4.67483" height="2.64249" transform="rotate(172.14 134.132 114.34)" fill="#D9D9D9"/>
<rect id="Rectangle 42_5" x="127.922" y="116.53" width="4.67483" height="2.64249" transform="rotate(172.14 127.922 116.53)" fill="#D9D9D9"/>
<rect id="Rectangle 44_5" x="124.174" y="113.999" width="4.67483" height="2.64249" transform="rotate(172.14 124.174 113.999)" fill="#EEEEEE"/>
<rect id="Rectangle 45_5" x="127.008" y="105.128" width="4.67483" height="2.64249" transform="rotate(172.14 127.008 105.128)" fill="#EEEEEE"/>
<rect id="Rectangle 47_5" x="132.422" y="111.527" width="2.24392" height="2.54811" transform="rotate(172.14 132.422 111.527)" fill="#EEEEEE"/>
</g>
<g id="paperball_6">
<path id="Vector 5_6" d="M221.39 90.0989C221.076 88.9228 221.741 88.0816 222.112 87.8081L220.983 87.1541L220.376 84.8085L218.083 84.6012L216.718 85.3136C216.271 85.153 215.337 84.5419 215.177 83.3827C215.017 82.2234 213.027 82.3934 212.052 82.6233L211.124 83.4183C210.914 83.6061 209.853 84.1273 207.291 84.7097C204.728 85.292 204.016 87.1942 203.98 88.0725L202.882 90.0342L205.373 94.4061L203.824 96.8588L206.885 98.8655L207.352 97.8008L208.113 99.5535L209.246 98.8731L212.559 98.9397L215.013 98.6009C215.926 98.9511 217.869 99.1212 218.331 96.9995C218.793 94.8779 219.663 95.4819 220.041 96.049L222.497 95.043L219.731 93.8053L220.283 92.6811L221.674 92.1557C221.71 91.9602 221.703 91.2751 221.39 90.0989Z" fill="#E3E3E3"/>
<path id="Polygon 84_6" d="M217.148 93.56L214.404 89.08L218.575 88.5042L217.148 93.56Z" fill="#D9D9D9"/>
<path id="Polygon 86_6" d="M209.871 90.7538L207.128 86.2739L211.298 85.698L209.871 90.7538Z" fill="#D9D9D9"/>
<path id="Polygon 95_6" d="M213.343 88.5593L210.599 84.0793L214.77 83.5035L213.343 88.5593Z" fill="#D9D9D9"/>
<path id="Polygon 87_6" d="M206.344 93.2414L203.6 88.7614L207.771 88.1856L206.344 93.2414Z" fill="#FCF5F5"/>
<path id="Polygon 89_6" d="M213.279 89.8068L210.655 87.6683L215.227 87.0371L213.279 89.8068Z" fill="#FCF5F5"/>
<path id="Polygon 90_6" d="M219.266 91.4574L216.641 89.319L221.213 88.6878L219.266 91.4574Z" fill="#FCF5F5"/>
<path id="Polygon 91_6" d="M216.6 97.446L213.975 95.3075L218.547 94.6763L216.6 97.446Z" fill="#FCF5F5"/>
<rect id="Rectangle 40_6" x="214.456" y="91.8354" width="4.67483" height="2.64249" transform="rotate(172.14 214.456 91.8354)" fill="#D9D9D9"/>
<rect id="Rectangle 41_6" x="220.132" y="95.3396" width="4.67483" height="2.64249" transform="rotate(172.14 220.132 95.3396)" fill="#D9D9D9"/>
<rect id="Rectangle 42_6" x="213.922" y="97.5303" width="4.67483" height="2.64249" transform="rotate(172.14 213.922 97.5303)" fill="#D9D9D9"/>
<rect id="Rectangle 44_6" x="210.174" y="94.999" width="4.67483" height="2.64249" transform="rotate(172.14 210.174 94.999)" fill="#EEEEEE"/>
<rect id="Rectangle 45_6" x="213.008" y="86.1284" width="4.67483" height="2.64249" transform="rotate(172.14 213.008 86.1284)" fill="#EEEEEE"/>
<rect id="Rectangle 47_6" x="218.422" y="92.5269" width="2.24392" height="2.54811" transform="rotate(172.14 218.422 92.5269)" fill="#EEEEEE"/>
</g>
<g id="cup">
<path id="Vector 15" d="M128.117 57.7659L138.477 52.0144L130.397 23.3298L129.91 23.635L129.584 23.8385L126.658 25.6698L124.706 26.8907L123.243 27.8064L117.715 31.2655L107.633 37.5734L128.117 57.7659Z" fill="#EF4434"/>
<path id="Vector 16" d="M107.905 37.6638L130.542 23.5864L125.539 20.4949L122.345 19.0822L117.593 19.2051L109.053 23.9469L106.721 28.4277L107.905 37.6638Z" fill="#A5DEFF"/>
<g id="Rectangle 48">
<path d="M106.48 8.2677C106.757 8.11365 107.107 8.2137 107.261 8.49117L114.105 20.8168C114.259 21.0943 114.159 21.4441 113.881 21.5981C113.604 21.7522 113.254 21.6521 113.1 21.3746L106.257 9.04903C106.103 8.77156 106.203 8.42175 106.48 8.2677Z" fill="#D9D9D9"/>
<path d="M106.48 8.2677C106.757 8.11365 107.107 8.2137 107.261 8.49117L114.105 20.8168C114.259 21.0943 114.159 21.4441 113.881 21.5981C113.604 21.7522 113.254 21.6521 113.1 21.3746L106.257 9.04903C106.103 8.77156 106.203 8.42175 106.48 8.2677Z" stroke="black"/>
</g>
<g id="Rectangle 49">
<path d="M112.689 2.6416L113.635 3.39627L107.27 9.24664L106.325 8.49197L112.689 2.6416Z" fill="#D9D9D9"/>
<path d="M112.689 2.6416L113.635 3.39627L107.27 9.24664L106.325 8.49197L112.689 2.6416Z" stroke="black"/>
</g>
</g>
</g>
</svg>
