<svg width="441" height="124" viewBox="0 0 441 124" fill="none" xmlns="http://www.w3.org/2000/svg">
<g id="boat">
<g id="boat top">
<rect id="Rectangle 15" width="20.5655" height="89.465" rx="3" transform="matrix(0.943054 -0.332639 0.339336 0.940665 112.605 6.84082)" fill="#464646"/>
<rect id="Rectangle 17" width="20.5655" height="87.5577" rx="3" transform="matrix(0.943054 -0.332639 0.339336 0.940665 191.931 8.31152)" fill="#464646"/>
<rect id="Rectangle 16" width="13.7498" height="83.284" rx="3" transform="matrix(0.014894 -0.999889 0.999894 0.0145632 128.03 14.4893)" fill="#464646"/>
</g>
<g id="boat bot">
<g id="Group 9">
<g id="Group 2">
<path id="Polygon 1" d="M8.18642 101.491C4.53613 98.8225 4.32902 93.4495 7.7634 90.5172L22.9542 77.5472C27.4009 73.7505 34.2739 76.7661 34.4992 82.6126L35.4542 107.387C35.6796 113.233 29.0584 116.751 24.3322 113.295L8.18642 101.491Z" fill="#FF4D00"/>
</g>
<path id="Rectangle 5" d="M24.5113 85.9172C24.1368 78.0544 30.7138 71.6467 38.5612 72.2646C102.566 77.3047 355.374 95.1836 409.957 67.8772C472.579 36.5494 423.307 112.546 409.957 119.175C398.042 125.092 101.572 119.768 37.9894 118.556C31.1526 118.425 25.8019 113.02 25.4766 106.19L24.5113 85.9172Z" fill="#FF4D00"/>
</g>
</g>
<g id="boat rear">
<path id="Rectangle 20" d="M50.5011 50.586L99.3537 53.6106L97.888 76.7576C97.888 76.7576 55.142 74.1111 49.0354 73.733C42.9289 73.3549 50.5011 50.586 50.5011 50.586Z" fill="#9F9F9F"/>
<rect id="Rectangle 23" width="26.5132" height="13.1089" transform="matrix(0.999236 0.0390869 -0.0399737 0.999201 94.8647 63.5791)" fill="#9F9F9F"/>
</g>
</g>
</svg>
