<svg width="55" height="19" viewBox="0 0 55 19" fill="none" xmlns="http://www.w3.org/2000/svg">
<g id="bottle-two">
<path id="Vector 20" d="M15.0295 1.70135C12.0542 0.590088 9.07884 0.96051 6.10349 1.70135C5.48362 3.9239 4.16951 8.51718 3.87198 9.10985C3.57444 9.70253 4.73979 14.5427 5.35965 16.8887L20.2364 17.6296L23.2118 15.407L27.6748 15.0366L37.7166 18L38.4604 17.6296C39.5762 16.8887 42.1796 15.1848 43.6673 14.2958C45.155 13.4067 45.2789 13.4314 45.155 13.5549L46.2707 14.2958L48.8742 8.36901C48.1303 7.38122 46.5683 5.1093 46.2707 3.92395C45.9732 2.7386 44.6591 1.94832 44.0392 1.70135H41.4358H39.2043H35.857C34.3693 1.70135 27.3029 7.62816 26.9309 6.5169C26.6334 5.62789 24.0796 4.41784 22.8398 3.92395C21.2282 3.5535 17.4098 2.59037 15.0295 1.70135Z" fill="#E1F6F7" stroke="#E1F6F7"/>
<path id="Rectangle 59" d="M48.7798 7.80003L52.6177 9.46904L52.617 13.6068L49.7374 16.0921L45.8995 14.4231L48.7798 7.80003Z" fill="#4474AF"/>
<path id="Vector 13" d="M18.5822 11.2001L16.5747 2.7851L21.2104 3.2667L24.5776 5.02909L25.88 8.14588C26.0751 7.18885 29.2697 5.70986 33.2361 3.2667C39.5428 -0.618086 35.2765 4.54052 33.2361 6.20541C31.6037 7.53732 28.8461 9.3502 27.6713 10.0902L25.0744 11.2001H18.5822Z" fill="#A4D5DB"/>
<path id="Vector 21" d="M6.31671 1.94355L9.72099 3.97585C9.70978 4.44546 9.46525 6.65073 8.59017 11.7576L6.6692 16.1096L4.08901 8.48225L6.31671 1.94355Z" fill="#A4D5DB"/>
<path id="Vector 23" d="M10.9826 11.1157C10.9826 11.1157 8.43495 9.71671 9.1926 11.1802C9.95024 12.6437 8.64659 12.5226 7.94826 14.5077C7.94826 14.5077 7.2254 16.3537 7.76261 16.6489C8.29982 16.944 10.0572 14.94 10.443 14.1895C10.8287 13.4389 10.9826 11.1157 10.9826 11.1157Z" fill="#C3E7EC"/>
<path id="Vector 22" d="M25.673 10.2269C26.0545 11.0123 25.4504 9.50726 22.4553 10.6131L19.9109 10.4533L22.8361 8.48473C23.6068 7.84474 25.3678 9.59854 25.673 10.2269Z" fill="#C3E7EC"/>
</g>
</svg>
