<svg width="80" height="82" viewBox="0 0 80 82" fill="none" xmlns="http://www.w3.org/2000/svg">
<path d="M63.1349 38.1538C63.8643 51.6891 52.4413 68.5428 40.0857 61.8993C27.543 68.0042 17.7747 53.974 17.0453 40.4387C16.3159 26.9034 26.0421 15.4194 38.7694 14.7885C51.4967 14.1575 62.4055 24.6185 63.1349 38.1538Z" fill="#FCCC00"/>
<rect x="26.958" y="61.7668" width="25.8343" height="6.46397" rx="3.23199" fill="#797464"/>
<rect x="28.0801" y="68.949" width="23.2134" height="3.5911" rx="1.79555" fill="#797464"/>
<rect x="31.0762" y="73.2583" width="17.5973" height="3.5911" rx="1.79555" fill="#797464"/>
<rect width="2.22451" height="9.43501" rx="1.11226" transform="matrix(0.878724 -0.47733 0.508458 0.861087 13.8525 6.44849)" fill="#FCCC00"/>
<rect width="2.20982" height="9.49964" rx="1.10491" transform="matrix(0.784704 0.619871 -0.651468 0.758676 64.2217 6.10498)" fill="#FCCC00"/>
<rect width="2.24639" height="9.33718" rx="1.12319" transform="matrix(0.999625 -0.0273797 0.0297605 0.999557 38.1895 0.0615234)" fill="#FCCC00"/>
<rect width="2.15829" height="9.71955" rx="1.07914" transform="matrix(0.204889 0.978785 -0.981958 0.189097 79.5576 31.9607)" fill="#FCCC00"/>
<rect width="2.17314" height="9.6572" rx="1.08657" transform="matrix(-0.459995 0.887922 -0.902723 -0.430221 78.6094 59.8164)" fill="#FCCC00"/>
<rect width="2.18567" height="9.60397" rx="1.09283" transform="matrix(-0.593234 -0.80503 0.82773 -0.561127 7.66113 63.8879)" fill="#FCCC00"/>
<rect width="2.15829" height="9.71955" rx="1.07914" transform="matrix(0.204889 0.978785 -0.981958 0.189097 9.54395 34.1157)" fill="#FCCC00"/>
<path d="M32.2038 77.7633C32.2045 78.3054 32.4043 78.8419 32.7918 79.3423C33.1793 79.8426 33.7469 80.297 34.4622 80.6795C35.1775 81.062 36.0265 81.365 36.9608 81.5714C37.895 81.7778 38.8962 81.8834 39.9071 81.8822C40.918 81.881 41.9189 81.7731 42.8527 81.5646C43.7864 81.3561 44.6346 81.051 45.349 80.6669C46.0633 80.2828 46.6298 79.8271 47.0161 79.3258C47.4023 78.8246 47.6007 78.2876 47.6001 77.7455L39.9019 77.7544L32.2038 77.7633Z" fill="#797464"/>
<path d="M55.6854 30.3754C55.1021 27.5546 50.3589 26.0802 52.7929 25.6172C55.2268 25.1541 57.6729 27.0655 58.2562 29.8863C58.8396 32.7072 57.3394 35.3693 54.9054 35.8323C52.4715 36.2954 56.2688 33.1962 55.6854 30.3754Z" fill="white"/>
</svg>
