<svg width="728" height="386" viewBox="0 0 728 386" fill="none" xmlns="http://www.w3.org/2000/svg">
<path d="M515.497 276.426C515.497 336.942 562.882 386 621.335 386C679.788 386 727.174 336.942 727.174 276.426C727.174 215.91 679.788 166.852 621.335 166.852C562.882 166.852 515.497 215.91 515.497 276.426Z" fill="white"/>
<path d="M117.045 186.774C117.045 289.927 193.977 373.548 288.877 373.548C383.778 373.548 460.709 289.927 460.709 186.774C460.709 83.6216 383.778 0 288.877 0C193.977 0 117.045 83.6216 117.045 186.774Z" fill="white"/>
<path d="M-0.000187159 256.503C-0.000187159 328.022 64.1097 386 143.193 386C222.277 386 286.387 328.022 286.387 256.503C286.387 184.984 222.277 127.006 143.193 127.006C64.1097 127.006 -0.000187159 184.984 -0.000187159 256.503Z" fill="white"/>
<path d="M358.606 225.374C358.606 303.082 417.141 366.077 489.348 366.077C561.555 366.077 620.09 303.082 620.09 225.374C620.09 147.666 561.555 84.6709 489.348 84.6709C417.141 84.6709 358.606 147.666 358.606 225.374Z" fill="white"/>
<path d="M630.05 306.31H134.476V386H630.05V306.31Z" fill="white"/>
</svg>
