<svg width="53" height="53" viewBox="0 0 53 53" fill="none" xmlns="http://www.w3.org/2000/svg">
<g id="co2 puff">
<g id="co2 1">
<g id="Group">
<g id="Group_2">
<path id="Vector" d="M46.5863 18.6023C47.1197 17.4258 47.3972 16.1457 47.3972 14.8342C47.3972 9.79482 43.2974 5.69508 38.2581 5.69508C36.7374 5.69508 35.2616 6.06722 33.9387 6.77838C32.2187 4.97016 29.8571 3.94971 27.3273 3.94971C24.0299 3.94971 21.0098 5.72748 19.3938 8.54953C18.6579 8.36185 17.9001 8.26703 17.1312 8.26703C12.0919 8.26703 7.99212 12.3669 7.99212 17.4061C7.99212 18.3393 8.13094 19.2528 8.40587 20.1317C6.40802 21.859 5.23633 24.3903 5.23633 27.0511C5.23633 31.864 8.97614 35.8201 13.7024 36.1657C13.6921 36.3423 13.6869 36.5193 13.6869 36.696C13.6869 41.7354 17.7868 45.8351 22.826 45.8351C25.8212 45.8351 28.6137 44.348 30.3071 41.9443C32.0087 43.6545 34.3368 44.6411 36.7883 44.6411C41.58 44.6411 45.5221 40.9345 45.898 36.2377C50.0049 35.3039 53.0002 31.6217 53.0002 27.3268C53.0002 23.2959 50.3291 19.7751 46.5863 18.6023ZM44.7391 34.2998C44.2026 34.3665 43.803 34.828 43.8139 35.3687C43.8148 35.413 43.8157 35.4574 43.8157 35.5019C43.8157 39.3769 40.6631 42.5295 36.7881 42.5295C34.4906 42.5295 32.3333 41.4019 31.0175 39.5132C30.8018 39.2035 30.4358 39.0327 30.061 39.0648C29.6851 39.097 29.3548 39.3275 29.1949 39.6693C28.0429 42.1323 25.5428 43.7236 22.8258 43.7236C18.9508 43.7236 15.7982 40.571 15.7982 36.696C15.7982 36.2353 15.8436 35.7732 15.9327 35.3223C15.9964 35.0008 15.907 34.6681 15.6911 34.4215C15.49 34.192 15.2001 34.0615 14.897 34.0615C14.8747 34.0615 14.8523 34.0622 14.8303 34.0636C14.6705 34.0738 14.5218 34.0788 14.3752 34.0788C10.5002 34.0788 7.34763 30.9262 7.34763 27.0512C7.34763 24.7975 8.44127 22.6642 10.2733 21.3447C10.6703 21.0587 10.8188 20.5375 10.6322 20.0851C10.2813 19.2349 10.1032 18.3336 10.1032 17.4062C10.1032 13.5312 13.2558 10.3786 17.1308 10.3786C17.9682 10.3786 18.7876 10.5245 19.5657 10.812C20.0885 11.0051 20.6715 10.7586 20.897 10.2488C22.0225 7.70505 24.5464 6.06143 27.3267 6.06143C29.5163 6.06143 31.5425 7.056 32.886 8.7901C33.2273 9.23097 33.8526 9.33024 34.3139 9.0169C35.4791 8.22521 36.8427 7.8068 38.2575 7.8068C42.1325 7.8068 45.2851 10.9594 45.2851 14.8344C45.2851 16.2302 44.8766 17.5789 44.1041 18.7344C43.902 19.0367 43.8697 19.4217 44.0186 19.7534C44.1673 20.0852 44.4764 20.3169 44.8365 20.367C48.2865 20.8457 50.8882 23.8379 50.8882 27.3268C50.8887 30.8657 48.2449 33.8635 44.7391 34.2998Z" fill="white"/>
</g>
</g>
<g id="Group_3">
<g id="Group_4">
<path id="Vector_2" d="M11.7565 41.2997C11.7565 39.0907 9.95934 37.2937 7.75042 37.2937C6.64084 37.2937 5.60982 37.741 4.86337 38.5206C4.58367 38.4592 4.29714 38.4284 4.00585 38.4284C1.79703 38.4283 0 40.2255 0 42.4344C0 44.441 1.48317 46.1078 3.41094 46.3962C3.96786 47.9584 5.45703 49.0502 7.18326 49.0502C9.39208 49.0502 11.1892 47.2531 11.1892 45.0441C11.1892 44.5833 11.1101 44.1286 10.9572 43.6994C11.4715 43.012 11.7565 42.171 11.7565 41.2997ZM9.0042 42.7193C8.62089 43.0582 8.5358 43.6233 8.80224 44.06C8.98236 44.3554 9.0776 44.6957 9.0776 45.0443C9.0776 46.0889 8.22784 46.9387 7.18326 46.9387C6.21684 46.9387 5.40766 46.2158 5.30114 45.2571C5.2412 44.7185 4.78542 44.3179 4.25284 44.3179C4.22375 44.3179 4.19435 44.319 4.16474 44.3216C4.10471 44.3266 4.05264 44.3289 4.00606 44.3289C2.96148 44.3289 2.11172 43.4792 2.11172 42.4346C2.11172 41.39 2.96148 40.5402 4.00606 40.5402C4.2813 40.5402 4.54723 40.5983 4.79629 40.713C5.28126 40.9363 5.85629 40.7623 6.13651 40.3081C6.48505 39.743 7.08844 39.4056 7.75063 39.4056C8.79521 39.4056 9.64507 40.2554 9.64507 41.3C9.64507 41.8417 9.41143 42.3591 9.0042 42.7193Z" fill="white"/>
</g>
</g>
<g id="Group_5">
<g id="Group_6">
<g id="Group_7">
<path id="Vector_3" d="M39.2771 37.974C38.5617 38.6711 37.6177 39.0551 36.6186 39.0551C35.9555 39.0551 35.3029 38.8823 34.7316 38.5556C34.2251 38.266 33.5803 38.442 33.2909 38.948C33.0013 39.4541 33.1771 40.0992 33.6832 40.3887C34.5732 40.8978 35.5882 41.1668 36.6186 41.1668C38.1714 41.1668 39.639 40.57 40.7508 39.4861C41.1684 39.0791 41.1769 38.4107 40.7701 37.9931C40.363 37.5756 39.6945 37.5671 39.2771 37.974Z" fill="white"/>
<path id="Vector_4" d="M41.5696 34.7417C40.989 34.6769 40.468 35.0948 40.4036 35.6743C40.3944 35.7566 40.3824 35.8399 40.3677 35.922C40.2651 36.4959 40.6473 37.0444 41.2213 37.147C41.2841 37.1582 41.3467 37.1636 41.4083 37.1636C41.91 37.1636 42.355 36.8046 42.4463 36.2934C42.4691 36.1658 42.4879 36.036 42.5022 35.9077C42.5667 35.3281 42.1492 34.8061 41.5696 34.7417Z" fill="white"/>
</g>
</g>
</g>
<g id="Group_8">
<g id="Group_9">
<path id="Vector_5" d="M22.0959 26.7565C21.5956 26.7565 21.2331 26.9118 21.1987 27.3605C21.1297 28.1197 20.9745 29.3103 19.2144 29.3103C17.8513 29.3103 17.1093 28.6029 17.1093 27.0844V22.0632C17.1093 20.5447 17.8513 19.8373 19.1799 19.8373C20.9572 19.8373 21.1642 21.0796 21.1988 21.6836C21.216 22.0977 21.5611 22.2875 22.1133 22.2875C22.7345 22.2875 23.0279 22.1149 23.0279 21.3385C23.0279 19.5094 21.475 18.2153 19.111 18.2153C17.0231 18.2153 15.2803 19.2679 15.2803 22.0632V27.0844C15.2803 29.8797 17.0059 30.9323 19.0938 30.9323C21.4578 30.9323 23.028 29.6036 23.028 27.7055C23.0278 26.9464 22.7344 26.7565 22.0959 26.7565Z" fill="white"/>
</g>
</g>
<g id="Group_10">
<g id="Group_11">
<path id="Vector_6" d="M28.4804 18.2151C26.2891 18.2151 24.6152 19.2676 24.6152 22.063V27.0842C24.6152 29.8795 26.2891 30.9321 28.4804 30.9321C30.6544 30.9321 32.3629 29.8795 32.3629 27.0842V22.063C32.3628 19.2676 30.6545 18.2151 28.4804 18.2151ZM30.5337 27.0843C30.5337 28.6028 29.7573 29.3102 28.4805 29.3102C27.1864 29.3102 26.4444 28.6028 26.4444 27.0843V22.0631C26.4444 20.5446 27.1864 19.8372 28.4805 19.8372C29.7574 19.8372 30.5337 20.5446 30.5337 22.0631V27.0843Z" fill="white"/>
</g>
</g>
<g id="Group_12">
<g id="Group_13">
<path id="Vector_7" d="M40.8353 29.2067H35.7622V28.551C35.7622 26.5666 41.3529 25.3588 41.3529 21.6489C41.3529 19.5782 39.6619 18.2151 37.6602 18.2151C35.7794 18.2151 34.123 19.4229 34.123 21.2693C34.123 22.0459 34.4681 22.2874 34.9512 22.2874C35.5551 22.2874 35.9174 21.9423 35.9174 21.5972C35.9174 20.4239 36.6939 19.8889 37.6602 19.8889C38.9716 19.8889 39.5238 20.8553 39.5238 21.7008C39.5238 24.358 33.8813 25.7557 33.8813 28.5511V30.225C33.8813 30.5873 34.3472 30.8289 34.6924 30.8289H40.8353C41.146 30.8289 41.4392 30.4319 41.4392 30.0007C41.4392 29.5692 41.1458 29.2067 40.8353 29.2067Z" fill="white"/>
</g>
</g>
</g>
</g>
</svg>
