<svg width="570" height="676" viewBox="0 0 570 676" fill="none" xmlns="http://www.w3.org/2000/svg">
<g id="co2_Txt" filter="url(#filter0_d_165_417)">
<g id="co2-puff">
<g id="Group 31">
<g id="co2 1" clip-path="url(#clip0_165_417)">
<g id="Group">
<g id="Group_2">
<path id="Vector" d="M548.72 41.4168C549.907 38.7973 550.525 35.9473 550.525 33.0273C550.525 21.8076 541.397 12.6799 530.178 12.6799C526.792 12.6799 523.506 13.5084 520.561 15.0917C516.732 11.0659 511.474 8.79395 505.841 8.79395C498.5 8.79395 491.776 12.752 488.178 19.0351C486.54 18.6172 484.853 18.4061 483.141 18.4061C471.921 18.4061 462.793 27.534 462.793 38.7535C462.793 40.8312 463.102 42.8651 463.714 44.8217C459.266 48.6676 456.658 54.3032 456.658 60.2272C456.658 70.9428 464.984 79.7507 475.507 80.5202C475.484 80.9134 475.472 81.3075 475.472 81.7009C475.472 92.9206 484.6 102.048 495.82 102.048C502.488 102.048 508.705 98.7374 512.476 93.3857C516.264 97.1932 521.448 99.3898 526.906 99.3898C537.574 99.3898 546.351 91.1374 547.187 80.6804C556.331 78.6013 563 70.4033 563 60.8412C563 51.8667 557.053 44.0278 548.72 41.4168ZM544.607 76.3658C543.413 76.5144 542.523 77.5418 542.547 78.7456C542.549 78.8442 542.551 78.9431 542.551 79.0422C542.551 87.6696 535.532 94.6885 526.905 94.6885C521.79 94.6885 516.987 92.178 514.057 87.9731C513.577 87.2835 512.762 86.9033 511.928 86.9747C511.091 87.0464 510.356 87.5596 509.999 88.3206C507.435 93.8042 501.868 97.3472 495.819 97.3472C487.192 97.3472 480.173 90.3282 480.173 81.7009C480.173 80.6751 480.274 79.6463 480.472 78.6423C480.614 77.9265 480.415 77.1858 479.934 76.6368C479.487 76.1258 478.841 75.8352 478.166 75.8352C478.117 75.8352 478.067 75.8368 478.018 75.8401C477.662 75.8626 477.331 75.8737 477.005 75.8737C468.377 75.8737 461.358 68.8548 461.358 60.2274C461.358 55.2099 463.793 50.4602 467.872 47.5224C468.756 46.8856 469.087 45.7252 468.671 44.718C467.89 42.8252 467.493 40.8185 467.493 38.7537C467.493 30.1264 474.512 23.1074 483.14 23.1074C485.004 23.1074 486.828 23.4322 488.561 24.0722C489.725 24.5022 491.023 23.9533 491.525 22.8184C494.031 17.1549 499.65 13.4955 505.84 13.4955C510.715 13.4955 515.226 15.7099 518.217 19.5707C518.977 20.5522 520.369 20.7733 521.396 20.0756C523.991 18.313 527.027 17.3814 530.177 17.3814C538.804 17.3814 545.823 24.4004 545.823 33.0277C545.823 36.1354 544.913 39.1381 543.193 41.7109C542.744 42.3838 542.672 43.241 543.003 43.9796C543.334 44.7183 544.022 45.2341 544.824 45.3456C552.505 46.4115 558.298 53.0732 558.298 60.8412C558.299 68.7202 552.413 75.3946 544.607 76.3658Z" fill="white"/>
</g>
</g>
<g id="Group_3">
<g id="Group_4">
<path id="Vector_2" d="M471.175 91.9502C471.175 87.0322 467.174 83.0312 462.256 83.0312C459.785 83.0312 457.49 84.0271 455.828 85.7628C455.205 85.6261 454.567 85.5576 453.919 85.5576C449.001 85.5574 445 89.5586 445 94.4766C445 98.9442 448.302 102.655 452.594 103.297C453.834 106.775 457.15 109.206 460.993 109.206C465.911 109.206 469.912 105.205 469.912 100.287C469.912 99.2609 469.736 98.2486 469.395 97.2929C470.54 95.7626 471.175 93.8902 471.175 91.9502ZM465.047 95.1108C464.194 95.8654 464.004 97.1235 464.597 98.0958C464.998 98.7536 465.21 99.5111 465.21 100.287C465.21 102.613 463.319 104.505 460.993 104.505C458.841 104.505 457.04 102.896 456.803 100.761C456.669 99.5618 455.654 98.6699 454.469 98.6699C454.404 98.6699 454.338 98.6725 454.272 98.6782C454.139 98.6893 454.023 98.6946 453.919 98.6946C451.593 98.6946 449.702 96.8027 449.702 94.477C449.702 92.1514 451.593 90.2592 453.919 90.2592C454.532 90.2592 455.124 90.3887 455.679 90.6441C456.758 91.1412 458.039 90.7538 458.662 89.7425C459.438 88.4844 460.782 87.7333 462.256 87.7333C464.582 87.7333 466.474 89.6252 466.474 91.9509C466.474 93.1569 465.954 94.309 465.047 95.1108Z" fill="white"/>
</g>
</g>
<g id="Group_5">
<g id="Group_6">
<g id="Group_7">
<path id="Vector_3" d="M532.447 84.5461C530.855 86.0981 528.753 86.9531 526.529 86.9531C525.052 86.9531 523.599 86.5684 522.327 85.8411C521.2 85.1962 519.764 85.588 519.12 86.7146C518.475 87.8416 518.866 89.2776 519.993 89.9222C521.975 91.0557 524.234 91.6547 526.529 91.6547C529.986 91.6547 533.253 90.326 535.729 87.9128C536.658 87.0066 536.677 85.5184 535.771 84.5887C534.865 83.6592 533.377 83.6401 532.447 84.5461Z" fill="white"/>
<path id="Vector_4" d="M537.552 77.3497C536.259 77.2054 535.099 78.1358 534.956 79.426C534.935 79.6092 534.909 79.7947 534.876 79.9775C534.648 81.2552 535.498 82.4765 536.776 82.7049C536.916 82.7298 537.055 82.7418 537.193 82.7418C538.31 82.7418 539.3 81.9425 539.504 80.8044C539.554 80.5203 539.596 80.2313 539.628 79.9457C539.772 78.6553 538.842 77.4931 537.552 77.3497Z" fill="white"/>
</g>
</g>
</g>
<g id="Group_8">
<g id="Group_9">
<path id="Vector_5" d="M494.195 59.5709C493.081 59.5709 492.274 59.9166 492.197 60.9157C492.044 62.6059 491.698 65.2568 487.779 65.2568C484.745 65.2568 483.093 63.6818 483.093 60.301V49.1217C483.093 45.7409 484.745 44.1659 487.703 44.1659C491.66 44.1659 492.121 46.9318 492.198 48.2765C492.236 49.1984 493.004 49.6211 494.234 49.6211C495.617 49.6211 496.27 49.2367 496.27 47.5082C496.27 43.4358 492.812 40.5547 487.549 40.5547C482.901 40.5547 479.021 42.8981 479.021 49.1217V60.301C479.021 66.5244 482.862 68.868 487.511 68.868C492.774 68.868 496.27 65.9097 496.27 61.6838C496.27 59.9936 495.617 59.5709 494.195 59.5709Z" fill="white"/>
</g>
</g>
<g id="Group_10">
<g id="Group_11">
<path id="Vector_6" d="M508.409 40.5542C503.53 40.5542 499.804 42.8976 499.804 49.1212V60.3005C499.804 66.5241 503.53 68.8675 508.409 68.8675C513.249 68.8675 517.053 66.5241 517.053 60.3005V49.1212C517.053 42.8976 513.25 40.5542 508.409 40.5542ZM512.981 60.3008C512.981 63.6815 511.252 65.2565 508.409 65.2565C505.528 65.2565 503.876 63.6815 503.876 60.3008V49.1214C503.876 45.7407 505.528 44.1656 508.409 44.1656C511.252 44.1656 512.981 45.7407 512.981 49.1214V60.3008Z" fill="white"/>
</g>
</g>
<g id="Group_12">
<g id="Group_13">
<path id="Vector_7" d="M535.917 65.0261H524.622V63.5663C524.622 59.1482 537.069 56.4591 537.069 48.1993C537.069 43.589 533.304 40.5542 528.847 40.5542C524.66 40.5542 520.972 43.2433 520.972 47.3542C520.972 49.0832 521.74 49.6208 522.816 49.6208C524.161 49.6208 524.967 48.8525 524.967 48.0841C524.967 45.4719 526.696 44.2809 528.847 44.2809C531.767 44.2809 532.996 46.4323 532.996 48.3148C532.996 54.2309 520.434 57.3427 520.434 63.5665V67.2932C520.434 68.0998 521.471 68.6377 522.24 68.6377H535.917C536.608 68.6377 537.261 67.7539 537.261 66.7938C537.261 65.8332 536.608 65.0261 535.917 65.0261Z" fill="white"/>
</g>
</g>
</g>
</g>
<g id="Group 32">
<g id="co2 1_2" clip-path="url(#clip1_165_417)">
<g id="Group_14">
<g id="Group_15">
<path id="Vector_8" d="M260.72 86.4168C261.907 83.7973 262.525 80.9473 262.525 78.0273C262.525 66.8076 253.397 57.6799 242.178 57.6799C238.792 57.6799 235.506 58.5084 232.561 60.0917C228.732 56.0659 223.474 53.7939 217.841 53.7939C210.5 53.7939 203.776 57.752 200.178 64.0351C198.54 63.6172 196.853 63.4061 195.141 63.4061C183.921 63.4061 174.793 72.534 174.793 83.7535C174.793 85.8312 175.102 87.8651 175.714 89.8217C171.266 93.6676 168.658 99.3032 168.658 105.227C168.658 115.943 176.984 124.751 187.507 125.52C187.484 125.913 187.472 126.307 187.472 126.701C187.472 137.921 196.6 147.048 207.82 147.048C214.488 147.048 220.705 143.737 224.476 138.386C228.264 142.193 233.448 144.39 238.906 144.39C249.574 144.39 258.351 136.137 259.187 125.68C268.331 123.601 275 115.403 275 105.841C275 96.8667 269.053 89.0278 260.72 86.4168ZM256.607 121.366C255.413 121.514 254.523 122.542 254.547 123.746C254.549 123.844 254.551 123.943 254.551 124.042C254.551 132.67 247.532 139.688 238.905 139.688C233.79 139.688 228.987 137.178 226.057 132.973C225.577 132.284 224.762 131.903 223.928 131.975C223.091 132.046 222.356 132.56 221.999 133.321C219.435 138.804 213.868 142.347 207.819 142.347C199.192 142.347 192.173 135.328 192.173 126.701C192.173 125.675 192.274 124.646 192.472 123.642C192.614 122.926 192.415 122.186 191.934 121.637C191.487 121.126 190.841 120.835 190.166 120.835C190.117 120.835 190.067 120.837 190.018 120.84C189.662 120.863 189.331 120.874 189.005 120.874C180.377 120.874 173.358 113.855 173.358 105.227C173.358 100.21 175.793 95.4602 179.872 92.5224C180.756 91.8856 181.087 90.7252 180.671 89.718C179.89 87.8252 179.493 85.8185 179.493 83.7537C179.493 75.1264 186.512 68.1074 195.14 68.1074C197.004 68.1074 198.828 68.4322 200.561 69.0722C201.725 69.5022 203.023 68.9533 203.525 67.8184C206.031 62.1549 211.65 58.4955 217.84 58.4955C222.715 58.4955 227.226 60.7099 230.217 64.5707C230.977 65.5522 232.369 65.7733 233.396 65.0756C235.991 63.313 239.027 62.3814 242.177 62.3814C250.804 62.3814 257.823 69.4004 257.823 78.0277C257.823 81.1354 256.913 84.1381 255.193 86.7109C254.744 87.3838 254.672 88.241 255.003 88.9796C255.334 89.7183 256.022 90.2341 256.824 90.3456C264.505 91.4115 270.298 98.0732 270.298 105.841C270.299 113.72 264.413 120.395 256.607 121.366Z" fill="white"/>
</g>
</g>
<g id="Group_16">
<g id="Group_17">
<path id="Vector_9" d="M183.175 136.95C183.175 132.032 179.174 128.031 174.256 128.031C171.785 128.031 169.49 129.027 167.828 130.763C167.205 130.626 166.567 130.558 165.919 130.558C161.001 130.557 157 134.559 157 139.477C157 143.944 160.302 147.655 164.594 148.297C165.834 151.775 169.15 154.206 172.993 154.206C177.911 154.206 181.912 150.205 181.912 145.287C181.912 144.261 181.736 143.249 181.395 142.293C182.54 140.763 183.175 138.89 183.175 136.95ZM177.047 140.111C176.194 140.865 176.004 142.123 176.597 143.096C176.998 143.754 177.21 144.511 177.21 145.287C177.21 147.613 175.319 149.505 172.993 149.505C170.841 149.505 169.04 147.896 168.803 145.761C168.669 144.562 167.654 143.67 166.469 143.67C166.404 143.67 166.338 143.672 166.272 143.678C166.139 143.689 166.023 143.695 165.919 143.695C163.593 143.695 161.702 141.803 161.702 139.477C161.702 137.151 163.593 135.259 165.919 135.259C166.532 135.259 167.124 135.389 167.679 135.644C168.758 136.141 170.039 135.754 170.662 134.742C171.438 133.484 172.782 132.733 174.256 132.733C176.582 132.733 178.474 134.625 178.474 136.951C178.474 138.157 177.954 139.309 177.047 140.111Z" fill="white"/>
</g>
</g>
<g id="Group_18">
<g id="Group_19">
<g id="Group_20">
<path id="Vector_10" d="M244.447 129.546C242.855 131.098 240.753 131.953 238.529 131.953C237.052 131.953 235.599 131.568 234.327 130.841C233.2 130.196 231.764 130.588 231.12 131.715C230.475 132.842 230.866 134.278 231.993 134.922C233.975 136.056 236.234 136.655 238.529 136.655C241.986 136.655 245.253 135.326 247.729 132.913C248.658 132.007 248.677 130.518 247.771 129.589C246.865 128.659 245.377 128.64 244.447 129.546Z" fill="white"/>
<path id="Vector_11" d="M249.552 122.35C248.259 122.205 247.099 123.136 246.956 124.426C246.935 124.609 246.909 124.795 246.876 124.978C246.648 126.255 247.498 127.476 248.776 127.705C248.916 127.73 249.055 127.742 249.193 127.742C250.31 127.742 251.3 126.942 251.504 125.804C251.554 125.52 251.596 125.231 251.628 124.946C251.772 123.655 250.842 122.493 249.552 122.35Z" fill="white"/>
</g>
</g>
</g>
<g id="Group_21">
<g id="Group_22">
<path id="Vector_12" d="M206.195 104.571C205.081 104.571 204.274 104.917 204.197 105.916C204.044 107.606 203.698 110.257 199.779 110.257C196.745 110.257 195.093 108.682 195.093 105.301V94.1217C195.093 90.7409 196.745 89.1659 199.703 89.1659C203.66 89.1659 204.121 91.9318 204.198 93.2765C204.236 94.1984 205.004 94.6211 206.234 94.6211C207.617 94.6211 208.27 94.2367 208.27 92.5082C208.27 88.4358 204.812 85.5547 199.549 85.5547C194.901 85.5547 191.021 87.8981 191.021 94.1217V105.301C191.021 111.524 194.862 113.868 199.511 113.868C204.774 113.868 208.27 110.91 208.27 106.684C208.27 104.994 207.617 104.571 206.195 104.571Z" fill="white"/>
</g>
</g>
<g id="Group_23">
<g id="Group_24">
<path id="Vector_13" d="M220.409 85.5542C215.53 85.5542 211.804 87.8976 211.804 94.1212V105.301C211.804 111.524 215.53 113.868 220.409 113.868C225.249 113.868 229.053 111.524 229.053 105.301V94.1212C229.053 87.8976 225.25 85.5542 220.409 85.5542ZM224.981 105.301C224.981 108.682 223.252 110.257 220.409 110.257C217.528 110.257 215.876 108.682 215.876 105.301V94.1214C215.876 90.7407 217.528 89.1656 220.409 89.1656C223.252 89.1656 224.981 90.7407 224.981 94.1214V105.301Z" fill="white"/>
</g>
</g>
<g id="Group_25">
<g id="Group_26">
<path id="Vector_14" d="M247.917 110.026H236.622V108.566C236.622 104.148 249.069 101.459 249.069 93.1993C249.069 88.589 245.304 85.5542 240.847 85.5542C236.66 85.5542 232.972 88.2433 232.972 92.3542C232.972 94.0832 233.74 94.6208 234.816 94.6208C236.161 94.6208 236.967 93.8525 236.967 93.0841C236.967 90.4719 238.696 89.2809 240.847 89.2809C243.767 89.2809 244.996 91.4323 244.996 93.3148C244.996 99.2309 232.434 102.343 232.434 108.567V112.293C232.434 113.1 233.471 113.638 234.24 113.638H247.917C248.608 113.638 249.261 112.754 249.261 111.794C249.261 110.833 248.608 110.026 247.917 110.026Z" fill="white"/>
</g>
</g>
</g>
</g>
<g id="Group 30">
<g id="co2 1_3">
<g id="Group_27">
<g id="Group_28">
<path id="Vector_15" d="M365.472 180.536C366.347 178.605 366.803 176.503 366.803 174.35C366.803 166.078 360.073 159.348 351.801 159.348C349.304 159.348 346.882 159.959 344.71 161.127C341.887 158.158 338.01 156.483 333.858 156.483C328.445 156.483 323.488 159.402 320.835 164.034C319.627 163.726 318.383 163.57 317.121 163.57C308.849 163.57 302.119 170.3 302.119 178.572C302.119 180.104 302.347 181.604 302.798 183.046C299.519 185.882 297.595 190.037 297.595 194.405C297.595 202.305 303.734 208.799 311.492 209.366C311.475 209.656 311.467 209.947 311.467 210.237C311.467 218.509 318.197 225.239 326.469 225.239C331.386 225.239 335.969 222.798 338.749 218.852C341.542 221.659 345.364 223.279 349.388 223.279C357.254 223.279 363.725 217.194 364.342 209.484C371.083 207.952 376 201.907 376 194.857C376 188.24 371.615 182.461 365.472 180.536ZM362.439 206.303C361.559 206.413 360.903 207.17 360.921 208.058C360.922 208.131 360.924 208.204 360.924 208.277C360.924 214.637 355.749 219.812 349.388 219.812C345.616 219.812 342.075 217.961 339.915 214.861C339.561 214.353 338.96 214.072 338.345 214.125C337.728 214.178 337.186 214.556 336.923 215.117C335.032 219.16 330.928 221.773 326.469 221.773C320.108 221.773 314.933 216.598 314.933 210.237C314.933 209.48 315.007 208.722 315.153 207.982C315.258 207.454 315.111 206.908 314.757 206.503C314.427 206.126 313.951 205.912 313.453 205.912C313.417 205.912 313.38 205.913 313.344 205.916C313.082 205.932 312.837 205.941 312.597 205.941C306.236 205.941 301.061 200.766 301.061 194.405C301.061 190.705 302.856 187.203 305.863 185.037C306.515 184.568 306.759 183.712 306.453 182.97C305.877 181.574 305.584 180.095 305.584 178.572C305.584 172.212 310.759 167.037 317.12 167.037C318.495 167.037 319.84 167.276 321.117 167.748C321.975 168.065 322.932 167.66 323.302 166.823C325.15 162.648 329.293 159.95 333.857 159.95C337.451 159.95 340.777 161.582 342.982 164.429C343.543 165.153 344.569 165.316 345.326 164.801C347.239 163.502 349.477 162.815 351.8 162.815C358.161 162.815 363.336 167.99 363.336 174.351C363.336 176.642 362.665 178.856 361.397 180.753C361.065 181.249 361.012 181.881 361.257 182.425C361.501 182.97 362.008 183.35 362.599 183.433C368.262 184.218 372.533 189.13 372.533 194.857C372.534 200.666 368.194 205.587 362.439 206.303Z" fill="white"/>
</g>
</g>
<g id="Group_29">
<g id="Group_30">
<path id="Vector_16" d="M308.298 217.794C308.298 214.168 305.348 211.218 301.722 211.218C299.901 211.218 298.209 211.952 296.983 213.232C296.524 213.131 296.054 213.081 295.576 213.081C291.95 213.081 289 216.031 289 219.657C289 222.951 291.435 225.687 294.599 226.16C295.513 228.724 297.958 230.517 300.791 230.517C304.417 230.517 307.367 227.567 307.367 223.941C307.367 223.184 307.237 222.438 306.986 221.733C307.831 220.605 308.298 219.224 308.298 217.794ZM303.78 220.124C303.151 220.681 303.012 221.608 303.449 222.325C303.745 222.81 303.901 223.369 303.901 223.941C303.901 225.656 302.506 227.051 300.791 227.051C299.205 227.051 297.877 225.864 297.702 224.29C297.603 223.406 296.855 222.748 295.981 222.748C295.933 222.748 295.885 222.75 295.836 222.755C295.738 222.763 295.652 222.767 295.576 222.767C293.861 222.767 292.466 221.372 292.466 219.657C292.466 217.942 293.861 216.547 295.576 216.547C296.028 216.547 296.464 216.643 296.873 216.831C297.669 217.198 298.613 216.912 299.073 216.166C299.645 215.239 300.636 214.685 301.723 214.685C303.437 214.685 304.832 216.08 304.832 217.795C304.832 218.684 304.449 219.533 303.78 220.124Z" fill="white"/>
</g>
</g>
<g id="Group_31">
<g id="Group_32">
<g id="Group_33">
<path id="Vector_17" d="M353.474 212.335C352.3 213.479 350.75 214.109 349.11 214.109C348.021 214.109 346.95 213.826 346.012 213.289C345.181 212.814 344.123 213.103 343.647 213.933C343.172 214.764 343.461 215.823 344.291 216.298C345.752 217.134 347.419 217.576 349.11 217.576C351.659 217.576 354.068 216.596 355.893 214.817C356.578 214.149 356.592 213.052 355.925 212.366C355.256 211.681 354.159 211.667 353.474 212.335Z" fill="white"/>
<path id="Vector_18" d="M357.238 207.029C356.284 206.923 355.429 207.609 355.324 208.56C355.308 208.695 355.289 208.832 355.265 208.966C355.096 209.908 355.724 210.809 356.666 210.977C356.769 210.996 356.872 211.004 356.973 211.004C357.796 211.004 358.527 210.415 358.677 209.576C358.714 209.367 358.745 209.153 358.768 208.943C358.874 207.992 358.189 207.135 357.238 207.029Z" fill="white"/>
</g>
</g>
</g>
<g id="Group_34">
<g id="Group_35">
<path id="Vector_19" d="M325.271 193.921C324.45 193.921 323.855 194.176 323.798 194.912C323.685 196.159 323.43 198.113 320.541 198.113C318.303 198.113 317.085 196.952 317.085 194.459V186.217C317.085 183.724 318.303 182.563 320.484 182.563C323.402 182.563 323.742 184.602 323.798 185.594C323.826 186.273 324.393 186.585 325.3 186.585C326.319 186.585 326.801 186.302 326.801 185.027C326.801 182.025 324.252 179.9 320.371 179.9C316.944 179.9 314.083 181.628 314.083 186.217V194.459C314.083 199.048 316.916 200.775 320.343 200.775C324.223 200.775 326.801 198.594 326.801 195.479C326.801 194.232 326.319 193.921 325.271 193.921Z" fill="white"/>
</g>
</g>
<g id="Group_36">
<g id="Group_37">
<path id="Vector_20" d="M335.751 179.9C332.154 179.9 329.406 181.628 329.406 186.217V194.459C329.406 199.048 332.154 200.775 335.751 200.775C339.32 200.775 342.124 199.048 342.124 194.459V186.217C342.124 181.628 339.32 179.9 335.751 179.9ZM339.122 194.459C339.122 196.952 337.847 198.113 335.751 198.113C333.627 198.113 332.409 196.952 332.409 194.459V186.217C332.409 183.724 333.627 182.563 335.751 182.563C337.847 182.563 339.122 183.724 339.122 186.217V194.459Z" fill="white"/>
</g>
</g>
<g id="Group_38">
<g id="Group_39">
<path id="Vector_21" d="M356.032 197.943H347.704V196.867C347.704 193.61 356.881 191.627 356.881 185.537C356.881 182.138 354.105 179.9 350.82 179.9C347.732 179.9 345.013 181.883 345.013 184.914C345.013 186.189 345.58 186.585 346.373 186.585C347.364 186.585 347.959 186.019 347.959 185.452C347.959 183.526 349.233 182.648 350.82 182.648C352.972 182.648 353.879 184.234 353.879 185.622C353.879 189.984 344.617 192.278 344.617 196.867V199.615C344.617 200.209 345.381 200.606 345.948 200.606H356.032C356.542 200.606 357.023 199.954 357.023 199.247C357.023 198.538 356.541 197.943 356.032 197.943Z" fill="white"/>
</g>
</g>
</g>
</g>
</g>
<g id="co2-puff_2">
<g id="co2 1_4">
<g id="Group_40">
<g id="Group_41">
<path id="Vector_22" d="M503.574 501.542C505.023 498.346 505.777 494.868 505.777 491.304C505.777 477.613 494.638 466.474 480.946 466.474C476.814 466.474 472.805 467.485 469.21 469.417C464.537 464.504 458.121 461.731 451.247 461.731C442.288 461.731 434.083 466.562 429.692 474.229C427.693 473.719 425.634 473.462 423.545 473.462C409.853 473.462 398.714 484.601 398.714 498.292C398.714 500.828 399.091 503.31 399.838 505.698C394.41 510.391 391.227 517.268 391.227 524.497C391.227 537.574 401.388 548.323 414.229 549.262C414.201 549.742 414.187 550.223 414.187 550.703C414.187 564.394 425.326 575.533 439.017 575.533C447.155 575.533 454.742 571.493 459.343 564.962C463.967 569.609 470.292 572.289 476.953 572.289C489.972 572.289 500.682 562.218 501.704 549.457C512.862 546.92 521 536.916 521 525.247C521 514.295 513.743 504.729 503.574 501.542ZM498.555 544.192C497.097 544.373 496.012 545.627 496.041 547.096C496.044 547.217 496.046 547.337 496.046 547.458C496.046 557.986 487.48 566.552 476.952 566.552C470.71 566.552 464.849 563.488 461.274 558.357C460.687 557.515 459.693 557.051 458.675 557.138C457.653 557.226 456.756 557.852 456.322 558.781C453.192 565.473 446.399 569.796 439.017 569.796C428.489 569.796 419.923 561.231 419.923 550.703C419.923 549.451 420.046 548.195 420.288 546.97C420.461 546.097 420.219 545.193 419.632 544.523C419.086 543.899 418.298 543.545 417.474 543.545C417.414 543.545 417.353 543.547 417.293 543.55C416.859 543.578 416.455 543.592 416.057 543.592C405.528 543.592 396.963 535.026 396.963 524.498C396.963 518.375 399.934 512.578 404.912 508.993C405.99 508.216 406.394 506.8 405.887 505.571C404.934 503.261 404.45 500.812 404.45 498.293C404.45 487.764 413.015 479.199 423.544 479.199C425.819 479.199 428.045 479.595 430.159 480.376C431.58 480.901 433.164 480.231 433.776 478.846C436.834 471.935 443.692 467.469 451.246 467.469C457.195 467.469 462.7 470.171 466.35 474.883C467.277 476.081 468.976 476.35 470.23 475.499C473.396 473.348 477.101 472.211 480.944 472.211C491.473 472.211 500.038 480.777 500.038 491.305C500.038 495.097 498.928 498.762 496.829 501.901C496.28 502.723 496.193 503.768 496.597 504.67C497.001 505.571 497.841 506.201 498.82 506.337C508.193 507.638 515.262 515.767 515.262 525.247C515.263 534.862 508.08 543.007 498.555 544.192Z" fill="white"/>
</g>
</g>
<g id="Group_42">
<g id="Group_43">
<path id="Vector_23" d="M408.942 563.211C408.942 557.209 404.059 552.327 398.058 552.327C395.043 552.327 392.242 553.542 390.214 555.66C389.454 555.493 388.675 555.41 387.884 555.41C381.883 555.409 377 560.292 377 566.294C377 571.746 381.03 576.275 386.267 577.058C387.781 581.302 391.827 584.269 396.517 584.269C402.518 584.269 407.401 579.386 407.401 573.384C407.401 572.132 407.186 570.897 406.771 569.731C408.168 567.863 408.942 565.578 408.942 563.211ZM401.464 567.068C400.423 567.989 400.192 569.524 400.916 570.711C401.405 571.513 401.664 572.438 401.664 573.385C401.664 576.223 399.355 578.532 396.517 578.532C393.891 578.532 391.692 576.568 391.403 573.963C391.24 572.5 390.002 571.411 388.555 571.411C388.476 571.411 388.396 571.414 388.316 571.421C388.152 571.435 388.011 571.441 387.884 571.441C385.046 571.441 382.737 569.132 382.737 566.294C382.737 563.456 385.046 561.147 387.884 561.147C388.632 561.147 389.355 561.305 390.031 561.617C391.349 562.224 392.911 561.751 393.673 560.517C394.62 558.981 396.259 558.065 398.058 558.065C400.896 558.065 403.205 560.374 403.205 563.212C403.205 564.683 402.571 566.089 401.464 567.068Z" fill="white"/>
</g>
</g>
<g id="Group_44">
<g id="Group_45">
<g id="Group_46">
<path id="Vector_24" d="M483.715 554.174C481.771 556.068 479.207 557.111 476.492 557.111C474.69 557.111 472.917 556.642 471.365 555.754C469.989 554.967 468.237 555.446 467.451 556.82C466.664 558.196 467.142 559.948 468.517 560.735C470.935 562.118 473.693 562.849 476.492 562.849C480.711 562.849 484.698 561.228 487.719 558.283C488.854 557.177 488.877 555.361 487.772 554.226C486.666 553.092 484.849 553.068 483.715 554.174Z" fill="white"/>
<path id="Vector_25" d="M489.945 545.393C488.367 545.216 486.952 546.352 486.777 547.926C486.752 548.15 486.719 548.376 486.679 548.599C486.4 550.159 487.439 551.649 488.998 551.928C489.169 551.958 489.339 551.973 489.506 551.973C490.869 551.973 492.078 550.997 492.327 549.608C492.388 549.262 492.44 548.909 492.478 548.561C492.654 546.986 491.519 545.567 489.945 545.393Z" fill="white"/>
</g>
</g>
</g>
<g id="Group_47">
<g id="Group_48">
<path id="Vector_26" d="M437.035 523.696C435.675 523.696 434.69 524.118 434.597 525.338C434.409 527.4 433.988 530.635 429.206 530.635C425.502 530.635 423.486 528.713 423.486 524.587V510.945C423.486 506.819 425.502 504.897 429.112 504.897C433.941 504.897 434.503 508.272 434.597 509.914C434.644 511.039 435.581 511.554 437.082 511.554C438.77 511.554 439.567 511.085 439.567 508.976C439.567 504.006 435.347 500.49 428.925 500.49C423.252 500.49 418.517 503.35 418.517 510.945V524.587C418.517 532.182 423.205 535.042 428.878 535.042C435.301 535.042 439.567 531.432 439.567 526.275C439.566 524.212 438.769 523.696 437.035 523.696Z" fill="white"/>
</g>
</g>
<g id="Group_49">
<g id="Group_50">
<path id="Vector_27" d="M454.381 500.49C448.427 500.49 443.879 503.35 443.879 510.945V524.587C443.879 532.182 448.427 535.042 454.381 535.042C460.287 535.042 464.929 532.182 464.929 524.587V510.945C464.929 503.35 460.288 500.49 454.381 500.49ZM459.959 524.588C459.959 528.713 457.85 530.635 454.381 530.635C450.865 530.635 448.849 528.713 448.849 524.588V510.945C448.849 506.819 450.865 504.897 454.381 504.897C457.85 504.897 459.959 506.819 459.959 510.945V524.588Z" fill="white"/>
</g>
</g>
<g id="Group_51">
<g id="Group_52">
<path id="Vector_28" d="M487.949 530.354H474.165V528.573C474.165 523.181 489.355 519.9 489.355 509.82C489.355 504.194 484.761 500.49 479.322 500.49C474.212 500.49 469.712 503.772 469.712 508.789C469.712 510.898 470.649 511.555 471.962 511.555C473.603 511.555 474.587 510.617 474.587 509.679C474.587 506.492 476.697 505.038 479.322 505.038C482.885 505.038 484.386 507.664 484.386 509.961C484.386 517.18 469.055 520.978 469.055 528.573V533.121C469.055 534.105 470.321 534.762 471.259 534.762H487.949C488.793 534.762 489.59 533.683 489.59 532.511C489.59 531.339 488.792 530.354 487.949 530.354Z" fill="white"/>
</g>
</g>
</g>
<g id="Group 31_2">
<g id="co2 1_5" clip-path="url(#clip2_165_417)">
<g id="Group_53">
<g id="Group_54">
<path id="Vector_29" d="M116.72 518.417C117.907 515.797 118.525 512.947 118.525 510.027C118.525 498.808 109.397 489.68 98.1779 489.68C94.7921 489.68 91.5063 490.508 88.5612 492.092C84.7317 488.066 79.4738 485.794 73.8414 485.794C66.5 485.794 59.7761 489.752 56.1782 496.035C54.5396 495.617 52.8526 495.406 51.1407 495.406C39.921 495.406 30.7933 504.534 30.7933 515.753C30.7933 517.831 31.1023 519.865 31.7144 521.822C27.2664 525.668 24.6577 531.303 24.6577 537.227C24.6577 547.943 32.9841 556.751 43.5066 557.52C43.4838 557.913 43.4723 558.307 43.4723 558.701C43.4723 569.921 52.6002 579.048 63.8197 579.048C70.4883 579.048 76.7054 575.737 80.4756 570.386C84.2641 574.193 89.4476 576.39 94.9055 576.39C105.574 576.39 114.351 568.137 115.187 557.68C124.331 555.601 131 547.403 131 537.841C131 528.867 125.053 521.028 116.72 518.417ZM112.607 553.366C111.413 553.514 110.523 554.542 110.547 555.746C110.549 555.844 110.551 555.943 110.551 556.042C110.551 564.67 103.532 571.688 94.9051 571.688C89.7898 571.688 84.9868 569.178 82.0573 564.973C81.577 564.284 80.7621 563.903 79.9278 563.975C79.0907 564.046 78.3556 564.56 77.9995 565.321C75.4346 570.804 69.8683 574.347 63.8192 574.347C55.1918 574.347 48.1729 567.328 48.1729 558.701C48.1729 557.675 48.2738 556.646 48.4723 555.642C48.614 554.926 48.4151 554.186 47.9344 553.637C47.4866 553.126 46.8413 552.835 46.1664 552.835C46.1167 552.835 46.0669 552.837 46.0178 552.84C45.6622 552.863 45.331 552.874 45.0046 552.874C36.3773 552.874 29.3584 545.855 29.3584 537.227C29.3584 532.21 31.7933 527.46 35.8721 524.522C36.7559 523.886 37.0867 522.725 36.6711 521.718C35.8898 519.825 35.4934 517.818 35.4934 515.754C35.4934 507.126 42.5124 500.107 51.1397 500.107C53.0042 500.107 54.8284 500.432 56.5608 501.072C57.7249 501.502 59.0229 500.953 59.5249 499.818C62.0308 494.155 67.6501 490.496 73.84 490.496C78.7151 490.496 83.2263 492.71 86.2173 496.571C86.9772 497.552 88.3694 497.773 89.3964 497.076C91.9908 495.313 95.0267 494.381 98.1766 494.381C106.804 494.381 113.823 501.4 113.823 510.028C113.823 513.135 112.913 516.138 111.193 518.711C110.744 519.384 110.672 520.241 111.003 520.98C111.334 521.718 112.022 522.234 112.824 522.346C120.505 523.412 126.298 530.073 126.298 537.841C126.299 545.72 120.413 552.395 112.607 553.366Z" fill="white"/>
</g>
</g>
<g id="Group_55">
<g id="Group_56">
<path id="Vector_30" d="M39.1748 568.95C39.1748 564.032 35.1736 560.031 30.2557 560.031C27.7853 560.031 25.4898 561.027 23.8279 562.763C23.2052 562.626 22.5672 562.558 21.9187 562.558C17.0009 562.557 13 566.559 13 571.477C13 575.944 16.3022 579.655 20.5942 580.297C21.8341 583.775 25.1496 586.206 28.9929 586.206C33.9107 586.206 37.9118 582.205 37.9118 577.287C37.9118 576.261 37.7358 575.249 37.3953 574.293C38.5403 572.763 39.1748 570.89 39.1748 568.95ZM33.0471 572.111C32.1937 572.865 32.0042 574.123 32.5974 575.096C32.9985 575.754 33.2105 576.511 33.2105 577.287C33.2105 579.613 31.3186 581.505 28.9929 581.505C26.8413 581.505 25.0397 579.896 24.8025 577.761C24.6691 576.562 23.6543 575.67 22.4686 575.67C22.4038 575.67 22.3384 575.672 22.2724 575.678C22.1388 575.689 22.0229 575.695 21.9191 575.695C19.5935 575.695 17.7016 573.803 17.7016 571.477C17.7016 569.151 19.5935 567.259 21.9191 567.259C22.532 567.259 23.124 567.389 23.6785 567.644C24.7583 568.141 26.0385 567.754 26.6624 566.742C27.4384 565.484 28.7818 564.733 30.2561 564.733C32.5818 564.733 34.4739 566.625 34.4739 568.951C34.4739 570.157 33.9538 571.309 33.0471 572.111Z" fill="white"/>
</g>
</g>
<g id="Group_57">
<g id="Group_58">
<g id="Group_59">
<path id="Vector_31" d="M100.447 561.546C98.8547 563.098 96.753 563.953 94.5285 563.953C93.0521 563.953 91.5993 563.568 90.3273 562.841C89.1996 562.196 87.764 562.588 87.1196 563.715C86.475 564.842 86.8664 566.278 87.9931 566.922C89.9747 568.056 92.2344 568.655 94.5285 568.655C97.9858 568.655 101.253 567.326 103.729 564.913C104.658 564.007 104.677 562.518 103.771 561.589C102.865 560.659 101.377 560.64 100.447 561.546Z" fill="white"/>
<path id="Vector_32" d="M105.552 554.35C104.259 554.205 103.099 555.136 102.956 556.426C102.935 556.609 102.909 556.795 102.876 556.978C102.648 558.255 103.498 559.476 104.776 559.705C104.916 559.73 105.055 559.742 105.193 559.742C106.31 559.742 107.3 558.942 107.504 557.804C107.554 557.52 107.596 557.231 107.628 556.946C107.772 555.655 106.842 554.493 105.552 554.35Z" fill="white"/>
</g>
</g>
</g>
<g id="Group_60">
<g id="Group_61">
<path id="Vector_33" d="M62.195 536.571C61.0809 536.571 60.2741 536.917 60.1973 537.916C60.0438 539.606 59.6981 542.257 55.7795 542.257C52.7447 542.257 51.0927 540.682 51.0927 537.301V526.122C51.0927 522.741 52.7447 521.166 55.7027 521.166C59.6596 521.166 60.1206 523.932 60.1976 525.277C60.2358 526.198 61.0042 526.621 62.2337 526.621C63.6168 526.621 64.2699 526.237 64.2699 524.508C64.2699 520.436 60.8124 517.555 55.5492 517.555C50.9007 517.555 47.0205 519.898 47.0205 526.122V537.301C47.0205 543.524 50.8624 545.868 55.511 545.868C60.7742 545.868 64.2702 542.91 64.2702 538.684C64.2697 536.994 63.6166 536.571 62.195 536.571Z" fill="white"/>
</g>
</g>
<g id="Group_62">
<g id="Group_63">
<path id="Vector_34" d="M76.4092 517.554C71.5304 517.554 67.8037 519.898 67.8037 526.121V537.301C67.8037 543.524 71.5304 545.868 76.4092 545.868C81.2495 545.868 85.0531 543.524 85.0531 537.301V526.121C85.0529 519.898 81.2497 517.554 76.4092 517.554ZM80.9808 537.301C80.9808 540.682 79.252 542.257 76.4094 542.257C73.5281 542.257 71.8761 540.682 71.8761 537.301V526.121C71.8761 522.741 73.5281 521.166 76.4094 521.166C79.2522 521.166 80.9808 522.741 80.9808 526.121V537.301Z" fill="white"/>
</g>
</g>
<g id="Group_64">
<g id="Group_65">
<path id="Vector_35" d="M103.917 542.026H92.6217V540.566C92.6217 536.148 105.069 533.459 105.069 525.199C105.069 520.589 101.304 517.554 96.8473 517.554C92.66 517.554 88.972 520.243 88.972 524.354C88.972 526.083 89.7404 526.621 90.816 526.621C92.1605 526.621 92.9672 525.852 92.9672 525.084C92.9672 522.472 94.6959 521.281 96.8473 521.281C99.7671 521.281 100.996 523.432 100.996 525.315C100.996 531.231 88.4341 534.343 88.4341 540.567V544.293C88.4341 545.1 89.4712 545.638 90.2398 545.638H103.917C104.608 545.638 105.261 544.754 105.261 543.794C105.261 542.833 104.608 542.026 103.917 542.026Z" fill="white"/>
</g>
</g>
</g>
</g>
<g id="Group 30_2">
<g id="co2 1_6">
<g id="Group_66">
<g id="Group_67">
<path id="Vector_36" d="M80.4715 313.536C81.3471 311.605 81.8027 309.503 81.8027 307.35C81.8027 299.078 75.0728 292.348 66.8008 292.348C64.3045 292.348 61.8819 292.959 59.7105 294.127C56.8871 291.158 53.0104 289.483 48.8577 289.483C43.445 289.483 38.4876 292.402 35.8349 297.034C34.6268 296.726 33.3829 296.57 32.1208 296.57C23.8486 296.57 17.1189 303.3 17.1189 311.572C17.1189 313.104 17.3467 314.604 17.7981 316.046C14.5186 318.882 12.5952 323.037 12.5952 327.405C12.5952 335.305 18.7342 341.799 26.4923 342.366C26.4755 342.656 26.467 342.947 26.467 343.237C26.467 351.509 33.1969 358.239 41.4689 358.239C46.3855 358.239 50.9693 355.798 53.7491 351.852C56.5423 354.659 60.364 356.279 64.3881 356.279C72.2538 356.279 78.7247 350.194 79.3417 342.484C86.0832 340.952 91.0001 334.907 91.0001 327.857C91.0001 321.24 86.6154 315.461 80.4715 313.536ZM77.4394 339.303C76.5587 339.413 75.9028 340.17 75.9207 341.058C75.9222 341.131 75.9236 341.204 75.9236 341.277C75.9236 347.637 70.7486 352.812 64.3877 352.812C60.6163 352.812 57.0752 350.961 54.9153 347.861C54.5612 347.353 53.9603 347.072 53.3452 347.125C52.728 347.178 52.186 347.556 51.9235 348.117C50.0324 352.16 45.9284 354.773 41.4685 354.773C35.1077 354.773 29.9327 349.598 29.9327 343.237C29.9327 342.48 30.0071 341.722 30.1534 340.982C30.2579 340.454 30.1113 339.908 29.7568 339.503C29.4267 339.126 28.9509 338.912 28.4533 338.912C28.4166 338.912 28.3799 338.913 28.3437 338.916C28.0816 338.932 27.8374 338.941 27.5968 338.941C21.2359 338.941 16.0609 333.766 16.0609 327.405C16.0609 323.705 17.8562 320.203 20.8634 318.037C21.5151 317.568 21.7589 316.712 21.4526 315.97C20.8765 314.574 20.5843 313.095 20.5843 311.572C20.5843 305.212 25.7592 300.037 32.1201 300.037C33.4948 300.037 34.8397 300.276 36.117 300.748C36.9753 301.065 37.9323 300.66 38.3024 299.823C40.1499 295.648 44.293 292.95 48.8567 292.95C52.4511 292.95 55.7771 294.582 57.9824 297.429C58.5426 298.153 59.5691 298.316 60.3263 297.801C62.2391 296.502 64.4775 295.815 66.7998 295.815C73.1606 295.815 78.3356 300.99 78.3356 307.351C78.3356 309.642 77.6651 311.856 76.397 313.753C76.0653 314.249 76.0123 314.881 76.2566 315.425C76.5008 315.97 77.0082 316.35 77.5993 316.433C83.2625 317.218 87.5331 322.13 87.5331 327.857C87.534 333.666 83.1942 338.587 77.4394 339.303Z" fill="white"/>
</g>
</g>
<g id="Group_68">
<g id="Group_69">
<path id="Vector_37" d="M23.2984 350.794C23.2984 347.168 20.3484 344.218 16.7224 344.218C14.901 344.218 13.2086 344.952 11.9833 346.232C11.5241 346.131 11.0538 346.081 10.5756 346.081C6.94984 346.081 4 349.031 4 352.657C4 355.951 6.43464 358.687 9.5991 359.16C10.5133 361.724 12.9578 363.517 15.7914 363.517C19.4172 363.517 22.3672 360.567 22.3672 356.941C22.3672 356.184 22.2374 355.438 21.9864 354.733C22.8306 353.605 23.2984 352.224 23.2984 350.794ZM18.7805 353.124C18.1513 353.681 18.0116 354.608 18.449 355.325C18.7446 355.81 18.901 356.369 18.901 356.941C18.901 358.656 17.5061 360.051 15.7914 360.051C14.205 360.051 12.8767 358.864 12.7019 357.29C12.6035 356.406 11.8553 355.748 10.9811 355.748C10.9333 355.748 10.8851 355.75 10.8365 355.755C10.7379 355.763 10.6524 355.767 10.576 355.767C8.8613 355.767 7.46641 354.372 7.46641 352.657C7.46641 350.942 8.8613 349.547 10.576 349.547C11.0278 349.547 11.4643 349.643 11.8732 349.831C12.6692 350.198 13.6132 349.912 14.0731 349.166C14.6453 348.239 15.6357 347.685 16.7227 347.685C18.4374 347.685 19.8325 349.08 19.8325 350.795C19.8325 351.684 19.449 352.533 18.7805 353.124Z" fill="white"/>
</g>
</g>
<g id="Group_70">
<g id="Group_71">
<g id="Group_72">
<path id="Vector_38" d="M68.4738 345.335C67.2995 346.479 65.75 347.109 64.1099 347.109C63.0214 347.109 61.9502 346.826 61.0124 346.289C60.181 345.814 59.1225 346.103 58.6474 346.933C58.1722 347.764 58.4607 348.823 59.2914 349.298C60.7524 350.134 62.4185 350.576 64.1099 350.576C66.6589 350.576 69.0679 349.596 70.893 347.817C71.5785 347.149 71.5924 346.052 70.9246 345.366C70.2565 344.681 69.1591 344.667 68.4738 345.335Z" fill="white"/>
<path id="Vector_39" d="M72.2376 340.029C71.2845 339.923 70.4293 340.609 70.3236 341.56C70.3085 341.695 70.2888 341.832 70.2646 341.966C70.0962 342.908 70.7236 343.809 71.6658 343.977C71.7689 343.996 71.8716 344.004 71.9727 344.004C72.7963 344.004 73.5268 343.415 73.6767 342.576C73.714 342.367 73.745 342.153 73.7684 341.943C73.8743 340.992 73.189 340.135 72.2376 340.029Z" fill="white"/>
</g>
</g>
</g>
<g id="Group_73">
<g id="Group_74">
<path id="Vector_40" d="M40.271 326.921C39.4496 326.921 38.8547 327.176 38.7981 327.912C38.685 329.159 38.4301 331.113 35.5409 331.113C33.3034 331.113 32.0854 329.952 32.0854 327.459V319.217C32.0854 316.724 33.3034 315.563 35.4843 315.563C38.4017 315.563 38.7415 317.602 38.7983 318.594C38.8265 319.273 39.393 319.585 40.2996 319.585C41.3193 319.585 41.8008 319.302 41.8008 318.027C41.8008 315.025 39.2516 312.9 35.3711 312.9C31.9438 312.9 29.083 314.628 29.083 319.217V327.459C29.083 332.048 31.9156 333.775 35.3429 333.775C39.2234 333.775 41.801 331.594 41.801 328.479C41.8006 327.232 41.3191 326.921 40.271 326.921Z" fill="white"/>
</g>
</g>
<g id="Group_75">
<g id="Group_76">
<path id="Vector_41" d="M50.751 312.9C47.1539 312.9 44.4062 314.628 44.4062 319.217V327.459C44.4062 332.048 47.1539 333.775 50.751 333.775C54.3197 333.775 57.1241 332.048 57.1241 327.459V319.217C57.1239 314.628 54.3198 312.9 50.751 312.9ZM54.1215 327.459C54.1215 329.952 52.8469 331.113 50.7511 331.113C48.6268 331.113 47.4088 329.952 47.4088 327.459V319.217C47.4088 316.724 48.6268 315.563 50.7511 315.563C52.8471 315.563 54.1215 316.724 54.1215 319.217V327.459Z" fill="white"/>
</g>
</g>
<g id="Group_77">
<g id="Group_78">
<path id="Vector_42" d="M71.0317 330.943H62.7042V329.867C62.7042 326.61 71.8813 324.627 71.8813 318.537C71.8813 315.138 69.1055 312.9 65.8197 312.9C62.7324 312.9 60.0133 314.883 60.0133 317.914C60.0133 319.189 60.5798 319.585 61.3728 319.585C62.3642 319.585 62.9589 319.019 62.9589 318.452C62.9589 316.526 64.2335 315.648 65.8197 315.648C67.9724 315.648 68.8788 317.234 68.8788 318.622C68.8788 322.984 59.6167 325.278 59.6167 329.867V332.615C59.6167 333.209 60.3813 333.606 60.948 333.606H71.0317C71.5416 333.606 72.023 332.954 72.023 332.247C72.023 331.538 71.5413 330.943 71.0317 330.943Z" fill="white"/>
</g>
</g>
</g>
</g>
</g>
<g id="co2-puff_3">
<g id="Group 29">
<g id="co2 1_7" clip-path="url(#clip3_165_417)">
<g id="Group_79">
<g id="Group_80">
<path id="Vector_43" d="M344.194 454.63C344.986 452.882 345.398 450.981 345.398 449.033C345.398 441.548 339.309 435.459 331.824 435.459C329.565 435.459 327.373 436.012 325.409 437.068C322.854 434.382 319.346 432.867 315.589 432.867C310.691 432.867 306.205 435.507 303.805 439.699C302.712 439.42 301.587 439.279 300.445 439.279C292.96 439.279 286.87 445.369 286.87 452.853C286.87 454.239 287.077 455.596 287.485 456.902C284.518 459.467 282.777 463.227 282.777 467.179C282.777 474.327 288.332 480.203 295.352 480.717C295.337 480.979 295.329 481.242 295.329 481.504C295.329 488.989 301.418 495.078 308.903 495.078C313.352 495.078 317.499 492.87 320.015 489.299C322.542 491.84 326 493.305 329.641 493.305C336.758 493.305 342.613 487.8 343.171 480.823C349.271 479.437 353.72 473.967 353.72 467.588C353.72 461.601 349.753 456.372 344.194 454.63ZM341.45 477.945C340.653 478.044 340.06 478.73 340.076 479.533C340.077 479.599 340.079 479.665 340.079 479.731C340.079 485.486 335.396 490.169 329.641 490.169C326.228 490.169 323.024 488.494 321.07 485.689C320.749 485.229 320.206 484.975 319.649 485.023C319.091 485.07 318.6 485.413 318.363 485.92C316.652 489.579 312.938 491.942 308.903 491.942C303.147 491.942 298.465 487.26 298.465 481.504C298.465 480.82 298.532 480.134 298.664 479.464C298.759 478.986 298.626 478.492 298.306 478.126C298.007 477.785 297.576 477.591 297.126 477.591C297.093 477.591 297.06 477.592 297.027 477.594C296.79 477.609 296.569 477.617 296.351 477.617C290.596 477.617 285.913 472.934 285.913 467.179C285.913 463.832 287.538 460.663 290.259 458.703C290.848 458.278 291.069 457.504 290.792 456.832C290.271 455.57 290.006 454.231 290.006 452.853C290.006 447.098 294.689 442.415 300.444 442.415C301.688 442.415 302.905 442.632 304.06 443.059C304.837 443.346 305.703 442.98 306.038 442.223C307.71 438.444 311.458 436.003 315.588 436.003C318.84 436.003 321.85 437.48 323.845 440.056C324.352 440.711 325.281 440.858 325.966 440.393C327.696 439.217 329.722 438.596 331.823 438.596C337.579 438.596 342.261 443.278 342.261 449.034C342.261 451.107 341.654 453.11 340.507 454.826C340.207 455.275 340.159 455.847 340.38 456.34C340.601 456.832 341.06 457.177 341.595 457.251C346.719 457.962 350.583 462.406 350.583 467.588C350.584 472.845 346.657 477.297 341.45 477.945Z" fill="white"/>
</g>
</g>
<g id="Group_81">
<g id="Group_82">
<path id="Vector_44" d="M292.462 488.342C292.462 485.061 289.792 482.392 286.512 482.392C284.864 482.392 283.332 483.056 282.223 484.214C281.808 484.123 281.382 484.077 280.95 484.077C277.669 484.077 275 486.746 275 490.027C275 493.007 277.203 495.483 280.066 495.911C280.893 498.232 283.105 499.853 285.669 499.853C288.95 499.853 291.619 497.184 291.619 493.903C291.619 493.219 291.502 492.543 291.275 491.906C292.038 490.885 292.462 489.636 292.462 488.342ZM288.374 490.45C287.804 490.953 287.678 491.793 288.074 492.441C288.341 492.88 288.483 493.386 288.483 493.903C288.483 495.455 287.221 496.717 285.669 496.717C284.234 496.717 283.032 495.643 282.874 494.219C282.785 493.419 282.108 492.824 281.317 492.824C281.273 492.824 281.23 492.826 281.186 492.83C281.097 492.837 281.019 492.841 280.95 492.841C279.399 492.841 278.136 491.579 278.136 490.027C278.136 488.476 279.399 487.214 280.95 487.214C281.359 487.214 281.754 487.3 282.124 487.47C282.844 487.802 283.698 487.543 284.114 486.869C284.632 486.029 285.528 485.528 286.512 485.528C288.063 485.528 289.326 486.791 289.326 488.342C289.326 489.147 288.979 489.915 288.374 490.45Z" fill="white"/>
</g>
</g>
<g id="Group_83">
<g id="Group_84">
<g id="Group_85">
<path id="Vector_45" d="M333.338 483.402C332.275 484.437 330.873 485.007 329.389 485.007C328.404 485.007 327.435 484.751 326.586 484.266C325.834 483.835 324.876 484.097 324.446 484.848C324.016 485.6 324.277 486.558 325.029 486.988C326.351 487.744 327.859 488.144 329.389 488.144C331.695 488.144 333.875 487.258 335.527 485.648C336.147 485.043 336.159 484.05 335.555 483.43C334.951 482.81 333.958 482.797 333.338 483.402Z" fill="white"/>
<path id="Vector_46" d="M336.743 478.601C335.881 478.505 335.107 479.126 335.011 479.986C334.997 480.109 334.98 480.232 334.958 480.354C334.805 481.207 335.373 482.021 336.226 482.174C336.319 482.19 336.412 482.198 336.503 482.198C337.249 482.198 337.91 481.665 338.045 480.906C338.079 480.716 338.107 480.523 338.128 480.333C338.224 479.472 337.604 478.697 336.743 478.601Z" fill="white"/>
</g>
</g>
</g>
<g id="Group_86">
<g id="Group_87">
<path id="Vector_47" d="M307.819 466.741C307.076 466.741 306.538 466.971 306.486 467.638C306.384 468.765 306.153 470.534 303.539 470.534C301.514 470.534 300.412 469.483 300.412 467.228V459.77C300.412 457.515 301.514 456.464 303.488 456.464C306.128 456.464 306.435 458.309 306.486 459.206C306.512 459.821 307.025 460.103 307.845 460.103C308.767 460.103 309.203 459.847 309.203 458.693C309.203 455.977 306.897 454.055 303.385 454.055C300.284 454.055 297.696 455.618 297.696 459.77V467.228C297.696 471.38 300.259 472.943 303.36 472.943C306.871 472.943 309.203 470.969 309.203 468.15C309.203 467.023 308.767 466.741 307.819 466.741Z" fill="white"/>
</g>
</g>
<g id="Group_88">
<g id="Group_89">
<path id="Vector_48" d="M317.301 454.055C314.047 454.055 311.561 455.618 311.561 459.77V467.228C311.561 471.38 314.047 472.943 317.301 472.943C320.53 472.943 323.068 471.38 323.068 467.228V459.77C323.068 455.618 320.531 454.055 317.301 454.055ZM320.351 467.228C320.351 469.483 319.198 470.534 317.302 470.534C315.379 470.534 314.277 469.483 314.277 467.228V459.77C314.277 457.515 315.379 456.464 317.302 456.464C319.198 456.464 320.351 457.515 320.351 459.77V467.228Z" fill="white"/>
</g>
</g>
<g id="Group_90">
<g id="Group_91">
<path id="Vector_49" d="M335.652 470.38H328.117V469.406C328.117 466.459 336.421 464.665 336.421 459.155C336.421 456.079 333.909 454.055 330.936 454.055C328.143 454.055 325.683 455.849 325.683 458.591C325.683 459.745 326.195 460.103 326.913 460.103C327.81 460.103 328.348 459.591 328.348 459.078C328.348 457.335 329.501 456.541 330.936 456.541C332.884 456.541 333.704 457.976 333.704 459.232C333.704 463.179 325.324 465.255 325.324 469.407V471.893C325.324 472.431 326.016 472.79 326.528 472.79H335.652C336.114 472.79 336.549 472.2 336.549 471.56C336.549 470.919 336.113 470.38 335.652 470.38Z" fill="white"/>
</g>
</g>
</g>
</g>
<g id="Group 31_3">
<g id="co2 1_8" clip-path="url(#clip4_165_417)">
<g id="Group_92">
<g id="Group_93">
<path id="Vector_50" d="M305.7 625.641C306.35 624.209 306.687 622.651 306.687 621.055C306.687 614.921 301.697 609.931 295.564 609.931C293.713 609.931 291.917 610.384 290.307 611.25C288.213 609.049 285.339 607.807 282.26 607.807C278.247 607.807 274.571 609.971 272.604 613.406C271.708 613.177 270.786 613.062 269.85 613.062C263.717 613.062 258.727 618.052 258.727 624.185C258.727 625.321 258.896 626.433 259.231 627.502C256.799 629.605 255.373 632.686 255.373 635.924C255.373 641.782 259.925 646.597 265.677 647.017C265.665 647.232 265.658 647.448 265.658 647.663C265.658 653.796 270.648 658.786 276.782 658.786C280.427 658.786 283.826 656.976 285.887 654.051C287.958 656.132 290.791 657.333 293.775 657.333C299.607 657.333 304.405 652.822 304.863 647.105C309.861 645.968 313.507 641.487 313.507 636.26C313.507 631.354 310.256 627.068 305.7 625.641ZM303.452 644.746C302.799 644.828 302.313 645.389 302.326 646.047C302.327 646.101 302.328 646.155 302.328 646.21C302.328 650.926 298.491 654.763 293.775 654.763C290.979 654.763 288.353 653.39 286.752 651.092C286.489 650.715 286.043 650.507 285.587 650.546C285.13 650.585 284.728 650.866 284.533 651.282C283.131 654.279 280.088 656.216 276.781 656.216C272.065 656.216 268.228 652.379 268.228 647.663C268.228 647.102 268.283 646.54 268.392 645.991C268.469 645.6 268.36 645.195 268.098 644.895C267.853 644.615 267.5 644.456 267.131 644.456C267.104 644.456 267.077 644.457 267.05 644.459C266.855 644.471 266.674 644.477 266.496 644.477C261.78 644.477 257.943 640.64 257.943 635.924C257.943 633.181 259.274 630.585 261.504 628.979C261.987 628.631 262.168 627.996 261.94 627.446C261.513 626.411 261.297 625.314 261.297 624.185C261.297 619.469 265.134 615.632 269.85 615.632C270.869 615.632 271.866 615.809 272.813 616.159C273.45 616.394 274.159 616.094 274.434 615.474C275.804 612.378 278.876 610.377 282.259 610.377C284.924 610.377 287.391 611.588 289.026 613.698C289.441 614.235 290.202 614.356 290.764 613.974C292.182 613.011 293.841 612.502 295.563 612.502C300.28 612.502 304.117 616.339 304.117 621.055C304.117 622.754 303.62 624.395 302.679 625.802C302.433 626.17 302.394 626.638 302.575 627.042C302.756 627.446 303.132 627.728 303.571 627.789C307.77 628.371 310.936 632.013 310.936 636.26C310.937 640.567 307.719 644.215 303.452 644.746Z" fill="white"/>
</g>
</g>
<g id="Group_94">
<g id="Group_95">
<path id="Vector_51" d="M263.309 653.266C263.309 650.578 261.122 648.391 258.433 648.391C257.083 648.391 255.828 648.935 254.919 649.884C254.579 649.809 254.23 649.772 253.876 649.772C251.187 649.772 249 651.959 249 654.647C249 657.09 250.805 659.118 253.151 659.469C253.829 661.371 255.642 662.7 257.743 662.7C260.431 662.7 262.618 660.512 262.618 657.824C262.618 657.263 262.522 656.709 262.336 656.187C262.962 655.35 263.309 654.327 263.309 653.266ZM259.959 654.994C259.493 655.407 259.389 656.094 259.713 656.626C259.932 656.986 260.048 657.4 260.048 657.824C260.048 659.095 259.014 660.13 257.743 660.13C256.567 660.13 255.582 659.25 255.452 658.083C255.379 657.427 254.824 656.94 254.176 656.94C254.141 656.94 254.105 656.941 254.069 656.944C253.996 656.95 253.932 656.953 253.876 656.953C252.604 656.953 251.57 655.919 251.57 654.648C251.57 653.376 252.604 652.342 253.876 652.342C254.211 652.342 254.534 652.413 254.838 652.552C255.428 652.824 256.128 652.612 256.469 652.059C256.893 651.372 257.627 650.961 258.433 650.961C259.705 650.961 260.739 651.995 260.739 653.267C260.739 653.926 260.455 654.556 259.959 654.994Z" fill="white"/>
</g>
</g>
<g id="Group_96">
<g id="Group_97">
<g id="Group_98">
<path id="Vector_52" d="M296.804 649.218C295.934 650.067 294.785 650.534 293.569 650.534C292.762 650.534 291.967 650.324 291.272 649.926C290.655 649.574 289.871 649.788 289.518 650.404C289.166 651.02 289.38 651.805 289.996 652.157C291.079 652.777 292.314 653.104 293.569 653.104C295.459 653.104 297.245 652.378 298.598 651.059C299.106 650.563 299.117 649.75 298.621 649.242C298.126 648.733 297.312 648.723 296.804 649.218Z" fill="white"/>
<path id="Vector_53" d="M299.595 645.284C298.888 645.206 298.254 645.714 298.176 646.419C298.165 646.52 298.15 646.621 298.132 646.721C298.007 647.419 298.472 648.087 299.171 648.212C299.247 648.226 299.324 648.232 299.399 648.232C300.009 648.232 300.551 647.795 300.662 647.173C300.69 647.018 300.713 646.86 300.73 646.704C300.808 645.998 300.3 645.363 299.595 645.284Z" fill="white"/>
</g>
</g>
</g>
<g id="Group_99">
<g id="Group_100">
<path id="Vector_54" d="M275.893 635.565C275.284 635.565 274.843 635.754 274.801 636.301C274.717 637.225 274.528 638.674 272.386 638.674C270.727 638.674 269.824 637.813 269.824 635.965V629.853C269.824 628.005 270.727 627.144 272.344 627.144C274.507 627.144 274.759 628.656 274.801 629.391C274.822 629.895 275.242 630.126 275.914 630.126C276.67 630.126 277.027 629.916 277.027 628.971C277.027 626.745 275.137 625.17 272.26 625.17C269.719 625.17 267.598 626.451 267.598 629.853V635.965C267.598 639.367 269.698 640.648 272.239 640.648C275.116 640.648 277.027 639.031 277.027 636.721C277.027 635.797 276.67 635.565 275.893 635.565Z" fill="white"/>
</g>
</g>
<g id="Group_101">
<g id="Group_102">
<path id="Vector_55" d="M283.664 625.17C280.997 625.17 278.959 626.451 278.959 629.853V635.965C278.959 639.367 280.997 640.648 283.664 640.648C286.31 640.648 288.389 639.367 288.389 635.965V629.853C288.389 626.451 286.31 625.17 283.664 625.17ZM286.163 635.965C286.163 637.813 285.218 638.674 283.664 638.674C282.089 638.674 281.186 637.813 281.186 635.965V629.853C281.186 628.005 282.089 627.144 283.664 627.144C285.218 627.144 286.163 628.005 286.163 629.853V635.965Z" fill="white"/>
</g>
</g>
<g id="Group_103">
<g id="Group_104">
<path id="Vector_56" d="M298.701 638.548H292.527V637.75C292.527 635.335 299.331 633.865 299.331 629.349C299.331 626.829 297.273 625.17 294.837 625.17C292.547 625.17 290.531 626.64 290.531 628.887C290.531 629.832 290.951 630.126 291.539 630.126C292.274 630.126 292.715 629.706 292.715 629.286C292.715 627.858 293.66 627.207 294.837 627.207C296.433 627.207 297.105 628.383 297.105 629.412C297.105 632.647 290.237 634.348 290.237 637.75V639.787C290.237 640.228 290.804 640.522 291.224 640.522H298.701C299.079 640.522 299.436 640.039 299.436 639.514C299.436 638.989 299.079 638.548 298.701 638.548Z" fill="white"/>
</g>
</g>
</g>
</g>
<g id="Group 30_3">
<g id="co2 1_9" clip-path="url(#clip5_165_417)">
<g id="Group_105">
<g id="Group_106">
<path id="Vector_57" d="M248.804 518.693C249.283 517.637 249.532 516.489 249.532 515.312C249.532 510.79 245.853 507.111 241.331 507.111C239.966 507.111 238.642 507.445 237.455 508.083C235.912 506.46 233.792 505.544 231.522 505.544C228.563 505.544 225.853 507.14 224.403 509.672C223.743 509.504 223.063 509.419 222.373 509.419C217.851 509.419 214.172 513.098 214.172 517.62C214.172 518.457 214.296 519.277 214.543 520.065C212.75 521.616 211.699 523.887 211.699 526.275C211.699 530.594 215.055 534.144 219.296 534.454C219.287 534.612 219.282 534.771 219.282 534.93C219.282 539.452 222.961 543.131 227.483 543.131C230.171 543.131 232.677 541.796 234.196 539.639C235.723 541.174 237.812 542.059 240.012 542.059C244.312 542.059 247.85 538.733 248.187 534.518C251.872 533.68 254.56 530.376 254.56 526.522C254.56 522.905 252.163 519.745 248.804 518.693ZM247.147 532.779C246.665 532.839 246.307 533.253 246.317 533.739C246.317 533.778 246.318 533.818 246.318 533.858C246.318 537.335 243.489 540.164 240.012 540.164C237.95 540.164 236.014 539.152 234.834 537.458C234.64 537.18 234.312 537.026 233.975 537.055C233.638 537.084 233.342 537.291 233.198 537.598C232.164 539.808 229.921 541.236 227.483 541.236C224.006 541.236 221.177 538.407 221.177 534.93C221.177 534.516 221.217 534.102 221.297 533.697C221.354 533.408 221.274 533.11 221.08 532.889C220.9 532.683 220.64 532.565 220.368 532.565C220.348 532.565 220.328 532.566 220.308 532.567C220.165 532.577 220.031 532.581 219.9 532.581C216.422 532.581 213.593 529.752 213.593 526.275C213.593 524.252 214.575 522.338 216.219 521.154C216.575 520.897 216.708 520.43 216.541 520.024C216.226 519.261 216.066 518.452 216.066 517.62C216.066 514.142 218.895 511.313 222.372 511.313C223.124 511.313 223.859 511.444 224.557 511.702C225.026 511.876 225.55 511.654 225.752 511.197C226.762 508.914 229.027 507.439 231.522 507.439C233.487 507.439 235.305 508.332 236.51 509.888C236.817 510.284 237.378 510.373 237.792 510.092C238.837 509.381 240.061 509.006 241.331 509.006C244.808 509.006 247.637 511.835 247.637 515.312C247.637 516.564 247.27 517.775 246.577 518.812C246.396 519.083 246.367 519.428 246.5 519.726C246.634 520.024 246.911 520.232 247.234 520.277C250.33 520.706 252.665 523.391 252.665 526.522C252.665 529.698 250.293 532.388 247.147 532.779Z" fill="white"/>
</g>
</g>
<g id="Group_107">
<g id="Group_108">
<path id="Vector_58" d="M217.55 539.061C217.55 537.078 215.937 535.466 213.955 535.466C212.959 535.466 212.034 535.867 211.364 536.567C211.113 536.512 210.856 536.484 210.595 536.484C208.613 536.484 207 538.097 207 540.079C207 541.88 208.331 543.375 210.061 543.634C210.561 545.036 211.897 546.016 213.446 546.016C215.428 546.016 217.041 544.403 217.041 542.421C217.041 542.007 216.97 541.599 216.833 541.214C217.294 540.597 217.55 539.843 217.55 539.061ZM215.08 540.334C214.736 540.639 214.66 541.146 214.899 541.538C215.06 541.803 215.146 542.108 215.146 542.421C215.146 543.358 214.383 544.121 213.446 544.121C212.579 544.121 211.853 543.472 211.757 542.612C211.703 542.128 211.294 541.769 210.816 541.769C210.79 541.769 210.764 541.77 210.737 541.772C210.683 541.777 210.637 541.779 210.595 541.779C209.658 541.779 208.895 541.016 208.895 540.079C208.895 539.142 209.658 538.379 210.595 538.379C210.842 538.379 211.08 538.431 211.304 538.534C211.739 538.735 212.255 538.578 212.507 538.171C212.819 537.664 213.361 537.361 213.955 537.361C214.892 537.361 215.655 538.124 215.655 539.061C215.655 539.547 215.445 540.011 215.08 540.334Z" fill="white"/>
</g>
</g>
<g id="Group_109">
<g id="Group_110">
<g id="Group_111">
<path id="Vector_59" d="M242.245 536.077C241.604 536.702 240.756 537.047 239.86 537.047C239.265 537.047 238.679 536.892 238.167 536.598C237.712 536.339 237.133 536.496 236.874 536.951C236.614 537.405 236.772 537.984 237.226 538.243C238.024 538.7 238.935 538.942 239.86 538.942C241.253 538.942 242.57 538.406 243.568 537.433C243.943 537.068 243.95 536.468 243.585 536.094C243.22 535.719 242.62 535.711 242.245 536.077Z" fill="white"/>
<path id="Vector_60" d="M244.303 533.176C243.782 533.118 243.314 533.493 243.257 534.013C243.248 534.087 243.238 534.161 243.224 534.235C243.132 534.75 243.475 535.242 243.99 535.334C244.047 535.344 244.103 535.349 244.158 535.349C244.608 535.349 245.008 535.027 245.09 534.568C245.11 534.454 245.127 534.337 245.14 534.222C245.198 533.702 244.823 533.234 244.303 533.176Z" fill="white"/>
</g>
</g>
</g>
<g id="Group_112">
<g id="Group_113">
<path id="Vector_61" d="M226.828 526.01C226.379 526.01 226.054 526.15 226.023 526.552C225.961 527.233 225.822 528.302 224.242 528.302C223.019 528.302 222.353 527.667 222.353 526.304V521.799C222.353 520.436 223.019 519.801 224.211 519.801C225.806 519.801 225.992 520.916 226.023 521.458C226.038 521.83 226.348 522 226.844 522C227.401 522 227.664 521.845 227.664 521.148C227.664 519.507 226.271 518.346 224.149 518.346C222.276 518.346 220.712 519.29 220.712 521.799V526.304C220.712 528.813 222.26 529.757 224.134 529.757C226.255 529.757 227.664 528.565 227.664 526.862C227.664 526.181 227.401 526.01 226.828 526.01Z" fill="white"/>
</g>
</g>
<g id="Group_114">
<g id="Group_115">
<path id="Vector_62" d="M232.557 518.346C230.591 518.346 229.089 519.29 229.089 521.799V526.304C229.089 528.813 230.591 529.757 232.557 529.757C234.508 529.757 236.041 528.813 236.041 526.304V521.799C236.041 519.29 234.508 518.346 232.557 518.346ZM234.4 526.305C234.4 527.667 233.703 528.302 232.557 528.302C231.396 528.302 230.73 527.667 230.73 526.305V521.799C230.73 520.436 231.396 519.801 232.557 519.801C233.703 519.801 234.4 520.436 234.4 521.799V526.305Z" fill="white"/>
</g>
</g>
<g id="Group_116">
<g id="Group_117">
<path id="Vector_63" d="M243.644 528.209H239.092V527.621C239.092 525.84 244.108 524.756 244.108 521.427C244.108 519.569 242.591 518.346 240.795 518.346C239.107 518.346 237.621 519.43 237.621 521.086C237.621 521.783 237.93 522 238.364 522C238.906 522 239.231 521.69 239.231 521.381C239.231 520.328 239.928 519.848 240.795 519.848C241.972 519.848 242.467 520.715 242.467 521.474C242.467 523.858 237.404 525.112 237.404 527.621V529.123C237.404 529.448 237.822 529.665 238.132 529.665H243.644C243.923 529.665 244.186 529.309 244.186 528.922C244.186 528.534 243.923 528.209 243.644 528.209Z" fill="white"/>
</g>
</g>
</g>
</g>
</g>
<g id="co2-puff_4">
<g id="Group 29_2">
<g id="co2 1_10" clip-path="url(#clip6_165_417)">
<g id="Group_118">
<g id="Group_119">
<path id="Vector_64" d="M556.194 220.63C556.986 218.882 557.398 216.981 557.398 215.033C557.398 207.548 551.309 201.459 543.824 201.459C541.565 201.459 539.373 202.012 537.409 203.068C534.854 200.382 531.346 198.867 527.589 198.867C522.691 198.867 518.205 201.507 515.805 205.699C514.712 205.42 513.587 205.279 512.445 205.279C504.96 205.279 498.87 211.369 498.87 218.853C498.87 220.239 499.077 221.596 499.485 222.902C496.518 225.467 494.777 229.227 494.777 233.179C494.777 240.327 500.332 246.203 507.352 246.717C507.337 246.979 507.329 247.242 507.329 247.504C507.329 254.989 513.418 261.078 520.903 261.078C525.352 261.078 529.499 258.87 532.015 255.299C534.542 257.84 538 259.305 541.641 259.305C548.758 259.305 554.613 253.8 555.171 246.823C561.271 245.437 565.72 239.967 565.72 233.588C565.72 227.601 561.753 222.372 556.194 220.63ZM553.45 243.945C552.653 244.044 552.06 244.73 552.076 245.533C552.077 245.599 552.079 245.665 552.079 245.731C552.079 251.486 547.396 256.169 541.641 256.169C538.228 256.169 535.024 254.494 533.07 251.689C532.749 251.229 532.206 250.975 531.649 251.023C531.091 251.07 530.6 251.413 530.363 251.92C528.652 255.579 524.938 257.942 520.903 257.942C515.147 257.942 510.465 253.26 510.465 247.504C510.465 246.82 510.532 246.134 510.664 245.464C510.759 244.986 510.626 244.492 510.306 244.126C510.007 243.785 509.576 243.591 509.126 243.591C509.093 243.591 509.06 243.592 509.027 243.594C508.79 243.609 508.569 243.617 508.351 243.617C502.596 243.617 497.913 238.934 497.913 233.179C497.913 229.832 499.538 226.663 502.259 224.703C502.848 224.278 503.069 223.504 502.792 222.832C502.271 221.57 502.006 220.231 502.006 218.853C502.006 213.098 506.689 208.415 512.444 208.415C513.688 208.415 514.905 208.632 516.06 209.059C516.837 209.346 517.703 208.98 518.038 208.223C519.71 204.444 523.458 202.003 527.588 202.003C530.84 202.003 533.85 203.48 535.845 206.056C536.352 206.711 537.281 206.858 537.966 206.393C539.696 205.217 541.722 204.596 543.823 204.596C549.579 204.596 554.261 209.278 554.261 215.034C554.261 217.107 553.654 219.11 552.507 220.826C552.207 221.275 552.159 221.847 552.38 222.34C552.601 222.832 553.06 223.177 553.595 223.251C558.719 223.962 562.583 228.406 562.583 233.588C562.584 238.845 558.657 243.297 553.45 243.945Z" fill="white"/>
</g>
</g>
<g id="Group_120">
<g id="Group_121">
<path id="Vector_65" d="M504.462 254.342C504.462 251.061 501.792 248.392 498.512 248.392C496.864 248.392 495.332 249.056 494.223 250.214C493.808 250.123 493.382 250.077 492.95 250.077C489.669 250.077 487 252.746 487 256.027C487 259.007 489.203 261.483 492.066 261.911C492.893 264.232 495.105 265.853 497.669 265.853C500.95 265.853 503.619 263.184 503.619 259.903C503.619 259.219 503.502 258.543 503.275 257.906C504.038 256.885 504.462 255.636 504.462 254.342ZM500.374 256.45C499.804 256.953 499.678 257.793 500.074 258.441C500.341 258.88 500.483 259.386 500.483 259.903C500.483 261.455 499.221 262.717 497.669 262.717C496.234 262.717 495.032 261.643 494.874 260.219C494.785 259.419 494.108 258.824 493.317 258.824C493.273 258.824 493.23 258.826 493.186 258.83C493.097 258.837 493.019 258.841 492.95 258.841C491.399 258.841 490.136 257.579 490.136 256.027C490.136 254.476 491.399 253.214 492.95 253.214C493.359 253.214 493.754 253.3 494.124 253.47C494.844 253.802 495.698 253.543 496.114 252.869C496.632 252.029 497.528 251.528 498.512 251.528C500.063 251.528 501.326 252.791 501.326 254.342C501.326 255.147 500.979 255.915 500.374 256.45Z" fill="white"/>
</g>
</g>
<g id="Group_122">
<g id="Group_123">
<g id="Group_124">
<path id="Vector_66" d="M545.338 249.402C544.275 250.437 542.873 251.007 541.389 251.007C540.404 251.007 539.435 250.751 538.586 250.266C537.834 249.835 536.876 250.097 536.446 250.848C536.016 251.6 536.277 252.558 537.029 252.988C538.351 253.744 539.859 254.144 541.389 254.144C543.695 254.144 545.875 253.258 547.527 251.648C548.147 251.043 548.159 250.05 547.555 249.43C546.951 248.81 545.958 248.797 545.338 249.402Z" fill="white"/>
<path id="Vector_67" d="M548.743 244.601C547.881 244.505 547.107 245.126 547.011 245.986C546.997 246.109 546.98 246.232 546.958 246.354C546.805 247.207 547.373 248.021 548.226 248.174C548.319 248.19 548.412 248.198 548.503 248.198C549.249 248.198 549.91 247.665 550.045 246.906C550.079 246.716 550.107 246.523 550.128 246.333C550.224 245.472 549.604 244.697 548.743 244.601Z" fill="white"/>
</g>
</g>
</g>
<g id="Group_125">
<g id="Group_126">
<path id="Vector_68" d="M519.819 232.741C519.076 232.741 518.538 232.971 518.486 233.638C518.384 234.765 518.153 236.534 515.539 236.534C513.514 236.534 512.412 235.483 512.412 233.228V225.77C512.412 223.515 513.514 222.464 515.488 222.464C518.128 222.464 518.435 224.309 518.486 225.206C518.512 225.821 519.025 226.103 519.845 226.103C520.767 226.103 521.203 225.847 521.203 224.693C521.203 221.977 518.897 220.055 515.385 220.055C512.284 220.055 509.696 221.618 509.696 225.77V233.228C509.696 237.38 512.259 238.943 515.36 238.943C518.871 238.943 521.203 236.969 521.203 234.15C521.203 233.023 520.767 232.741 519.819 232.741Z" fill="white"/>
</g>
</g>
<g id="Group_127">
<g id="Group_128">
<path id="Vector_69" d="M529.301 220.055C526.047 220.055 523.561 221.618 523.561 225.77V233.228C523.561 237.38 526.047 238.943 529.301 238.943C532.53 238.943 535.068 237.38 535.068 233.228V225.77C535.068 221.618 532.531 220.055 529.301 220.055ZM532.351 233.228C532.351 235.483 531.198 236.534 529.302 236.534C527.379 236.534 526.277 235.483 526.277 233.228V225.77C526.277 223.515 527.379 222.464 529.302 222.464C531.198 222.464 532.351 223.515 532.351 225.77V233.228Z" fill="white"/>
</g>
</g>
<g id="Group_129">
<g id="Group_130">
<path id="Vector_70" d="M547.652 236.38H540.117V235.406C540.117 232.459 548.421 230.665 548.421 225.155C548.421 222.079 545.909 220.055 542.936 220.055C540.143 220.055 537.683 221.849 537.683 224.591C537.683 225.745 538.195 226.103 538.913 226.103C539.81 226.103 540.348 225.591 540.348 225.078C540.348 223.335 541.501 222.541 542.936 222.541C544.884 222.541 545.704 223.976 545.704 225.232C545.704 229.179 537.324 231.255 537.324 235.407V237.893C537.324 238.431 538.016 238.79 538.528 238.79H547.652C548.114 238.79 548.549 238.2 548.549 237.56C548.549 236.919 548.113 236.38 547.652 236.38Z" fill="white"/>
</g>
</g>
</g>
</g>
<g id="Group 30_4">
<g id="co2 1_11" clip-path="url(#clip7_165_417)">
<g id="Group_131">
<g id="Group_132">
<path id="Vector_71" d="M108.804 166.693C109.283 165.637 109.532 164.489 109.532 163.312C109.532 158.79 105.853 155.111 101.331 155.111C99.9665 155.111 98.6421 155.445 97.4551 156.083C95.9116 154.46 93.7924 153.544 91.5222 153.544C88.5633 153.544 85.8532 155.14 84.4031 157.672C83.7427 157.504 83.0627 157.419 82.3727 157.419C77.8506 157.419 74.1717 161.098 74.1717 165.62C74.1717 166.457 74.2962 167.277 74.5429 168.065C72.7502 169.616 71.6987 171.887 71.6987 174.275C71.6987 178.594 75.0547 182.144 79.2958 182.454C79.2866 182.612 79.2819 182.771 79.2819 182.93C79.2819 187.452 82.961 191.131 87.483 191.131C90.1708 191.131 92.6766 189.796 94.1962 187.639C95.7231 189.174 97.8123 190.059 100.012 190.059C104.312 190.059 107.85 186.733 108.187 182.518C111.872 181.68 114.56 178.376 114.56 174.522C114.56 170.905 112.163 167.745 108.804 166.693ZM107.147 180.779C106.665 180.839 106.307 181.253 106.317 181.739C106.317 181.778 106.318 181.818 106.318 181.858C106.318 185.335 103.489 188.164 100.012 188.164C97.9503 188.164 96.0144 187.152 94.8337 185.458C94.6401 185.18 94.3117 185.026 93.9754 185.055C93.638 185.084 93.3417 185.291 93.1982 185.598C92.1644 187.808 89.9209 189.236 87.4828 189.236C84.0055 189.236 81.1765 186.407 81.1765 182.93C81.1765 182.516 81.2172 182.102 81.2972 181.697C81.3543 181.408 81.2742 181.11 81.0804 180.889C80.8999 180.683 80.6398 180.565 80.3678 180.565C80.3478 180.565 80.3277 180.566 80.3079 180.567C80.1646 180.577 80.0311 180.581 79.8996 180.581C76.4223 180.581 73.5933 177.752 73.5933 174.275C73.5933 172.252 74.5747 170.338 76.2187 169.154C76.5749 168.897 76.7082 168.43 76.5407 168.024C76.2258 167.261 76.0661 166.452 76.0661 165.62C76.0661 162.142 78.8951 159.313 82.3723 159.313C83.1238 159.313 83.859 159.444 84.5573 159.702C85.0265 159.876 85.5497 159.654 85.752 159.197C86.762 156.914 89.0268 155.439 91.5217 155.439C93.4866 155.439 95.3048 156.332 96.5104 157.888C96.8166 158.284 97.3778 158.373 97.7917 158.092C98.8374 157.381 100.061 157.006 101.331 157.006C104.808 157.006 107.637 159.835 107.637 163.312C107.637 164.564 107.27 165.775 106.577 166.812C106.396 167.083 106.367 167.428 106.5 167.726C106.634 168.024 106.911 168.232 107.234 168.277C110.33 168.706 112.665 171.391 112.665 174.522C112.665 177.698 110.293 180.388 107.147 180.779Z" fill="white"/>
</g>
</g>
<g id="Group_133">
<g id="Group_134">
<path id="Vector_72" d="M77.5498 187.061C77.5498 185.078 75.9371 183.466 73.9549 183.466C72.9592 183.466 72.034 183.867 71.3642 184.567C71.1132 184.512 70.8561 184.484 70.5947 184.484C68.6126 184.484 67 186.097 67 188.079C67 189.88 68.3309 191.375 70.0608 191.634C70.5606 193.036 71.8969 194.016 73.446 194.016C75.4281 194.016 77.0407 192.403 77.0407 190.421C77.0407 190.007 76.9698 189.599 76.8326 189.214C77.294 188.597 77.5498 187.843 77.5498 187.061ZM75.08 188.334C74.736 188.639 74.6597 189.146 74.8988 189.538C75.0604 189.803 75.1459 190.108 75.1459 190.421C75.1459 191.358 74.3833 192.121 73.446 192.121C72.5787 192.121 71.8526 191.472 71.757 190.612C71.7032 190.128 71.2942 189.769 70.8163 189.769C70.7902 189.769 70.7638 189.77 70.7373 189.772C70.6834 189.777 70.6367 189.779 70.5949 189.779C69.6575 189.779 68.895 189.016 68.895 188.079C68.895 187.142 69.6575 186.379 70.5949 186.379C70.8419 186.379 71.0805 186.431 71.304 186.534C71.7392 186.735 72.2552 186.578 72.5066 186.171C72.8194 185.664 73.3609 185.361 73.9551 185.361C74.8925 185.361 75.6551 186.124 75.6551 187.061C75.6551 187.547 75.4454 188.011 75.08 188.334Z" fill="white"/>
</g>
</g>
<g id="Group_135">
<g id="Group_136">
<g id="Group_137">
<path id="Vector_73" d="M102.245 184.077C101.604 184.702 100.756 185.047 99.8599 185.047C99.2648 185.047 98.6792 184.892 98.1666 184.598C97.712 184.339 97.1334 184.496 96.8737 184.951C96.6139 185.405 96.7716 185.984 97.2258 186.243C98.0244 186.7 98.9352 186.942 99.8599 186.942C101.253 186.942 102.57 186.406 103.568 185.433C103.943 185.068 103.95 184.468 103.585 184.094C103.22 183.719 102.62 183.711 102.245 184.077Z" fill="white"/>
<path id="Vector_74" d="M104.303 181.176C103.782 181.118 103.314 181.493 103.257 182.013C103.248 182.087 103.238 182.161 103.224 182.235C103.132 182.75 103.475 183.242 103.99 183.334C104.047 183.344 104.103 183.349 104.158 183.349C104.608 183.349 105.008 183.027 105.09 182.568C105.11 182.454 105.127 182.337 105.14 182.222C105.198 181.702 104.823 181.234 104.303 181.176Z" fill="white"/>
</g>
</g>
</g>
<g id="Group_138">
<g id="Group_139">
<path id="Vector_75" d="M86.828 174.01C86.379 174.01 86.0538 174.15 86.0228 174.552C85.961 175.233 85.8216 176.302 84.2422 176.302C83.019 176.302 82.3532 175.667 82.3532 174.304V169.799C82.3532 168.436 83.019 167.801 84.2113 167.801C85.8061 167.801 85.9919 168.916 86.0229 169.458C86.0384 169.83 86.3481 170 86.8436 170C87.4011 170 87.6643 169.845 87.6643 169.148C87.6643 167.507 86.2708 166.346 84.1494 166.346C82.2758 166.346 80.7119 167.29 80.7119 169.799V174.304C80.7119 176.813 82.2604 177.757 84.134 177.757C86.2553 177.757 87.6644 176.565 87.6644 174.862C87.6642 174.181 87.401 174.01 86.828 174.01Z" fill="white"/>
</g>
</g>
<g id="Group_140">
<g id="Group_141">
<path id="Vector_76" d="M92.5573 166.346C90.5909 166.346 89.0889 167.29 89.0889 169.799V174.304C89.0889 176.813 90.5909 177.757 92.5573 177.757C94.5082 177.757 96.0413 176.813 96.0413 174.304V169.799C96.0412 167.29 94.5083 166.346 92.5573 166.346ZM94.3999 174.305C94.3999 175.667 93.7031 176.302 92.5574 176.302C91.3961 176.302 90.7302 175.667 90.7302 174.305V169.799C90.7302 168.436 91.3961 167.801 92.5574 167.801C93.7032 167.801 94.3999 168.436 94.3999 169.799V174.305Z" fill="white"/>
</g>
</g>
<g id="Group_142">
<g id="Group_143">
<path id="Vector_77" d="M103.644 176.209H99.0916V175.621C99.0916 173.84 104.108 172.756 104.108 169.427C104.108 167.569 102.591 166.346 100.795 166.346C99.107 166.346 97.6206 167.43 97.6206 169.086C97.6206 169.783 97.9303 170 98.3638 170C98.9058 170 99.2309 169.69 99.2309 169.381C99.2309 168.328 99.9276 167.848 100.795 167.848C101.972 167.848 102.467 168.715 102.467 169.474C102.467 171.858 97.4038 173.112 97.4038 175.621V177.123C97.4038 177.448 97.8218 177.665 98.1316 177.665H103.644C103.923 177.665 104.186 177.309 104.186 176.922C104.186 176.534 103.923 176.209 103.644 176.209Z" fill="white"/>
</g>
</g>
</g>
</g>
</g>
</g>
<defs>
<filter id="filter0_d_165_417" x="0" y="0" width="569.72" height="675.507" filterUnits="userSpaceOnUse" color-interpolation-filters="sRGB">
<feFlood flood-opacity="0" result="BackgroundImageFix"/>
<feColorMatrix in="SourceAlpha" type="matrix" values="0 0 0 0 0 0 0 0 0 0 0 0 0 0 0 0 0 0 127 0" result="hardAlpha"/>
<feOffset dy="4"/>
<feGaussianBlur stdDeviation="2"/>
<feComposite in2="hardAlpha" operator="out"/>
<feColorMatrix type="matrix" values="0 0 0 0 0 0 0 0 0 0 0 0 0 0 0 0 0 0 0.25 0"/>
<feBlend mode="normal" in2="BackgroundImageFix" result="effect1_dropShadow_165_417"/>
<feBlend mode="normal" in="SourceGraphic" in2="effect1_dropShadow_165_417" result="shape"/>
</filter>
<clipPath id="clip0_165_417">
<rect width="118" height="118" fill="white" transform="translate(445)"/>
</clipPath>
<clipPath id="clip1_165_417">
<rect width="118" height="118" fill="white" transform="translate(157 45)"/>
</clipPath>
<clipPath id="clip2_165_417">
<rect width="118" height="118" fill="white" transform="translate(13 477)"/>
</clipPath>
<clipPath id="clip3_165_417">
<rect width="78.72" height="78.72" fill="white" transform="translate(275 427)"/>
</clipPath>
<clipPath id="clip4_165_417">
<rect width="64.5067" height="64.5067" fill="white" transform="translate(249 603)"/>
</clipPath>
<clipPath id="clip5_165_417">
<rect width="47.56" height="47.56" fill="white" transform="translate(207 502)"/>
</clipPath>
<clipPath id="clip6_165_417">
<rect width="78.72" height="78.72" fill="white" transform="translate(487 193)"/>
</clipPath>
<clipPath id="clip7_165_417">
<rect width="47.56" height="47.56" fill="white" transform="translate(67 150)"/>
</clipPath>
</defs>
</svg>
