<svg width="144" height="144" viewBox="0 0 144 144" fill="none" xmlns="http://www.w3.org/2000/svg">
<g id="co2 1">
<g id="Group">
<g id="Group_2">
<path id="Vector" d="M126.574 50.5424C128.023 47.3457 128.777 43.8678 128.777 40.3043C128.777 26.6125 117.638 15.4736 103.946 15.4736C99.8143 15.4736 95.8045 16.4847 92.2104 18.4169C87.5372 13.504 81.1207 10.7314 74.2473 10.7314C65.2883 10.7314 57.0829 15.5616 52.6923 23.2291C50.6926 22.7192 48.6338 22.4615 46.5447 22.4615C32.8529 22.4615 21.714 33.6007 21.714 47.2923C21.714 49.8277 22.0912 52.3098 22.8382 54.6976C17.41 59.3908 14.2266 66.2682 14.2266 73.4974C14.2266 86.5742 24.3876 97.3227 37.2286 98.2618C37.2007 98.7416 37.1867 99.2225 37.1867 99.7026C37.1867 113.394 48.3259 124.533 62.0174 124.533C70.1554 124.533 77.7424 120.493 82.3433 113.962C86.9665 118.609 93.2921 121.289 99.9527 121.289C112.972 121.289 123.682 111.218 124.704 98.4573C135.862 95.9201 144 85.9158 144 74.2467C144 63.2948 136.743 53.7287 126.574 50.5424ZM121.555 93.192C120.097 93.3734 119.012 94.6272 119.041 96.0962C119.044 96.2165 119.046 96.3372 119.046 96.4581C119.046 106.986 110.48 115.552 99.9521 115.552C93.7098 115.552 87.8485 112.488 84.2736 107.357C83.6874 106.515 82.6929 106.051 81.6748 106.138C80.6533 106.226 79.7561 106.852 79.3216 107.781C76.1916 114.473 69.3988 118.796 62.0168 118.796C51.4885 118.796 42.9231 110.231 42.9231 99.7026C42.9231 98.4508 43.0463 97.1953 43.2884 95.9702C43.4614 95.0966 43.2187 94.1927 42.632 93.5227C42.0855 92.8992 41.298 92.5445 40.4745 92.5445C40.4137 92.5445 40.353 92.5465 40.2931 92.5504C39.8591 92.578 39.455 92.5915 39.0567 92.5915C28.5284 92.5915 19.9629 84.026 19.9629 73.4977C19.9629 67.3746 22.9343 61.5783 27.9119 57.9933C28.9905 57.2162 29.3941 55.8001 28.887 54.571C27.9336 52.2611 27.4498 49.8123 27.4498 47.2925C27.4498 36.7642 36.0153 28.1988 46.5436 28.1988C48.8189 28.1988 51.045 28.595 53.1592 29.3761C54.5798 29.9009 56.1637 29.2309 56.7763 27.8461C59.8343 20.9346 66.6918 16.4689 74.2456 16.4689C80.1949 16.4689 85.7001 19.1712 89.3501 23.8827C90.2774 25.0805 91.9764 25.3503 93.2297 24.4989C96.3957 22.3479 100.101 21.2111 103.944 21.2111C114.473 21.2111 123.038 29.7766 123.038 40.3049C123.038 44.0973 121.928 47.7617 119.829 50.9013C119.28 51.7225 119.193 52.7685 119.597 53.6699C120.001 54.5713 120.841 55.2007 121.82 55.3369C131.193 56.6376 138.262 64.7672 138.262 74.2467C138.263 83.8618 131.08 92.0068 121.555 93.192Z" fill="white"/>
</g>
</g>
<g id="Group_3">
<g id="Group_4">
<path id="Vector_2" d="M31.9421 112.211C31.9421 106.209 27.0593 101.327 21.0578 101.327C18.043 101.327 15.2418 102.542 13.2137 104.66C12.4537 104.493 11.6753 104.41 10.8838 104.41C4.8825 104.409 0 109.292 0 115.294C0 120.746 4.02975 125.275 9.26747 126.058C10.7806 130.302 14.8267 133.269 19.5168 133.269C25.5181 133.269 30.4009 128.386 30.4009 122.384C30.4009 121.132 30.186 119.897 29.7706 118.731C31.1678 116.863 31.9421 114.578 31.9421 112.211ZM24.4643 116.068C23.4228 116.989 23.1916 118.524 23.9155 119.711C24.4049 120.513 24.6637 121.438 24.6637 122.385C24.6637 125.223 22.3549 127.532 19.5168 127.532C16.891 127.532 14.6925 125.568 14.4031 122.963C14.2402 121.5 13.0019 120.411 11.5549 120.411C11.4758 120.411 11.396 120.414 11.3155 120.421C11.1524 120.435 11.0109 120.441 10.8844 120.441C8.04628 120.441 5.7375 118.132 5.7375 115.294C5.7375 112.456 8.04628 110.147 10.8844 110.147C11.6322 110.147 12.3547 110.305 13.0314 110.617C14.3491 111.224 15.9114 110.751 16.6728 109.517C17.6197 107.981 19.2592 107.065 21.0583 107.065C23.8964 107.065 26.2055 109.374 26.2055 112.212C26.2055 113.683 25.5707 115.089 24.4643 116.068Z" fill="white"/>
</g>
</g>
<g id="Group_5">
<g id="Group_6">
<g id="Group_7">
<path id="Vector_3" d="M106.715 103.174C104.771 105.068 102.207 106.111 99.4921 106.111C97.6904 106.111 95.9174 105.642 94.3652 104.754C92.989 103.967 91.2371 104.446 90.4508 105.82C89.6641 107.196 90.1417 108.948 91.5167 109.735C93.9349 111.118 96.6925 111.849 99.4921 111.849C103.711 111.849 107.698 110.228 110.719 107.283C111.854 106.177 111.877 104.361 110.772 103.226C109.666 102.092 107.849 102.068 106.715 103.174Z" fill="white"/>
<path id="Vector_4" d="M112.945 94.3925C111.367 94.2164 109.952 95.3519 109.777 96.9263C109.752 97.1499 109.719 97.3763 109.679 97.5993C109.4 99.1586 110.439 100.649 111.998 100.928C112.169 100.958 112.339 100.973 112.506 100.973C113.869 100.973 115.078 99.9973 115.327 98.6084C115.388 98.2617 115.44 97.909 115.478 97.5605C115.654 95.9858 114.519 94.5674 112.945 94.3925Z" fill="white"/>
</g>
</g>
</g>
<g id="Group_8">
<g id="Group_9">
<path id="Vector_5" d="M60.0347 72.6965C58.6751 72.6965 57.6904 73.1183 57.5968 74.3376C57.4095 76.4002 56.9876 79.6352 52.2055 79.6352C48.502 79.6352 46.486 77.7131 46.486 73.5875V59.9449C46.486 55.8192 48.502 53.8971 52.1119 53.8971C56.9406 53.8971 57.5031 57.2724 57.5971 58.9135C57.6438 60.0385 58.5814 60.5543 60.0819 60.5543C61.7697 60.5543 62.5668 60.0852 62.5668 57.9758C62.5668 53.0061 58.3474 49.4902 51.9245 49.4902C46.2517 49.4902 41.5166 52.35 41.5166 59.9449V73.5875C41.5166 81.182 46.205 84.0421 51.8779 84.0421C58.3008 84.0421 62.567 80.432 62.567 75.275C62.5665 73.2123 61.7694 72.6965 60.0347 72.6965Z" fill="white"/>
</g>
</g>
<g id="Group_10">
<g id="Group_11">
<path id="Vector_6" d="M77.3805 49.4902C71.4267 49.4902 66.8789 52.35 66.8789 59.9449V73.5875C66.8789 81.1823 71.4267 84.0421 77.3805 84.0421C83.2873 84.0421 87.9291 81.1823 87.9291 73.5875V59.9449C87.9288 52.35 83.2876 49.4902 77.3805 49.4902ZM82.9594 73.5877C82.9594 77.7134 80.8497 79.6355 77.3808 79.6355C73.8646 79.6355 71.8486 77.7134 71.8486 73.5877V59.9451C71.8486 55.8195 73.8646 53.8974 77.3808 53.8974C80.85 53.8974 82.9594 55.8195 82.9594 59.9451V73.5877Z" fill="white"/>
</g>
</g>
<g id="Group_12">
<g id="Group_13">
<path id="Vector_7" d="M110.949 79.3542H97.1655V77.5728C97.1655 72.1812 112.355 68.8996 112.355 58.8199C112.355 53.1937 107.761 49.4902 102.322 49.4902C97.2122 49.4902 92.7116 52.7719 92.7116 57.7885C92.7116 59.8985 93.6493 60.5546 94.9619 60.5546C96.6027 60.5546 97.5871 59.6169 97.5871 58.6792C97.5871 55.4915 99.6967 54.038 102.322 54.038C105.885 54.038 107.386 56.6635 107.386 58.9608C107.386 66.1805 92.0552 69.9779 92.0552 77.573V82.1209C92.0552 83.1052 93.3208 83.7617 94.2588 83.7617H110.949C111.793 83.7617 112.59 82.6831 112.59 81.5114C112.59 80.3391 111.792 79.3542 110.949 79.3542Z" fill="white"/>
</g>
</g>
</g>
</svg>
