<svg width="563" height="548" viewBox="0 0 563 548" fill="none" xmlns="http://www.w3.org/2000/svg">
<g id="co2_Txt" filter="url(#filter0_d_165_417)">
<g id="co2-puff">
<g id="Group 29">
<g id="co2 1">
<g id="Group">
<g id="Group_2">
<path id="Vector" d="M541.574 257.542C543.023 254.346 543.777 250.868 543.777 247.304C543.777 233.613 532.638 222.474 518.946 222.474C514.814 222.474 510.805 223.485 507.21 225.417C502.537 220.504 496.121 217.731 489.247 217.731C480.288 217.731 472.083 222.562 467.692 230.229C465.693 229.719 463.634 229.462 461.545 229.462C447.853 229.462 436.714 240.601 436.714 254.292C436.714 256.828 437.091 259.31 437.838 261.698C432.41 266.391 429.227 273.268 429.227 280.497C429.227 293.574 439.388 304.323 452.229 305.262C452.201 305.742 452.187 306.223 452.187 306.703C452.187 320.394 463.326 331.533 477.017 331.533C485.155 331.533 492.742 327.493 497.343 320.962C501.967 325.609 508.292 328.289 514.953 328.289C527.972 328.289 538.682 318.218 539.704 305.457C550.862 302.92 559 292.916 559 281.247C559 270.295 551.743 260.729 541.574 257.542ZM536.555 300.192C535.097 300.373 534.012 301.627 534.041 303.096C534.044 303.217 534.046 303.337 534.046 303.458C534.046 313.986 525.48 322.552 514.952 322.552C508.71 322.552 502.849 319.488 499.274 314.357C498.687 313.515 497.693 313.051 496.675 313.138C495.653 313.226 494.756 313.852 494.322 314.781C491.192 321.473 484.399 325.796 477.017 325.796C466.489 325.796 457.923 317.231 457.923 306.703C457.923 305.451 458.046 304.195 458.288 302.97C458.461 302.097 458.219 301.193 457.632 300.523C457.086 299.899 456.298 299.545 455.474 299.545C455.414 299.545 455.353 299.547 455.293 299.55C454.859 299.578 454.455 299.592 454.057 299.592C443.528 299.592 434.963 291.026 434.963 280.498C434.963 274.375 437.934 268.578 442.912 264.993C443.99 264.216 444.394 262.8 443.887 261.571C442.934 259.261 442.45 256.812 442.45 254.293C442.45 243.764 451.015 235.199 461.544 235.199C463.819 235.199 466.045 235.595 468.159 236.376C469.58 236.901 471.164 236.231 471.776 234.846C474.834 227.935 481.692 223.469 489.246 223.469C495.195 223.469 500.7 226.171 504.35 230.883C505.277 232.081 506.976 232.35 508.23 231.499C511.396 229.348 515.101 228.211 518.944 228.211C529.473 228.211 538.038 236.777 538.038 247.305C538.038 251.097 536.928 254.762 534.829 257.901C534.28 258.723 534.193 259.768 534.597 260.67C535.001 261.571 535.841 262.201 536.82 262.337C546.193 263.638 553.262 271.767 553.262 281.247C553.263 290.862 546.08 299.007 536.555 300.192Z" fill="white"/>
</g>
</g>
<g id="Group_3">
<g id="Group_4">
<path id="Vector_2" d="M446.942 319.211C446.942 313.209 442.059 308.327 436.058 308.327C433.043 308.327 430.242 309.542 428.214 311.66C427.454 311.493 426.675 311.41 425.884 311.41C419.883 311.409 415 316.292 415 322.294C415 327.746 419.03 332.275 424.267 333.058C425.781 337.302 429.827 340.269 434.517 340.269C440.518 340.269 445.401 335.386 445.401 329.384C445.401 328.132 445.186 326.897 444.771 325.731C446.168 323.863 446.942 321.578 446.942 319.211ZM439.464 323.068C438.423 323.989 438.192 325.524 438.916 326.711C439.405 327.513 439.664 328.438 439.664 329.385C439.664 332.223 437.355 334.532 434.517 334.532C431.891 334.532 429.692 332.568 429.403 329.963C429.24 328.5 428.002 327.411 426.555 327.411C426.476 327.411 426.396 327.414 426.316 327.421C426.152 327.435 426.011 327.441 425.884 327.441C423.046 327.441 420.737 325.132 420.737 322.294C420.737 319.456 423.046 317.147 425.884 317.147C426.632 317.147 427.355 317.305 428.031 317.617C429.349 318.224 430.911 317.751 431.673 316.517C432.62 314.981 434.259 314.065 436.058 314.065C438.896 314.065 441.205 316.374 441.205 319.212C441.205 320.683 440.571 322.089 439.464 323.068Z" fill="white"/>
</g>
</g>
<g id="Group_5">
<g id="Group_6">
<g id="Group_7">
<path id="Vector_3" d="M521.715 310.174C519.771 312.068 517.207 313.111 514.492 313.111C512.69 313.111 510.917 312.642 509.365 311.754C507.989 310.967 506.237 311.446 505.451 312.82C504.664 314.196 505.142 315.948 506.517 316.735C508.935 318.118 511.693 318.849 514.492 318.849C518.711 318.849 522.698 317.228 525.719 314.283C526.854 313.177 526.877 311.361 525.772 310.226C524.666 309.092 522.849 309.068 521.715 310.174Z" fill="white"/>
<path id="Vector_4" d="M527.945 301.393C526.367 301.216 524.952 302.352 524.777 303.926C524.752 304.15 524.719 304.376 524.679 304.599C524.4 306.159 525.439 307.649 526.998 307.928C527.169 307.958 527.339 307.973 527.506 307.973C528.869 307.973 530.078 306.997 530.327 305.608C530.388 305.262 530.44 304.909 530.478 304.561C530.654 302.986 529.519 301.567 527.945 301.393Z" fill="white"/>
</g>
</g>
</g>
<g id="Group_8">
<g id="Group_9">
<path id="Vector_5" d="M475.035 279.696C473.675 279.696 472.69 280.118 472.597 281.338C472.409 283.4 471.988 286.635 467.206 286.635C463.502 286.635 461.486 284.713 461.486 280.587V266.945C461.486 262.819 463.502 260.897 467.112 260.897C471.941 260.897 472.503 264.272 472.597 265.914C472.644 267.039 473.581 267.554 475.082 267.554C476.77 267.554 477.567 267.085 477.567 264.976C477.567 260.006 473.347 256.49 466.925 256.49C461.252 256.49 456.517 259.35 456.517 266.945V280.587C456.517 288.182 461.205 291.042 466.878 291.042C473.301 291.042 477.567 287.432 477.567 282.275C477.566 280.212 476.769 279.696 475.035 279.696Z" fill="white"/>
</g>
</g>
<g id="Group_10">
<g id="Group_11">
<path id="Vector_6" d="M492.381 256.49C486.427 256.49 481.879 259.35 481.879 266.945V280.587C481.879 288.182 486.427 291.042 492.381 291.042C498.287 291.042 502.929 288.182 502.929 280.587V266.945C502.929 259.35 498.288 256.49 492.381 256.49ZM497.959 280.588C497.959 284.713 495.85 286.635 492.381 286.635C488.865 286.635 486.849 284.713 486.849 280.588V266.945C486.849 262.819 488.865 260.897 492.381 260.897C495.85 260.897 497.959 262.819 497.959 266.945V280.588Z" fill="white"/>
</g>
</g>
<g id="Group_12">
<g id="Group_13">
<path id="Vector_7" d="M525.949 286.354H512.165V284.573C512.165 279.181 527.355 275.9 527.355 265.82C527.355 260.194 522.761 256.49 517.322 256.49C512.212 256.49 507.712 259.772 507.712 264.789C507.712 266.898 508.649 267.555 509.962 267.555C511.603 267.555 512.587 266.617 512.587 265.679C512.587 262.492 514.697 261.038 517.322 261.038C520.885 261.038 522.386 263.664 522.386 265.961C522.386 273.18 507.055 276.978 507.055 284.573V289.121C507.055 290.105 508.321 290.762 509.259 290.762H525.949C526.793 290.762 527.59 289.683 527.59 288.511C527.59 287.339 526.792 286.354 525.949 286.354Z" fill="white"/>
</g>
</g>
</g>
</g>
<g id="Group 31">
<g id="co2 1_2" clip-path="url(#clip0_165_417)">
<g id="Group_14">
<g id="Group_15">
<path id="Vector_8" d="M409.72 214.417C410.907 211.797 411.525 208.947 411.525 206.027C411.525 194.808 402.397 185.68 391.178 185.68C387.792 185.68 384.506 186.508 381.561 188.092C377.732 184.066 372.474 181.794 366.841 181.794C359.5 181.794 352.776 185.752 349.178 192.035C347.54 191.617 345.853 191.406 344.141 191.406C332.921 191.406 323.793 200.534 323.793 211.753C323.793 213.831 324.102 215.865 324.714 217.822C320.266 221.668 317.658 227.303 317.658 233.227C317.658 243.943 325.984 252.751 336.507 253.52C336.484 253.913 336.472 254.307 336.472 254.701C336.472 265.921 345.6 275.048 356.82 275.048C363.488 275.048 369.705 271.737 373.476 266.386C377.264 270.193 382.448 272.39 387.906 272.39C398.574 272.39 407.351 264.137 408.187 253.68C417.331 251.601 424 243.403 424 233.841C424 224.867 418.053 217.028 409.72 214.417ZM405.607 249.366C404.413 249.514 403.523 250.542 403.547 251.746C403.55 251.844 403.551 251.943 403.551 252.042C403.551 260.67 396.532 267.688 387.905 267.688C382.79 267.688 377.987 265.178 375.057 260.973C374.577 260.284 373.762 259.903 372.928 259.975C372.091 260.046 371.356 260.56 370.999 261.321C368.435 266.804 362.868 270.347 356.819 270.347C348.192 270.347 341.173 263.328 341.173 254.701C341.173 253.675 341.274 252.646 341.472 251.642C341.614 250.926 341.415 250.186 340.934 249.637C340.487 249.126 339.841 248.835 339.166 248.835C339.117 248.835 339.067 248.837 339.018 248.84C338.662 248.863 338.331 248.874 338.005 248.874C329.377 248.874 322.358 241.855 322.358 233.227C322.358 228.21 324.793 223.46 328.872 220.522C329.756 219.886 330.087 218.725 329.671 217.718C328.89 215.825 328.493 213.818 328.493 211.754C328.493 203.126 335.512 196.107 344.14 196.107C346.004 196.107 347.828 196.432 349.561 197.072C350.725 197.502 352.023 196.953 352.525 195.818C355.031 190.155 360.65 186.496 366.84 186.496C371.715 186.496 376.226 188.71 379.217 192.571C379.977 193.552 381.369 193.773 382.396 193.076C384.991 191.313 388.027 190.381 391.177 190.381C399.804 190.381 406.823 197.4 406.823 206.028C406.823 209.135 405.913 212.138 404.193 214.711C403.744 215.384 403.672 216.241 404.003 216.98C404.334 217.718 405.022 218.234 405.824 218.346C413.505 219.412 419.298 226.073 419.298 233.841C419.299 241.72 413.413 248.395 405.607 249.366Z" fill="white"/>
</g>
</g>
<g id="Group_16">
<g id="Group_17">
<path id="Vector_9" d="M332.175 264.95C332.175 260.032 328.174 256.031 323.256 256.031C320.785 256.031 318.49 257.027 316.828 258.763C316.205 258.626 315.567 258.558 314.919 258.558C310.001 258.557 306 262.559 306 267.477C306 271.944 309.302 275.655 313.594 276.297C314.834 279.775 318.15 282.206 321.993 282.206C326.911 282.206 330.912 278.205 330.912 273.287C330.912 272.261 330.736 271.249 330.395 270.293C331.54 268.763 332.175 266.89 332.175 264.95ZM326.047 268.111C325.194 268.865 325.004 270.123 325.597 271.096C325.998 271.754 326.21 272.511 326.21 273.287C326.21 275.613 324.319 277.505 321.993 277.505C319.841 277.505 318.04 275.896 317.803 273.761C317.669 272.562 316.654 271.67 315.469 271.67C315.404 271.67 315.338 271.672 315.272 271.678C315.139 271.689 315.023 271.695 314.919 271.695C312.593 271.695 310.702 269.803 310.702 267.477C310.702 265.151 312.593 263.259 314.919 263.259C315.532 263.259 316.124 263.389 316.679 263.644C317.758 264.141 319.039 263.754 319.662 262.742C320.438 261.484 321.782 260.733 323.256 260.733C325.582 260.733 327.474 262.625 327.474 264.951C327.474 266.157 326.954 267.309 326.047 268.111Z" fill="white"/>
</g>
</g>
<g id="Group_18">
<g id="Group_19">
<g id="Group_20">
<path id="Vector_10" d="M393.447 257.546C391.855 259.098 389.753 259.953 387.529 259.953C386.052 259.953 384.599 259.568 383.327 258.841C382.2 258.196 380.764 258.588 380.12 259.715C379.475 260.842 379.866 262.278 380.993 262.922C382.975 264.056 385.234 264.655 387.529 264.655C390.986 264.655 394.253 263.326 396.729 260.913C397.658 260.007 397.677 258.518 396.771 257.589C395.865 256.659 394.377 256.64 393.447 257.546Z" fill="white"/>
<path id="Vector_11" d="M398.552 250.35C397.259 250.205 396.099 251.136 395.956 252.426C395.935 252.609 395.909 252.795 395.876 252.978C395.648 254.255 396.498 255.476 397.776 255.705C397.916 255.73 398.055 255.742 398.193 255.742C399.31 255.742 400.3 254.942 400.504 253.804C400.554 253.52 400.596 253.231 400.628 252.946C400.772 251.655 399.842 250.493 398.552 250.35Z" fill="white"/>
</g>
</g>
</g>
<g id="Group_21">
<g id="Group_22">
<path id="Vector_12" d="M355.195 232.571C354.081 232.571 353.274 232.917 353.197 233.916C353.044 235.606 352.698 238.257 348.779 238.257C345.745 238.257 344.093 236.682 344.093 233.301V222.122C344.093 218.741 345.745 217.166 348.703 217.166C352.66 217.166 353.121 219.932 353.198 221.277C353.236 222.198 354.004 222.621 355.234 222.621C356.617 222.621 357.27 222.237 357.27 220.508C357.27 216.436 353.812 213.555 348.549 213.555C343.901 213.555 340.021 215.898 340.021 222.122V233.301C340.021 239.524 343.862 241.868 348.511 241.868C353.774 241.868 357.27 238.91 357.27 234.684C357.27 232.994 356.617 232.571 355.195 232.571Z" fill="white"/>
</g>
</g>
<g id="Group_23">
<g id="Group_24">
<path id="Vector_13" d="M369.409 213.554C364.53 213.554 360.804 215.898 360.804 222.121V233.301C360.804 239.524 364.53 241.868 369.409 241.868C374.249 241.868 378.053 239.524 378.053 233.301V222.121C378.053 215.898 374.25 213.554 369.409 213.554ZM373.981 233.301C373.981 236.682 372.252 238.257 369.409 238.257C366.528 238.257 364.876 236.682 364.876 233.301V222.121C364.876 218.741 366.528 217.166 369.409 217.166C372.252 217.166 373.981 218.741 373.981 222.121V233.301Z" fill="white"/>
</g>
</g>
<g id="Group_25">
<g id="Group_26">
<path id="Vector_14" d="M396.917 238.026H385.622V236.566C385.622 232.148 398.069 229.459 398.069 221.199C398.069 216.589 394.304 213.554 389.847 213.554C385.66 213.554 381.972 216.243 381.972 220.354C381.972 222.083 382.74 222.621 383.816 222.621C385.161 222.621 385.967 221.852 385.967 221.084C385.967 218.472 387.696 217.281 389.847 217.281C392.767 217.281 393.996 219.432 393.996 221.315C393.996 227.231 381.434 230.343 381.434 236.567V240.293C381.434 241.1 382.471 241.638 383.24 241.638H396.917C397.608 241.638 398.261 240.754 398.261 239.794C398.261 238.833 397.608 238.026 396.917 238.026Z" fill="white"/>
</g>
</g>
</g>
</g>
<g id="Group 32">
<g id="co2 1_3" clip-path="url(#clip1_165_417)">
<g id="Group_27">
<g id="Group_28">
<path id="Vector_15" d="M230.72 41.4168C231.907 38.7973 232.525 35.9473 232.525 33.0273C232.525 21.8076 223.397 12.6799 212.178 12.6799C208.792 12.6799 205.506 13.5084 202.561 15.0917C198.732 11.0659 193.474 8.79395 187.841 8.79395C180.5 8.79395 173.776 12.752 170.178 19.0351C168.54 18.6172 166.853 18.4061 165.141 18.4061C153.921 18.4061 144.793 27.534 144.793 38.7535C144.793 40.8312 145.102 42.8651 145.714 44.8217C141.266 48.6676 138.658 54.3032 138.658 60.2272C138.658 70.9428 146.984 79.7507 157.507 80.5202C157.484 80.9134 157.472 81.3075 157.472 81.7009C157.472 92.9206 166.6 102.048 177.82 102.048C184.488 102.048 190.705 98.7374 194.476 93.3856C198.264 97.1932 203.448 99.3898 208.906 99.3898C219.574 99.3898 228.351 91.1374 229.187 80.6804C238.331 78.6013 245 70.4033 245 60.8412C245 51.8667 239.053 44.0278 230.72 41.4168ZM226.607 76.3658C225.413 76.5144 224.523 77.5418 224.547 78.7456C224.55 78.8442 224.551 78.9431 224.551 79.0422C224.551 87.6696 217.532 94.6885 208.905 94.6885C203.79 94.6885 198.987 92.178 196.057 87.9731C195.577 87.2835 194.762 86.9033 193.928 86.9747C193.091 87.0464 192.356 87.5596 191.999 88.3206C189.435 93.8042 183.868 97.3472 177.819 97.3472C169.192 97.3472 162.173 90.3282 162.173 81.7009C162.173 80.6751 162.274 79.6463 162.472 78.6423C162.614 77.9265 162.415 77.1858 161.934 76.6368C161.487 76.1258 160.841 75.8352 160.166 75.8352C160.117 75.8352 160.067 75.8368 160.018 75.8401C159.662 75.8626 159.331 75.8737 159.005 75.8737C150.377 75.8737 143.358 68.8548 143.358 60.2274C143.358 55.2099 145.793 50.4602 149.872 47.5224C150.756 46.8856 151.087 45.7252 150.671 44.718C149.89 42.8252 149.493 40.8185 149.493 38.7537C149.493 30.1264 156.512 23.1074 165.14 23.1074C167.004 23.1074 168.828 23.4322 170.561 24.0722C171.725 24.5022 173.023 23.9533 173.525 22.8184C176.031 17.1549 181.65 13.4955 187.84 13.4955C192.715 13.4955 197.226 15.7099 200.217 19.5707C200.977 20.5522 202.369 20.7733 203.396 20.0756C205.991 18.313 209.027 17.3814 212.177 17.3814C220.804 17.3814 227.823 24.4004 227.823 33.0277C227.823 36.1354 226.913 39.1381 225.193 41.7109C224.744 42.3838 224.672 43.241 225.003 43.9796C225.334 44.7183 226.022 45.2341 226.824 45.3456C234.505 46.4115 240.298 53.0732 240.298 60.8412C240.299 68.7202 234.413 75.3946 226.607 76.3658Z" fill="white"/>
</g>
</g>
<g id="Group_29">
<g id="Group_30">
<path id="Vector_16" d="M153.175 91.9502C153.175 87.0322 149.174 83.0312 144.256 83.0312C141.785 83.0312 139.49 84.0271 137.828 85.7628C137.205 85.6261 136.567 85.5576 135.919 85.5576C131.001 85.5574 127 89.5586 127 94.4766C127 98.9442 130.302 102.655 134.594 103.297C135.834 106.775 139.15 109.206 142.993 109.206C147.911 109.206 151.912 105.205 151.912 100.287C151.912 99.2609 151.736 98.2486 151.395 97.2929C152.54 95.7626 153.175 93.8902 153.175 91.9502ZM147.047 95.1108C146.194 95.8654 146.004 97.1235 146.597 98.0958C146.998 98.7536 147.21 99.5111 147.21 100.287C147.21 102.613 145.319 104.505 142.993 104.505C140.841 104.505 139.04 102.896 138.803 100.761C138.669 99.5618 137.654 98.6699 136.469 98.6699C136.404 98.6699 136.338 98.6725 136.272 98.6782C136.139 98.6893 136.023 98.6946 135.919 98.6946C133.593 98.6946 131.702 96.8027 131.702 94.477C131.702 92.1514 133.593 90.2592 135.919 90.2592C136.532 90.2592 137.124 90.3887 137.679 90.6441C138.758 91.1412 140.039 90.7538 140.662 89.7425C141.438 88.4844 142.782 87.7333 144.256 87.7333C146.582 87.7333 148.474 89.6252 148.474 91.9509C148.474 93.1569 147.954 94.309 147.047 95.1108Z" fill="white"/>
</g>
</g>
<g id="Group_31">
<g id="Group_32">
<g id="Group_33">
<path id="Vector_17" d="M214.447 84.5461C212.855 86.0981 210.753 86.9531 208.529 86.9531C207.052 86.9531 205.599 86.5684 204.327 85.8411C203.2 85.1962 201.764 85.588 201.12 86.7146C200.475 87.8416 200.866 89.2776 201.993 89.9222C203.975 91.0557 206.234 91.6547 208.529 91.6547C211.986 91.6547 215.253 90.326 217.729 87.9128C218.658 87.0066 218.677 85.5184 217.771 84.5887C216.865 83.6592 215.377 83.6401 214.447 84.5461Z" fill="white"/>
<path id="Vector_18" d="M219.552 77.3497C218.259 77.2054 217.099 78.1358 216.956 79.426C216.935 79.6092 216.909 79.7947 216.876 79.9775C216.648 81.2552 217.498 82.4765 218.776 82.7049C218.916 82.7298 219.055 82.7418 219.193 82.7418C220.31 82.7418 221.3 81.9425 221.504 80.8044C221.554 80.5203 221.596 80.2313 221.628 79.9457C221.772 78.6553 220.842 77.4931 219.552 77.3497Z" fill="white"/>
</g>
</g>
</g>
<g id="Group_34">
<g id="Group_35">
<path id="Vector_19" d="M176.195 59.5709C175.081 59.5709 174.274 59.9166 174.197 60.9157C174.044 62.6059 173.698 65.2568 169.779 65.2568C166.745 65.2568 165.093 63.6818 165.093 60.301V49.1217C165.093 45.7409 166.745 44.1659 169.703 44.1659C173.66 44.1659 174.121 46.9318 174.198 48.2765C174.236 49.1984 175.004 49.6211 176.234 49.6211C177.617 49.6211 178.27 49.2367 178.27 47.5082C178.27 43.4358 174.812 40.5547 169.549 40.5547C164.901 40.5547 161.021 42.8981 161.021 49.1217V60.301C161.021 66.5244 164.862 68.868 169.511 68.868C174.774 68.868 178.27 65.9097 178.27 61.6838C178.27 59.9936 177.617 59.5709 176.195 59.5709Z" fill="white"/>
</g>
</g>
<g id="Group_36">
<g id="Group_37">
<path id="Vector_20" d="M190.409 40.5542C185.53 40.5542 181.804 42.8976 181.804 49.1212V60.3005C181.804 66.5241 185.53 68.8675 190.409 68.8675C195.249 68.8675 199.053 66.5241 199.053 60.3005V49.1212C199.053 42.8976 195.25 40.5542 190.409 40.5542ZM194.981 60.3008C194.981 63.6815 193.252 65.2565 190.409 65.2565C187.528 65.2565 185.876 63.6815 185.876 60.3008V49.1214C185.876 45.7407 187.528 44.1656 190.409 44.1656C193.252 44.1656 194.981 45.7407 194.981 49.1214V60.3008Z" fill="white"/>
</g>
</g>
<g id="Group_38">
<g id="Group_39">
<path id="Vector_21" d="M217.917 65.0261H206.622V63.5663C206.622 59.1482 219.069 56.4591 219.069 48.1993C219.069 43.589 215.304 40.5542 210.847 40.5542C206.66 40.5542 202.972 43.2433 202.972 47.3542C202.972 49.0832 203.74 49.6208 204.816 49.6208C206.161 49.6208 206.967 48.8525 206.967 48.0841C206.967 45.4719 208.696 44.2809 210.847 44.2809C213.767 44.2809 214.996 46.4323 214.996 48.3148C214.996 54.2309 202.434 57.3427 202.434 63.5665V67.2932C202.434 68.0998 203.471 68.6377 204.24 68.6377H217.917C218.608 68.6377 219.261 67.7539 219.261 66.7938C219.261 65.8332 218.608 65.0261 217.917 65.0261Z" fill="white"/>
</g>
</g>
</g>
</g>
<g id="Group 30">
<g id="co2 1_4">
<g id="Group_40">
<g id="Group_41">
<path id="Vector_22" d="M335.472 135.536C336.347 133.605 336.803 131.503 336.803 129.35C336.803 121.078 330.073 114.348 321.801 114.348C319.304 114.348 316.882 114.959 314.71 116.127C311.887 113.158 308.01 111.483 303.858 111.483C298.445 111.483 293.488 114.402 290.835 119.034C289.627 118.726 288.383 118.57 287.121 118.57C278.849 118.57 272.119 125.3 272.119 133.572C272.119 135.104 272.347 136.604 272.798 138.046C269.519 140.882 267.595 145.037 267.595 149.405C267.595 157.305 273.734 163.799 281.492 164.366C281.475 164.656 281.467 164.947 281.467 165.237C281.467 173.509 288.197 180.239 296.469 180.239C301.386 180.239 305.969 177.798 308.749 173.852C311.542 176.659 315.364 178.279 319.388 178.279C327.254 178.279 333.725 172.194 334.342 164.484C341.083 162.952 346 156.907 346 149.857C346 143.24 341.615 137.461 335.472 135.536ZM332.439 161.303C331.559 161.413 330.903 162.17 330.921 163.058C330.922 163.131 330.924 163.204 330.924 163.277C330.924 169.637 325.749 174.812 319.388 174.812C315.616 174.812 312.075 172.961 309.915 169.861C309.561 169.353 308.96 169.072 308.345 169.125C307.728 169.178 307.186 169.556 306.923 170.117C305.032 174.16 300.928 176.773 296.469 176.773C290.108 176.773 284.933 171.598 284.933 165.237C284.933 164.48 285.007 163.722 285.153 162.982C285.258 162.454 285.111 161.908 284.757 161.503C284.427 161.126 283.951 160.912 283.453 160.912C283.417 160.912 283.38 160.913 283.344 160.916C283.082 160.932 282.837 160.941 282.597 160.941C276.236 160.941 271.061 155.766 271.061 149.405C271.061 145.705 272.856 142.203 275.863 140.037C276.515 139.568 276.759 138.712 276.453 137.97C275.877 136.574 275.584 135.095 275.584 133.572C275.584 127.212 280.759 122.037 287.12 122.037C288.495 122.037 289.84 122.276 291.117 122.748C291.975 123.065 292.932 122.66 293.302 121.823C295.15 117.648 299.293 114.95 303.857 114.95C307.451 114.95 310.777 116.582 312.982 119.429C313.543 120.153 314.569 120.316 315.326 119.801C317.239 118.502 319.477 117.815 321.8 117.815C328.161 117.815 333.336 122.99 333.336 129.351C333.336 131.642 332.665 133.856 331.397 135.753C331.065 136.249 331.012 136.881 331.257 137.425C331.501 137.97 332.008 138.35 332.599 138.433C338.262 139.218 342.533 144.13 342.533 149.857C342.534 155.666 338.194 160.587 332.439 161.303Z" fill="white"/>
</g>
</g>
<g id="Group_42">
<g id="Group_43">
<path id="Vector_23" d="M278.298 172.794C278.298 169.168 275.348 166.218 271.722 166.218C269.901 166.218 268.209 166.952 266.983 168.232C266.524 168.131 266.054 168.081 265.576 168.081C261.95 168.081 259 171.031 259 174.657C259 177.951 261.435 180.687 264.599 181.16C265.513 183.724 267.958 185.517 270.791 185.517C274.417 185.517 277.367 182.567 277.367 178.941C277.367 178.184 277.237 177.438 276.986 176.733C277.831 175.605 278.298 174.224 278.298 172.794ZM273.78 175.124C273.151 175.681 273.012 176.608 273.449 177.325C273.745 177.81 273.901 178.369 273.901 178.941C273.901 180.656 272.506 182.051 270.791 182.051C269.205 182.051 267.877 180.864 267.702 179.29C267.603 178.406 266.855 177.748 265.981 177.748C265.933 177.748 265.885 177.75 265.836 177.755C265.738 177.763 265.652 177.767 265.576 177.767C263.861 177.767 262.466 176.372 262.466 174.657C262.466 172.942 263.861 171.547 265.576 171.547C266.028 171.547 266.464 171.643 266.873 171.831C267.669 172.198 268.613 171.912 269.073 171.166C269.645 170.239 270.636 169.685 271.723 169.685C273.437 169.685 274.832 171.08 274.832 172.795C274.832 173.684 274.449 174.533 273.78 175.124Z" fill="white"/>
</g>
</g>
<g id="Group_44">
<g id="Group_45">
<g id="Group_46">
<path id="Vector_24" d="M323.474 167.335C322.3 168.479 320.75 169.109 319.11 169.109C318.021 169.109 316.95 168.826 316.012 168.289C315.181 167.814 314.123 168.103 313.647 168.933C313.172 169.764 313.461 170.823 314.291 171.298C315.752 172.134 317.419 172.576 319.11 172.576C321.659 172.576 324.068 171.596 325.893 169.817C326.578 169.149 326.592 168.052 325.925 167.366C325.256 166.681 324.159 166.667 323.474 167.335Z" fill="white"/>
<path id="Vector_25" d="M327.238 162.029C326.284 161.923 325.429 162.609 325.324 163.56C325.308 163.695 325.289 163.832 325.265 163.966C325.096 164.908 325.724 165.809 326.666 165.977C326.769 165.996 326.872 166.004 326.973 166.004C327.796 166.004 328.527 165.415 328.677 164.576C328.714 164.367 328.745 164.153 328.768 163.943C328.874 162.992 328.189 162.135 327.238 162.029Z" fill="white"/>
</g>
</g>
</g>
<g id="Group_47">
<g id="Group_48">
<path id="Vector_26" d="M295.271 148.921C294.45 148.921 293.855 149.176 293.798 149.912C293.685 151.159 293.43 153.113 290.541 153.113C288.303 153.113 287.085 151.952 287.085 149.459V141.217C287.085 138.724 288.303 137.563 290.484 137.563C293.402 137.563 293.742 139.602 293.798 140.594C293.826 141.273 294.393 141.585 295.3 141.585C296.319 141.585 296.801 141.302 296.801 140.027C296.801 137.025 294.252 134.9 290.371 134.9C286.944 134.9 284.083 136.628 284.083 141.217V149.459C284.083 154.048 286.916 155.775 290.343 155.775C294.223 155.775 296.801 153.594 296.801 150.479C296.801 149.232 296.319 148.921 295.271 148.921Z" fill="white"/>
</g>
</g>
<g id="Group_49">
<g id="Group_50">
<path id="Vector_27" d="M305.751 134.9C302.154 134.9 299.406 136.628 299.406 141.217V149.459C299.406 154.048 302.154 155.775 305.751 155.775C309.32 155.775 312.124 154.048 312.124 149.459V141.217C312.124 136.628 309.32 134.9 305.751 134.9ZM309.122 149.459C309.122 151.952 307.847 153.113 305.751 153.113C303.627 153.113 302.409 151.952 302.409 149.459V141.217C302.409 138.724 303.627 137.563 305.751 137.563C307.847 137.563 309.122 138.724 309.122 141.217V149.459Z" fill="white"/>
</g>
</g>
<g id="Group_51">
<g id="Group_52">
<path id="Vector_28" d="M326.032 152.943H317.704V151.867C317.704 148.61 326.881 146.627 326.881 140.537C326.881 137.138 324.105 134.9 320.82 134.9C317.732 134.9 315.013 136.883 315.013 139.914C315.013 141.189 315.58 141.585 316.373 141.585C317.364 141.585 317.959 141.019 317.959 140.452C317.959 138.526 319.233 137.648 320.82 137.648C322.972 137.648 323.879 139.234 323.879 140.622C323.879 144.984 314.617 147.278 314.617 151.867V154.615C314.617 155.209 315.381 155.606 315.948 155.606H326.032C326.542 155.606 327.023 154.954 327.023 154.247C327.023 153.538 326.541 152.943 326.032 152.943Z" fill="white"/>
</g>
</g>
</g>
</g>
</g>
<g id="co2-puff_2">
<g id="Group 29_2">
<g id="co2 1_5">
<g id="Group_53">
<g id="Group_54">
<path id="Vector_29" d="M286.574 407.542C288.023 404.346 288.777 400.868 288.777 397.304C288.777 383.613 277.638 372.474 263.946 372.474C259.814 372.474 255.805 373.485 252.21 375.417C247.537 370.504 241.121 367.731 234.247 367.731C225.288 367.731 217.083 372.562 212.692 380.229C210.693 379.719 208.634 379.462 206.545 379.462C192.853 379.462 181.714 390.601 181.714 404.292C181.714 406.828 182.091 409.31 182.838 411.698C177.41 416.391 174.227 423.268 174.227 430.497C174.227 443.574 184.388 454.323 197.229 455.262C197.201 455.742 197.187 456.223 197.187 456.703C197.187 470.394 208.326 481.533 222.017 481.533C230.155 481.533 237.742 477.493 242.343 470.962C246.967 475.609 253.292 478.289 259.953 478.289C272.972 478.289 283.682 468.218 284.704 455.457C295.862 452.92 304 442.916 304 431.247C304 420.295 296.743 410.729 286.574 407.542ZM281.555 450.192C280.097 450.373 279.012 451.627 279.041 453.096C279.044 453.217 279.046 453.337 279.046 453.458C279.046 463.986 270.48 472.552 259.952 472.552C253.71 472.552 247.849 469.488 244.274 464.357C243.687 463.515 242.693 463.051 241.675 463.138C240.653 463.226 239.756 463.852 239.322 464.781C236.192 471.473 229.399 475.796 222.017 475.796C211.489 475.796 202.923 467.231 202.923 456.703C202.923 455.451 203.046 454.195 203.288 452.97C203.461 452.097 203.219 451.193 202.632 450.523C202.086 449.899 201.298 449.545 200.474 449.545C200.414 449.545 200.353 449.547 200.293 449.55C199.859 449.578 199.455 449.592 199.057 449.592C188.528 449.592 179.963 441.026 179.963 430.498C179.963 424.375 182.934 418.578 187.912 414.993C188.99 414.216 189.394 412.8 188.887 411.571C187.934 409.261 187.45 406.812 187.45 404.293C187.45 393.764 196.015 385.199 206.544 385.199C208.819 385.199 211.045 385.595 213.159 386.376C214.58 386.901 216.164 386.231 216.776 384.846C219.834 377.935 226.692 373.469 234.246 373.469C240.195 373.469 245.7 376.171 249.35 380.883C250.277 382.081 251.976 382.35 253.23 381.499C256.396 379.348 260.101 378.211 263.944 378.211C274.473 378.211 283.038 386.777 283.038 397.305C283.038 401.097 281.928 404.762 279.829 407.901C279.28 408.723 279.193 409.768 279.597 410.67C280.001 411.571 280.841 412.201 281.82 412.337C291.193 413.638 298.262 421.767 298.262 431.247C298.263 440.862 291.08 449.007 281.555 450.192Z" fill="white"/>
</g>
</g>
<g id="Group_55">
<g id="Group_56">
<path id="Vector_30" d="M191.942 469.211C191.942 463.209 187.059 458.327 181.058 458.327C178.043 458.327 175.242 459.542 173.214 461.66C172.454 461.493 171.675 461.41 170.884 461.41C164.883 461.409 160 466.292 160 472.294C160 477.746 164.03 482.275 169.267 483.058C170.781 487.302 174.827 490.269 179.517 490.269C185.518 490.269 190.401 485.386 190.401 479.384C190.401 478.132 190.186 476.897 189.771 475.731C191.168 473.863 191.942 471.578 191.942 469.211ZM184.464 473.068C183.423 473.989 183.192 475.524 183.916 476.711C184.405 477.513 184.664 478.438 184.664 479.385C184.664 482.223 182.355 484.532 179.517 484.532C176.891 484.532 174.692 482.568 174.403 479.963C174.24 478.5 173.002 477.411 171.555 477.411C171.476 477.411 171.396 477.414 171.316 477.421C171.152 477.435 171.011 477.441 170.884 477.441C168.046 477.441 165.737 475.132 165.737 472.294C165.737 469.456 168.046 467.147 170.884 467.147C171.632 467.147 172.355 467.305 173.031 467.617C174.349 468.224 175.911 467.751 176.673 466.517C177.62 464.981 179.259 464.065 181.058 464.065C183.896 464.065 186.205 466.374 186.205 469.212C186.205 470.683 185.571 472.089 184.464 473.068Z" fill="white"/>
</g>
</g>
<g id="Group_57">
<g id="Group_58">
<g id="Group_59">
<path id="Vector_31" d="M266.715 460.174C264.771 462.068 262.207 463.111 259.492 463.111C257.69 463.111 255.917 462.642 254.365 461.754C252.989 460.967 251.237 461.446 250.451 462.82C249.664 464.196 250.142 465.948 251.517 466.735C253.935 468.118 256.693 468.849 259.492 468.849C263.711 468.849 267.698 467.228 270.719 464.283C271.854 463.177 271.877 461.361 270.772 460.226C269.666 459.092 267.849 459.068 266.715 460.174Z" fill="white"/>
<path id="Vector_32" d="M272.945 451.393C271.367 451.216 269.952 452.352 269.777 453.926C269.752 454.15 269.719 454.376 269.679 454.599C269.4 456.159 270.439 457.649 271.998 457.928C272.169 457.958 272.339 457.973 272.506 457.973C273.869 457.973 275.078 456.997 275.327 455.608C275.388 455.262 275.44 454.909 275.478 454.561C275.654 452.986 274.519 451.567 272.945 451.393Z" fill="white"/>
</g>
</g>
</g>
<g id="Group_60">
<g id="Group_61">
<path id="Vector_33" d="M220.035 429.696C218.675 429.696 217.69 430.118 217.597 431.338C217.409 433.4 216.988 436.635 212.206 436.635C208.502 436.635 206.486 434.713 206.486 430.587V416.945C206.486 412.819 208.502 410.897 212.112 410.897C216.941 410.897 217.503 414.272 217.597 415.914C217.644 417.039 218.581 417.554 220.082 417.554C221.77 417.554 222.567 417.085 222.567 414.976C222.567 410.006 218.347 406.49 211.925 406.49C206.252 406.49 201.517 409.35 201.517 416.945V430.587C201.517 438.182 206.205 441.042 211.878 441.042C218.301 441.042 222.567 437.432 222.567 432.275C222.566 430.212 221.769 429.696 220.035 429.696Z" fill="white"/>
</g>
</g>
<g id="Group_62">
<g id="Group_63">
<path id="Vector_34" d="M237.381 406.49C231.427 406.49 226.879 409.35 226.879 416.945V430.587C226.879 438.182 231.427 441.042 237.381 441.042C243.287 441.042 247.929 438.182 247.929 430.587V416.945C247.929 409.35 243.288 406.49 237.381 406.49ZM242.959 430.588C242.959 434.713 240.85 436.635 237.381 436.635C233.865 436.635 231.849 434.713 231.849 430.588V416.945C231.849 412.819 233.865 410.897 237.381 410.897C240.85 410.897 242.959 412.819 242.959 416.945V430.588Z" fill="white"/>
</g>
</g>
<g id="Group_64">
<g id="Group_65">
<path id="Vector_35" d="M270.949 436.354H257.165V434.573C257.165 429.181 272.355 425.9 272.355 415.82C272.355 410.194 267.761 406.49 262.322 406.49C257.212 406.49 252.712 409.772 252.712 414.789C252.712 416.898 253.649 417.555 254.962 417.555C256.603 417.555 257.587 416.617 257.587 415.679C257.587 412.492 259.697 411.038 262.322 411.038C265.885 411.038 267.386 413.664 267.386 415.961C267.386 423.18 252.055 426.978 252.055 434.573V439.121C252.055 440.105 253.321 440.762 254.259 440.762H270.949C271.793 440.762 272.59 439.683 272.59 438.511C272.59 437.339 271.792 436.354 270.949 436.354Z" fill="white"/>
</g>
</g>
</g>
</g>
<g id="Group 32_2">
<g id="co2 1_6">
<g id="Group_66">
<g id="Group_67">
<path id="Vector_36" d="M476.574 446.542C478.023 443.346 478.777 439.868 478.777 436.304C478.777 422.613 467.638 411.474 453.946 411.474C449.814 411.474 445.805 412.485 442.21 414.417C437.537 409.504 431.121 406.731 424.247 406.731C415.288 406.731 407.083 411.562 402.692 419.229C400.693 418.719 398.634 418.462 396.545 418.462C382.853 418.462 371.714 429.601 371.714 443.292C371.714 445.828 372.091 448.31 372.838 450.698C367.41 455.391 364.227 462.268 364.227 469.497C364.227 482.574 374.388 493.323 387.229 494.262C387.201 494.742 387.187 495.223 387.187 495.703C387.187 509.394 398.326 520.533 412.017 520.533C420.155 520.533 427.742 516.493 432.343 509.962C436.967 514.609 443.292 517.289 449.953 517.289C462.972 517.289 473.682 507.218 474.704 494.457C485.862 491.92 494 481.916 494 470.247C494 459.295 486.743 449.729 476.574 446.542ZM471.555 489.192C470.097 489.373 469.012 490.627 469.041 492.096C469.044 492.217 469.046 492.337 469.046 492.458C469.046 502.986 460.48 511.552 449.952 511.552C443.71 511.552 437.849 508.488 434.274 503.357C433.687 502.515 432.693 502.051 431.675 502.138C430.653 502.226 429.756 502.852 429.322 503.781C426.192 510.473 419.399 514.796 412.017 514.796C401.489 514.796 392.923 506.231 392.923 495.703C392.923 494.451 393.046 493.195 393.288 491.97C393.461 491.097 393.219 490.193 392.632 489.523C392.086 488.899 391.298 488.545 390.474 488.545C390.414 488.545 390.353 488.547 390.293 488.55C389.859 488.578 389.455 488.592 389.057 488.592C378.528 488.592 369.963 480.026 369.963 469.498C369.963 463.375 372.934 457.578 377.912 453.993C378.99 453.216 379.394 451.8 378.887 450.571C377.934 448.261 377.45 445.812 377.45 443.293C377.45 432.764 386.015 424.199 396.544 424.199C398.819 424.199 401.045 424.595 403.159 425.376C404.58 425.901 406.164 425.231 406.776 423.846C409.834 416.935 416.692 412.469 424.246 412.469C430.195 412.469 435.7 415.171 439.35 419.883C440.277 421.081 441.976 421.35 443.23 420.499C446.396 418.348 450.101 417.211 453.944 417.211C464.473 417.211 473.038 425.777 473.038 436.305C473.038 440.097 471.928 443.762 469.829 446.901C469.28 447.723 469.193 448.768 469.597 449.67C470.001 450.571 470.841 451.201 471.82 451.337C481.193 452.638 488.262 460.767 488.262 470.247C488.263 479.862 481.08 488.007 471.555 489.192Z" fill="white"/>
</g>
</g>
<g id="Group_68">
<g id="Group_69">
<path id="Vector_37" d="M381.942 508.211C381.942 502.209 377.059 497.327 371.058 497.327C368.043 497.327 365.242 498.542 363.214 500.66C362.454 500.493 361.675 500.41 360.884 500.41C354.883 500.409 350 505.292 350 511.294C350 516.746 354.03 521.275 359.267 522.058C360.781 526.302 364.827 529.269 369.517 529.269C375.518 529.269 380.401 524.386 380.401 518.384C380.401 517.132 380.186 515.897 379.771 514.731C381.168 512.863 381.942 510.578 381.942 508.211ZM374.464 512.068C373.423 512.989 373.192 514.524 373.916 515.711C374.405 516.513 374.664 517.438 374.664 518.385C374.664 521.223 372.355 523.532 369.517 523.532C366.891 523.532 364.692 521.568 364.403 518.963C364.24 517.5 363.002 516.411 361.555 516.411C361.476 516.411 361.396 516.414 361.316 516.421C361.152 516.435 361.011 516.441 360.884 516.441C358.046 516.441 355.737 514.132 355.737 511.294C355.737 508.456 358.046 506.147 360.884 506.147C361.632 506.147 362.355 506.305 363.031 506.617C364.349 507.224 365.911 506.751 366.673 505.517C367.62 503.981 369.259 503.065 371.058 503.065C373.896 503.065 376.205 505.374 376.205 508.212C376.205 509.683 375.571 511.089 374.464 512.068Z" fill="white"/>
</g>
</g>
<g id="Group_70">
<g id="Group_71">
<g id="Group_72">
<path id="Vector_38" d="M456.715 499.174C454.771 501.068 452.207 502.111 449.492 502.111C447.69 502.111 445.917 501.642 444.365 500.754C442.989 499.967 441.237 500.446 440.451 501.82C439.664 503.196 440.142 504.948 441.517 505.735C443.935 507.118 446.693 507.849 449.492 507.849C453.711 507.849 457.698 506.228 460.719 503.283C461.854 502.177 461.877 500.361 460.772 499.226C459.666 498.092 457.849 498.068 456.715 499.174Z" fill="white"/>
<path id="Vector_39" d="M462.945 490.393C461.367 490.216 459.952 491.352 459.777 492.926C459.752 493.15 459.719 493.376 459.679 493.599C459.4 495.159 460.439 496.649 461.998 496.928C462.169 496.958 462.339 496.973 462.506 496.973C463.869 496.973 465.078 495.997 465.327 494.608C465.388 494.262 465.44 493.909 465.478 493.561C465.654 491.986 464.519 490.567 462.945 490.393Z" fill="white"/>
</g>
</g>
</g>
<g id="Group_73">
<g id="Group_74">
<path id="Vector_40" d="M410.035 468.696C408.675 468.696 407.69 469.118 407.597 470.338C407.409 472.4 406.988 475.635 402.206 475.635C398.502 475.635 396.486 473.713 396.486 469.587V455.945C396.486 451.819 398.502 449.897 402.112 449.897C406.941 449.897 407.503 453.272 407.597 454.914C407.644 456.039 408.581 456.554 410.082 456.554C411.77 456.554 412.567 456.085 412.567 453.976C412.567 449.006 408.347 445.49 401.925 445.49C396.252 445.49 391.517 448.35 391.517 455.945V469.587C391.517 477.182 396.205 480.042 401.878 480.042C408.301 480.042 412.567 476.432 412.567 471.275C412.566 469.212 411.769 468.696 410.035 468.696Z" fill="white"/>
</g>
</g>
<g id="Group_75">
<g id="Group_76">
<path id="Vector_41" d="M427.381 445.49C421.427 445.49 416.879 448.35 416.879 455.945V469.587C416.879 477.182 421.427 480.042 427.381 480.042C433.287 480.042 437.929 477.182 437.929 469.587V455.945C437.929 448.35 433.288 445.49 427.381 445.49ZM432.959 469.588C432.959 473.713 430.85 475.635 427.381 475.635C423.865 475.635 421.849 473.713 421.849 469.588V455.945C421.849 451.819 423.865 449.897 427.381 449.897C430.85 449.897 432.959 451.819 432.959 455.945V469.588Z" fill="white"/>
</g>
</g>
<g id="Group_77">
<g id="Group_78">
<path id="Vector_42" d="M460.949 475.354H447.165V473.573C447.165 468.181 462.355 464.9 462.355 454.82C462.355 449.194 457.761 445.49 452.322 445.49C447.212 445.49 442.712 448.772 442.712 453.789C442.712 455.898 443.649 456.555 444.962 456.555C446.603 456.555 447.587 455.617 447.587 454.679C447.587 451.492 449.697 450.038 452.322 450.038C455.885 450.038 457.386 452.664 457.386 454.961C457.386 462.18 442.055 465.978 442.055 473.573V478.121C442.055 479.105 443.321 479.762 444.259 479.762H460.949C461.793 479.762 462.59 478.683 462.59 477.511C462.59 476.339 461.792 475.354 460.949 475.354Z" fill="white"/>
</g>
</g>
</g>
</g>
<g id="Group 31_2">
<g id="co2 1_7" clip-path="url(#clip2_165_417)">
<g id="Group_79">
<g id="Group_80">
<path id="Vector_43" d="M154.72 364.417C155.907 361.797 156.525 358.947 156.525 356.027C156.525 344.808 147.397 335.68 136.178 335.68C132.792 335.68 129.506 336.508 126.561 338.092C122.732 334.066 117.474 331.794 111.841 331.794C104.5 331.794 97.7761 335.752 94.1782 342.035C92.5396 341.617 90.8526 341.406 89.1407 341.406C77.921 341.406 68.7933 350.534 68.7933 361.753C68.7933 363.831 69.1023 365.865 69.7144 367.822C65.2664 371.668 62.6577 377.303 62.6577 383.227C62.6577 393.943 70.9841 402.751 81.5066 403.52C81.4838 403.913 81.4723 404.307 81.4723 404.701C81.4723 415.921 90.6002 425.048 101.82 425.048C108.488 425.048 114.705 421.737 118.476 416.386C122.264 420.193 127.448 422.39 132.906 422.39C143.574 422.39 152.351 414.137 153.187 403.68C162.331 401.601 169 393.403 169 383.841C169 374.867 163.053 367.028 154.72 364.417ZM150.607 399.366C149.413 399.514 148.523 400.542 148.547 401.746C148.55 401.844 148.551 401.943 148.551 402.042C148.551 410.67 141.532 417.688 132.905 417.688C127.79 417.688 122.987 415.178 120.057 410.973C119.577 410.284 118.762 409.903 117.928 409.975C117.091 410.046 116.356 410.56 115.999 411.321C113.435 416.804 107.868 420.347 101.819 420.347C93.1918 420.347 86.1729 413.328 86.1729 404.701C86.1729 403.675 86.2738 402.646 86.4723 401.642C86.614 400.926 86.4151 400.186 85.9344 399.637C85.4866 399.126 84.8413 398.835 84.1664 398.835C84.1167 398.835 84.0669 398.837 84.0178 398.84C83.6622 398.863 83.331 398.874 83.0046 398.874C74.3773 398.874 67.3584 391.855 67.3584 383.227C67.3584 378.21 69.7933 373.46 73.8721 370.522C74.7559 369.886 75.0867 368.725 74.6711 367.718C73.8898 365.825 73.4934 363.818 73.4934 361.754C73.4934 353.126 80.5124 346.107 89.1397 346.107C91.0042 346.107 92.8284 346.432 94.5608 347.072C95.7249 347.502 97.0229 346.953 97.5249 345.818C100.031 340.155 105.65 336.496 111.84 336.496C116.715 336.496 121.226 338.71 124.217 342.571C124.977 343.552 126.369 343.773 127.396 343.076C129.991 341.313 133.027 340.381 136.177 340.381C144.804 340.381 151.823 347.4 151.823 356.028C151.823 359.135 150.913 362.138 149.193 364.711C148.744 365.384 148.672 366.241 149.003 366.98C149.334 367.718 150.022 368.234 150.824 368.346C158.505 369.412 164.298 376.073 164.298 383.841C164.299 391.72 158.413 398.395 150.607 399.366Z" fill="white"/>
</g>
</g>
<g id="Group_81">
<g id="Group_82">
<path id="Vector_44" d="M77.1748 414.95C77.1748 410.032 73.1736 406.031 68.2557 406.031C65.7853 406.031 63.4898 407.027 61.8279 408.763C61.2052 408.626 60.5672 408.558 59.9187 408.558C55.0009 408.557 51 412.559 51 417.477C51 421.944 54.3022 425.655 58.5942 426.297C59.8341 429.775 63.1496 432.206 66.9929 432.206C71.9107 432.206 75.9118 428.205 75.9118 423.287C75.9118 422.261 75.7357 421.249 75.3953 420.293C76.5403 418.763 77.1748 416.89 77.1748 414.95ZM71.0471 418.111C70.1937 418.865 70.0042 420.123 70.5974 421.096C70.9985 421.754 71.2105 422.511 71.2105 423.287C71.2105 425.613 69.3186 427.505 66.9929 427.505C64.8413 427.505 63.0397 425.896 62.8025 423.761C62.6691 422.562 61.6543 421.67 60.4686 421.67C60.4038 421.67 60.3384 421.672 60.2724 421.678C60.1388 421.689 60.0229 421.695 59.9191 421.695C57.5935 421.695 55.7016 419.803 55.7016 417.477C55.7016 415.151 57.5935 413.259 59.9191 413.259C60.532 413.259 61.124 413.389 61.6785 413.644C62.7583 414.141 64.0385 413.754 64.6624 412.742C65.4384 411.484 66.7818 410.733 68.2561 410.733C70.5818 410.733 72.4739 412.625 72.4739 414.951C72.4739 416.157 71.9538 417.309 71.0471 418.111Z" fill="white"/>
</g>
</g>
<g id="Group_83">
<g id="Group_84">
<g id="Group_85">
<path id="Vector_45" d="M138.447 407.546C136.855 409.098 134.753 409.953 132.529 409.953C131.052 409.953 129.599 409.568 128.327 408.841C127.2 408.196 125.764 408.588 125.12 409.715C124.475 410.842 124.866 412.278 125.993 412.922C127.975 414.056 130.234 414.655 132.529 414.655C135.986 414.655 139.253 413.326 141.729 410.913C142.658 410.007 142.677 408.518 141.771 407.589C140.865 406.659 139.377 406.64 138.447 407.546Z" fill="white"/>
<path id="Vector_46" d="M143.552 400.35C142.259 400.205 141.099 401.136 140.956 402.426C140.935 402.609 140.909 402.795 140.876 402.978C140.648 404.255 141.498 405.476 142.776 405.705C142.916 405.73 143.055 405.742 143.193 405.742C144.31 405.742 145.3 404.942 145.504 403.804C145.554 403.52 145.596 403.231 145.628 402.946C145.772 401.655 144.842 400.493 143.552 400.35Z" fill="white"/>
</g>
</g>
</g>
<g id="Group_86">
<g id="Group_87">
<path id="Vector_47" d="M100.195 382.571C99.0809 382.571 98.2741 382.917 98.1973 383.916C98.0438 385.606 97.6981 388.257 93.7795 388.257C90.7447 388.257 89.0927 386.682 89.0927 383.301V372.122C89.0927 368.741 90.7447 367.166 93.7027 367.166C97.6596 367.166 98.1206 369.932 98.1976 371.277C98.2358 372.198 99.0042 372.621 100.234 372.621C101.617 372.621 102.27 372.237 102.27 370.508C102.27 366.436 98.8124 363.555 93.5492 363.555C88.9007 363.555 85.0205 365.898 85.0205 372.122V383.301C85.0205 389.524 88.8624 391.868 93.511 391.868C98.7742 391.868 102.27 388.91 102.27 384.684C102.27 382.994 101.617 382.571 100.195 382.571Z" fill="white"/>
</g>
</g>
<g id="Group_88">
<g id="Group_89">
<path id="Vector_48" d="M114.409 363.554C109.53 363.554 105.804 365.898 105.804 372.121V383.301C105.804 389.524 109.53 391.868 114.409 391.868C119.249 391.868 123.053 389.524 123.053 383.301V372.121C123.053 365.898 119.25 363.554 114.409 363.554ZM118.981 383.301C118.981 386.682 117.252 388.257 114.409 388.257C111.528 388.257 109.876 386.682 109.876 383.301V372.121C109.876 368.741 111.528 367.166 114.409 367.166C117.252 367.166 118.981 368.741 118.981 372.121V383.301Z" fill="white"/>
</g>
</g>
<g id="Group_90">
<g id="Group_91">
<path id="Vector_49" d="M141.917 388.026H130.622V386.566C130.622 382.148 143.069 379.459 143.069 371.199C143.069 366.589 139.304 363.554 134.847 363.554C130.66 363.554 126.972 366.243 126.972 370.354C126.972 372.083 127.74 372.621 128.816 372.621C130.161 372.621 130.967 371.852 130.967 371.084C130.967 368.472 132.696 367.281 134.847 367.281C137.767 367.281 138.996 369.432 138.996 371.315C138.996 377.231 126.434 380.343 126.434 386.567V390.293C126.434 391.1 127.471 391.638 128.24 391.638H141.917C142.608 391.638 143.261 390.754 143.261 389.794C143.261 388.833 142.608 388.026 141.917 388.026Z" fill="white"/>
</g>
</g>
</g>
</g>
<g id="Group 30_2">
<g id="co2 1_8">
<g id="Group_92">
<g id="Group_93">
<path id="Vector_50" d="M80.4715 285.536C81.3471 283.605 81.8027 281.503 81.8027 279.35C81.8027 271.078 75.0728 264.348 66.8008 264.348C64.3045 264.348 61.8819 264.959 59.7105 266.127C56.8871 263.158 53.0104 261.483 48.8577 261.483C43.445 261.483 38.4876 264.402 35.8349 269.034C34.6268 268.726 33.3829 268.57 32.1208 268.57C23.8486 268.57 17.1189 275.3 17.1189 283.572C17.1189 285.104 17.3467 286.604 17.7981 288.046C14.5186 290.882 12.5952 295.037 12.5952 299.405C12.5952 307.305 18.7342 313.799 26.4923 314.366C26.4755 314.656 26.467 314.947 26.467 315.237C26.467 323.509 33.1969 330.239 41.4689 330.239C46.3855 330.239 50.9694 327.798 53.7491 323.852C56.5423 326.659 60.364 328.279 64.3881 328.279C72.2538 328.279 78.7247 322.194 79.3417 314.484C86.0832 312.952 91.0001 306.907 91.0001 299.857C91.0001 293.24 86.6154 287.461 80.4715 285.536ZM77.4394 311.303C76.5587 311.413 75.9028 312.17 75.9207 313.058C75.9222 313.131 75.9236 313.204 75.9236 313.277C75.9236 319.637 70.7486 324.812 64.3877 324.812C60.6163 324.812 57.0752 322.961 54.9153 319.861C54.5612 319.353 53.9603 319.072 53.3452 319.125C52.728 319.178 52.186 319.556 51.9235 320.117C50.0324 324.16 45.9284 326.773 41.4685 326.773C35.1077 326.773 29.9327 321.598 29.9327 315.237C29.9327 314.48 30.0071 313.722 30.1534 312.982C30.2579 312.454 30.1113 311.908 29.7568 311.503C29.4267 311.126 28.9509 310.912 28.4533 310.912C28.4166 310.912 28.3799 310.913 28.3437 310.916C28.0816 310.932 27.8374 310.941 27.5968 310.941C21.2359 310.941 16.0609 305.766 16.0609 299.405C16.0609 295.705 17.8562 292.203 20.8634 290.037C21.5151 289.568 21.7589 288.712 21.4526 287.97C20.8765 286.574 20.5843 285.095 20.5843 283.572C20.5843 277.212 25.7592 272.037 32.1201 272.037C33.4948 272.037 34.8397 272.276 36.117 272.748C36.9753 273.065 37.9323 272.66 38.3024 271.823C40.1499 267.648 44.293 264.95 48.8567 264.95C52.4511 264.95 55.7771 266.582 57.9824 269.429C58.5426 270.153 59.5691 270.316 60.3263 269.801C62.2391 268.502 64.4775 267.815 66.7998 267.815C73.1606 267.815 78.3356 272.99 78.3356 279.351C78.3356 281.642 77.6651 283.856 76.397 285.753C76.0653 286.249 76.0123 286.881 76.2566 287.425C76.5008 287.97 77.0082 288.35 77.5993 288.433C83.2625 289.218 87.5331 294.13 87.5331 299.857C87.534 305.666 83.1942 310.587 77.4394 311.303Z" fill="white"/>
</g>
</g>
<g id="Group_94">
<g id="Group_95">
<path id="Vector_51" d="M23.2984 322.794C23.2984 319.168 20.3484 316.218 16.7224 316.218C14.901 316.218 13.2086 316.952 11.9833 318.232C11.5241 318.131 11.0538 318.081 10.5756 318.081C6.94984 318.081 4 321.031 4 324.657C4 327.951 6.43464 330.687 9.5991 331.16C10.5133 333.724 12.9578 335.517 15.7914 335.517C19.4172 335.517 22.3672 332.567 22.3672 328.941C22.3672 328.184 22.2374 327.438 21.9864 326.733C22.8306 325.605 23.2984 324.224 23.2984 322.794ZM18.7805 325.124C18.1513 325.681 18.0116 326.608 18.449 327.325C18.7446 327.81 18.901 328.369 18.901 328.941C18.901 330.656 17.5061 332.051 15.7914 332.051C14.205 332.051 12.8767 330.864 12.7019 329.29C12.6035 328.406 11.8553 327.748 10.9811 327.748C10.9333 327.748 10.8851 327.75 10.8365 327.755C10.7379 327.763 10.6524 327.767 10.576 327.767C8.8613 327.767 7.46641 326.372 7.46641 324.657C7.46641 322.942 8.8613 321.547 10.576 321.547C11.0278 321.547 11.4643 321.643 11.8732 321.831C12.6692 322.198 13.6132 321.912 14.0731 321.166C14.6453 320.239 15.6357 319.685 16.7227 319.685C18.4374 319.685 19.8325 321.08 19.8325 322.795C19.8325 323.684 19.449 324.533 18.7805 325.124Z" fill="white"/>
</g>
</g>
<g id="Group_96">
<g id="Group_97">
<g id="Group_98">
<path id="Vector_52" d="M68.4738 317.335C67.2995 318.479 65.75 319.109 64.1099 319.109C63.0214 319.109 61.9502 318.826 61.0124 318.289C60.181 317.814 59.1225 318.103 58.6474 318.933C58.1722 319.764 58.4607 320.823 59.2914 321.298C60.7524 322.134 62.4185 322.576 64.1099 322.576C66.6589 322.576 69.0679 321.596 70.893 319.817C71.5785 319.149 71.5924 318.052 70.9246 317.366C70.2565 316.681 69.1591 316.667 68.4738 317.335Z" fill="white"/>
<path id="Vector_53" d="M72.2376 312.029C71.2845 311.923 70.4293 312.609 70.3236 313.56C70.3085 313.695 70.2888 313.832 70.2646 313.966C70.0962 314.908 70.7236 315.809 71.6658 315.977C71.7689 315.996 71.8716 316.004 71.9727 316.004C72.7963 316.004 73.5268 315.415 73.6767 314.576C73.714 314.367 73.745 314.153 73.7684 313.943C73.8743 312.992 73.189 312.135 72.2376 312.029Z" fill="white"/>
</g>
</g>
</g>
<g id="Group_99">
<g id="Group_100">
<path id="Vector_54" d="M40.271 298.921C39.4496 298.921 38.8547 299.176 38.7981 299.912C38.685 301.159 38.4301 303.113 35.5409 303.113C33.3034 303.113 32.0854 301.952 32.0854 299.459V291.217C32.0854 288.724 33.3034 287.563 35.4843 287.563C38.4017 287.563 38.7415 289.602 38.7983 290.594C38.8265 291.273 39.393 291.585 40.2995 291.585C41.3193 291.585 41.8008 291.302 41.8008 290.027C41.8008 287.025 39.2516 284.9 35.3711 284.9C31.9438 284.9 29.083 286.628 29.083 291.217V299.459C29.083 304.048 31.9156 305.775 35.3429 305.775C39.2234 305.775 41.801 303.594 41.801 300.479C41.8006 299.232 41.3191 298.921 40.271 298.921Z" fill="white"/>
</g>
</g>
<g id="Group_101">
<g id="Group_102">
<path id="Vector_55" d="M50.751 284.9C47.1539 284.9 44.4062 286.628 44.4062 291.217V299.459C44.4062 304.048 47.1539 305.775 50.751 305.775C54.3197 305.775 57.1241 304.048 57.1241 299.459V291.217C57.1239 286.628 54.3198 284.9 50.751 284.9ZM54.1215 299.459C54.1215 301.952 52.8469 303.113 50.7511 303.113C48.6268 303.113 47.4088 301.952 47.4088 299.459V291.217C47.4088 288.724 48.6268 287.563 50.7511 287.563C52.8471 287.563 54.1215 288.724 54.1215 291.217V299.459Z" fill="white"/>
</g>
</g>
<g id="Group_103">
<g id="Group_104">
<path id="Vector_56" d="M71.0317 302.943H62.7042V301.867C62.7042 298.61 71.8813 296.627 71.8813 290.537C71.8813 287.138 69.1055 284.9 65.8197 284.9C62.7324 284.9 60.0133 286.883 60.0133 289.914C60.0133 291.189 60.5798 291.585 61.3728 291.585C62.3642 291.585 62.9589 291.019 62.9589 290.452C62.9589 288.526 64.2335 287.648 65.8197 287.648C67.9724 287.648 68.8788 289.234 68.8788 290.622C68.8788 294.984 59.6167 297.278 59.6167 301.867V304.615C59.6167 305.209 60.3813 305.606 60.948 305.606H71.0317C71.5416 305.606 72.023 304.954 72.023 304.247C72.023 303.538 71.5413 302.943 71.0317 302.943Z" fill="white"/>
</g>
</g>
</g>
</g>
</g>
<g id="co2-puff_3">
<g id="Group 29_3">
<g id="co2 1_9" clip-path="url(#clip3_165_417)">
<g id="Group_105">
<g id="Group_106">
<path id="Vector_57" d="M323.473 314.39C324.266 312.642 324.678 310.741 324.678 308.793C324.678 301.308 318.589 295.219 311.104 295.219C308.845 295.219 306.653 295.772 304.688 296.828C302.134 294.142 298.626 292.626 294.868 292.626C289.971 292.626 285.485 295.267 283.085 299.459C281.992 299.18 280.866 299.039 279.724 299.039C272.24 299.039 266.15 305.128 266.15 312.613C266.15 313.999 266.356 315.356 266.765 316.661C263.797 319.227 262.057 322.987 262.057 326.939C262.057 334.087 267.612 339.963 274.632 340.476C274.616 340.739 274.609 341.002 274.609 341.264C274.609 348.749 280.698 354.838 288.183 354.838C292.632 354.838 296.779 352.629 299.294 349.059C301.822 351.599 305.28 353.065 308.921 353.065C316.038 353.065 321.893 347.559 322.451 340.583C328.551 339.196 333 333.727 333 327.348C333 321.361 329.033 316.132 323.473 314.39ZM320.73 337.705C319.933 337.804 319.34 338.489 319.356 339.293C319.357 339.358 319.358 339.424 319.358 339.49C319.358 345.246 314.676 349.928 308.92 349.928C305.508 349.928 302.304 348.254 300.349 345.448C300.029 344.988 299.485 344.735 298.929 344.782C298.37 344.83 297.88 345.173 297.642 345.68C295.931 349.338 292.218 351.702 288.182 351.702C282.427 351.702 277.745 347.02 277.745 341.264C277.745 340.58 277.812 339.893 277.944 339.224C278.039 338.746 277.906 338.252 277.585 337.886C277.287 337.545 276.856 337.351 276.406 337.351C276.373 337.351 276.34 337.352 276.307 337.354C276.07 337.369 275.849 337.377 275.631 337.377C269.875 337.377 265.193 332.694 265.193 326.939C265.193 323.591 266.817 320.423 269.538 318.463C270.128 318.038 270.349 317.264 270.072 316.592C269.55 315.329 269.286 313.991 269.286 312.613C269.286 306.858 273.968 302.175 279.724 302.175C280.968 302.175 282.185 302.392 283.34 302.819C284.117 303.106 284.983 302.74 285.318 301.982C286.989 298.204 290.738 295.763 294.868 295.763C298.12 295.763 301.129 297.24 303.125 299.816C303.632 300.471 304.56 300.618 305.246 300.153C306.976 298.977 309.002 298.355 311.103 298.355C316.858 298.355 321.541 303.038 321.541 308.793C321.541 310.866 320.934 312.87 319.787 314.586C319.487 315.035 319.439 315.607 319.66 316.099C319.881 316.592 320.34 316.936 320.875 317.011C325.999 317.722 329.863 322.166 329.863 327.348C329.864 332.604 325.937 337.057 320.73 337.705Z" fill="white"/>
</g>
</g>
<g id="Group_107">
<g id="Group_108">
<path id="Vector_58" d="M271.741 348.101C271.741 344.82 269.072 342.151 265.791 342.151C264.143 342.151 262.612 342.816 261.503 343.974C261.088 343.882 260.662 343.837 260.23 343.837C256.949 343.837 254.28 346.506 254.28 349.787C254.28 352.767 256.483 355.243 259.346 355.671C260.173 357.991 262.385 359.613 264.949 359.613C268.23 359.613 270.899 356.944 270.899 353.663C270.899 352.978 270.781 352.303 270.554 351.666C271.318 350.645 271.741 349.396 271.741 348.101ZM267.654 350.21C267.084 350.713 266.958 351.553 267.354 352.201C267.621 352.64 267.763 353.145 267.763 353.663C267.763 355.215 266.5 356.477 264.949 356.477C263.514 356.477 262.312 355.403 262.153 353.979C262.064 353.179 261.387 352.584 260.596 352.584C260.553 352.584 260.51 352.586 260.466 352.59C260.376 352.597 260.299 352.601 260.23 352.601C258.678 352.601 257.416 351.339 257.416 349.787C257.416 348.236 258.678 346.973 260.23 346.973C260.639 346.973 261.034 347.06 261.404 347.23C262.124 347.562 262.978 347.303 263.394 346.629C263.912 345.789 264.808 345.288 265.792 345.288C267.343 345.288 268.605 346.55 268.605 348.102C268.605 348.906 268.258 349.675 267.654 350.21Z" fill="white"/>
</g>
</g>
<g id="Group_109">
<g id="Group_110">
<g id="Group_111">
<path id="Vector_59" d="M312.617 343.161C311.555 344.197 310.153 344.767 308.669 344.767C307.684 344.767 306.715 344.511 305.866 344.025C305.114 343.595 304.156 343.856 303.726 344.608C303.296 345.36 303.557 346.318 304.309 346.748C305.631 347.504 307.138 347.904 308.669 347.904C310.975 347.904 313.155 347.017 314.806 345.407C315.427 344.803 315.439 343.81 314.835 343.19C314.23 342.57 313.238 342.557 312.617 343.161Z" fill="white"/>
<path id="Vector_60" d="M316.023 338.361C315.16 338.265 314.387 338.885 314.291 339.746C314.277 339.868 314.259 339.992 314.238 340.114C314.085 340.966 314.653 341.781 315.505 341.933C315.599 341.95 315.692 341.958 315.783 341.958C316.528 341.958 317.189 341.425 317.325 340.666C317.359 340.476 317.387 340.283 317.408 340.093C317.504 339.232 316.884 338.457 316.023 338.361Z" fill="white"/>
</g>
</g>
</g>
<g id="Group_112">
<g id="Group_113">
<path id="Vector_61" d="M287.099 326.501C286.356 326.501 285.817 326.731 285.766 327.398C285.664 328.525 285.433 330.294 282.819 330.294C280.794 330.294 279.692 329.243 279.692 326.988V319.53C279.692 317.274 280.794 316.224 282.768 316.224C285.407 316.224 285.715 318.069 285.766 318.966C285.792 319.581 286.304 319.863 287.125 319.863C288.047 319.863 288.483 319.606 288.483 318.453C288.483 315.736 286.176 313.814 282.665 313.814C279.564 313.814 276.976 315.378 276.976 319.53V326.988C276.976 331.139 279.539 332.703 282.64 332.703C286.151 332.703 288.483 330.729 288.483 327.91C288.483 326.782 288.047 326.501 287.099 326.501Z" fill="white"/>
</g>
</g>
<g id="Group_114">
<g id="Group_115">
<path id="Vector_62" d="M296.581 313.814C293.326 313.814 290.84 315.378 290.84 319.53V326.988C290.84 331.139 293.326 332.703 296.581 332.703C299.81 332.703 302.348 331.139 302.348 326.988V319.53C302.348 315.378 299.81 313.814 296.581 313.814ZM299.631 326.988C299.631 329.243 298.478 330.294 296.581 330.294C294.659 330.294 293.557 329.243 293.557 326.988V319.53C293.557 317.274 294.659 316.224 296.581 316.224C298.478 316.224 299.631 317.274 299.631 319.53V326.988Z" fill="white"/>
</g>
</g>
<g id="Group_116">
<g id="Group_117">
<path id="Vector_63" d="M314.932 330.14H307.397V329.166C307.397 326.219 315.701 324.425 315.701 318.915C315.701 315.839 313.189 313.814 310.216 313.814C307.423 313.814 304.962 315.608 304.962 318.351C304.962 319.504 305.475 319.863 306.193 319.863C307.089 319.863 307.628 319.35 307.628 318.838C307.628 317.095 308.781 316.301 310.216 316.301C312.164 316.301 312.984 317.736 312.984 318.992C312.984 322.938 304.604 325.014 304.604 329.166V331.653C304.604 332.191 305.295 332.55 305.808 332.55H314.932C315.394 332.55 315.829 331.96 315.829 331.319C315.829 330.679 315.393 330.14 314.932 330.14Z" fill="white"/>
</g>
</g>
</g>
</g>
<g id="Group 31_3">
<g id="co2 1_10" clip-path="url(#clip4_165_417)">
<g id="Group_118">
<g id="Group_119">
<path id="Vector_64" d="M251.394 290.814C252.043 289.382 252.381 287.824 252.381 286.228C252.381 280.095 247.391 275.105 241.257 275.105C239.407 275.105 237.61 275.558 236 276.423C233.907 274.222 231.033 272.98 227.953 272.98C223.94 272.98 220.264 275.144 218.298 278.579C217.402 278.351 216.48 278.235 215.544 278.235C209.41 278.235 204.421 283.225 204.421 289.358C204.421 290.494 204.589 291.606 204.924 292.676C202.492 294.778 201.066 297.859 201.066 301.097C201.066 306.955 205.618 311.77 211.37 312.191C211.358 312.406 211.352 312.621 211.352 312.836C211.352 318.97 216.342 323.96 222.475 323.96C226.12 323.96 229.519 322.15 231.58 319.224C233.651 321.305 236.485 322.506 239.469 322.506C245.301 322.506 250.099 317.995 250.556 312.278C255.555 311.142 259.2 306.66 259.2 301.433C259.2 296.527 255.949 292.242 251.394 290.814ZM249.146 309.92C248.493 310.001 248.006 310.563 248.019 311.221C248.021 311.275 248.022 311.329 248.022 311.383C248.022 316.099 244.185 319.936 239.468 319.936C236.672 319.936 234.046 318.564 232.445 316.265C232.182 315.888 231.737 315.68 231.281 315.719C230.823 315.758 230.421 316.039 230.227 316.455C228.824 319.453 225.782 321.39 222.475 321.39C217.758 321.39 213.921 317.553 213.921 312.836C213.921 312.275 213.977 311.713 214.085 311.164C214.163 310.773 214.054 310.368 213.791 310.068C213.546 309.789 213.193 309.63 212.825 309.63C212.797 309.63 212.77 309.631 212.743 309.632C212.549 309.645 212.368 309.651 212.189 309.651C207.473 309.651 203.636 305.814 203.636 301.097C203.636 298.355 204.967 295.758 207.197 294.152C207.68 293.804 207.861 293.17 207.634 292.619C207.207 291.584 206.99 290.487 206.99 289.358C206.99 284.642 210.827 280.805 215.543 280.805C216.562 280.805 217.56 280.983 218.507 281.333C219.143 281.568 219.853 281.268 220.127 280.647C221.497 277.551 224.569 275.551 227.953 275.551C230.618 275.551 233.084 276.761 234.719 278.872C235.134 279.408 235.895 279.529 236.457 279.148C237.875 278.184 239.535 277.675 241.257 277.675C245.973 277.675 249.81 281.512 249.81 286.228C249.81 287.927 249.313 289.569 248.373 290.975C248.127 291.343 248.087 291.812 248.269 292.215C248.45 292.619 248.826 292.901 249.264 292.962C253.463 293.545 256.63 297.186 256.63 301.433C256.63 305.74 253.412 309.389 249.146 309.92Z" fill="white"/>
</g>
</g>
<g id="Group_120">
<g id="Group_121">
<path id="Vector_65" d="M209.002 318.44C209.002 315.751 206.815 313.564 204.126 313.564C202.776 313.564 201.521 314.108 200.613 315.057C200.272 314.982 199.923 314.945 199.569 314.945C196.881 314.945 194.693 317.132 194.693 319.821C194.693 322.263 196.499 324.292 198.845 324.643C199.523 326.544 201.335 327.873 203.436 327.873C206.125 327.873 208.312 325.686 208.312 322.997C208.312 322.436 208.216 321.883 208.029 321.36C208.655 320.524 209.002 319.5 209.002 318.44ZM205.652 320.167C205.186 320.58 205.082 321.268 205.407 321.799C205.626 322.159 205.742 322.573 205.742 322.997C205.742 324.269 204.708 325.303 203.436 325.303C202.26 325.303 201.275 324.423 201.145 323.256C201.072 322.601 200.518 322.113 199.87 322.113C199.834 322.113 199.798 322.114 199.762 322.118C199.689 322.124 199.626 322.127 199.569 322.127C198.298 322.127 197.264 321.092 197.264 319.821C197.264 318.55 198.298 317.515 199.569 317.515C199.904 317.515 200.228 317.586 200.531 317.726C201.121 317.997 201.821 317.786 202.162 317.233C202.586 316.545 203.321 316.134 204.127 316.134C205.398 316.134 206.432 317.169 206.432 318.44C206.432 319.099 206.148 319.729 205.652 320.167Z" fill="white"/>
</g>
</g>
<g id="Group_122">
<g id="Group_123">
<g id="Group_124">
<path id="Vector_66" d="M242.498 314.392C241.627 315.24 240.478 315.707 239.262 315.707C238.455 315.707 237.661 315.497 236.965 315.1C236.349 314.747 235.564 314.961 235.212 315.577C234.859 316.193 235.073 316.978 235.689 317.331C236.773 317.95 238.008 318.278 239.262 318.278C241.152 318.278 242.938 317.551 244.291 316.232C244.8 315.737 244.81 314.923 244.315 314.415C243.819 313.907 243.006 313.896 242.498 314.392Z" fill="white"/>
<path id="Vector_67" d="M245.288 310.458C244.582 310.379 243.948 310.888 243.869 311.593C243.858 311.693 243.843 311.794 243.825 311.894C243.701 312.593 244.166 313.26 244.864 313.385C244.941 313.399 245.017 313.405 245.092 313.405C245.703 313.405 246.244 312.968 246.355 312.346C246.383 312.191 246.406 312.033 246.423 311.877C246.502 311.171 245.994 310.536 245.288 310.458Z" fill="white"/>
</g>
</g>
</g>
<g id="Group_125">
<g id="Group_126">
<path id="Vector_68" d="M221.586 300.739C220.977 300.739 220.536 300.928 220.494 301.474C220.41 302.398 220.221 303.847 218.079 303.847C216.42 303.847 215.517 302.986 215.517 301.138V295.027C215.517 293.178 216.42 292.317 218.037 292.317C220.2 292.317 220.452 293.829 220.494 294.565C220.515 295.068 220.935 295.3 221.608 295.3C222.364 295.3 222.721 295.089 222.721 294.144C222.721 291.918 220.831 290.343 217.953 290.343C215.412 290.343 213.291 291.624 213.291 295.027V301.138C213.291 304.54 215.391 305.821 217.932 305.821C220.81 305.821 222.721 304.204 222.721 301.894C222.721 300.97 222.364 300.739 221.586 300.739Z" fill="white"/>
</g>
</g>
<g id="Group_127">
<g id="Group_128">
<path id="Vector_69" d="M229.357 290.343C226.69 290.343 224.653 291.624 224.653 295.027V301.138C224.653 304.54 226.69 305.821 229.357 305.821C232.003 305.821 234.083 304.54 234.083 301.138V295.027C234.082 291.624 232.003 290.343 229.357 290.343ZM231.856 301.138C231.856 302.986 230.911 303.847 229.357 303.847C227.782 303.847 226.879 302.986 226.879 301.138V295.027C226.879 293.179 227.782 292.318 229.357 292.318C230.911 292.318 231.856 293.179 231.856 295.027V301.138Z" fill="white"/>
</g>
</g>
<g id="Group_129">
<g id="Group_130">
<path id="Vector_70" d="M244.394 303.721H238.22V302.923C238.22 300.508 245.024 299.038 245.024 294.523C245.024 292.002 242.966 290.343 240.53 290.343C238.241 290.343 236.225 291.813 236.225 294.061C236.225 295.006 236.645 295.3 237.233 295.3C237.968 295.3 238.409 294.88 238.409 294.46C238.409 293.032 239.354 292.381 240.53 292.381C242.126 292.381 242.798 293.557 242.798 294.586C242.798 297.82 235.931 299.521 235.931 302.923V304.961C235.931 305.402 236.498 305.696 236.918 305.696H244.394C244.772 305.696 245.129 305.212 245.129 304.688C245.129 304.162 244.772 303.721 244.394 303.721Z" fill="white"/>
</g>
</g>
</g>
</g>
<g id="Group 30_3">
<g id="co2 1_11" clip-path="url(#clip5_165_417)">
<g id="Group_131">
<g id="Group_132">
<path id="Vector_71" d="M210.804 247.693C211.283 246.637 211.532 245.489 211.532 244.312C211.532 239.79 207.853 236.111 203.331 236.111C201.966 236.111 200.642 236.445 199.455 237.083C197.912 235.46 195.792 234.544 193.522 234.544C190.563 234.544 187.853 236.14 186.403 238.672C185.743 238.504 185.063 238.419 184.373 238.419C179.851 238.419 176.172 242.098 176.172 246.62C176.172 247.457 176.296 248.277 176.543 249.065C174.75 250.616 173.699 252.887 173.699 255.275C173.699 259.594 177.055 263.144 181.296 263.454C181.287 263.612 181.282 263.771 181.282 263.93C181.282 268.452 184.961 272.131 189.483 272.131C192.171 272.131 194.677 270.796 196.196 268.639C197.723 270.174 199.812 271.059 202.012 271.059C206.312 271.059 209.85 267.733 210.187 263.518C213.872 262.68 216.56 259.376 216.56 255.522C216.56 251.905 214.163 248.745 210.804 247.693ZM209.147 261.779C208.665 261.839 208.307 262.253 208.317 262.739C208.317 262.778 208.318 262.818 208.318 262.858C208.318 266.335 205.489 269.164 202.012 269.164C199.95 269.164 198.014 268.152 196.834 266.458C196.64 266.18 196.312 266.026 195.975 266.055C195.638 266.084 195.342 266.291 195.198 266.598C194.164 268.808 191.921 270.236 189.483 270.236C186.006 270.236 183.177 267.407 183.177 263.93C183.177 263.516 183.217 263.102 183.297 262.697C183.354 262.408 183.274 262.11 183.08 261.889C182.9 261.683 182.64 261.565 182.368 261.565C182.348 261.565 182.328 261.566 182.308 261.567C182.165 261.577 182.031 261.581 181.9 261.581C178.422 261.581 175.593 258.752 175.593 255.275C175.593 253.252 176.575 251.338 178.219 250.154C178.575 249.897 178.708 249.43 178.541 249.024C178.226 248.261 178.066 247.452 178.066 246.62C178.066 243.142 180.895 240.313 184.372 240.313C185.124 240.313 185.859 240.444 186.557 240.702C187.026 240.876 187.55 240.654 187.752 240.197C188.762 237.914 191.027 236.439 193.522 236.439C195.487 236.439 197.305 237.332 198.51 238.888C198.817 239.284 199.378 239.373 199.792 239.092C200.837 238.381 202.061 238.006 203.331 238.006C206.808 238.006 209.637 240.835 209.637 244.312C209.637 245.564 209.27 246.775 208.577 247.812C208.396 248.083 208.367 248.428 208.5 248.726C208.634 249.024 208.911 249.232 209.234 249.277C212.33 249.706 214.665 252.391 214.665 255.522C214.665 258.698 212.293 261.388 209.147 261.779Z" fill="white"/>
</g>
</g>
<g id="Group_133">
<g id="Group_134">
<path id="Vector_72" d="M179.55 268.061C179.55 266.078 177.937 264.466 175.955 264.466C174.959 264.466 174.034 264.867 173.364 265.567C173.113 265.512 172.856 265.484 172.595 265.484C170.613 265.484 169 267.097 169 269.079C169 270.88 170.331 272.375 172.061 272.634C172.561 274.036 173.897 275.016 175.446 275.016C177.428 275.016 179.041 273.403 179.041 271.421C179.041 271.007 178.97 270.599 178.833 270.214C179.294 269.597 179.55 268.843 179.55 268.061ZM177.08 269.334C176.736 269.639 176.66 270.146 176.899 270.538C177.06 270.803 177.146 271.108 177.146 271.421C177.146 272.358 176.383 273.121 175.446 273.121C174.579 273.121 173.853 272.472 173.757 271.612C173.703 271.128 173.294 270.769 172.816 270.769C172.79 270.769 172.764 270.77 172.737 270.772C172.683 270.777 172.637 270.779 172.595 270.779C171.658 270.779 170.895 270.016 170.895 269.079C170.895 268.142 171.658 267.379 172.595 267.379C172.842 267.379 173.08 267.431 173.304 267.534C173.739 267.735 174.255 267.578 174.507 267.171C174.819 266.664 175.361 266.361 175.955 266.361C176.892 266.361 177.655 267.124 177.655 268.061C177.655 268.547 177.445 269.011 177.08 269.334Z" fill="white"/>
</g>
</g>
<g id="Group_135">
<g id="Group_136">
<g id="Group_137">
<path id="Vector_73" d="M204.245 265.077C203.604 265.702 202.756 266.047 201.86 266.047C201.265 266.047 200.679 265.892 200.167 265.598C199.712 265.339 199.133 265.496 198.874 265.951C198.614 266.405 198.772 266.984 199.226 267.243C200.024 267.7 200.935 267.942 201.86 267.942C203.253 267.942 204.57 267.406 205.568 266.433C205.943 266.068 205.95 265.468 205.585 265.094C205.22 264.719 204.62 264.711 204.245 265.077Z" fill="white"/>
<path id="Vector_74" d="M206.303 262.176C205.782 262.118 205.314 262.493 205.257 263.013C205.248 263.087 205.238 263.161 205.224 263.235C205.132 263.75 205.475 264.242 205.99 264.334C206.047 264.344 206.103 264.349 206.158 264.349C206.608 264.349 207.008 264.027 207.09 263.568C207.11 263.454 207.127 263.337 207.14 263.222C207.198 262.702 206.823 262.234 206.303 262.176Z" fill="white"/>
</g>
</g>
</g>
<g id="Group_138">
<g id="Group_139">
<path id="Vector_75" d="M188.828 255.01C188.379 255.01 188.054 255.15 188.023 255.552C187.961 256.233 187.822 257.302 186.242 257.302C185.019 257.302 184.353 256.667 184.353 255.304V250.799C184.353 249.436 185.019 248.801 186.211 248.801C187.806 248.801 187.992 249.916 188.023 250.458C188.038 250.83 188.348 251 188.844 251C189.401 251 189.664 250.845 189.664 250.148C189.664 248.507 188.271 247.346 186.149 247.346C184.276 247.346 182.712 248.29 182.712 250.799V255.304C182.712 257.813 184.26 258.757 186.134 258.757C188.255 258.757 189.664 257.565 189.664 255.862C189.664 255.181 189.401 255.01 188.828 255.01Z" fill="white"/>
</g>
</g>
<g id="Group_140">
<g id="Group_141">
<path id="Vector_76" d="M194.557 247.346C192.591 247.346 191.089 248.29 191.089 250.799V255.304C191.089 257.813 192.591 258.757 194.557 258.757C196.508 258.757 198.041 257.813 198.041 255.304V250.799C198.041 248.29 196.508 247.346 194.557 247.346ZM196.4 255.305C196.4 256.667 195.703 257.302 194.557 257.302C193.396 257.302 192.73 256.667 192.73 255.305V250.799C192.73 249.436 193.396 248.801 194.557 248.801C195.703 248.801 196.4 249.436 196.4 250.799V255.305Z" fill="white"/>
</g>
</g>
<g id="Group_142">
<g id="Group_143">
<path id="Vector_77" d="M205.644 257.209H201.092V256.621C201.092 254.84 206.108 253.756 206.108 250.427C206.108 248.569 204.591 247.346 202.795 247.346C201.107 247.346 199.621 248.43 199.621 250.086C199.621 250.783 199.93 251 200.364 251C200.906 251 201.231 250.69 201.231 250.381C201.231 249.328 201.928 248.848 202.795 248.848C203.972 248.848 204.467 249.715 204.467 250.474C204.467 252.858 199.404 254.112 199.404 256.621V258.123C199.404 258.448 199.822 258.665 200.132 258.665H205.644C205.923 258.665 206.186 258.309 206.186 257.922C206.186 257.534 205.923 257.209 205.644 257.209Z" fill="white"/>
</g>
</g>
</g>
</g>
</g>
<g id="co2-puff_4">
<g id="Group 29_4">
<g id="co2 1_12" clip-path="url(#clip6_165_417)">
<g id="Group_144">
<g id="Group_145">
<path id="Vector_78" d="M191.473 188.39C192.266 186.642 192.678 184.741 192.678 182.793C192.678 175.308 186.589 169.219 179.104 169.219C176.845 169.219 174.653 169.772 172.688 170.828C170.134 168.142 166.626 166.626 162.868 166.626C157.971 166.626 153.485 169.267 151.085 173.459C149.992 173.18 148.866 173.039 147.724 173.039C140.24 173.039 134.15 179.128 134.15 186.613C134.15 187.999 134.356 189.356 134.765 190.661C131.797 193.227 130.057 196.987 130.057 200.939C130.057 208.087 135.612 213.963 142.632 214.476C142.616 214.739 142.609 215.002 142.609 215.264C142.609 222.749 148.698 228.838 156.183 228.838C160.632 228.838 164.779 226.629 167.294 223.059C169.822 225.599 173.28 227.065 176.921 227.065C184.038 227.065 189.893 221.559 190.451 214.583C196.551 213.196 201 207.727 201 201.348C201 195.361 197.033 190.132 191.473 188.39ZM188.73 211.705C187.933 211.804 187.34 212.489 187.356 213.293C187.357 213.358 187.358 213.424 187.358 213.49C187.358 219.246 182.676 223.928 176.92 223.928C173.508 223.928 170.304 222.254 168.349 219.448C168.029 218.988 167.485 218.735 166.929 218.782C166.37 218.83 165.88 219.173 165.642 219.68C163.931 223.338 160.218 225.702 156.182 225.702C150.427 225.702 145.745 221.02 145.745 215.264C145.745 214.58 145.812 213.893 145.944 213.224C146.039 212.746 145.906 212.252 145.585 211.886C145.287 211.545 144.856 211.351 144.406 211.351C144.373 211.351 144.34 211.352 144.307 211.354C144.07 211.369 143.849 211.377 143.631 211.377C137.875 211.377 133.193 206.694 133.193 200.939C133.193 197.591 134.817 194.423 137.538 192.463C138.128 192.038 138.349 191.264 138.072 190.592C137.55 189.329 137.286 187.991 137.286 186.613C137.286 180.858 141.968 176.175 147.724 176.175C148.968 176.175 150.185 176.392 151.34 176.819C152.117 177.106 152.983 176.74 153.318 175.982C154.989 172.204 158.738 169.763 162.868 169.763C166.12 169.763 169.129 171.24 171.125 173.816C171.632 174.471 172.56 174.618 173.246 174.153C174.976 172.977 177.002 172.355 179.103 172.355C184.858 172.355 189.541 177.038 189.541 182.793C189.541 184.866 188.934 186.87 187.787 188.586C187.487 189.035 187.439 189.607 187.66 190.099C187.881 190.592 188.34 190.936 188.875 191.011C193.999 191.722 197.863 196.166 197.863 201.348C197.864 206.604 193.937 211.057 188.73 211.705Z" fill="white"/>
</g>
</g>
<g id="Group_146">
<g id="Group_147">
<path id="Vector_79" d="M139.741 222.101C139.741 218.82 137.072 216.151 133.791 216.151C132.143 216.151 130.612 216.816 129.503 217.974C129.088 217.882 128.662 217.837 128.23 217.837C124.949 217.837 122.28 220.506 122.28 223.787C122.28 226.767 124.483 229.243 127.346 229.671C128.173 231.991 130.385 233.613 132.949 233.613C136.23 233.613 138.899 230.944 138.899 227.663C138.899 226.978 138.781 226.303 138.554 225.666C139.318 224.645 139.741 223.396 139.741 222.101ZM135.654 224.21C135.084 224.713 134.958 225.553 135.354 226.201C135.621 226.64 135.763 227.145 135.763 227.663C135.763 229.215 134.5 230.477 132.949 230.477C131.514 230.477 130.312 229.403 130.153 227.979C130.064 227.179 129.387 226.584 128.596 226.584C128.553 226.584 128.51 226.586 128.466 226.59C128.376 226.597 128.299 226.601 128.23 226.601C126.678 226.601 125.416 225.339 125.416 223.787C125.416 222.236 126.678 220.973 128.23 220.973C128.639 220.973 129.034 221.06 129.404 221.23C130.124 221.562 130.978 221.303 131.394 220.629C131.912 219.789 132.808 219.288 133.792 219.288C135.343 219.288 136.605 220.55 136.605 222.102C136.605 222.906 136.258 223.675 135.654 224.21Z" fill="white"/>
</g>
</g>
<g id="Group_148">
<g id="Group_149">
<g id="Group_150">
<path id="Vector_80" d="M180.617 217.161C179.555 218.197 178.153 218.767 176.669 218.767C175.684 218.767 174.715 218.511 173.866 218.025C173.114 217.595 172.156 217.856 171.726 218.608C171.296 219.36 171.557 220.318 172.309 220.748C173.631 221.504 175.138 221.904 176.669 221.904C178.975 221.904 181.155 221.017 182.806 219.407C183.427 218.803 183.439 217.81 182.835 217.19C182.23 216.57 181.238 216.557 180.617 217.161Z" fill="white"/>
<path id="Vector_81" d="M184.023 212.361C183.16 212.265 182.387 212.885 182.291 213.746C182.277 213.868 182.259 213.992 182.238 214.114C182.085 214.966 182.653 215.781 183.505 215.933C183.599 215.95 183.692 215.958 183.783 215.958C184.528 215.958 185.189 215.425 185.325 214.666C185.359 214.476 185.387 214.283 185.408 214.093C185.504 213.232 184.884 212.457 184.023 212.361Z" fill="white"/>
</g>
</g>
</g>
<g id="Group_151">
<g id="Group_152">
<path id="Vector_82" d="M155.099 200.501C154.356 200.501 153.817 200.731 153.766 201.398C153.664 202.525 153.433 204.294 150.819 204.294C148.794 204.294 147.692 203.243 147.692 200.988V193.53C147.692 191.274 148.794 190.224 150.768 190.224C153.407 190.224 153.715 192.069 153.766 192.966C153.792 193.581 154.304 193.863 155.125 193.863C156.047 193.863 156.483 193.606 156.483 192.453C156.483 189.736 154.176 187.814 150.665 187.814C147.564 187.814 144.976 189.378 144.976 193.53V200.988C144.976 205.139 147.539 206.703 150.64 206.703C154.151 206.703 156.483 204.729 156.483 201.91C156.483 200.782 156.047 200.501 155.099 200.501Z" fill="white"/>
</g>
</g>
<g id="Group_153">
<g id="Group_154">
<path id="Vector_83" d="M164.581 187.814C161.326 187.814 158.84 189.378 158.84 193.53V200.988C158.84 205.139 161.326 206.703 164.581 206.703C167.81 206.703 170.348 205.139 170.348 200.988V193.53C170.348 189.378 167.81 187.814 164.581 187.814ZM167.631 200.988C167.631 203.243 166.478 204.294 164.581 204.294C162.659 204.294 161.557 203.243 161.557 200.988V193.53C161.557 191.274 162.659 190.224 164.581 190.224C166.478 190.224 167.631 191.274 167.631 193.53V200.988Z" fill="white"/>
</g>
</g>
<g id="Group_155">
<g id="Group_156">
<path id="Vector_84" d="M182.932 204.14H175.397V203.166C175.397 200.219 183.701 198.425 183.701 192.915C183.701 189.839 181.189 187.814 178.216 187.814C175.423 187.814 172.962 189.608 172.962 192.351C172.962 193.504 173.475 193.863 174.193 193.863C175.089 193.863 175.628 193.35 175.628 192.838C175.628 191.095 176.781 190.301 178.216 190.301C180.164 190.301 180.984 191.736 180.984 192.992C180.984 196.938 172.604 199.014 172.604 203.166V205.653C172.604 206.191 173.295 206.55 173.808 206.55H182.932C183.394 206.55 183.829 205.96 183.829 205.319C183.829 204.679 183.393 204.14 182.932 204.14Z" fill="white"/>
</g>
</g>
</g>
</g>
<g id="Group 31_4">
<g id="co2 1_13" clip-path="url(#clip7_165_417)">
<g id="Group_157">
<g id="Group_158">
<path id="Vector_85" d="M119.394 164.814C120.043 163.382 120.381 161.824 120.381 160.228C120.381 154.095 115.391 149.105 109.257 149.105C107.407 149.105 105.61 149.558 104 150.423C101.907 148.222 99.0325 146.98 95.9535 146.98C91.9402 146.98 88.2644 149.144 86.2976 152.579C85.4018 152.351 84.4796 152.235 83.5437 152.235C77.4103 152.235 72.4205 157.225 72.4205 163.358C72.4205 164.494 72.5895 165.606 72.9241 166.676C70.4925 168.778 69.0664 171.859 69.0664 175.097C69.0664 180.955 73.6182 185.77 79.3705 186.191C79.358 186.406 79.3517 186.621 79.3517 186.836C79.3517 192.97 84.3416 197.96 90.4749 197.96C94.1204 197.96 97.5191 196.15 99.5802 193.224C101.651 195.305 104.485 196.506 107.469 196.506C113.301 196.506 118.099 191.995 118.556 186.278C123.555 185.142 127.2 180.66 127.2 175.433C127.2 170.527 123.949 166.242 119.394 164.814ZM117.146 183.92C116.493 184.001 116.006 184.563 116.019 185.221C116.021 185.275 116.022 185.329 116.022 185.383C116.022 190.099 112.185 193.936 107.468 193.936C104.672 193.936 102.046 192.564 100.445 190.265C100.182 189.888 99.7368 189.68 99.2807 189.719C98.8231 189.758 98.4212 190.039 98.2266 190.455C96.8244 193.453 93.7815 195.39 90.4747 195.39C85.7584 195.39 81.9214 191.553 81.9214 186.836C81.9214 186.275 81.9766 185.713 82.085 185.164C82.1625 184.773 82.0538 184.368 81.791 184.068C81.5462 183.789 81.1934 183.63 80.8245 183.63C80.7973 183.63 80.7701 183.631 80.7432 183.632C80.5488 183.645 80.3678 183.651 80.1894 183.651C75.4731 183.651 71.6361 179.814 71.6361 175.097C71.6361 172.355 72.9672 169.758 75.1969 168.152C75.6801 167.804 75.8609 167.17 75.6337 166.619C75.2066 165.584 74.9899 164.487 74.9899 163.358C74.9899 158.642 78.8269 154.805 83.5432 154.805C84.5625 154.805 85.5597 154.983 86.5068 155.333C87.1431 155.568 87.8527 155.268 88.1271 154.647C89.497 151.551 92.5689 149.551 95.9527 149.551C98.6178 149.551 101.084 150.761 102.719 152.872C103.134 153.408 103.895 153.529 104.457 153.148C105.875 152.184 107.535 151.675 109.257 151.675C113.973 151.675 117.81 155.512 117.81 160.228C117.81 161.927 117.313 163.569 116.373 164.975C116.127 165.343 116.087 165.812 116.269 166.215C116.45 166.619 116.826 166.901 117.264 166.962C121.463 167.545 124.63 171.186 124.63 175.433C124.63 179.74 121.412 183.389 117.146 183.92Z" fill="white"/>
</g>
</g>
<g id="Group_159">
<g id="Group_160">
<path id="Vector_86" d="M77.0022 192.44C77.0022 189.751 74.8149 187.564 72.1265 187.564C70.776 187.564 69.5211 188.108 68.6126 189.057C68.2722 188.982 67.9234 188.945 67.5689 188.945C64.8805 188.945 62.6934 191.132 62.6934 193.821C62.6934 196.263 64.4985 198.292 66.8448 198.643C67.5227 200.544 69.3352 201.873 71.4362 201.873C74.1245 201.873 76.3118 199.686 76.3118 196.997C76.3118 196.436 76.2156 195.883 76.0295 195.36C76.6554 194.524 77.0022 193.5 77.0022 192.44ZM73.6524 194.167C73.1859 194.58 73.0823 195.268 73.4066 195.799C73.6259 196.159 73.7418 196.573 73.7418 196.997C73.7418 198.269 72.7075 199.303 71.4362 199.303C70.2599 199.303 69.2751 198.423 69.1454 197.256C69.0725 196.601 68.5177 196.113 67.8695 196.113C67.8341 196.113 67.7983 196.114 67.7623 196.118C67.6892 196.124 67.6259 196.127 67.5692 196.127C66.2978 196.127 65.2635 195.092 65.2635 193.821C65.2635 192.55 66.2978 191.515 67.5692 191.515C67.9042 191.515 68.2278 191.586 68.531 191.726C69.1212 191.997 69.8211 191.786 70.1621 191.233C70.5864 190.545 71.3207 190.134 72.1267 190.134C73.3981 190.134 74.4324 191.169 74.4324 192.44C74.4324 193.099 74.1481 193.729 73.6524 194.167Z" fill="white"/>
</g>
</g>
<g id="Group_161">
<g id="Group_162">
<g id="Group_163">
<path id="Vector_87" d="M110.498 188.392C109.627 189.24 108.478 189.707 107.262 189.707C106.455 189.707 105.661 189.497 104.965 189.1C104.349 188.747 103.564 188.961 103.212 189.577C102.859 190.193 103.073 190.978 103.689 191.331C104.773 191.95 106.008 192.278 107.262 192.278C109.152 192.278 110.938 191.551 112.291 190.232C112.8 189.737 112.81 188.923 112.315 188.415C111.819 187.907 111.006 187.896 110.498 188.392Z" fill="white"/>
<path id="Vector_88" d="M113.288 184.458C112.582 184.379 111.948 184.888 111.869 185.593C111.858 185.693 111.843 185.794 111.825 185.894C111.701 186.593 112.166 187.26 112.864 187.385C112.941 187.399 113.017 187.405 113.092 187.405C113.703 187.405 114.244 186.968 114.355 186.346C114.383 186.191 114.406 186.033 114.423 185.877C114.502 185.171 113.994 184.536 113.288 184.458Z" fill="white"/>
</g>
</g>
</g>
<g id="Group_164">
<g id="Group_165">
<path id="Vector_89" d="M89.5864 174.739C88.9774 174.739 88.5363 174.928 88.4943 175.474C88.4104 176.398 88.2215 177.847 86.0793 177.847C84.4202 177.847 83.5171 176.986 83.5171 175.138V169.027C83.5171 167.178 84.4202 166.317 86.0373 166.317C88.2004 166.317 88.4524 167.829 88.4945 168.565C88.5154 169.068 88.9354 169.3 89.6076 169.3C90.3637 169.3 90.7207 169.089 90.7207 168.144C90.7207 165.918 88.8306 164.343 85.9534 164.343C83.4122 164.343 81.291 165.624 81.291 169.027V175.138C81.291 178.54 83.3913 179.821 85.9325 179.821C88.8097 179.821 90.7208 178.204 90.7208 175.894C90.7206 174.97 90.3635 174.739 89.5864 174.739Z" fill="white"/>
</g>
</g>
<g id="Group_166">
<g id="Group_167">
<path id="Vector_90" d="M97.3572 164.343C94.6901 164.343 92.6528 165.624 92.6528 169.027V175.138C92.6528 178.54 94.6901 179.821 97.3572 179.821C100.003 179.821 102.083 178.54 102.083 175.138V169.027C102.082 165.624 100.003 164.343 97.3572 164.343ZM99.8563 175.138C99.8563 176.986 98.9112 177.847 97.3573 177.847C95.7822 177.847 94.8791 176.986 94.8791 175.138V169.027C94.8791 167.179 95.7822 166.318 97.3573 166.318C98.9114 166.318 99.8563 167.179 99.8563 169.027V175.138Z" fill="white"/>
</g>
</g>
<g id="Group_168">
<g id="Group_169">
<path id="Vector_91" d="M112.394 177.721H106.22V176.923C106.22 174.508 113.024 173.038 113.024 168.523C113.024 166.002 110.966 164.343 108.53 164.343C106.241 164.343 104.225 165.813 104.225 168.061C104.225 169.006 104.645 169.3 105.233 169.3C105.968 169.3 106.409 168.88 106.409 168.46C106.409 167.032 107.354 166.381 108.53 166.381C110.126 166.381 110.798 167.557 110.798 168.586C110.798 171.82 103.931 173.521 103.931 176.923V178.961C103.931 179.402 104.498 179.696 104.918 179.696H112.394C112.772 179.696 113.129 179.212 113.129 178.688C113.129 178.162 112.772 177.721 112.394 177.721Z" fill="white"/>
</g>
</g>
</g>
</g>
<g id="Group 30_4">
<g id="co2 1_14" clip-path="url(#clip8_165_417)">
<g id="Group_170">
<g id="Group_171">
<path id="Vector_92" d="M78.8044 121.693C79.2831 120.637 79.5322 119.489 79.5322 118.312C79.5322 113.79 75.8531 110.111 71.3311 110.111C69.9665 110.111 68.6421 110.445 67.4551 111.083C65.9116 109.46 63.7924 108.544 61.5222 108.544C58.5633 108.544 55.8532 110.14 54.4031 112.672C53.7427 112.504 53.0627 112.419 52.3727 112.419C47.8506 112.419 44.1717 116.098 44.1717 120.62C44.1717 121.457 44.2962 122.277 44.5429 123.065C42.7502 124.616 41.6987 126.887 41.6987 129.275C41.6987 133.594 45.0547 137.144 49.2958 137.454C49.2866 137.612 49.2819 137.771 49.2819 137.93C49.2819 142.452 52.961 146.131 57.483 146.131C60.1708 146.131 62.6766 144.796 64.1962 142.639C65.7231 144.174 67.8123 145.059 70.0122 145.059C74.3121 145.059 77.8495 141.733 78.1868 137.518C81.8722 136.68 84.56 133.376 84.56 129.522C84.56 125.905 82.1631 122.745 78.8044 121.693ZM77.1469 135.779C76.6655 135.839 76.3069 136.253 76.3167 136.739C76.3175 136.778 76.3182 136.818 76.3182 136.858C76.3182 140.335 73.4892 143.164 70.012 143.164C67.9503 143.164 66.0144 142.152 64.8337 140.458C64.6401 140.18 64.3117 140.026 63.9754 140.055C63.638 140.084 63.3417 140.291 63.1982 140.598C62.1644 142.808 59.9209 144.236 57.4828 144.236C54.0055 144.236 51.1765 141.407 51.1765 137.93C51.1765 137.516 51.2172 137.102 51.2972 136.697C51.3543 136.408 51.2742 136.11 51.0804 135.889C50.8999 135.683 50.6398 135.565 50.3678 135.565C50.3478 135.565 50.3277 135.566 50.3079 135.567C50.1646 135.577 50.0311 135.581 49.8996 135.581C46.4223 135.581 43.5933 132.752 43.5933 129.275C43.5933 127.252 44.5747 125.338 46.2187 124.154C46.5749 123.897 46.7082 123.43 46.5407 123.024C46.2258 122.261 46.0661 121.452 46.0661 120.62C46.0661 117.142 48.8951 114.313 52.3723 114.313C53.1238 114.313 53.859 114.444 54.5573 114.702C55.0265 114.876 55.5497 114.654 55.752 114.197C56.762 111.914 59.0268 110.439 61.5217 110.439C63.4866 110.439 65.3048 111.332 66.5104 112.888C66.8166 113.284 67.3778 113.373 67.7917 113.092C68.8374 112.381 70.061 112.006 71.3306 112.006C74.8078 112.006 77.6368 114.835 77.6368 118.312C77.6368 119.564 77.2703 120.775 76.577 121.812C76.3957 122.083 76.3667 122.428 76.5003 122.726C76.6338 123.024 76.9112 123.232 77.2343 123.277C80.3302 123.706 82.6648 126.391 82.6648 129.522C82.6653 132.698 80.2928 135.388 77.1469 135.779Z" fill="white"/>
</g>
</g>
<g id="Group_172">
<g id="Group_173">
<path id="Vector_93" d="M47.5498 142.061C47.5498 140.078 45.9371 138.466 43.9549 138.466C42.9592 138.466 42.034 138.867 41.3642 139.567C41.1132 139.512 40.8561 139.484 40.5947 139.484C38.6126 139.484 37 141.097 37 143.079C37 144.88 38.3309 146.375 40.0608 146.634C40.5606 148.036 41.8969 149.016 43.446 149.016C45.4281 149.016 47.0407 147.403 47.0407 145.421C47.0407 145.007 46.9698 144.599 46.8326 144.214C47.294 143.597 47.5498 142.843 47.5498 142.061ZM45.08 143.334C44.736 143.639 44.6597 144.146 44.8988 144.538C45.0604 144.803 45.1459 145.108 45.1459 145.421C45.1459 146.358 44.3833 147.121 43.446 147.121C42.5787 147.121 41.8526 146.472 41.757 145.612C41.7032 145.128 41.2942 144.769 40.8163 144.769C40.7902 144.769 40.7638 144.77 40.7373 144.772C40.6834 144.777 40.6367 144.779 40.5949 144.779C39.6575 144.779 38.895 144.016 38.895 143.079C38.895 142.142 39.6575 141.379 40.5949 141.379C40.8419 141.379 41.0805 141.431 41.304 141.534C41.7392 141.735 42.2552 141.578 42.5066 141.171C42.8194 140.664 43.3609 140.361 43.9551 140.361C44.8925 140.361 45.6551 141.124 45.6551 142.061C45.6551 142.547 45.4454 143.011 45.08 143.334Z" fill="white"/>
</g>
</g>
<g id="Group_174">
<g id="Group_175">
<g id="Group_176">
<path id="Vector_94" d="M72.2455 139.077C71.6035 139.702 70.7564 140.047 69.8599 140.047C69.2648 140.047 68.6792 139.892 68.1666 139.598C67.712 139.339 67.1334 139.496 66.8737 139.951C66.6139 140.405 66.7716 140.984 67.2258 141.243C68.0244 141.7 68.9352 141.942 69.8599 141.942C71.2533 141.942 72.5702 141.406 73.568 140.433C73.9427 140.068 73.9503 139.468 73.5852 139.094C73.22 138.719 72.6201 138.711 72.2455 139.077Z" fill="white"/>
<path id="Vector_95" d="M74.303 136.176C73.7819 136.118 73.3144 136.493 73.2566 137.013C73.2484 137.087 73.2376 137.161 73.2244 137.235C73.1324 137.75 73.4753 138.242 73.9904 138.334C74.0468 138.344 74.1029 138.349 74.1581 138.349C74.6084 138.349 75.0077 138.027 75.0897 137.568C75.1101 137.454 75.127 137.337 75.1398 137.222C75.1977 136.702 74.8231 136.234 74.303 136.176Z" fill="white"/>
</g>
</g>
</g>
<g id="Group_177">
<g id="Group_178">
<path id="Vector_96" d="M56.828 129.01C56.379 129.01 56.0538 129.15 56.0228 129.552C55.961 130.233 55.8216 131.302 54.2422 131.302C53.019 131.302 52.3532 130.667 52.3532 129.304V124.799C52.3532 123.436 53.019 122.801 54.2113 122.801C55.8061 122.801 55.9919 123.916 56.0229 124.458C56.0384 124.83 56.3481 125 56.8436 125C57.4011 125 57.6643 124.845 57.6643 124.148C57.6643 122.507 56.2708 121.346 54.1494 121.346C52.2758 121.346 50.7119 122.29 50.7119 124.799V129.304C50.7119 131.813 52.2604 132.757 54.134 132.757C56.2553 132.757 57.6644 131.565 57.6644 129.862C57.6642 129.181 57.401 129.01 56.828 129.01Z" fill="white"/>
</g>
</g>
<g id="Group_179">
<g id="Group_180">
<path id="Vector_97" d="M62.5573 121.346C60.5909 121.346 59.0889 122.29 59.0889 124.799V129.304C59.0889 131.813 60.5909 132.757 62.5573 132.757C64.5082 132.757 66.0413 131.813 66.0413 129.304V124.799C66.0412 122.29 64.5083 121.346 62.5573 121.346ZM64.3999 129.305C64.3999 130.667 63.7031 131.302 62.5574 131.302C61.3961 131.302 60.7302 130.667 60.7302 129.305V124.799C60.7302 123.436 61.3961 122.801 62.5574 122.801C63.7032 122.801 64.3999 123.436 64.3999 124.799V129.305Z" fill="white"/>
</g>
</g>
<g id="Group_181">
<g id="Group_182">
<path id="Vector_98" d="M73.644 131.209H69.0916V130.621C69.0916 128.84 74.1085 127.756 74.1085 124.427C74.1085 122.569 72.591 121.346 70.7948 121.346C69.107 121.346 67.6206 122.43 67.6206 124.086C67.6206 124.783 67.9303 125 68.3638 125C68.9058 125 69.2309 124.69 69.2309 124.381C69.2309 123.328 69.9276 122.848 70.7948 122.848C71.9716 122.848 72.4671 123.715 72.4671 124.474C72.4671 126.858 67.4038 128.112 67.4038 130.621V132.123C67.4038 132.448 67.8218 132.665 68.1316 132.665H73.644C73.9228 132.665 74.1859 132.309 74.1859 131.922C74.1859 131.534 73.9226 131.209 73.644 131.209Z" fill="white"/>
</g>
</g>
</g>
</g>
</g>
</g>
<defs>
<filter id="filter0_d_165_417" x="0" y="0" width="563" height="548" filterUnits="userSpaceOnUse" color-interpolation-filters="sRGB">
<feFlood flood-opacity="0" result="BackgroundImageFix"/>
<feColorMatrix in="SourceAlpha" type="matrix" values="0 0 0 0 0 0 0 0 0 0 0 0 0 0 0 0 0 0 127 0" result="hardAlpha"/>
<feOffset dy="4"/>
<feGaussianBlur stdDeviation="2"/>
<feComposite in2="hardAlpha" operator="out"/>
<feColorMatrix type="matrix" values="0 0 0 0 0 0 0 0 0 0 0 0 0 0 0 0 0 0 0.25 0"/>
<feBlend mode="normal" in2="BackgroundImageFix" result="effect1_dropShadow_165_417"/>
<feBlend mode="normal" in="SourceGraphic" in2="effect1_dropShadow_165_417" result="shape"/>
</filter>
<clipPath id="clip0_165_417">
<rect width="118" height="118" fill="white" transform="translate(306 173)"/>
</clipPath>
<clipPath id="clip1_165_417">
<rect width="118" height="118" fill="white" transform="translate(127)"/>
</clipPath>
<clipPath id="clip2_165_417">
<rect width="118" height="118" fill="white" transform="translate(51 323)"/>
</clipPath>
<clipPath id="clip3_165_417">
<rect width="78.72" height="78.72" fill="white" transform="translate(254.28 286.76)"/>
</clipPath>
<clipPath id="clip4_165_417">
<rect width="64.5067" height="64.5067" fill="white" transform="translate(194.693 268.173)"/>
</clipPath>
<clipPath id="clip5_165_417">
<rect width="47.56" height="47.56" fill="white" transform="translate(169 231)"/>
</clipPath>
<clipPath id="clip6_165_417">
<rect width="78.72" height="78.72" fill="white" transform="translate(122.28 160.76)"/>
</clipPath>
<clipPath id="clip7_165_417">
<rect width="64.5067" height="64.5067" fill="white" transform="translate(62.6934 142.173)"/>
</clipPath>
<clipPath id="clip8_165_417">
<rect width="47.56" height="47.56" fill="white" transform="translate(37 105)"/>
</clipPath>
</defs>
</svg>
