<svg width="37" height="45" viewBox="0 0 37 45" fill="none" xmlns="http://www.w3.org/2000/svg">
<path d="M24.6265 41.6964L32.1042 37.5448L26.2725 16.8398L25.9204 17.0601L25.6856 17.207L23.573 18.5289L22.1646 19.4102L21.1083 20.0711L17.1178 22.568L9.84096 27.1211L24.6265 41.6964Z" fill="#EF4434"/>
<path d="M10.0364 27.1863L26.3764 17.025L22.7653 14.7935L20.4597 13.7738L17.0298 13.8625L10.8649 17.2852L9.18156 20.5196L10.0364 27.1863Z" fill="#A5DEFF"/>
<path d="M9.00845 5.96769C9.20873 5.8565 9.46124 5.92872 9.57243 6.129L14.5119 15.0258C14.6231 15.2261 14.5509 15.4786 14.3506 15.5898C14.1504 15.701 13.8979 15.6288 13.7867 15.4285L8.84715 6.53167C8.73596 6.33139 8.80817 6.07889 9.00845 5.96769Z" fill="#D9D9D9"/>
<path d="M9.00845 5.96769C9.20873 5.8565 9.46124 5.92872 9.57243 6.129L14.5119 15.0258C14.6231 15.2261 14.5509 15.4786 14.3506 15.5898C14.1504 15.701 13.8979 15.6288 13.7867 15.4285L8.84715 6.53167C8.73596 6.33139 8.80817 6.07889 9.00845 5.96769Z" stroke="black"/>
<path d="M13.4902 1.90674L14.1726 2.45147L9.57861 6.67437L8.89619 6.12964L13.4902 1.90674Z" fill="#D9D9D9"/>
<path d="M13.4902 1.90674L14.1726 2.45147L9.57861 6.67437L8.89619 6.12964L13.4902 1.90674Z" stroke="black"/>
</svg>
