<svg width="143" height="124" viewBox="0 0 143 124" fill="none" xmlns="http://www.w3.org/2000/svg">
<g id="Group 23">
<g id="Group 13">
<path id="Ellipse 9" d="M13.498 43.5209C19.0109 56.5635 22.8744 83.1767 49.414 95.5238C75.9535 107.871 96.2897 91.9646 110.966 88.8663C100.91 65.4382 102.95 49.8433 76.4103 37.4962C49.8707 25.1492 23.9369 32.9365 13.498 43.5209Z" fill="#F3AA3C"/>
<path id="Ellipse 10" d="M117.87 103.51C114.747 104.063 111.235 103.783 107.777 102.706C104.318 101.629 101.122 93.1269 98.4936 90.7838C95.8648 88.4407 93.9213 92.362 93.0083 89.5422C92.0952 86.7225 92.2006 83.9654 93.3109 81.6194C94.4213 79.2735 96.4869 77.4442 99.2465 76.3629C102.006 75.2815 100.664 78.0932 104.143 78.6409C107.621 79.1885 115.764 77.4475 118.789 79.4396C121.814 81.4317 124.257 83.9708 125.809 86.7358L110.023 89.5296L117.87 103.51Z" fill="#F3AA3C"/>
<path id="Ellipse 11" d="M97.5676 44.4372C96.1458 47.2715 93.8234 49.9214 90.8941 52.0519C87.9649 54.1825 79.2369 51.6672 75.7876 52.376C72.3382 53.0847 74.3223 56.9856 71.5155 56.0337C68.7086 55.0818 66.5602 53.3504 65.342 51.0587C64.1238 48.7669 63.8904 46.0176 64.6714 43.1585C65.4524 40.2994 66.906 43.055 69.423 40.5922C71.94 38.1294 75.4072 30.5588 78.8118 29.3225C82.2164 28.0862 85.7121 27.6434 88.8567 28.0502L81.6679 42.3803L97.5676 44.4372Z" fill="#F3AA3C"/>
</g>
<rect id="Rectangle 51" width="4" height="19.4876" rx="2" transform="matrix(-0.478357 -0.878166 -0.878166 0.478357 49.2593 48.4424)" fill="black"/>
<rect id="Rectangle 50" width="4" height="19.4876" rx="2" transform="matrix(-0.986851 0.161635 0.161635 0.986851 40.3174 41.6602)" fill="black"/>
</g>
</svg>
