<svg width="124" height="86" viewBox="0 0 124 86" fill="none" xmlns="http://www.w3.org/2000/svg">
<path d="M1.43065 37.3361C11.4955 27.3762 25.2039 4.24025 54.4457 2.93175C83.6875 1.62326 96.4329 24.076 108.823 32.5305C90.6021 50.3629 86.5485 65.5593 57.3066 66.8678C28.0648 68.1763 7.05148 51.0985 1.43065 37.3361Z" fill="#F3AA3C"/>
<path d="M120.783 21.6193C118.107 19.9192 114.752 18.8401 111.145 18.5185C107.537 18.197 101.344 24.8413 98.0205 26.0066C94.6975 27.172 94.394 22.806 92.4758 25.0655C90.5576 27.3249 89.6049 29.9144 89.7381 32.5064C89.8714 35.0984 91.0845 37.5766 93.2243 39.6274C95.364 41.6783 95.1942 38.5675 98.6192 39.386C102.044 40.2045 108.91 44.9156 112.466 44.2258C116.022 43.536 119.248 42.1187 121.736 40.1532L108.203 31.5573L120.783 21.6193Z" fill="#F3AA3C"/>
<path d="M79.5129 68.5078C79.2777 65.3457 78.1396 62.011 76.2426 58.9254C74.3455 55.8397 65.3175 54.8413 62.398 52.8722C59.4785 50.9031 62.7988 48.0519 59.841 47.863C56.8831 47.6742 54.2373 48.4568 52.238 50.1118C50.2387 51.7669 48.9758 54.2201 48.609 57.1612C48.2422 60.1022 50.6358 58.108 52.0251 61.3438C53.4144 64.5796 53.737 72.9001 56.4141 75.34C59.0912 77.7798 62.1547 79.5206 65.2173 80.3421L64.0282 64.3541L79.5129 68.5078Z" fill="#F3AA3C"/>
<rect x="28.7224" y="37.1597" width="4.85934" height="6.51733" rx="2.42967" transform="rotate(178.805 28.7224 37.1597)" fill="black"/>
</svg>
