<svg width="350" height="217" viewBox="0 0 350 217" fill="none" xmlns="http://www.w3.org/2000/svg">
<g id="fish_txt">
<g id="Group 27">
<g id="Group 13">
<path id="Ellipse 9" d="M149.021 67.3651C153.47 71.4027 159.704 80.9587 172.123 80.9783C184.542 80.9979 189.533 71.2475 194.63 67.437C186.581 60.2117 184.584 53.8445 172.165 53.8249C159.747 53.8053 151.152 61.4286 149.021 67.3651Z" fill="#F3AA3C"/>
<path id="Ellipse 10" d="M199.9 71.8431C198.797 72.6127 197.394 73.1315 195.871 73.3338C194.348 73.5361 191.601 70.833 190.171 70.3999C188.741 69.9667 188.692 71.8229 187.838 70.9003C186.984 69.9776 186.532 68.8975 186.541 67.7963C186.55 66.6952 187.019 65.6226 187.889 64.7141C188.758 63.8056 188.743 65.1273 190.18 64.7177C191.617 64.3081 194.441 62.1856 195.961 62.4129C197.481 62.6402 198.874 63.1819 199.965 63.9696L194.386 67.8608L199.9 71.8431Z" fill="#F3AA3C"/>
<path id="Ellipse 11" d="M181.549 52.7233C181.507 54.0679 181.085 55.5023 180.338 56.8449C179.59 58.1875 175.782 58.776 174.58 59.664C173.379 60.5521 174.838 61.6999 173.588 61.8341C172.338 61.9682 171.202 61.6849 170.324 61.02C169.446 60.355 168.866 59.3383 168.657 58.0983C168.448 56.8584 169.499 57.6599 170.028 56.2629C170.558 54.8659 170.542 51.3331 171.633 50.2499C172.723 49.1667 173.989 48.3728 175.273 47.9686L175.061 54.7673L181.549 52.7233Z" fill="#F3AA3C"/>
</g>
<rect id="Rectangle 51" width="1.69709" height="8.26804" rx="0.848544" transform="matrix(-0.803203 -0.595705 -0.595705 0.803203 163.666 62.8813)" fill="black"/>
<rect id="Rectangle 50" width="1.69709" height="8.26804" rx="0.848544" transform="matrix(-0.827465 0.561518 0.561518 0.827465 159.014 61.8652)" fill="black"/>
</g>
<g id="Group 38">
<g id="Group 13_2">
<path id="Ellipse 9_2" d="M195.034 120.979C197.651 123.354 201.318 128.975 208.623 128.987C215.928 128.998 218.865 123.263 221.863 121.022C217.128 116.771 215.954 113.026 208.648 113.015C201.343 113.003 196.288 117.487 195.034 120.979Z" fill="#F3AA3C"/>
<path id="Ellipse 10_2" d="M224.963 123.613C224.314 124.066 223.489 124.371 222.593 124.49C221.697 124.609 220.081 123.019 219.24 122.764C218.399 122.509 218.37 123.601 217.868 123.059C217.365 122.516 217.1 121.881 217.105 121.233C217.11 120.585 217.386 119.954 217.897 119.42C218.409 118.885 218.4 119.663 219.245 119.422C220.09 119.181 221.752 117.932 222.646 118.066C223.54 118.2 224.359 118.519 225.001 118.982L221.719 121.271L224.963 123.613Z" fill="#F3AA3C"/>
<path id="Ellipse 11_2" d="M214.168 112.366C214.143 113.157 213.896 114.001 213.456 114.791C213.016 115.581 210.776 115.927 210.069 116.449C209.362 116.972 210.221 117.647 209.485 117.726C208.75 117.805 208.082 117.638 207.565 117.247C207.049 116.856 206.708 116.258 206.585 115.528C206.462 114.799 207.08 115.27 207.391 114.449C207.703 113.627 207.694 111.549 208.335 110.912C208.976 110.274 209.721 109.807 210.476 109.57L210.352 113.569L214.168 112.366Z" fill="#F3AA3C"/>
</g>
<rect id="Rectangle 51_2" width="0.99827" height="4.86347" rx="0.499135" transform="matrix(-0.803203 -0.595705 -0.595705 0.803203 203.649 118.342)" fill="black"/>
<rect id="Rectangle 50_2" width="0.99827" height="4.86347" rx="0.499135" transform="matrix(-0.827465 0.561518 0.561518 0.827465 200.913 117.744)" fill="black"/>
</g>
<g id="Group 43">
<g id="Group 13_3">
<path id="Ellipse 9_3" d="M269.012 32.9795C271.629 35.3545 275.296 40.9755 282.601 40.9871C289.906 40.9986 292.843 35.2632 295.841 33.0218C291.106 28.7717 289.932 25.0263 282.626 25.0148C275.321 25.0032 270.266 29.4875 269.012 32.9795Z" fill="#F3AA3C"/>
<path id="Ellipse 10_3" d="M298.941 35.6135C298.292 36.0662 297.467 36.3713 296.571 36.4903C295.675 36.6093 294.059 35.0193 293.218 34.7645C292.377 34.5097 292.348 35.6016 291.846 35.0589C291.343 34.5162 291.078 33.8808 291.083 33.233C291.088 32.5853 291.364 31.9544 291.875 31.42C292.387 30.8856 292.378 31.6631 293.223 31.4221C294.068 31.1812 295.73 29.9327 296.624 30.0664C297.518 30.2001 298.337 30.5187 298.979 30.9821L295.697 33.271L298.941 35.6135Z" fill="#F3AA3C"/>
<path id="Ellipse 11_3" d="M288.146 24.3667C288.121 25.1577 287.874 26.0014 287.434 26.7911C286.994 27.5809 284.754 27.927 284.047 28.4494C283.34 28.9718 284.199 29.647 283.463 29.7259C282.728 29.8048 282.06 29.6382 281.543 29.247C281.027 28.8559 280.686 28.2578 280.563 27.5284C280.44 26.7991 281.058 27.2705 281.369 26.4488C281.681 25.627 281.672 23.549 282.313 22.9118C282.954 22.2747 283.7 21.8077 284.454 21.5699L284.33 25.569L288.146 24.3667Z" fill="#F3AA3C"/>
</g>
<rect id="Rectangle 51_3" width="0.99827" height="4.86347" rx="0.499135" transform="matrix(-0.803203 -0.595705 -0.595705 0.803203 277.627 30.342)" fill="black"/>
<rect id="Rectangle 50_3" width="0.99827" height="4.86347" rx="0.499135" transform="matrix(-0.827465 0.561518 0.561518 0.827465 274.891 29.7444)" fill="black"/>
</g>
<g id="Group 40">
<g id="Group 13_4">
<path id="Ellipse 9_4" d="M202.012 161.979C204.629 164.354 208.296 169.976 215.601 169.987C222.906 169.999 225.843 164.263 228.841 162.022C224.106 157.772 222.932 154.026 215.626 154.015C208.321 154.003 203.266 158.487 202.012 161.979Z" fill="#F3AA3C"/>
<path id="Ellipse 10_4" d="M231.941 164.613C231.292 165.066 230.467 165.371 229.571 165.49C228.675 165.609 227.059 164.019 226.218 163.765C225.377 163.51 225.348 164.602 224.846 164.059C224.343 163.516 224.078 162.881 224.083 162.233C224.088 161.585 224.364 160.954 224.875 160.42C225.387 159.886 225.378 160.663 226.223 160.422C227.068 160.181 228.73 158.933 229.624 159.066C230.518 159.2 231.337 159.519 231.979 159.982L228.697 162.271L231.941 164.613Z" fill="#F3AA3C"/>
<path id="Ellipse 11_4" d="M221.146 153.367C221.121 154.158 220.874 155.001 220.434 155.791C219.994 156.581 217.754 156.927 217.047 157.449C216.34 157.972 217.199 158.647 216.463 158.726C215.728 158.805 215.06 158.638 214.543 158.247C214.027 157.856 213.686 157.258 213.563 156.528C213.44 155.799 214.058 156.271 214.369 155.449C214.681 154.627 214.672 152.549 215.313 151.912C215.954 151.275 216.7 150.808 217.454 150.57L217.33 154.569L221.146 153.367Z" fill="#F3AA3C"/>
</g>
<rect id="Rectangle 51_4" width="0.99827" height="4.86347" rx="0.499135" transform="matrix(-0.803203 -0.595705 -0.595705 0.803203 210.627 159.342)" fill="black"/>
<rect id="Rectangle 50_4" width="0.99827" height="4.86347" rx="0.499135" transform="matrix(-0.827465 0.561518 0.561518 0.827465 207.891 158.744)" fill="black"/>
</g>
<g id="Group 41">
<g id="Group 13_5">
<path id="Ellipse 9_5" d="M112.012 138.979C114.629 141.354 118.296 146.976 125.601 146.987C132.906 146.999 135.843 141.263 138.841 139.022C134.106 134.772 132.932 131.026 125.626 131.015C118.321 131.003 113.266 135.487 112.012 138.979Z" fill="#F3AA3C"/>
<path id="Ellipse 10_5" d="M141.941 141.613C141.292 142.066 140.467 142.371 139.571 142.49C138.675 142.609 137.059 141.019 136.218 140.765C135.377 140.51 135.348 141.602 134.846 141.059C134.343 140.516 134.078 139.881 134.083 139.233C134.088 138.585 134.364 137.954 134.875 137.42C135.387 136.886 135.378 137.663 136.223 137.422C137.068 137.181 138.73 135.933 139.624 136.066C140.518 136.2 141.337 136.519 141.979 136.982L138.697 139.271L141.941 141.613Z" fill="#F3AA3C"/>
<path id="Ellipse 11_5" d="M131.146 130.367C131.121 131.158 130.874 132.001 130.434 132.791C129.994 133.581 127.754 133.927 127.047 134.449C126.34 134.972 127.199 135.647 126.463 135.726C125.728 135.805 125.06 135.638 124.543 135.247C124.027 134.856 123.686 134.258 123.563 133.528C123.44 132.799 124.058 133.271 124.369 132.449C124.681 131.627 124.672 129.549 125.313 128.912C125.954 128.275 126.7 127.808 127.454 127.57L127.33 131.569L131.146 130.367Z" fill="#F3AA3C"/>
</g>
<rect id="Rectangle 51_5" width="0.99827" height="4.86347" rx="0.499135" transform="matrix(-0.803203 -0.595705 -0.595705 0.803203 120.627 136.342)" fill="black"/>
<rect id="Rectangle 50_5" width="0.99827" height="4.86347" rx="0.499135" transform="matrix(-0.827465 0.561518 0.561518 0.827465 117.891 135.744)" fill="black"/>
</g>
<g id="Group 42">
<g id="Group 13_6">
<path id="Ellipse 9_6" d="M54.0124 96.9795C56.6292 99.3545 60.2961 104.976 67.6013 104.987C74.9064 104.999 77.8426 99.2632 80.8409 97.0218C76.1058 92.7717 74.9316 89.0263 67.6265 89.0148C60.3213 89.0032 55.2658 93.4875 54.0124 96.9795Z" fill="#F3AA3C"/>
<path id="Ellipse 10_6" d="M83.9407 99.6135C83.2917 100.066 82.467 100.371 81.5709 100.49C80.6748 100.609 79.0591 99.0193 78.218 98.7645C77.3769 98.5097 77.3482 99.6016 76.8456 99.0589C76.343 98.5162 76.0776 97.8808 76.0829 97.233C76.0882 96.5853 76.3641 95.9544 76.8755 95.42C77.3869 94.8856 77.3781 95.6631 78.2232 95.4221C79.0684 95.1812 80.7296 93.9327 81.6236 94.0664C82.5176 94.2001 83.3372 94.5187 83.9788 94.9821L80.6971 97.271L83.9407 99.6135Z" fill="#F3AA3C"/>
<path id="Ellipse 11_6" d="M73.146 88.3667C73.1214 89.1577 72.8736 90.0014 72.4338 90.7911C71.994 91.5809 69.7537 91.927 69.047 92.4494C68.3403 92.9718 69.1988 93.647 68.4633 93.7259C67.7279 93.8048 67.0598 93.6382 66.5434 93.247C66.0271 92.8559 65.6859 92.2578 65.5627 91.5284C65.4396 90.7991 66.0579 91.2705 66.3695 90.4488C66.681 89.627 66.6719 87.549 67.3132 86.9118C67.9544 86.2747 68.6995 85.8077 69.4543 85.5699L69.3299 89.569L73.146 88.3667Z" fill="#F3AA3C"/>
</g>
<rect id="Rectangle 51_6" width="0.99827" height="4.86347" rx="0.499135" transform="matrix(-0.803203 -0.595705 -0.595705 0.803203 62.627 94.342)" fill="black"/>
<rect id="Rectangle 50_6" width="0.99827" height="4.86347" rx="0.499135" transform="matrix(-0.827465 0.561518 0.561518 0.827465 59.8906 93.7444)" fill="black"/>
</g>
<g id="Group 39">
<g id="Group 13_7">
<path id="Ellipse 9_7" d="M294.012 156.979C296.629 159.354 300.296 164.976 307.601 164.987C314.906 164.999 317.843 159.263 320.841 157.022C316.106 152.772 314.932 149.026 307.626 149.015C300.321 149.003 295.266 153.487 294.012 156.979Z" fill="#F3AA3C"/>
<path id="Ellipse 10_7" d="M323.941 159.613C323.292 160.066 322.467 160.371 321.571 160.49C320.675 160.609 319.059 159.019 318.218 158.765C317.377 158.51 317.348 159.602 316.846 159.059C316.343 158.516 316.078 157.881 316.083 157.233C316.088 156.585 316.364 155.954 316.875 155.42C317.387 154.886 317.378 155.663 318.223 155.422C319.068 155.181 320.73 153.933 321.624 154.066C322.518 154.2 323.337 154.519 323.979 154.982L320.697 157.271L323.941 159.613Z" fill="#F3AA3C"/>
<path id="Ellipse 11_7" d="M313.146 148.367C313.121 149.158 312.874 150.001 312.434 150.791C311.994 151.581 309.754 151.927 309.047 152.449C308.34 152.972 309.199 153.647 308.463 153.726C307.728 153.805 307.06 153.638 306.543 153.247C306.027 152.856 305.686 152.258 305.563 151.528C305.44 150.799 306.058 151.271 306.369 150.449C306.681 149.627 306.672 147.549 307.313 146.912C307.954 146.275 308.7 145.808 309.454 145.57L309.33 149.569L313.146 148.367Z" fill="#F3AA3C"/>
</g>
<rect id="Rectangle 51_7" width="0.99827" height="4.86347" rx="0.499135" transform="matrix(-0.803203 -0.595705 -0.595705 0.803203 302.627 154.342)" fill="black"/>
<rect id="Rectangle 50_7" width="0.99827" height="4.86347" rx="0.499135" transform="matrix(-0.827465 0.561518 0.561518 0.827465 299.891 153.744)" fill="black"/>
</g>
<g id="fish_txt_2">
<g id="Group 25">
<g id="Group 13_8">
<path id="Ellipse 9_8" d="M84.4236 61.0736C87.4087 58.1196 91.4745 51.2577 100.147 50.8697C108.82 50.4816 112.6 57.1408 116.275 59.6483C110.871 64.9372 109.669 69.4442 100.996 69.8323C92.323 70.2204 86.0907 65.1554 84.4236 61.0736Z" fill="#F3AA3C"/>
<path id="Ellipse 10_8" d="M119.823 56.4121C119.029 55.9079 118.034 55.5878 116.964 55.4925C115.894 55.3971 114.057 57.3677 113.071 57.7134C112.086 58.059 111.996 56.7641 111.427 57.4342C110.858 58.1043 110.576 58.8724 110.615 59.6411C110.655 60.4099 111.014 61.1449 111.649 61.7531C112.284 62.3614 112.233 61.4388 113.249 61.6815C114.265 61.9243 116.301 63.3215 117.356 63.1169C118.41 62.9124 119.367 62.492 120.105 61.909L116.091 59.3596L119.823 56.4121Z" fill="#F3AA3C"/>
<path id="Ellipse 11_8" d="M107.582 70.3188C107.512 69.381 107.175 68.3919 106.612 67.4768C106.049 66.5616 103.372 66.2655 102.506 65.6815C101.64 65.0975 102.625 64.2518 101.747 64.1958C100.87 64.1398 100.085 64.3719 99.4925 64.8628C98.8996 65.3537 98.525 66.0813 98.4162 66.9535C98.3074 67.8258 99.0173 67.2344 99.4294 68.1941C99.8414 69.1538 99.9371 71.6215 100.731 72.3452C101.525 73.0688 102.434 73.5851 103.342 73.8287L102.989 69.0869L107.582 70.3188Z" fill="#F3AA3C"/>
</g>
<rect id="Rectangle 50_8" x="92.5181" y="61.0212" width="1.44122" height="1.93296" rx="0.72061" transform="rotate(178.805 92.5181 61.0212)" fill="black"/>
</g>
<g id="Group 40_2">
<g id="Group 13_9">
<path id="Ellipse 9_9" d="M155.424 183.074C158.409 180.12 162.474 173.258 171.147 172.87C179.82 172.482 183.6 179.141 187.275 181.648C181.871 186.937 180.669 191.444 171.996 191.832C163.323 192.22 157.091 187.155 155.424 183.074Z" fill="#F3AA3C"/>
<path id="Ellipse 10_9" d="M190.823 178.412C190.029 177.908 189.034 177.588 187.964 177.492C186.894 177.397 185.057 179.368 184.071 179.713C183.086 180.059 182.996 178.764 182.427 179.434C181.858 180.104 181.576 180.872 181.615 181.641C181.655 182.41 182.014 183.145 182.649 183.753C183.284 184.361 183.233 183.439 184.249 183.682C185.265 183.924 187.301 185.322 188.356 185.117C189.41 184.912 190.367 184.492 191.105 183.909L187.091 181.36L190.823 178.412Z" fill="#F3AA3C"/>
<path id="Ellipse 11_9" d="M178.582 192.319C178.512 191.381 178.175 190.392 177.612 189.477C177.049 188.562 174.372 188.265 173.506 187.681C172.64 187.097 173.625 186.252 172.747 186.196C171.87 186.14 171.085 186.372 170.493 186.863C169.9 187.354 169.525 188.081 169.416 188.954C169.307 189.826 170.017 189.234 170.429 190.194C170.841 191.154 170.937 193.622 171.731 194.345C172.525 195.069 173.434 195.585 174.342 195.829L173.989 191.087L178.582 192.319Z" fill="#F3AA3C"/>
</g>
<rect id="Rectangle 50_9" x="163.518" y="183.021" width="1.44122" height="1.93296" rx="0.72061" transform="rotate(178.805 163.518 183.021)" fill="black"/>
</g>
<g id="Group 41_2">
<g id="Group 13_10">
<path id="Ellipse 9_10" d="M255.424 161.074C258.409 158.12 262.474 151.258 271.147 150.87C279.82 150.482 283.6 157.141 287.275 159.648C281.871 164.937 280.669 169.444 271.996 169.832C263.323 170.22 257.091 165.155 255.424 161.074Z" fill="#F3AA3C"/>
<path id="Ellipse 10_10" d="M290.823 156.412C290.029 155.908 289.034 155.588 287.964 155.492C286.894 155.397 285.057 157.368 284.071 157.713C283.086 158.059 282.996 156.764 282.427 157.434C281.858 158.104 281.576 158.872 281.615 159.641C281.655 160.41 282.014 161.145 282.649 161.753C283.284 162.361 283.233 161.439 284.249 161.682C285.265 161.924 287.301 163.322 288.356 163.117C289.41 162.912 290.367 162.492 291.105 161.909L287.091 159.36L290.823 156.412Z" fill="#F3AA3C"/>
<path id="Ellipse 11_10" d="M278.582 170.319C278.512 169.381 278.175 168.392 277.612 167.477C277.049 166.562 274.372 166.265 273.506 165.681C272.64 165.097 273.625 164.252 272.747 164.196C271.87 164.14 271.085 164.372 270.493 164.863C269.9 165.354 269.525 166.081 269.416 166.954C269.307 167.826 270.017 167.234 270.429 168.194C270.841 169.154 270.937 171.622 271.731 172.345C272.525 173.069 273.434 173.585 274.342 173.829L273.989 169.087L278.582 170.319Z" fill="#F3AA3C"/>
</g>
<rect id="Rectangle 50_10" x="263.518" y="161.021" width="1.44122" height="1.93296" rx="0.72061" transform="rotate(178.805 263.518 161.021)" fill="black"/>
</g>
<g id="Group 42_2">
<g id="Group 13_11">
<path id="Ellipse 9_11" d="M313.424 131.074C316.409 128.12 320.474 121.258 329.147 120.87C337.82 120.482 341.6 127.141 345.275 129.648C339.871 134.937 338.669 139.444 329.996 139.832C321.323 140.22 315.091 135.155 313.424 131.074Z" fill="#F3AA3C"/>
<path id="Ellipse 10_11" d="M348.823 126.412C348.029 125.908 347.034 125.588 345.964 125.492C344.894 125.397 343.057 127.368 342.071 127.713C341.086 128.059 340.996 126.764 340.427 127.434C339.858 128.104 339.576 128.872 339.615 129.641C339.655 130.41 340.014 131.145 340.649 131.753C341.284 132.361 341.233 131.439 342.249 131.682C343.265 131.924 345.301 133.322 346.356 133.117C347.41 132.912 348.367 132.492 349.105 131.909L345.091 129.36L348.823 126.412Z" fill="#F3AA3C"/>
<path id="Ellipse 11_11" d="M336.582 140.319C336.512 139.381 336.175 138.392 335.612 137.477C335.049 136.562 332.372 136.265 331.506 135.681C330.64 135.097 331.625 134.252 330.747 134.196C329.87 134.14 329.085 134.372 328.493 134.863C327.9 135.354 327.525 136.081 327.416 136.954C327.307 137.826 328.017 137.234 328.429 138.194C328.841 139.154 328.937 141.622 329.731 142.345C330.525 143.069 331.434 143.585 332.342 143.829L331.989 139.087L336.582 140.319Z" fill="#F3AA3C"/>
</g>
<rect id="Rectangle 50_11" x="321.518" y="131.021" width="1.44122" height="1.93296" rx="0.72061" transform="rotate(178.805 321.518 131.021)" fill="black"/>
</g>
<g id="Group 46">
<g id="Group 13_12">
<path id="Ellipse 9_12" d="M88.4236 171.074C91.4087 168.12 95.4745 161.258 104.147 160.87C112.82 160.482 116.6 167.141 120.275 169.648C114.871 174.937 113.669 179.444 104.996 179.832C96.323 180.22 90.0907 175.155 88.4236 171.074Z" fill="#F3AA3C"/>
<path id="Ellipse 10_12" d="M123.823 166.412C123.029 165.908 122.034 165.588 120.964 165.492C119.894 165.397 118.057 167.368 117.071 167.713C116.086 168.059 115.996 166.764 115.427 167.434C114.858 168.104 114.576 168.872 114.615 169.641C114.655 170.41 115.014 171.145 115.649 171.753C116.284 172.361 116.233 171.439 117.249 171.682C118.265 171.924 120.301 173.322 121.356 173.117C122.41 172.912 123.367 172.492 124.105 171.909L120.091 169.36L123.823 166.412Z" fill="#F3AA3C"/>
<path id="Ellipse 11_12" d="M111.582 180.319C111.512 179.381 111.175 178.392 110.612 177.477C110.049 176.562 107.372 176.265 106.506 175.681C105.64 175.097 106.625 174.252 105.747 174.196C104.87 174.14 104.085 174.372 103.493 174.863C102.9 175.354 102.525 176.081 102.416 176.954C102.307 177.826 103.017 177.234 103.429 178.194C103.841 179.154 103.937 181.622 104.731 182.345C105.525 183.069 106.434 183.585 107.342 183.829L106.989 179.087L111.582 180.319Z" fill="#F3AA3C"/>
</g>
<rect id="Rectangle 50_12" x="96.5181" y="171.021" width="1.44122" height="1.93296" rx="0.72061" transform="rotate(178.805 96.5181 171.021)" fill="black"/>
</g>
<g id="Group 48">
<g id="Group 13_13">
<path id="Ellipse 9_13" d="M243.424 71.0736C246.409 68.1196 250.474 61.2577 259.147 60.8697C267.82 60.4816 271.6 67.1408 275.275 69.6483C269.871 74.9372 268.669 79.4442 259.996 79.8323C251.323 80.2204 245.091 75.1554 243.424 71.0736Z" fill="#F3AA3C"/>
<path id="Ellipse 10_13" d="M278.823 66.4121C278.029 65.9079 277.034 65.5878 275.964 65.4925C274.894 65.3971 273.057 67.3677 272.071 67.7134C271.086 68.059 270.996 66.7641 270.427 67.4342C269.858 68.1043 269.576 68.8724 269.615 69.6411C269.655 70.4099 270.014 71.1449 270.649 71.7531C271.284 72.3614 271.233 71.4388 272.249 71.6815C273.265 71.9243 275.301 73.3215 276.356 73.1169C277.41 72.9124 278.367 72.492 279.105 71.909L275.091 69.3596L278.823 66.4121Z" fill="#F3AA3C"/>
<path id="Ellipse 11_13" d="M266.582 80.3188C266.512 79.381 266.175 78.3919 265.612 77.4768C265.049 76.5616 262.372 76.2655 261.506 75.6815C260.64 75.0975 261.625 74.2518 260.747 74.1958C259.87 74.1398 259.085 74.3719 258.493 74.8628C257.9 75.3537 257.525 76.0813 257.416 76.9535C257.307 77.8258 258.017 77.2344 258.429 78.1941C258.841 79.1538 258.937 81.6215 259.731 82.3452C260.525 83.0688 261.434 83.5851 262.342 83.8287L261.989 79.0869L266.582 80.3188Z" fill="#F3AA3C"/>
</g>
<rect id="Rectangle 50_13" x="251.518" y="71.0212" width="1.44122" height="1.93296" rx="0.72061" transform="rotate(178.805 251.518 71.0212)" fill="black"/>
</g>
<g id="Group 38_2">
<g id="Group 13_14">
<path id="Ellipse 9_14" d="M47.2377 137.241C48.9511 135.58 51.2861 131.721 56.2598 131.499C61.2334 131.276 63.3977 135.017 65.5038 136.424C62.402 139.399 61.7103 141.933 56.7366 142.155C51.763 142.378 48.1916 139.535 47.2377 137.241Z" fill="#F3AA3C"/>
<path id="Ellipse 10_14" d="M67.5402 134.604C67.0853 134.321 66.5149 134.141 65.9014 134.088C65.2878 134.035 64.2334 135.144 63.6681 135.338C63.1027 135.533 63.0518 134.805 62.7252 135.182C62.3986 135.559 62.2362 135.991 62.2584 136.423C62.2807 136.855 62.4867 137.268 62.8503 137.609C63.2139 137.951 63.1855 137.432 63.7679 137.568C64.3503 137.704 65.5173 138.488 66.1222 138.373C66.7271 138.257 67.2759 138.021 67.6994 137.693L65.3991 136.262L67.5402 134.604Z" fill="#F3AA3C"/>
<path id="Ellipse 11_14" d="M60.5133 142.425C60.4738 141.898 60.2807 141.343 59.9585 140.829C59.6363 140.315 58.101 140.15 57.6048 139.822C57.1085 139.494 57.6737 139.018 57.1706 138.987C56.6676 138.956 56.2175 139.087 55.8772 139.363C55.5369 139.639 55.3217 140.049 55.2589 140.539C55.1961 141.029 55.6035 140.696 55.8393 141.235C56.0751 141.775 56.1287 143.161 56.5836 143.568C57.0386 143.974 57.5593 144.264 58.0801 144.4L57.8803 141.735L60.5133 142.425Z" fill="#F3AA3C"/>
</g>
<rect id="Rectangle 50_14" width="0.826498" height="1.08631" rx="0.413249" transform="matrix(-0.999773 0.021326 -0.0203601 -0.999793 51.8799 137.208)" fill="black"/>
</g>
<g id="Group 58">
<g id="Group 13_15">
<path id="Ellipse 9_15" d="M239.238 208.241C240.951 206.58 243.286 202.721 248.26 202.499C253.233 202.276 255.398 206.017 257.504 207.424C254.402 210.399 253.71 212.933 248.737 213.155C243.763 213.378 240.192 210.535 239.238 208.241Z" fill="#F3AA3C"/>
<path id="Ellipse 10_15" d="M259.54 205.604C259.085 205.321 258.515 205.141 257.901 205.088C257.288 205.035 256.233 206.144 255.668 206.338C255.103 206.533 255.052 205.805 254.725 206.182C254.399 206.559 254.236 206.991 254.258 207.423C254.281 207.855 254.487 208.268 254.85 208.609C255.214 208.951 255.185 208.432 255.768 208.568C256.35 208.704 257.517 209.488 258.122 209.373C258.727 209.257 259.276 209.021 259.699 208.693L257.399 207.262L259.54 205.604Z" fill="#F3AA3C"/>
<path id="Ellipse 11_15" d="M252.513 213.425C252.474 212.898 252.281 212.343 251.959 211.829C251.636 211.315 250.101 211.15 249.605 210.822C249.109 210.494 249.674 210.018 249.171 209.987C248.668 209.956 248.217 210.087 247.877 210.363C247.537 210.639 247.322 211.049 247.259 211.539C247.196 212.029 247.603 211.696 247.839 212.235C248.075 212.775 248.129 214.161 248.584 214.568C249.039 214.974 249.559 215.264 250.08 215.4L249.88 212.735L252.513 213.425Z" fill="#F3AA3C"/>
</g>
<rect id="Rectangle 50_15" width="0.826498" height="1.08631" rx="0.413249" transform="matrix(-0.999773 0.021326 -0.0203601 -0.999793 243.88 208.208)" fill="black"/>
</g>
<g id="Group 39_2">
<g id="Group 13_16">
<path id="Ellipse 9_16" d="M164.238 150.241C165.951 148.58 168.286 144.721 173.26 144.499C178.233 144.276 180.398 148.017 182.504 149.424C179.402 152.399 178.71 154.933 173.737 155.155C168.763 155.378 165.192 152.535 164.238 150.241Z" fill="#F3AA3C"/>
<path id="Ellipse 10_16" d="M184.54 147.604C184.085 147.321 183.515 147.141 182.901 147.088C182.288 147.035 181.233 148.144 180.668 148.338C180.103 148.533 180.052 147.805 179.725 148.182C179.399 148.559 179.236 148.991 179.258 149.423C179.281 149.855 179.487 150.268 179.85 150.609C180.214 150.951 180.185 150.432 180.768 150.568C181.35 150.704 182.517 151.488 183.122 151.373C183.727 151.257 184.276 151.021 184.699 150.693L182.399 149.262L184.54 147.604Z" fill="#F3AA3C"/>
<path id="Ellipse 11_16" d="M177.513 155.425C177.474 154.898 177.281 154.343 176.959 153.829C176.636 153.315 175.101 153.15 174.605 152.822C174.109 152.494 174.674 152.018 174.171 151.987C173.668 151.956 173.217 152.087 172.877 152.363C172.537 152.639 172.322 153.049 172.259 153.539C172.196 154.029 172.603 153.696 172.839 154.235C173.075 154.775 173.129 156.161 173.584 156.568C174.039 156.974 174.559 157.264 175.08 157.4L174.88 154.735L177.513 155.425Z" fill="#F3AA3C"/>
</g>
<rect id="Rectangle 50_16" width="0.826498" height="1.08631" rx="0.413249" transform="matrix(-0.999773 0.021326 -0.0203601 -0.999793 168.88 150.208)" fill="black"/>
</g>
<g id="Group 57">
<g id="Group 13_17">
<path id="Ellipse 9_17" d="M0.23774 207.241C1.95108 205.58 4.28612 201.721 9.25976 201.499C14.2334 201.276 16.3977 205.017 18.5038 206.424C15.402 209.399 14.7103 211.933 9.73662 212.155C4.76298 212.378 1.19164 209.535 0.23774 207.241Z" fill="#F3AA3C"/>
<path id="Ellipse 10_17" d="M20.5402 204.604C20.0853 204.321 19.5149 204.141 18.9014 204.088C18.2878 204.035 17.2334 205.144 16.6681 205.338C16.1027 205.533 16.0518 204.805 15.7252 205.182C15.3986 205.559 15.2362 205.991 15.2584 206.423C15.2807 206.855 15.4867 207.268 15.8503 207.609C16.2139 207.951 16.1855 207.432 16.7679 207.568C17.3503 207.704 18.5173 208.488 19.1222 208.373C19.7271 208.257 20.2759 208.021 20.6994 207.693L18.3991 206.262L20.5402 204.604Z" fill="#F3AA3C"/>
<path id="Ellipse 11_17" d="M13.5133 212.425C13.4738 211.898 13.2807 211.343 12.9585 210.829C12.6363 210.315 11.101 210.15 10.6048 209.822C10.1085 209.494 10.6737 209.018 10.1706 208.987C9.66759 208.956 9.21747 209.087 8.87718 209.363C8.53689 209.639 8.32173 210.049 8.25889 210.539C8.19606 211.029 8.60346 210.696 8.83926 211.235C9.07505 211.775 9.12865 213.161 9.5836 213.568C10.0386 213.974 10.5593 214.264 11.0801 214.4L10.8803 211.735L13.5133 212.425Z" fill="#F3AA3C"/>
</g>
<rect id="Rectangle 50_17" width="0.826498" height="1.08631" rx="0.413249" transform="matrix(-0.999773 0.021326 -0.0203601 -0.999793 4.87988 207.208)" fill="black"/>
</g>
<g id="Group 56">
<g id="Group 13_18">
<path id="Ellipse 9_18" d="M118.238 107.241C119.951 105.58 122.286 101.721 127.26 101.499C132.233 101.276 134.398 105.017 136.504 106.424C133.402 109.399 132.71 111.933 127.737 112.155C122.763 112.378 119.192 109.535 118.238 107.241Z" fill="#F3AA3C"/>
<path id="Ellipse 10_18" d="M138.54 104.604C138.085 104.321 137.515 104.141 136.901 104.088C136.288 104.035 135.233 105.144 134.668 105.338C134.103 105.533 134.052 104.805 133.725 105.182C133.399 105.559 133.236 105.991 133.258 106.423C133.281 106.855 133.487 107.268 133.85 107.609C134.214 107.951 134.185 107.432 134.768 107.568C135.35 107.704 136.517 108.488 137.122 108.373C137.727 108.257 138.276 108.021 138.699 107.693L136.399 106.262L138.54 104.604Z" fill="#F3AA3C"/>
<path id="Ellipse 11_18" d="M131.513 112.425C131.474 111.898 131.281 111.343 130.959 110.829C130.636 110.315 129.101 110.15 128.605 109.822C128.109 109.494 128.674 109.018 128.171 108.987C127.668 108.956 127.217 109.087 126.877 109.363C126.537 109.639 126.322 110.049 126.259 110.539C126.196 111.029 126.603 110.696 126.839 111.235C127.075 111.775 127.129 113.161 127.584 113.568C128.039 113.974 128.559 114.264 129.08 114.4L128.88 111.735L131.513 112.425Z" fill="#F3AA3C"/>
</g>
<rect id="Rectangle 50_18" width="0.826498" height="1.08631" rx="0.413249" transform="matrix(-0.999773 0.021326 -0.0203601 -0.999793 122.88 107.208)" fill="black"/>
</g>
<g id="Group 55">
<g id="Group 13_19">
<path id="Ellipse 9_19" d="M202.238 20.2414C203.951 18.5797 206.286 14.7213 211.26 14.4987C216.233 14.2761 218.398 18.0167 220.504 19.4241C217.402 22.3992 216.71 24.9329 211.737 25.1554C206.763 25.378 203.192 22.5346 202.238 20.2414Z" fill="#F3AA3C"/>
<path id="Ellipse 10_19" d="M222.54 17.6035C222.085 17.3206 221.515 17.1412 220.901 17.0882C220.288 17.0351 219.233 18.1435 218.668 18.3383C218.103 18.5331 218.052 17.8054 217.725 18.1823C217.399 18.5592 217.236 18.9909 217.258 19.423C217.281 19.855 217.487 20.2679 217.85 20.6094C218.214 20.9509 218.185 20.4324 218.768 20.5683C219.35 20.7042 220.517 21.4885 221.122 21.373C221.727 21.2574 222.276 21.0207 222.699 20.6927L220.399 19.262L222.54 17.6035Z" fill="#F3AA3C"/>
<path id="Ellipse 11_19" d="M215.513 25.4254C215.474 24.8984 215.281 24.3427 214.959 23.8287C214.636 23.3146 213.101 23.1496 212.605 22.8218C212.109 22.494 212.674 22.0183 212.171 21.9873C211.668 21.9562 211.217 22.0871 210.877 22.3633C210.537 22.6394 210.322 23.0485 210.259 23.5388C210.196 24.0291 210.603 23.6963 210.839 24.2355C211.075 24.7746 211.129 26.1615 211.584 26.5678C212.039 26.974 212.559 27.2637 213.08 27.4002L212.88 24.7354L215.513 25.4254Z" fill="#F3AA3C"/>
</g>
<rect id="Rectangle 50_19" width="0.826498" height="1.08631" rx="0.413249" transform="matrix(-0.999773 0.021326 -0.0203601 -0.999793 206.88 20.2078)" fill="black"/>
</g>
<g id="Group 54">
<g id="Group 13_20">
<path id="Ellipse 9_20" d="M9.23774 71.2414C10.9511 69.5797 13.2861 65.7213 18.2598 65.4987C23.2334 65.2761 25.3977 69.0167 27.5038 70.4241C24.402 73.3992 23.7103 75.9329 18.7366 76.1554C13.763 76.378 10.1916 73.5346 9.23774 71.2414Z" fill="#F3AA3C"/>
<path id="Ellipse 10_20" d="M29.5402 68.6035C29.0853 68.3206 28.5149 68.1412 27.9014 68.0882C27.2878 68.0351 26.2334 69.1435 25.6681 69.3383C25.1027 69.5331 25.0518 68.8054 24.7252 69.1823C24.3986 69.5592 24.2362 69.9909 24.2584 70.423C24.2807 70.855 24.4867 71.2679 24.8503 71.6094C25.2139 71.9509 25.1855 71.4324 25.7679 71.5683C26.3503 71.7042 27.5173 72.4885 28.1222 72.373C28.7271 72.2574 29.2759 72.0207 29.6994 71.6927L27.3991 70.262L29.5402 68.6035Z" fill="#F3AA3C"/>
<path id="Ellipse 11_20" d="M22.5133 76.4254C22.4738 75.8984 22.2807 75.3427 21.9585 74.8287C21.6363 74.3146 20.101 74.1496 19.6048 73.8218C19.1085 73.494 19.6737 73.0183 19.1706 72.9873C18.6676 72.9562 18.2175 73.0871 17.8772 73.3633C17.5369 73.6394 17.3217 74.0485 17.2589 74.5388C17.1961 75.0291 17.6035 74.6963 17.8393 75.2355C18.0751 75.7746 18.1287 77.1615 18.5836 77.5678C19.0386 77.974 19.5593 78.2637 20.0801 78.4002L19.8803 75.7354L22.5133 76.4254Z" fill="#F3AA3C"/>
</g>
<rect id="Rectangle 50_20" width="0.826498" height="1.08631" rx="0.413249" transform="matrix(-0.999773 0.021326 -0.0203601 -0.999793 13.8799 71.2078)" fill="black"/>
</g>
<g id="Group 53">
<g id="Group 13_21">
<path id="Ellipse 9_21" d="M128.238 6.24144C129.951 4.57975 132.286 0.721254 137.26 0.498697C142.233 0.27614 144.398 4.01672 146.504 5.42408C143.402 8.39924 142.71 10.9329 137.737 11.1554C132.763 11.378 129.192 8.53458 128.238 6.24144Z" fill="#F3AA3C"/>
<path id="Ellipse 10_21" d="M148.54 3.60353C148.085 3.32056 147.515 3.1412 146.901 3.08815C146.288 3.0351 145.233 4.14355 144.668 4.3383C144.103 4.53305 144.052 3.80535 143.725 4.18226C143.399 4.55917 143.236 4.99094 143.258 5.42297C143.281 5.855 143.487 6.26788 143.85 6.60941C144.214 6.95094 144.185 6.43243 144.768 6.56834C145.35 6.70425 146.517 7.48847 147.122 7.37296C147.727 7.25744 148.276 7.02071 148.699 6.6927L146.399 5.26196L148.54 3.60353Z" fill="#F3AA3C"/>
<path id="Ellipse 11_21" d="M141.513 11.4254C141.474 10.8984 141.281 10.3427 140.959 9.82868C140.636 9.31464 139.101 9.14958 138.605 8.82181C138.109 8.49404 138.674 8.01828 138.171 7.98725C137.668 7.95623 137.217 8.08707 136.877 8.36325C136.537 8.63943 136.322 9.04853 136.259 9.53882C136.196 10.0291 136.603 9.69633 136.839 10.2355C137.075 10.7746 137.129 12.1615 137.584 12.5678C138.039 12.974 138.559 13.2637 139.08 13.4002L138.88 10.7354L141.513 11.4254Z" fill="#F3AA3C"/>
</g>
<rect id="Rectangle 50_21" width="0.826498" height="1.08631" rx="0.413249" transform="matrix(-0.999773 0.021326 -0.0203601 -0.999793 132.88 6.20776)" fill="black"/>
</g>
<g id="Group 50">
<g id="Group 13_22">
<path id="Ellipse 9_22" d="M264.238 121.241C265.951 119.58 268.286 115.721 273.26 115.499C278.233 115.276 280.398 119.017 282.504 120.424C279.402 123.399 278.71 125.933 273.737 126.155C268.763 126.378 265.192 123.535 264.238 121.241Z" fill="#F3AA3C"/>
<path id="Ellipse 10_22" d="M284.54 118.604C284.085 118.321 283.515 118.141 282.901 118.088C282.288 118.035 281.233 119.144 280.668 119.338C280.103 119.533 280.052 118.805 279.725 119.182C279.399 119.559 279.236 119.991 279.258 120.423C279.281 120.855 279.487 121.268 279.85 121.609C280.214 121.951 280.185 121.432 280.768 121.568C281.35 121.704 282.517 122.488 283.122 122.373C283.727 122.257 284.276 122.021 284.699 121.693L282.399 120.262L284.54 118.604Z" fill="#F3AA3C"/>
<path id="Ellipse 11_22" d="M277.513 126.425C277.474 125.898 277.281 125.343 276.959 124.829C276.636 124.315 275.101 124.15 274.605 123.822C274.109 123.494 274.674 123.018 274.171 122.987C273.668 122.956 273.217 123.087 272.877 123.363C272.537 123.639 272.322 124.049 272.259 124.539C272.196 125.029 272.603 124.696 272.839 125.235C273.075 125.775 273.129 127.161 273.584 127.568C274.039 127.974 274.559 128.264 275.08 128.4L274.88 125.735L277.513 126.425Z" fill="#F3AA3C"/>
</g>
<rect id="Rectangle 50_22" width="0.826498" height="1.08631" rx="0.413249" transform="matrix(-0.999773 0.021326 -0.0203601 -0.999793 268.88 121.208)" fill="black"/>
</g>
<g id="Group 51">
<g id="Group 13_23">
<path id="Ellipse 9_23" d="M313.238 68.2414C314.951 66.5797 317.286 62.7213 322.26 62.4987C327.233 62.2761 329.398 66.0167 331.504 67.4241C328.402 70.3992 327.71 72.9329 322.737 73.1554C317.763 73.378 314.192 70.5346 313.238 68.2414Z" fill="#F3AA3C"/>
<path id="Ellipse 10_23" d="M333.54 65.6035C333.085 65.3206 332.515 65.1412 331.901 65.0882C331.288 65.0351 330.233 66.1435 329.668 66.3383C329.103 66.5331 329.052 65.8054 328.725 66.1823C328.399 66.5592 328.236 66.9909 328.258 67.423C328.281 67.855 328.487 68.2679 328.85 68.6094C329.214 68.9509 329.185 68.4324 329.768 68.5683C330.35 68.7042 331.517 69.4885 332.122 69.373C332.727 69.2574 333.276 69.0207 333.699 68.6927L331.399 67.262L333.54 65.6035Z" fill="#F3AA3C"/>
<path id="Ellipse 11_23" d="M326.513 73.4254C326.474 72.8984 326.281 72.3427 325.959 71.8287C325.636 71.3146 324.101 71.1496 323.605 70.8218C323.109 70.494 323.674 70.0183 323.171 69.9873C322.668 69.9562 322.217 70.0871 321.877 70.3633C321.537 70.6394 321.322 71.0485 321.259 71.5388C321.196 72.0291 321.603 71.6963 321.839 72.2355C322.075 72.7746 322.129 74.1615 322.584 74.5678C323.039 74.974 323.559 75.2637 324.08 75.4002L323.88 72.7354L326.513 73.4254Z" fill="#F3AA3C"/>
</g>
<rect id="Rectangle 50_23" width="0.826498" height="1.08631" rx="0.413249" transform="matrix(-0.999773 0.021326 -0.0203601 -0.999793 317.88 68.2078)" fill="black"/>
</g>
</g>
</g>
</svg>
