<svg width="117" height="134" viewBox="0 0 117 134" fill="none" xmlns="http://www.w3.org/2000/svg">
<g id="plastpose">
<path id="Vector 13" d="M17.6801 94.3071L15.7319 81.0664L57.636 9.32644L64.5958 6.73522L66.4364 10.836L66.8433 22.5713L64.9542 37.2014C67.7106 40.4251 74.3589 47.4148 78.9012 49.584C83.4435 51.7531 84.4301 49.7878 84.3556 48.534L88.8359 40.8637L93.9235 23.8658L96.5948 22.4005L103.363 26.3537L98.1276 38.4242L89.9893 62.7171C86.684 76.3183 78.3502 104.814 71.4566 109.985L64.6887 106.032L17.6801 94.3071Z" fill="#DBF3F5"/>
<path id="Vector 14" d="M59.9264 39.3063C55.507 34.6207 61.6167 18.3752 65.224 10.8381L66.558 11.6173L65.6915 22.2896L64.6969 34.2022L66.6338 35.9911L83.0257 41.6205C84.033 40.2362 86.411 36.2332 87.8639 31.2954C89.3169 26.3577 92.4334 25.8547 93.8101 26.2205L89.605 39.5455L82.1592 52.2927L74.4418 47.1273C71.4448 46.4727 64.3459 43.9919 59.9264 39.3063Z" fill="#A3D4DA"/>
<path id="Polygon 96" d="M37.6847 53.3074L33.0295 97.7056L17.4095 93.0791L37.6847 53.3074Z" fill="#75ABAB"/>
<path id="Polygon 97" d="M59.5646 47.2494L49.8199 89.6536L44.6438 88.1205L59.5646 47.2494Z" fill="#92C5CD"/>
</g>
</svg>
