<svg width="51" height="44" viewBox="0 0 51 44" fill="none" xmlns="http://www.w3.org/2000/svg">
<g id="s&#195;&#184;ppel papir">
<path id="Vector 5" d="M5.66083 20.0477C6.36978 17.4618 4.82126 15.6003 3.95838 14.9928L6.56088 13.5681L7.93302 8.41098L13.2384 7.98603L16.4062 9.57361C17.4382 9.22609 19.5907 7.89337 19.945 5.34266C20.2993 2.79194 24.907 3.19358 27.1665 3.71325L29.3261 5.47693C29.8148 5.89335 32.2766 7.05565 38.2143 8.37348C44.152 9.69131 45.8277 13.8901 45.9233 15.8248L48.4908 20.1599L42.7862 29.7535L46.405 35.1762L39.3483 39.5533L38.254 37.2021L36.517 41.0514L33.8855 39.5374L26.2204 39.6386L20.5359 38.8586C18.4267 39.6173 13.9335 39.9651 12.8346 35.2865C11.7357 30.6078 9.73093 31.9259 8.86592 33.1697L3.16687 30.9204L9.55167 28.2329L8.25714 25.7494L5.03222 24.5732C4.94636 24.1422 4.95187 22.6336 5.66083 20.0477Z" fill="#E3E3E3"/>
<path id="Polygon 84" d="M15.5241 27.7272L21.8114 17.8991L12.1512 16.5736L15.5241 27.7272Z" fill="#D9D9D9"/>
<path id="Polygon 85" d="M17.4542 27.9918L23.7415 18.1637L14.0814 16.8383L17.4542 27.9918Z" fill="#D9D9D9"/>
<path id="Polygon 86" d="M32.3266 21.6476L38.6139 11.8195L28.9537 10.494L32.3266 21.6476Z" fill="#D9D9D9"/>
<path id="Polygon 95" d="M24.2614 16.7672L30.5487 6.93914L20.8885 5.61365L24.2614 16.7672Z" fill="#D9D9D9"/>
<path id="Polygon 87" d="M40.5219 27.1749L46.8092 17.3469L37.149 16.0214L40.5219 27.1749Z" fill="#FCF5F5"/>
<path id="Polygon 88" d="M35.2222 31.4785L41.2668 26.8053L30.6777 25.3523L35.2222 31.4785Z" fill="#FCF5F5"/>
<path id="Polygon 89" d="M24.4249 19.5151L30.4694 14.8419L19.8804 13.389L24.4249 19.5151Z" fill="#FCF5F5"/>
<path id="Polygon 90" d="M10.5972 23.0679L16.6418 18.3946L6.05275 16.9417L10.5972 23.0679Z" fill="#FCF5F5"/>
<path id="Polygon 91" d="M16.8479 36.2934L22.8925 31.6202L12.3035 30.1673L16.8479 36.2934Z" fill="#FCF5F5"/>
<path id="Polygon 92" d="M42.4268 15.1902L40.7684 7.85921L34.7202 16.2576L42.4268 15.1902Z" fill="#FCF5F5"/>
<path id="Polygon 93" d="M29.4453 29.969L27.787 22.638L21.7387 31.0364L29.4453 29.969Z" fill="#FCF5F5"/>
<path id="Polygon 94" d="M36.4462 39.0237L39.3479 32.1016L29.4011 35.7496L36.4462 39.0237Z" fill="#FCF5F5"/>
<rect id="Rectangle 40" width="10.8261" height="5.81497" transform="matrix(0.990717 0.135938 0.137583 -0.99049 21.7297 23.9668)" fill="#D9D9D9"/>
<rect id="Rectangle 41" width="10.8261" height="5.81497" transform="matrix(0.990717 0.135938 0.137583 -0.99049 8.64624 31.6045)" fill="#D9D9D9"/>
<rect id="Rectangle 42" width="10.8261" height="5.81497" transform="matrix(0.990717 0.135938 0.137583 -0.99049 23.0469 36.5151)" fill="#D9D9D9"/>
<rect id="Rectangle 43" width="10.8261" height="5.81497" transform="matrix(0.990717 0.135938 0.137583 -0.99049 8.47192 17.1172)" fill="#D9D9D9"/>
<rect id="Rectangle 44" width="10.8261" height="5.81497" transform="matrix(0.990717 0.135938 0.137583 -0.99049 31.6841 30.9927)" fill="#EEEEEE"/>
<rect id="Rectangle 45" width="10.8261" height="5.81497" transform="matrix(0.990717 0.135938 0.137583 -0.99049 25.0029 11.4189)" fill="#EEEEEE"/>
<rect id="Rectangle 46" width="10.8261" height="5.81497" transform="matrix(0.990717 0.135938 0.137583 -0.99049 7.92896 14.7363)" fill="#EEEEEE"/>
<rect id="Rectangle 47" width="5.19651" height="5.6073" transform="matrix(0.990717 0.135938 0.137583 -0.99049 12.5632 25.4346)" fill="#EEEEEE"/>
</g>
</svg>
