<svg width="80" height="222" viewBox="0 0 80 222" fill="none" xmlns="http://www.w3.org/2000/svg">
<g id="green-man">
<g id="body">
<g id="body_2">
<g id="man">
<rect id="mage" x="20.3184" y="62.4609" width="38.3797" height="64.7186" rx="19.1898" fill="#0C7010"/>
<ellipse id="rumpe" cx="39.5082" cy="121.159" rx="19.1898" ry="17.3085" fill="black"/>
<g id="arms">
<g id="left arm">
<path id="venstre h&#195;&#165;nd" d="M5.25879 133.2C5.25879 136.525 6.21775 139.22 4.13966 139.22C2.06158 139.22 0.376953 136.525 0.376953 133.2C0.376953 129.875 2.06158 127.18 4.13966 127.18C6.21775 127.18 5.25879 129.875 5.25879 133.2Z" fill="#F8C09D"/>
<ellipse id="venstre skulder" cx="20.3184" cy="72.244" rx="7.52542" ry="8.27797" fill="#0C7010"/>
<rect id="venstre arm" x="12.6572" y="72.2441" width="7.52542" height="57.9458" transform="rotate(12.6169 12.6572 72.2441)" fill="#0C7010"/>
</g>
<g id="right arm">
<path id="h&#195;&#184;yre h&#195;&#165;nd" d="M74.168 130.946C74.2771 127.623 73.4071 124.898 75.484 124.966C77.561 125.034 79.1563 127.784 79.0472 131.107C78.9381 134.43 77.1659 137.068 75.0889 137C73.012 136.932 74.0589 134.27 74.168 130.946Z" fill="#F8C09D"/>
<ellipse id="h&#195;&#184;yre skulder" cx="59.4512" cy="72.244" rx="7.52542" ry="8.27797" fill="#0C7010"/>
<rect id="h&#195;&#184;yre arm" x="59.4521" y="73.1116" width="7.52542" height="57.9458" transform="rotate(-12.4316 59.4521 73.1116)" fill="#0C7010"/>
</g>
</g>
<g id="right foot">
<rect id="h&#195;&#184;yre bein" x="42.1416" y="108.366" width="12.7932" height="103.851" fill="black"/>
<rect id="h&#195;&#184;yre sko" x="50.4199" y="213.722" width="18.061" height="8.27797" rx="4.13898" fill="#4E3333"/>
<rect id="h&#195;&#184;yre sko_2" x="44.3984" y="209.959" width="8.27797" height="12.0407" fill="#4E3333"/>
</g>
<g id="left foot ">
<rect id="venstre bein " x="24.0811" y="108.366" width="12.7932" height="103.851" fill="black"/>
<rect id="venstre sko" x="9.7832" y="213.722" width="18.061" height="8.27797" rx="4.13898" fill="#4E3333"/>
<rect id="venstre sko_2" x="26.3389" y="209.959" width="8.27797" height="12.0407" fill="#4E3333"/>
</g>
</g>
<rect id="mage_2" x="20.3184" y="97.8303" width="38.3797" height="21.8237" fill="#0C7010"/>
</g>
</g>
<g id="head">
<path id="hodet" d="M59.0759 34.6169L57.5708 44.4L52.6792 50.4203L45.5301 55.3118H44.7775H31.2318L24.4589 50.4203L19.9437 43.6474L19.5674 16.5559H59.0759V34.6169Z" fill="#F8C09D"/>
<path id="venstre skinn" d="M29.0219 33.8168C29.4646 32.9146 30.7491 32.9101 31.1979 33.8093V33.8093C31.6 34.6147 31.0162 35.5622 30.116 35.5653V35.5653C29.2157 35.5685 28.6255 34.625 29.0219 33.8168V33.8168Z" fill="#EF927D"/>
<path id="h&#195;&#165;r" d="M12.7939 9.36968V24.8657L19.7818 23.4242V17.2979H58.3991V23.4242H61.7092V0H26.0342L23.0919 0.720745L20.8852 5.40559H16.104L12.7939 9.36968Z" fill="#5A3636"/>
<path id="nese" d="M39.1326 33.1197L41.1014 37.0637L37.1911 37.0772L39.1326 33.1197Z" fill="#EF927D"/>
<path id="h&#195;&#184;yre skinn" d="M47.0835 33.8168C47.5261 32.9146 48.8106 32.9101 49.2594 33.8093V33.8093C49.6615 34.6147 49.0777 35.5622 48.1775 35.5653V35.5653C47.2773 35.5685 46.687 34.625 47.0835 33.8168V33.8168Z" fill="#EF927D"/>
<path id="munn" d="M46.3995 39.8934C46.3995 40.1012 43.0302 42.6048 38.8741 42.6048C34.7179 42.6048 31.3486 39.5947 31.3486 39.8934C31.3486 40.1921 34.7179 43.2796 38.8741 43.2796C43.0302 43.2796 46.3995 40.6415 46.3995 39.8934Z" fill="#EF927D"/>
<g id="&#195;&#184;yner">
<g id="venstre &#195;&#184;yet">
<ellipse id="h&#195;&#184;yre &#195;&#184;yet" cx="30.479" cy="29.7255" rx="1.88136" ry="2.6339" fill="black"/>
<circle id="venstre hvite &#195;&#184;yet" cx="30.4778" cy="29.7254" r="0.376271" fill="white"/>
</g>
<g id="h&#195;&#184;yre &#195;&#184;yet_2">
<ellipse id="h&#195;&#184;yre &#195;&#184;yet_3" cx="47.7876" cy="29.7255" rx="1.88136" ry="2.6339" fill="black"/>
<circle id="h&#195;&#184;yre hvit &#195;&#184;yet" cx="47.7864" cy="29.7254" r="0.376271" fill="white"/>
</g>
</g>
<g id="&#195;&#184;rer ">
<g id="venstre &#195;&#184;re">
<circle id="venstre &#195;&#184;re_2" cx="18.8153" cy="27.8438" r="6.02034" fill="#F8C09D"/>
<rect id="farge &#195;&#184;re" x="16.5576" y="25.5867" width="3.01017" height="3.01017" fill="#F3AA8E"/>
<rect id="farge &#195;&#184;re_2" x="15.0518" y="27.0913" width="3.01017" height="3.01017" fill="#F4AF91"/>
</g>
<g id="h&#195;&#184;yre &#195;&#184;re">
<circle id="h&#195;&#184;yre &#195;&#184;re_2" cx="60.203" cy="27.8441" r="6.02034" fill="#F8C09D"/>
<rect id="farge &#195;&#184;re_3" x="59.4502" y="25.5867" width="3.01017" height="3.01017" fill="#F3AA8E"/>
<rect id="farge &#195;&#184;re_4" x="57.9453" y="27.0918" width="3.01017" height="3.01017" fill="#F4AF91"/>
</g>
</g>
<rect id="hals" x="32.3594" y="53.4304" width="13.5458" height="11.2881" fill="#F8C09D"/>
</g>
</g>
</svg>
