<svg width="298" height="834" viewBox="0 0 298 834" fill="none" xmlns="http://www.w3.org/2000/svg">
<g id="man">
<g id="body">
<g id="body_2">
<g id="man">
<rect id="mage" x="76.3317" y="234.651" width="144.183" height="243.132" rx="21" fill="#0C7010"/>
<ellipse id="rumpe" cx="148.423" cy="455.166" rx="72.0916" ry="65.0238" fill="black"/>
<g id="arms">
<g id="left arm">
<path id="venstre h&#195;&#165;nd" d="M19.7531 500.4C19.7531 512.891 23.3557 523.017 15.5489 523.017C7.74199 523.017 1.41327 512.891 1.41327 500.4C1.41327 487.909 7.74199 477.783 15.5489 477.783C23.3557 477.783 19.7531 487.909 19.7531 500.4Z" fill="#F8C09D"/>
<ellipse id="venstre skulder" cx="76.3319" cy="271.403" rx="28.2712" ry="31.0983" fill="#0C7010"/>
<rect id="venstre arm" x="47.55" y="271.403" width="28.2712" height="217.688" transform="rotate(12.6169 47.55 271.403)" fill="#0C7010"/>
</g>
<g id="right arm">
<path id="h&#195;&#184;yre h&#195;&#165;nd" d="M278.629 491.933C279.039 479.449 275.771 469.21 283.573 469.466C291.376 469.722 297.369 480.051 296.959 492.535C296.549 505.019 289.892 514.932 282.089 514.676C274.286 514.42 278.219 504.417 278.629 491.933Z" fill="#F8C09D"/>
<ellipse id="h&#195;&#184;yre skulder" cx="223.342" cy="271.403" rx="28.2712" ry="31.0983" fill="#0C7010"/>
<rect id="h&#195;&#184;yre arm" x="223.342" y="274.662" width="28.2712" height="217.688" transform="rotate(-12.4316 223.342 274.662)" fill="#0C7010"/>
</g>
</g>
<g id="right foot">
<rect id="h&#195;&#184;yre bein" x="158.318" y="407.105" width="48.061" height="390.142" fill="black"/>
<rect id="h&#195;&#184;yre sko" x="189.416" y="802.902" width="67.8509" height="31.0983" rx="15.5492" fill="#4E3333"/>
<rect id="h&#195;&#184;yre sko_2" x="166.799" y="788.766" width="31.0983" height="45.2339" fill="#4E3333"/>
</g>
<g id="left foot ">
<rect id="venstre bein " x="90.4672" y="407.105" width="48.061" height="390.142" fill="black"/>
<rect id="venstre sko" x="36.7519" y="802.902" width="67.8509" height="31.0983" rx="15.5492" fill="#4E3333"/>
<rect id="venstre sko_2" x="98.9485" y="788.766" width="31.0983" height="45.2339" fill="#4E3333"/>
</g>
</g>
<rect id="mage_2" x="76.3317" y="367.525" width="144.183" height="81.9865" fill="#0C7010"/>
</g>
</g>
<g id="head">
<path id="hodet" d="M221.928 130.048L216.274 166.8L197.898 189.417L171.04 207.793H168.213H117.325L91.8809 189.417L74.9181 163.973L73.5046 62.1968H221.928V130.048Z" fill="#F8C09D"/>
<path id="venstre skinn" d="M109.025 127.042C110.688 123.653 115.514 123.636 117.2 127.014C118.71 130.04 116.517 133.599 113.135 133.611C109.753 133.623 107.536 130.078 109.025 127.042Z" fill="#EF927D"/>
<path id="h&#195;&#165;r" d="M48.0604 35.1996V93.4144L74.3122 87.9991V64.9839H219.388V87.9991H231.823V0H97.8007L86.7473 2.70766L78.4573 20.3075H60.4955L48.0604 35.1996Z" fill="#5A3636"/>
<path id="nese" d="M147.01 124.423L154.406 139.24L139.716 139.291L147.01 124.423Z" fill="#EF927D"/>
<path id="h&#195;&#184;yre skinn" d="M176.876 127.042C178.539 123.653 183.365 123.636 185.051 127.014C186.561 130.04 184.368 133.599 180.986 133.611C177.604 133.623 175.387 130.078 176.876 127.042Z" fill="#EF927D"/>
<path id="munn" d="M174.309 149.869C174.309 150.65 161.652 160.055 146.038 160.055C130.424 160.055 117.767 148.747 117.767 149.869C117.767 150.991 130.424 162.59 146.038 162.59C161.652 162.59 174.309 152.68 174.309 149.869Z" fill="#EF927D"/>
<g id="&#195;&#184;yner">
<g id="venstre &#195;&#184;yet">
<ellipse id="h&#195;&#184;yre &#195;&#184;yet" cx="114.498" cy="111.671" rx="7.0678" ry="9.89492" fill="black"/>
<circle id="venstre hvite &#195;&#184;yet" cx="114.498" cy="111.672" r="1.41356" fill="white"/>
</g>
<g id="h&#195;&#184;yre &#195;&#184;yet_2">
<ellipse id="h&#195;&#184;yre &#195;&#184;yet_3" cx="179.521" cy="111.672" rx="7.0678" ry="9.89492" fill="black"/>
<circle id="h&#195;&#184;yre hvit &#195;&#184;yet" cx="179.521" cy="111.672" r="1.41356" fill="white"/>
</g>
</g>
<g id="&#195;&#184;rer ">
<g id="venstre &#195;&#184;re">
<circle id="venstre &#195;&#184;re_2" cx="70.6774" cy="104.603" r="22.617" fill="#F8C09D"/>
<rect id="farge &#195;&#184;re" x="62.196" y="96.1223" width="11.3085" height="11.3085" fill="#F3AA8E"/>
<rect id="farge &#195;&#184;re_2" x="56.5419" y="101.776" width="11.3085" height="11.3085" fill="#F4AF91"/>
</g>
<g id="h&#195;&#184;yre &#195;&#184;re">
<circle id="h&#195;&#184;yre &#195;&#184;re_2" cx="226.169" cy="104.603" r="22.617" fill="#F8C09D"/>
<rect id="farge &#195;&#184;re_3" x="223.342" y="96.1223" width="11.3085" height="11.3085" fill="#F3AA8E"/>
<rect id="farge &#195;&#184;re_4" x="217.688" y="101.776" width="11.3085" height="11.3085" fill="#F4AF91"/>
</g>
</g>
<rect id="hals" x="121.566" y="200.725" width="50.8882" height="42.4068" fill="#F8C09D"/>
</g>
</g>
</svg>
