<svg width="885" height="722" viewBox="0 0 885 722" fill="none" xmlns="http://www.w3.org/2000/svg">
<g id="island-primary">
<g id="beach-n-palms">
<g id="palms">
<g id="palm-four">
<path id="tree" d="M144.14 81.3439L139.434 213.614L123.404 429.405L81.1298 429.852L121.386 238.215L144.14 81.3439Z" fill="#564F3A"/>
<path id="blader" d="M144.514 132.869C136.148 127.939 130.626 118.965 129.164 107.921C127.702 96.8762 130.419 84.6657 136.717 73.9755C143.016 63.2852 152.38 54.9909 162.749 50.9173C173.119 46.8436 183.644 47.3242 192.011 52.2534L168.262 92.5609L144.514 132.869Z" fill="#68B456"/>
<path id="blader_2" d="M141.402 125.289C140.531 115.618 144.604 105.9 152.726 98.2739C160.847 90.6478 172.353 85.7377 184.71 84.6239C197.068 83.5101 209.265 86.2837 218.62 92.3346C227.974 98.3856 233.72 107.218 234.591 116.889L187.997 121.089L141.402 125.289Z" fill="#62A353"/>
<path id="blader_3" d="M132.358 127.013C137.377 118.7 146.41 113.276 157.47 111.933C168.53 110.589 180.71 113.438 191.332 119.851C201.954 126.264 210.147 135.717 214.108 146.129C218.07 156.542 217.476 167.062 212.457 175.375L172.408 151.194L132.358 127.013Z" fill="#5A8F4E"/>
<path id="blader_4" d="M52.5663 92.668C56.2144 83.669 64.2809 76.8903 74.9914 73.8232C85.7018 70.756 98.1788 71.6517 109.678 76.3132C121.176 80.9746 130.755 89.02 136.306 98.6794C141.857 108.339 142.927 118.821 139.279 127.82L95.9224 110.244L52.5663 92.668Z" fill="#62A353"/>
<path id="blader_5" d="M51.7525 158.048C48.8576 148.78 50.786 138.421 57.1136 129.251C63.4412 120.082 73.6496 112.852 85.493 109.153C97.3365 105.454 109.845 105.588 120.266 109.527C130.688 113.465 138.169 120.885 141.064 130.154L96.4083 144.101L51.7525 158.048Z" fill="#5A8F4E"/>
</g>
<g id="palm-three">
<path id="tree_2" d="M207.341 251.925L207.999 314.229L193.507 484.148L165.301 484.446L198.538 323.802L207.341 251.925Z" fill="#564F3A"/>
<path id="blader_6" d="M207.589 286.302C202.008 283.013 198.324 277.026 197.348 269.657C196.372 262.288 198.185 254.141 202.387 247.009C206.59 239.876 212.837 234.342 219.756 231.624C226.674 228.907 233.697 229.227 239.279 232.516L223.434 259.409L207.589 286.302Z" fill="#68B456"/>
<path id="blader_7" d="M205.515 281.244C204.934 274.791 207.651 268.308 213.07 263.219C218.489 258.131 226.165 254.855 234.41 254.112C242.655 253.369 250.793 255.22 257.034 259.257C263.275 263.294 267.108 269.187 267.69 275.639L236.603 278.442L205.515 281.244Z" fill="#62A353"/>
<path id="blader_8" d="M199.481 282.395C202.829 276.849 208.856 273.229 216.235 272.333C223.614 271.437 231.74 273.337 238.827 277.616C245.914 281.895 251.38 288.202 254.024 295.149C256.667 302.096 256.271 309.115 252.922 314.661L226.201 298.528L199.481 282.395Z" fill="#5A8F4E"/>
<path id="blader_9" d="M146.245 259.479C148.679 253.475 154.061 248.952 161.207 246.906C168.353 244.859 176.678 245.457 184.35 248.567C192.022 251.677 198.412 257.045 202.116 263.49C205.82 269.934 206.533 276.928 204.099 282.932L175.172 271.206L146.245 259.479Z" fill="#62A353"/>
<path id="blader_10" d="M145.702 303.101C143.77 296.917 145.057 290.005 149.279 283.888C153.5 277.77 160.311 272.946 168.213 270.478C176.115 268.01 184.46 268.1 191.414 270.727C198.367 273.355 203.358 278.306 205.29 284.49L175.496 293.795L145.702 303.101Z" fill="#5A8F4E"/>
</g>
<g id="palm-two">
<path id="tree_3" d="M291.801 137.308L281.788 260.562L273.954 436.88L237.568 437.264L261.616 272.062L291.801 137.308Z" fill="#564F3A"/>
<path id="blader_11" d="M297.299 174.542C290.099 170.299 285.346 162.576 284.088 153.07C282.829 143.564 285.168 133.054 290.589 123.853C296.01 114.652 304.069 107.514 312.994 104.008C321.919 100.501 330.978 100.915 338.179 105.158L317.739 139.85L297.299 174.542Z" fill="#68B456"/>
<path id="blader_12" d="M294.622 168.018C293.872 159.694 297.377 151.33 304.368 144.766C311.358 138.203 321.26 133.977 331.896 133.018C342.532 132.059 353.031 134.446 361.082 139.654C369.133 144.862 374.078 152.464 374.828 160.788L334.725 164.403L294.622 168.018Z" fill="#62A353"/>
<path id="blader_13" d="M286.837 169.503C291.157 162.348 298.931 157.679 308.45 156.523C317.969 155.367 328.453 157.818 337.595 163.338C346.737 168.858 353.788 176.994 357.198 185.956C360.608 194.918 360.097 203.972 355.777 211.127L321.307 190.315L286.837 169.503Z" fill="#5A8F4E"/>
<path id="blader_14" d="M218.161 139.941C221.301 132.196 228.244 126.362 237.462 123.722C246.68 121.082 257.419 121.853 267.316 125.865C277.213 129.877 285.457 136.802 290.235 145.115C295.013 153.429 295.933 162.451 292.793 170.196L255.477 155.069L218.161 139.941Z" fill="#62A353"/>
<path id="blader_15" d="M217.462 196.214C214.97 188.237 216.63 179.321 222.076 171.429C227.522 163.537 236.308 157.314 246.502 154.131C256.695 150.947 267.461 151.063 276.431 154.452C285.4 157.842 291.839 164.228 294.331 172.206L255.896 184.21L217.462 196.214Z" fill="#5A8F4E"/>
</g>
<g id="palm-one">
<path id="tree_4" d="M433.175 56.745L421.542 199.949L412.44 404.807L370.165 405.253L398.105 213.311L433.175 56.745Z" fill="#564F3A"/>
<path id="blader_16" d="M439.565 100.005C431.199 95.0756 425.677 86.1016 424.215 75.057C422.753 64.0124 425.47 51.8019 431.768 41.1117C438.067 30.4215 447.431 22.1272 457.8 18.0535C468.169 13.9798 478.695 14.4604 487.061 19.3896L463.313 59.6972L439.565 100.005Z" fill="#68B456"/>
<path id="blader_17" d="M436.454 92.4252C435.583 82.7541 439.656 73.0365 447.777 65.4104C455.899 57.7843 467.404 52.8742 479.762 51.7604C492.119 50.6465 504.317 53.4202 513.672 59.4711C523.026 65.5221 528.771 74.3546 529.643 84.0258L483.049 88.2255L436.454 92.4252Z" fill="#62A353"/>
<path id="blader_18" d="M427.41 94.1506C432.429 85.8379 441.462 80.4132 452.522 79.0701C463.581 77.7269 475.762 80.5751 486.384 86.9883C497.005 93.4014 505.198 102.854 509.16 113.267C513.122 123.68 512.528 134.199 507.509 142.512L467.46 118.331L427.41 94.1506Z" fill="#5A8F4E"/>
<path id="blader_19" d="M347.618 59.8045C351.266 50.8055 359.333 44.0268 370.043 40.9596C380.754 37.8925 393.231 38.7882 404.729 43.4496C416.228 48.1111 425.807 56.1565 431.358 65.8159C436.909 75.4753 437.978 85.9575 434.33 94.9566L390.974 77.3805L347.618 59.8045Z" fill="#62A353"/>
<path id="blader_20" d="M346.804 125.185C343.909 115.917 345.838 105.558 352.165 96.3883C358.493 87.2187 368.701 79.9891 380.545 76.29C392.388 72.591 404.897 72.7254 415.318 76.6638C425.74 80.6022 433.221 88.0219 436.116 97.2907L391.46 111.238L346.804 125.185Z" fill="#5A8F4E"/>
</g>
</g>
<g id="beach">
<path id="Ellipse 12" d="M884.518 579.808C884.518 606.447 848.142 621.514 821.423 644.122C663.304 777.915 522.322 697.892 305.653 697.892C0.549821 697.892 22.2221 605.318 22.2221 513.411C22.2221 421.505 0.549821 388.603 305.653 388.603C605.638 429.646 841.914 486.901 884.518 579.808Z" fill="#ECE4BD"/>
<path id="Ellipse 13" d="M862.631 580.176C862.631 606.815 826.255 621.882 799.536 644.49C641.418 778.283 500.435 698.261 283.766 698.261C-21.3369 698.261 0.335349 605.686 0.335349 513.78C0.335349 421.874 -21.3369 388.972 283.766 388.972C583.751 430.015 820.028 487.27 862.631 580.176Z" fill="#FFF3B3"/>
</g>
</g>
<g id="island items">
<g id="tent">
<path id="Rectangle 24" d="M243.744 296.975C249.772 292.238 467.981 299.904 428.886 309.461C409.511 314.197 341.051 516.992 353.538 527.326C366.024 537.659 138.256 483.839 160.645 479.103C183.035 474.366 237.716 301.711 243.744 296.975Z" fill="#5E8F5D"/>
<path id="Rectangle 25" d="M270.053 328.117C289.056 339.599 362.672 345.555 362.672 345.555C362.672 345.555 377.079 390.801 345.57 391.304C314.061 391.807 260.859 376.952 260.859 376.952C260.859 376.952 251.05 316.635 270.053 328.117Z" fill="#75A974"/>
<path id="Polygon 5" d="M434.818 309.707C455.485 329.513 479.716 516.808 471.846 502.599C463.977 488.391 374.108 531.877 353.322 524.988C332.536 518.099 414.151 289.901 434.818 309.707Z" fill="#627162"/>
<path id="boat front" d="M421.021 516.827C402.832 520.067 445.582 326.069 433.096 307.555C420.61 289.041 325.51 507.941 344.831 526.77C364.151 545.599 439.21 513.588 421.021 516.827Z" fill="#7CA17B"/>
<path id="boat front_2" d="M439.554 519.823C446.012 519.823 413.851 311.8 433.096 307.555C452.34 303.31 499.714 489.209 480.027 507.767C460.339 526.325 433.095 519.823 439.554 519.823Z" fill="#7CA17B"/>
<rect id="Rectangle 26" x="321.581" y="498.719" width="10.3335" height="30.1394" rx="5.16676" transform="rotate(-27.2435 321.581 498.719)" fill="#C5C5C5"/>
<rect id="Rectangle 27" x="160.509" y="463.183" width="10.3335" height="24.5864" rx="5.16676" transform="rotate(-27.2435 160.509 463.183)" fill="#C5C5C5"/>
<g id="Rectangle 28" style="mix-blend-mode:color-burn">
<rect x="268.577" y="343.243" width="40.473" height="6.88901" rx="2" transform="rotate(12.6673 268.577 343.243)" fill="#F2F2F2"/>
</g>
<g id="Rectangle 29" style="mix-blend-mode:color-burn">
<rect x="294.674" y="361.375" width="36.5786" height="6.88901" rx="2" transform="rotate(12.6673 294.674 361.375)" fill="#F2F2F2"/>
</g>
</g>
<g id="cup">
<path id="Vector 15" d="M117.203 539.546L130.952 531.913L120.229 493.842L119.582 494.247L119.15 494.517L115.266 496.948L112.676 498.568L110.734 499.784L103.397 504.375L90.0168 512.746L117.203 539.546Z" fill="#EF4434"/>
<path id="Vector 16" d="M90.3769 512.866L120.421 494.183L113.782 490.08L109.542 488.205L103.236 488.368L91.9004 494.661L88.8051 500.608L90.3769 512.866Z" fill="#A5DEFF"/>
<g id="Rectangle 48">
<path d="M88.4856 473.852C88.8538 473.647 89.3181 473.78 89.5225 474.148L98.6048 490.507C98.8093 490.875 98.6765 491.34 98.3082 491.544C97.94 491.749 97.4757 491.616 97.2713 491.248L88.189 474.889C87.9845 474.521 88.1173 474.056 88.4856 473.852Z" fill="#D9D9D9"/>
<path d="M88.4856 473.852C88.8538 473.647 89.3181 473.78 89.5225 474.148L98.6048 490.507C98.8093 490.875 98.6765 491.34 98.3082 491.544C97.94 491.749 97.4757 491.616 97.2713 491.248L88.189 474.889C87.9845 474.521 88.1173 474.056 88.4856 473.852Z" stroke="black"/>
</g>
<g id="Rectangle 49">
<path d="M96.7275 466.385L97.9823 467.387L89.5352 475.151L88.2805 474.15L96.7275 466.385Z" fill="#D9D9D9"/>
<path d="M96.7275 466.385L97.9823 467.387L89.5352 475.151L88.2805 474.15L96.7275 466.385Z" stroke="black"/>
</g>
</g>
<g id="bag">
<path id="Vector 13" d="M197.587 527.331L195.786 515.094L234.514 448.792L240.946 446.397L242.647 450.187L243.024 461.033L241.278 474.554C243.825 477.533 249.969 483.993 254.167 485.998C258.365 488.002 259.277 486.186 259.208 485.027L263.349 477.938L268.051 462.229L270.52 460.875L276.775 464.528L271.936 475.684L264.415 498.135C261.36 510.705 253.658 537.041 247.287 541.82L241.032 538.167L197.587 527.331Z" fill="#DBF3F5"/>
<path id="Vector 14" d="M236.632 476.499C232.547 472.168 238.194 457.154 241.528 450.189L242.76 450.909L241.96 460.772L241.04 471.782L242.831 473.435L257.98 478.638C258.911 477.358 261.109 473.659 262.451 469.095C263.794 464.532 266.674 464.067 267.947 464.405L264.06 476.72L257.179 488.501L250.047 483.727C247.277 483.122 240.716 480.829 236.632 476.499Z" fill="#A3D4DA"/>
<path id="Polygon 96" d="M216.075 489.438L211.772 530.471L197.337 526.195L216.075 489.438Z" fill="#75ABAB"/>
<path id="Polygon 97" d="M236.297 483.84L227.291 523.03L222.507 521.613L236.297 483.84Z" fill="#92C5CD"/>
</g>
<g id="paperball">
<path id="Vector 5" d="M620.265 555.817C619.849 554.256 620.73 553.14 621.223 552.777L619.725 551.909L618.919 548.796L615.875 548.521L614.064 549.466C613.471 549.253 612.231 548.442 612.019 546.903C611.807 545.365 609.165 545.59 607.871 545.896L606.639 546.951C606.36 547.2 604.953 547.892 601.552 548.665C598.151 549.438 597.205 551.962 597.157 553.128L595.7 555.731L599.007 561.534L596.951 564.789L601.014 567.452L601.633 566.039L602.643 568.365L604.147 567.462L608.544 567.551L611.801 567.101C613.013 567.566 615.592 567.792 616.205 564.976C616.818 562.16 617.973 562.962 618.474 563.714L621.734 562.379L618.062 560.736L618.796 559.244L620.641 558.547C620.689 558.288 620.68 557.378 620.265 555.817Z" fill="#E3E3E3"/>
<path id="Polygon 84" d="M614.635 560.41L610.994 554.465L616.529 553.7L614.635 560.41Z" fill="#D9D9D9"/>
<path id="Polygon 86" d="M604.977 556.686L601.335 550.74L606.871 549.976L604.977 556.686Z" fill="#D9D9D9"/>
<path id="Polygon 95" d="M609.585 553.774L605.944 547.828L611.479 547.063L609.585 553.774Z" fill="#D9D9D9"/>
<path id="Polygon 87" d="M600.296 559.988L596.655 554.042L602.19 553.278L600.296 559.988Z" fill="#FCF5F5"/>
<path id="Polygon 89" d="M609.501 555.429L606.017 552.591L612.085 551.754L609.501 555.429Z" fill="#FCF5F5"/>
<path id="Polygon 90" d="M617.445 557.62L613.961 554.782L620.029 553.944L617.445 557.62Z" fill="#FCF5F5"/>
<path id="Polygon 91" d="M613.907 565.568L610.423 562.73L616.491 561.892L613.907 565.568Z" fill="#FCF5F5"/>
<rect id="Rectangle 40" x="611.062" y="558.122" width="6.20447" height="3.50713" transform="rotate(172.14 611.062 558.122)" fill="#D9D9D9"/>
<rect id="Rectangle 41" x="618.595" y="562.772" width="6.20447" height="3.50713" transform="rotate(172.14 618.595 562.772)" fill="#D9D9D9"/>
<rect id="Rectangle 42" x="610.353" y="565.68" width="6.20447" height="3.50713" transform="rotate(172.14 610.353 565.68)" fill="#D9D9D9"/>
<rect id="Rectangle 44" x="605.378" y="562.321" width="6.20447" height="3.50713" transform="rotate(172.14 605.378 562.321)" fill="#EEEEEE"/>
<rect id="Rectangle 45" x="609.14" y="550.548" width="6.20447" height="3.50713" transform="rotate(172.14 609.14 550.548)" fill="#EEEEEE"/>
<rect id="Rectangle 47" x="616.325" y="559.039" width="2.97815" height="3.38187" transform="rotate(172.14 616.325 559.039)" fill="#EEEEEE"/>
</g>
<g id="flask">
<rect id="flaske" x="431.32" y="602.004" width="26.2533" height="46.0477" rx="13.1267" transform="rotate(85.1155 431.32 602.004)" fill="#4ACBB4"/>
<rect id="flaske_2" x="441.644" y="608.873" width="11.2842" height="14.74" rx="5.64211" transform="rotate(84.0741 441.644 608.873)" fill="#4ACBB4"/>
<rect id="korken" x="442.909" y="607.89" width="13.066" height="6.72071" rx="3.36035" transform="rotate(84.5331 442.909 607.89)" fill="black"/>
</g>
<path id="beer" d="M604.534 639.783L610.592 636.206L582.019 619.248L576.599 617.849L571.319 618.71L556.823 613.158L555.81 612.562L555.827 611.265L554.729 610.15L553.467 609.9L552.351 610.082L551.666 611.031L547.602 617.937L547.16 619.912L548.061 620.755L549.322 621.463L550.623 621.479L551.27 620.764L551.864 620.667L563.889 631.19L567.368 638.007L576.561 643.815L578.488 642.054L581.217 641L589.451 645.138L592.123 642.798L594.575 642.855L596.136 639.783L599.214 638.063L604.534 639.783Z" fill="#815329"/>
<g id="broken bottle">
<path id="Vector 4" d="M505.538 449.48L490.466 443.321L487.097 439.855L487.867 437.934L489.95 437.815L487.903 435.408L490.569 436.04L491.924 434.871L490.622 432.326L491.972 431.453L494.337 432.378L492.443 429.676L492.468 427.893L497.65 429.304L496.941 426.916L510.839 432.018L515.863 434.021L518.069 435.687L518.785 437.629L519.207 439.27L519.479 441.058L516.706 448.003L513.849 450.341L512.206 450.912L510.571 450.889L505.538 449.48Z" fill="#F0A763"/>
<path id="Ellipse 8" d="M512.713 439.494C512.477 437.821 492.99 430.434 495.392 430.134C497.794 429.834 513.823 437.907 514.059 439.58C514.295 441.252 512.539 442.852 510.137 443.152C507.735 443.452 512.949 441.167 512.713 439.494Z" fill="white"/>
</g>
<g id="fire">
<rect id="Rectangle 52" x="538.331" y="503.795" width="9.33669" height="29.4506" rx="4.66834" transform="rotate(50.8715 538.331 503.795)" fill="#663939"/>
<path id="Vector 19" d="M519.706 508.1C523.117 515.84 526.059 519 534.054 521.492C544.265 523.736 550.051 524.462 560.839 521.97C567.499 520.182 571.207 519.848 578.058 513.361C581.62 509.588 582.603 506.101 578.058 491.359C577.128 481.276 575.637 476.027 581.406 463.14C578.433 464.049 576.785 464.578 576.144 467.923C570.738 479.029 569.839 485.44 571.361 497.099L567.057 491.359V463.14L560.839 477.489L550.316 485.62C543.13 475.878 541.36 469.276 546.012 453.574C536.858 465.166 536.144 472.221 541.229 485.62C539.617 493.765 536.717 494.89 531.663 497.099C531.663 497.099 527.358 480.359 527.837 485.62C528.315 490.881 517.097 497.388 519.706 508.1Z" fill="#D16D35"/>
<rect id="Rectangle 53" x="580.154" y="524.137" width="8.16327" height="35.9155" rx="4.08163" transform="rotate(120.872 580.154 524.137)" fill="#663939"/>
<rect id="Rectangle 54" x="564.708" y="528.473" width="16.2256" height="23.7059" rx="8.1128" transform="rotate(143.025 564.708 528.473)" fill="#663939"/>
<rect id="Rectangle 55" x="543.27" y="536.514" width="13.4757" height="24.128" rx="6.73786" transform="rotate(-175.603 543.27 536.514)" fill="#663939"/>
<path id="Vector 17" d="M529.25 510.491C532.967 518.715 532.633 521.672 542.164 525.797C544.42 526.642 553.165 525.797 553.165 525.797C553.165 525.797 566.032 524.687 570.862 514.318V500.447C569.51 494.893 570.963 495.72 564.644 481.315C563.739 461.687 566.702 459.645 570.862 453.096C563.897 454.303 560.243 455.798 557.948 472.228C556.743 485.345 560.818 497.577 561.296 500.447C561.774 503.317 557.723 507.708 553.165 506.665C555.031 502.555 555.646 500.253 553.165 496.143L546.469 489.446C551.535 500.567 550.3 503.718 546.469 506.665C541.523 506.448 539.386 505.532 538.338 500.447C536.024 490.555 537.901 487.027 542.164 481.315C544.06 470.32 541.819 467.953 538.338 463.14C538.792 474.916 533.128 481.222 529.25 489.446C525.373 497.671 525.534 502.268 529.25 510.491Z" fill="#EE8E49"/>
<path id="Vector 18" d="M541.521 514.445C543.04 517.89 542.904 519.129 546.8 520.857C547.722 521.211 551.297 520.857 551.297 520.857C551.297 520.857 556.557 520.392 558.532 516.048V510.238C557.979 507.912 558.573 508.258 555.99 502.224C555.62 494.002 556.831 493.146 558.532 490.403C555.684 490.909 554.19 491.535 553.252 498.417C552.76 503.912 554.426 509.036 554.621 510.238C554.817 511.44 553.16 513.28 551.297 512.843C552.06 511.121 552.311 510.157 551.297 508.435L548.56 505.63C550.631 510.288 550.126 511.608 548.56 512.843C546.538 512.752 545.664 512.368 545.236 510.238C544.29 506.094 545.057 504.616 546.8 502.224C547.575 497.618 546.659 496.627 545.236 494.61C545.421 499.543 543.106 502.185 541.521 505.63C539.936 509.075 540.001 511.001 541.521 514.445Z" fill="#F2C161"/>
</g>
<g id="bottle-plastic">
<path id="Vector 20" d="M326.731 544.725C331.377 544.545 335.343 546.424 339.14 548.819C338.982 552.193 338.702 559.181 338.844 560.141C338.985 561.102 335.145 567.296 333.208 570.273L312.187 564.479L309.07 560.025L303.036 557.463L287.717 556.976L286.853 556.12C285.641 554.579 282.804 551.016 281.144 549.098C279.483 547.179 279.3 547.157 279.415 547.385L277.524 547.903L276.624 538.47C278.111 537.438 281.324 534.996 282.282 533.485C283.239 531.974 285.428 531.478 286.403 531.419L290.022 532.613L293.125 533.637L297.778 535.172C299.846 535.854 306.951 547.335 307.978 545.96C308.799 544.861 312.904 544.35 314.854 544.232C317.264 544.456 323.014 544.869 326.731 544.725Z" fill="#E1F6F7" stroke="#E1F6F7"/>
<path id="Rectangle 59" d="M277.016 537.723L270.915 538.283L269.018 544.035L271.881 548.811L277.982 548.251L277.016 537.723Z" fill="#4474AF"/>
<path id="Vector 13_2" d="M317.436 556.301L324.087 545.523L317.421 544.066L311.932 544.972L308.692 548.707C308.86 547.288 305.097 543.766 300.704 538.551C293.719 530.257 297.283 539.385 299.356 542.636C301.014 545.236 304.016 549.021 305.31 550.589L308.411 553.323L317.436 556.301Z" fill="#A4D5DB"/>
<path id="Vector 21" d="M338.733 549.058L333.068 550.322C332.868 550.98 332.197 554.158 331.071 561.659L331.745 568.59L338.83 559.17L338.733 549.058Z" fill="#A4D5DB"/>
<path id="Vector 23" d="M328.039 559.668C328.039 559.668 332.222 558.892 330.498 560.579C328.773 562.266 330.641 562.696 330.701 565.776C330.701 565.776 330.859 568.673 329.977 568.837C329.095 569.001 327.571 565.409 327.379 564.189C327.187 562.969 328.039 559.668 328.039 559.668Z" fill="#C3E7EC"/>
<path id="Vector 22" d="M308.025 551.695C307.135 552.612 308.665 550.797 312.321 553.708L315.932 554.653L312.768 550.575C311.99 549.332 308.738 550.962 308.025 551.695Z" fill="#C3E7EC"/>
</g>
<g id="bag-two">
<g id="plastpose">
<path id="Vector 13_3" d="M782.945 583.449L790.638 586.763L834.753 569.518L834.782 557.813L827.747 556.849L827.395 561.332L818.707 560.383C816.94 558.044 813.141 552.524 812.076 549.147C811.012 545.77 812.213 545.406 812.947 545.646L817.663 543.802L825.27 555.897L828.372 550.586L827.589 546.283L819.529 537.937L804.871 539.716C796.723 539.873 787.55 548.554 784.19 552.396C784.083 552.122 780.183 559.801 780.897 561.628L782.945 583.449Z" fill="#DBF3F5"/>
<path id="Vector 14_2" d="M817.238 563.436C819.787 567.111 827.847 563.59 832.445 562.311L828.68 556.612L827.508 562.146L820.459 561.008L819.498 559.437L816.95 547.585C817.81 547.119 821.948 555.748 824.918 555.522C827.888 555.295 821.494 555.762 824.665 548.962L818.475 543.484L810.636 546.549L813.314 552.51C813.56 554.62 814.689 559.76 817.238 563.436Z" fill="#A3D4DA"/>
<path id="Polygon 96_2" d="M808.961 569.589L813.225 556.387L790.722 556.477L782.647 565.983L784.641 577.166L791.603 579.695L800.045 576.395L808.961 569.589Z" fill="#C8ECEC"/>
<path id="Polygon 97_2" d="M802.234 556.149L790.222 556.972L783.524 565.913L788.058 566.167L802.234 556.149Z" fill="#AFDAE1"/>
</g>
</g>
</g>
</g>
</svg>
