<svg width="667" height="544" viewBox="0 0 667 544" fill="none" xmlns="http://www.w3.org/2000/svg">
<g id="island-primary">
<g id="beach-n-palms">
<g id="palms">
<g id="palm-four">
<path id="tree" d="M108.603 61.2899L105.057 160.951L92.9792 323.541L61.1269 323.877L91.4584 179.486L108.603 61.2899Z" fill="#564F3A"/>
<path id="blader" d="M108.885 100.112C102.581 96.3978 98.4208 89.6363 97.3191 81.3146C96.2174 72.9929 98.2645 63.7927 103.01 55.7381C107.756 47.6834 114.811 41.4339 122.624 38.3646C130.437 35.2952 138.368 35.6573 144.671 39.3713L126.778 69.7415L108.885 100.112Z" fill="#68B456"/>
<path id="blader_2" d="M106.54 94.4006C105.883 87.1138 108.952 79.792 115.071 74.046C121.191 68.3 129.86 64.6004 139.171 63.7612C148.482 62.922 157.672 65.0118 164.72 69.571C171.769 74.1301 176.097 80.7851 176.754 88.072L141.647 91.2363L106.54 94.4006Z" fill="#62A353"/>
<path id="blader_3" d="M99.7254 95.6999C103.507 89.4366 110.313 85.3494 118.646 84.3374C126.979 83.3253 136.157 85.4714 144.16 90.3034C152.163 95.1355 158.336 102.258 161.321 110.103C164.306 117.949 163.859 125.875 160.077 132.139L129.901 113.919L99.7254 95.6999Z" fill="#5A8F4E"/>
<path id="blader_4" d="M39.6057 69.8221C42.3544 63.0417 48.4323 57.9342 56.5022 55.6232C64.5721 53.3123 73.9731 53.9871 82.6369 57.4994C91.3008 61.0116 98.5179 67.0735 102.701 74.3515C106.883 81.6295 107.689 89.5275 104.94 96.3079L72.2729 83.065L39.6057 69.8221Z" fill="#62A353"/>
<path id="blader_5" d="M38.9925 119.084C36.8113 112.1 38.2643 104.295 43.0319 97.3865C47.7995 90.4775 55.4911 85.0303 64.4147 82.2432C73.3383 79.4561 82.7629 79.5574 90.6152 82.5248C98.4675 85.4922 104.104 91.0827 106.285 98.0664L72.639 108.575L38.9925 119.084Z" fill="#5A8F4E"/>
</g>
<g id="palm-three">
<path id="tree_2" d="M156.223 189.816L156.718 236.759L145.799 364.787L124.547 365.012L149.589 243.973L156.223 189.816Z" fill="#564F3A"/>
<path id="blader_6" d="M156.409 215.717C152.203 213.24 149.428 208.728 148.693 203.176C147.958 197.624 149.323 191.486 152.49 186.112C155.656 180.738 160.363 176.568 165.576 174.52C170.789 172.472 176.08 172.714 180.286 175.192L168.347 195.455L156.409 215.717Z" fill="#68B456"/>
<path id="blader_7" d="M154.847 211.906C154.409 207.045 156.456 202.16 160.539 198.326C164.622 194.492 170.406 192.024 176.618 191.464C182.83 190.904 188.962 192.298 193.665 195.34C198.367 198.382 201.255 202.822 201.693 207.684L178.27 209.795L154.847 211.906Z" fill="#62A353"/>
<path id="blader_8" d="M150.3 212.773C152.823 208.595 157.364 205.868 162.924 205.192C168.483 204.517 174.607 205.949 179.946 209.173C185.286 212.397 189.404 217.149 191.396 222.383C193.388 227.618 193.089 232.906 190.566 237.085L170.433 224.929L150.3 212.773Z" fill="#5A8F4E"/>
<path id="blader_9" d="M110.189 195.507C112.023 190.983 116.078 187.576 121.463 186.034C126.847 184.492 133.119 184.942 138.899 187.286C144.68 189.629 149.495 193.673 152.286 198.529C155.076 203.385 155.614 208.655 153.78 213.178L131.985 204.343L110.189 195.507Z" fill="#62A353"/>
<path id="blader_10" d="M109.78 228.375C108.324 223.715 109.294 218.508 112.475 213.899C115.656 209.289 120.787 205.655 126.741 203.795C132.695 201.935 138.983 202.003 144.222 203.983C149.461 205.963 153.222 209.693 154.677 214.352L132.228 221.364L109.78 228.375Z" fill="#5A8F4E"/>
</g>
<g id="palm-two">
<path id="tree_3" d="M219.859 103.457L212.315 196.324L206.412 329.173L178.997 329.462L197.116 204.989L219.859 103.457Z" fill="#564F3A"/>
<path id="blader_11" d="M224.002 131.511C218.576 128.315 214.996 122.495 214.047 115.333C213.099 108.17 214.861 100.252 218.946 93.3192C223.03 86.3867 229.103 81.0079 235.827 78.3661C242.552 75.7243 249.377 76.036 254.803 79.2326L239.402 105.372L224.002 131.511Z" fill="#68B456"/>
<path id="blader_12" d="M221.985 126.595C221.42 120.323 224.061 114.022 229.328 109.076C234.595 104.131 242.056 100.947 250.07 100.224C258.084 99.5019 265.994 101.301 272.06 105.225C278.126 109.149 281.852 114.876 282.417 121.148L252.201 123.872L221.985 126.595Z" fill="#62A353"/>
<path id="blader_13" d="M216.119 127.714C219.374 122.323 225.232 118.805 232.404 117.934C239.576 117.063 247.475 118.91 254.364 123.069C261.252 127.228 266.565 133.358 269.134 140.111C271.703 146.863 271.318 153.686 268.063 159.076L242.091 143.395L216.119 127.714Z" fill="#5A8F4E"/>
<path id="blader_14" d="M164.375 105.441C166.741 99.605 171.972 95.209 178.918 93.22C185.863 91.231 193.955 91.8118 201.412 94.8347C208.868 97.8577 215.08 103.075 218.68 109.339C222.28 115.603 222.973 122.401 220.608 128.237L192.491 116.839L164.375 105.441Z" fill="#62A353"/>
<path id="blader_15" d="M163.847 147.84C161.97 141.829 163.22 135.112 167.324 129.165C171.427 123.219 178.047 118.53 185.728 116.132C193.408 113.733 201.52 113.82 208.278 116.374C215.036 118.928 219.888 123.74 221.765 129.75L192.806 138.795L163.847 147.84Z" fill="#5A8F4E"/>
</g>
<g id="palm-one">
<path id="tree_4" d="M326.38 42.7552L317.615 150.654L310.757 305.006L278.904 305.343L299.956 160.722L326.38 42.7552Z" fill="#564F3A"/>
<path id="blader_16" d="M331.194 75.3498C324.891 71.6358 320.73 64.8743 319.629 56.5526C318.527 48.2309 320.574 39.0308 325.32 30.9761C330.065 22.9214 337.121 16.672 344.934 13.6026C352.747 10.5332 360.677 10.8954 366.981 14.6093L349.088 44.9796L331.194 75.3498Z" fill="#68B456"/>
<path id="blader_17" d="M328.85 69.6387C328.194 62.3518 331.262 55.03 337.382 49.284C343.501 43.538 352.17 39.8385 361.481 38.9992C370.792 38.16 379.983 40.2498 387.031 44.809C394.079 49.3682 398.408 56.0232 399.065 63.31L363.957 66.4744L328.85 69.6387Z" fill="#62A353"/>
<path id="blader_18" d="M322.036 70.9387C325.818 64.6754 332.624 60.5882 340.957 59.5761C349.29 58.5641 358.467 60.7102 366.47 65.5422C374.473 70.3743 380.647 77.4965 383.632 85.3421C386.617 93.1877 386.169 101.114 382.388 107.377L352.212 89.158L322.036 70.9387Z" fill="#5A8F4E"/>
<path id="blader_19" d="M261.916 45.0602C264.665 38.2797 270.743 33.1723 278.813 30.8613C286.883 28.5503 296.284 29.2252 304.947 32.7374C313.611 36.2496 320.828 42.3115 325.011 49.5895C329.194 56.8675 329.999 64.7655 327.251 71.5459L294.583 58.3031L261.916 45.0602Z" fill="#62A353"/>
<path id="blader_20" d="M261.303 94.3223C259.122 87.3386 260.575 79.5338 265.342 72.6248C270.11 65.7158 277.802 60.2686 286.725 57.4815C295.649 54.6943 305.073 54.7957 312.926 57.7631C320.778 60.7305 326.415 66.321 328.596 73.3047L294.95 83.8135L261.303 94.3223Z" fill="#5A8F4E"/>
</g>
</g>
<g id="beach">
<path id="Ellipse 12" d="M666.451 436.863C666.451 456.935 639.043 468.287 618.912 485.321C499.775 586.129 393.55 525.835 230.298 525.835C0.414665 525.835 16.7439 456.084 16.7439 386.836C16.7439 317.588 0.414665 292.798 230.298 292.798C456.326 323.722 634.351 366.862 666.451 436.863Z" fill="#ECE4BD"/>
<path id="Ellipse 13" d="M649.96 437.141C649.96 457.212 622.552 468.565 602.421 485.599C483.284 586.407 377.059 526.113 213.807 526.113C-16.0766 526.113 0.252673 456.362 0.252673 387.114C0.252673 317.866 -16.0766 293.075 213.807 293.075C439.835 324 617.86 367.139 649.96 437.141Z" fill="#FFF3B3"/>
</g>
</g>
<g id="island items">
<g id="tent">
<path id="Rectangle 24" d="M183.652 223.759C188.194 220.191 352.606 225.967 323.15 233.167C308.551 236.736 256.97 389.535 266.378 397.32C275.786 405.106 104.171 364.555 121.041 360.986C137.91 357.417 179.111 227.328 183.652 223.759Z" fill="#5E8F5D"/>
<path id="Rectangle 25" d="M203.475 247.224C217.793 255.876 273.259 260.363 273.259 260.363C273.259 260.363 284.114 294.454 260.373 294.833C236.632 295.212 196.547 284.02 196.547 284.02C196.547 284.02 189.157 238.573 203.475 247.224Z" fill="#75A974"/>
<path id="Polygon 5" d="M327.618 233.353C343.19 248.276 361.447 389.395 355.518 378.69C349.589 367.985 281.876 400.749 266.214 395.559C250.553 390.368 312.046 218.43 327.618 233.353Z" fill="#627162"/>
<path id="boat front" d="M317.224 389.41C303.519 391.851 335.73 245.681 326.322 231.731C316.914 217.782 245.26 382.714 259.817 396.902C274.375 411.089 330.928 386.969 317.224 389.41Z" fill="#7CA17B"/>
<path id="boat front_2" d="M331.187 391.667C336.053 391.667 311.821 234.93 326.321 231.732C340.821 228.533 376.516 368.601 361.682 382.584C346.848 396.567 326.321 391.667 331.187 391.667Z" fill="#7CA17B"/>
<rect id="Rectangle 26" x="242.3" y="375.766" width="7.78592" height="22.7089" rx="3.89296" transform="rotate(-27.2435 242.3 375.766)" fill="#C5C5C5"/>
<rect id="Rectangle 27" x="120.938" y="348.991" width="7.78592" height="18.5249" rx="3.89296" transform="rotate(-27.2435 120.938 348.991)" fill="#C5C5C5"/>
<g id="Rectangle 28" style="mix-blend-mode:color-burn">
<rect x="202.363" y="258.621" width="30.4948" height="5.19061" rx="2" transform="rotate(12.6673 202.363 258.621)" fill="#F2F2F2"/>
</g>
<g id="Rectangle 29" style="mix-blend-mode:color-burn">
<rect x="222.026" y="272.283" width="27.5606" height="5.19061" rx="2" transform="rotate(12.6673 222.026 272.283)" fill="#F2F2F2"/>
</g>
</g>
<g id="cup">
<path id="Vector 15" d="M88.3076 406.528L98.6671 400.777L90.5879 372.092L90.1001 372.397L89.7749 372.601L86.8481 374.432L84.8969 375.653L83.4335 376.569L77.905 380.028L67.8238 386.336L88.3076 406.528Z" fill="#EF4434"/>
<path id="Vector 16" d="M68.0953 386.426L90.7326 372.349L85.7298 369.257L82.5356 367.845L77.7839 367.968L69.2431 372.709L66.911 377.19L68.0953 386.426Z" fill="#A5DEFF"/>
<g id="Rectangle 48">
<path d="M66.6705 357.03C66.9479 356.876 67.2977 356.976 67.4518 357.254L74.2949 369.579C74.449 369.857 74.3489 370.207 74.0715 370.361C73.794 370.515 73.4442 370.415 73.2901 370.137L66.447 357.811C66.2929 357.534 66.393 357.184 66.6705 357.03Z" fill="#D9D9D9"/>
<path d="M66.6705 357.03C66.9479 356.876 67.2977 356.976 67.4518 357.254L74.2949 369.579C74.449 369.857 74.3489 370.207 74.0715 370.361C73.794 370.515 73.4442 370.415 73.2901 370.137L66.447 357.811C66.2929 357.534 66.393 357.184 66.6705 357.03Z" stroke="black"/>
</g>
<g id="Rectangle 49">
<path d="M72.8799 351.404L73.8253 352.159L67.4607 358.009L66.5153 357.254L72.8799 351.404Z" fill="#D9D9D9"/>
<path d="M72.8799 351.404L73.8253 352.159L67.4607 358.009L66.5153 357.254L72.8799 351.404Z" stroke="black"/>
</g>
</g>
<g id="bag">
<path id="Vector 13" d="M148.875 397.324L147.518 388.104L176.698 338.148L181.544 336.344L182.826 339.199L183.109 347.371L181.794 357.559C183.713 359.803 188.343 364.671 191.506 366.181C194.669 367.692 195.356 366.323 195.304 365.45L198.424 360.109L201.967 348.272L203.827 347.252L208.54 350.005L204.894 358.41L199.227 375.326C196.925 384.798 191.122 404.64 186.322 408.241L181.609 405.488L148.875 397.324Z" fill="#DBF3F5"/>
<path id="Vector 14" d="M178.294 359.024C175.216 355.761 179.471 344.449 181.983 339.2L182.912 339.743L182.308 347.175L181.616 355.47L182.965 356.715L194.379 360.635C195.08 359.672 196.736 356.884 197.748 353.446C198.76 350.007 200.93 349.657 201.889 349.912L198.96 359.191L193.776 368.067L188.402 364.47C186.315 364.014 181.371 362.287 178.294 359.024Z" fill="#A3D4DA"/>
<path id="Polygon 96" d="M162.805 368.773L159.564 399.69L148.687 396.468L162.805 368.773Z" fill="#75ABAB"/>
<path id="Polygon 97" d="M178.042 364.555L171.256 394.083L167.652 393.016L178.042 364.555Z" fill="#92C5CD"/>
</g>
<g id="paperball">
<path id="Vector 5" d="M467.346 418.788C467.033 417.611 467.697 416.77 468.068 416.497L466.939 415.843L466.332 413.497L464.039 413.29L462.674 414.002C462.227 413.842 461.293 413.231 461.133 412.071C460.973 410.912 458.983 411.082 458.008 411.312L457.08 412.107C456.87 412.295 455.809 412.816 453.247 413.398C450.684 413.981 449.972 415.883 449.936 416.761L448.838 418.723L451.329 423.095L449.78 425.548L452.841 427.554L453.308 426.49L454.069 428.242L455.202 427.562L458.515 427.628L460.969 427.29C461.883 427.64 463.825 427.81 464.287 425.688C464.749 423.567 465.619 424.171 465.997 424.738L468.453 423.732L465.687 422.494L466.239 421.37L467.63 420.844C467.666 420.649 467.659 419.964 467.346 418.788Z" fill="#E3E3E3"/>
<path id="Polygon 84" d="M463.104 422.249L460.36 417.769L464.531 417.193L463.104 422.249Z" fill="#D9D9D9"/>
<path id="Polygon 86" d="M455.827 419.443L453.084 414.963L457.254 414.387L455.827 419.443Z" fill="#D9D9D9"/>
<path id="Polygon 95" d="M459.299 417.248L456.555 412.768L460.726 412.192L459.299 417.248Z" fill="#D9D9D9"/>
<path id="Polygon 87" d="M452.3 421.93L449.556 417.45L453.727 416.874L452.3 421.93Z" fill="#FCF5F5"/>
<path id="Polygon 89" d="M459.235 418.496L456.611 416.357L461.183 415.726L459.235 418.496Z" fill="#FCF5F5"/>
<path id="Polygon 90" d="M465.222 420.146L462.597 418.008L467.169 417.377L465.222 420.146Z" fill="#FCF5F5"/>
<path id="Polygon 91" d="M462.556 426.135L459.931 423.996L464.503 423.365L462.556 426.135Z" fill="#FCF5F5"/>
<rect id="Rectangle 40" x="460.412" y="420.524" width="4.67483" height="2.64249" transform="rotate(172.14 460.412 420.524)" fill="#D9D9D9"/>
<rect id="Rectangle 41" x="466.088" y="424.028" width="4.67483" height="2.64249" transform="rotate(172.14 466.088 424.028)" fill="#D9D9D9"/>
<rect id="Rectangle 42" x="459.878" y="426.219" width="4.67483" height="2.64249" transform="rotate(172.14 459.878 426.219)" fill="#D9D9D9"/>
<rect id="Rectangle 44" x="456.13" y="423.688" width="4.67483" height="2.64249" transform="rotate(172.14 456.13 423.688)" fill="#EEEEEE"/>
<rect id="Rectangle 45" x="458.964" y="414.817" width="4.67483" height="2.64249" transform="rotate(172.14 458.964 414.817)" fill="#EEEEEE"/>
<rect id="Rectangle 47" x="464.378" y="421.216" width="2.24392" height="2.54811" transform="rotate(172.14 464.378 421.216)" fill="#EEEEEE"/>
</g>
<g id="flask">
<rect id="flaske" x="324.984" y="453.588" width="19.7809" height="34.6952" rx="9.89044" transform="rotate(85.1155 324.984 453.588)" fill="#4ACBB4"/>
<rect id="flaske_2" x="332.763" y="458.763" width="8.50223" height="11.1061" rx="4.25112" transform="rotate(84.0741 332.763 458.763)" fill="#4ACBB4"/>
<rect id="korken" x="333.717" y="458.022" width="9.84474" height="5.0638" rx="2.5319" transform="rotate(84.5331 333.717 458.022)" fill="black"/>
</g>
<path id="beer" d="M455.493 482.053L460.058 479.358L438.529 466.58L434.445 465.526L430.467 466.175L419.545 461.992L418.781 461.543L418.794 460.566L417.967 459.726L417.016 459.537L416.175 459.674L415.659 460.389L412.597 465.593L412.264 467.081L412.943 467.716L413.893 468.249L414.873 468.261L415.36 467.723L415.809 467.65L424.868 475.579L427.49 480.715L434.417 485.091L435.869 483.764L437.925 482.97L444.129 486.087L446.142 484.325L447.99 484.367L449.165 482.053L451.485 480.757L455.493 482.053Z" fill="#815329"/>
<g id="broken bottle">
<path id="Vector 4" d="M380.903 338.666L369.547 334.026L367.009 331.415L367.589 329.967L369.158 329.877L367.616 328.064L369.625 328.54L370.645 327.659L369.665 325.741L370.682 325.084L372.464 325.781L371.037 323.745L371.056 322.402L374.96 323.465L374.426 321.666L384.897 325.51L388.683 327.019L390.345 328.274L390.884 329.738L391.203 330.974L391.408 332.321L389.318 337.554L387.165 339.315L385.927 339.746L384.696 339.728L380.903 338.666Z" fill="#F0A763"/>
<path id="Ellipse 8" d="M386.309 331.142C386.132 329.882 371.449 324.316 373.259 324.09C375.069 323.864 387.146 329.947 387.323 331.207C387.501 332.467 386.178 333.672 384.368 333.898C382.558 334.124 386.487 332.403 386.309 331.142Z" fill="white"/>
</g>
<g id="fire">
<rect id="Rectangle 52" x="405.612" y="379.591" width="7.03484" height="22.1899" rx="3.51742" transform="rotate(50.8715 405.612 379.591)" fill="#663939"/>
<path id="Vector 19" d="M391.579 382.834C394.149 388.666 396.366 391.047 402.39 392.925C410.084 394.616 414.443 395.163 422.572 393.285C427.59 391.938 430.383 391.686 435.545 386.798C438.229 383.956 438.97 381.328 435.545 370.221C434.845 362.623 433.722 358.669 438.068 348.959C435.828 349.644 434.586 350.042 434.104 352.563C430.03 360.931 429.353 365.761 430.5 374.546L427.256 370.221V348.959L422.572 359.77L414.643 365.897C409.228 358.556 407.895 353.582 411.4 341.751C404.503 350.485 403.965 355.801 407.796 365.897C406.581 372.034 404.397 372.881 400.589 374.546C400.589 374.546 397.345 361.932 397.705 365.897C398.066 369.861 389.614 374.764 391.579 382.834Z" fill="#D16D35"/>
<rect id="Rectangle 53" x="437.125" y="394.918" width="6.15072" height="27.061" rx="3.07536" transform="rotate(120.872 437.125 394.918)" fill="#663939"/>
<rect id="Rectangle 54" x="425.486" y="398.185" width="12.2254" height="17.8615" rx="6.11269" transform="rotate(143.025 425.486 398.185)" fill="#663939"/>
<rect id="Rectangle 55" x="409.333" y="404.244" width="10.1534" height="18.1795" rx="5.07672" transform="rotate(-175.603 409.333 404.244)" fill="#663939"/>
<path id="Vector 17" d="M398.771 384.636C401.571 390.833 401.32 393.06 408.501 396.168C410.201 396.805 416.79 396.168 416.79 396.168C416.79 396.168 426.484 395.332 430.124 387.519V377.068C429.105 372.884 430.2 373.507 425.439 362.653C424.757 347.864 426.99 346.325 430.124 341.391C424.876 342.301 422.122 343.427 420.393 355.806C419.485 365.69 422.556 374.906 422.916 377.068C423.277 379.231 420.224 382.54 416.79 381.753C418.195 378.657 418.659 376.922 416.79 373.825L411.744 368.78C415.562 377.159 414.631 379.533 411.744 381.753C408.018 381.59 406.408 380.9 405.618 377.068C403.874 369.615 405.289 366.957 408.501 362.653C409.93 354.369 408.241 352.586 405.618 348.959C405.96 357.832 401.692 362.583 398.771 368.78C395.849 374.976 395.971 378.44 398.771 384.636Z" fill="#EE8E49"/>
<path id="Vector 18" d="M408.015 387.616C409.16 390.211 409.057 391.144 411.993 392.446C412.687 392.713 415.381 392.446 415.381 392.446C415.381 392.446 419.344 392.096 420.832 388.823V384.446C420.416 382.693 420.863 382.954 418.917 378.407C418.638 372.212 419.551 371.568 420.832 369.501C418.687 369.882 417.561 370.353 416.854 375.539C416.483 379.679 417.738 383.54 417.886 384.446C418.033 385.351 416.785 386.737 415.381 386.408C415.956 385.111 416.145 384.384 415.381 383.087L413.319 380.974C414.879 384.483 414.499 385.478 413.319 386.408C411.795 386.34 411.137 386.051 410.814 384.446C410.101 381.323 410.679 380.21 411.993 378.407C412.577 374.937 411.886 374.19 410.814 372.671C410.954 376.388 409.209 378.378 408.015 380.974C406.821 383.569 406.87 385.02 408.015 387.616Z" fill="#F2C161"/>
</g>
<g id="bottle-plastic">
<path id="Vector 20" d="M246.18 410.43C249.681 410.294 252.669 411.711 255.529 413.515C255.411 416.057 255.2 421.322 255.306 422.046C255.413 422.769 252.52 427.436 251.06 429.68L235.222 425.314L232.873 421.958L228.327 420.028L216.784 419.661L216.133 419.016C215.221 417.855 213.083 415.17 211.832 413.725C210.581 412.279 210.442 412.262 210.529 412.435L209.105 412.825L208.426 405.717C209.546 404.94 211.968 403.1 212.689 401.961C213.41 400.823 215.06 400.449 215.795 400.404L218.521 401.304L220.859 402.075L224.365 403.232C225.923 403.746 231.276 412.396 232.05 411.361C232.669 410.533 235.762 410.148 237.231 410.059C239.047 410.228 243.38 410.539 246.18 410.43Z" fill="#E1F6F7" stroke="#E1F6F7"/>
<path id="Rectangle 59" d="M208.721 405.154L204.124 405.576L202.695 409.91L204.852 413.509L209.449 413.087L208.721 405.154Z" fill="#4474AF"/>
<path id="Vector 13_2" d="M239.177 419.152L244.188 411.032L239.166 409.934L235.03 410.616L232.588 413.431C232.715 412.361 229.88 409.708 226.57 405.778C221.306 399.529 223.992 406.407 225.554 408.856C226.803 410.815 229.065 413.667 230.04 414.848L232.377 416.908L239.177 419.152Z" fill="#A4D5DB"/>
<path id="Vector 21" d="M255.223 413.695L250.955 414.648C250.805 415.143 250.299 417.538 249.45 423.189L249.958 428.411L255.297 421.314L255.223 413.695Z" fill="#A4D5DB"/>
<path id="Vector 23" d="M247.166 421.689C247.166 421.689 250.318 421.105 249.018 422.376C247.719 423.647 249.126 423.97 249.172 426.291C249.172 426.291 249.291 428.474 248.626 428.598C247.961 428.721 246.813 426.015 246.669 425.095C246.524 424.176 247.166 421.689 247.166 421.689Z" fill="#C3E7EC"/>
<path id="Vector 22" d="M232.085 415.682C231.414 416.373 232.567 415.005 235.322 417.199L238.042 417.911L235.659 414.838C235.073 413.901 232.622 415.129 232.085 415.682Z" fill="#C3E7EC"/>
</g>
<g id="bag-two">
<g id="plastpose">
<path id="Vector 13_3" d="M589.919 439.607L595.715 442.104L628.954 429.111L628.976 420.291L623.675 419.565L623.41 422.943L616.864 422.227C615.533 420.466 612.67 416.306 611.868 413.762C611.066 411.217 611.971 410.943 612.524 411.124L616.078 409.735L621.809 418.847L624.146 414.846L623.556 411.603L617.483 405.316L606.44 406.656C600.3 406.774 593.389 413.315 590.857 416.21C590.776 416.003 587.838 421.789 588.376 423.166L589.919 439.607Z" fill="#DBF3F5"/>
<path id="Vector 14_2" d="M615.758 424.528C617.679 427.297 623.752 424.644 627.216 423.681L624.379 419.386L623.496 423.556L618.185 422.699L617.461 421.515L615.541 412.585C616.189 412.233 619.307 418.735 621.545 418.565C623.783 418.394 618.965 418.746 621.354 413.622L616.69 409.495L610.784 411.804L612.802 416.296C612.987 417.886 613.837 421.758 615.758 424.528Z" fill="#A3D4DA"/>
<path id="Polygon 96_2" d="M609.522 429.164L612.735 419.217L595.78 419.284L589.695 426.447L591.198 434.873L596.443 436.778L602.804 434.292L609.522 429.164Z" fill="#C8ECEC"/>
<path id="Polygon 97_2" d="M604.453 419.037L595.402 419.658L590.356 426.394L593.772 426.586L604.453 419.037Z" fill="#AFDAE1"/>
</g>
</g>
</g>
</g>
</svg>
