<svg width="49" height="53" viewBox="0 0 49 53" fill="none" xmlns="http://www.w3.org/2000/svg">
<path d="M26.25 50.7502H22.75C20.8162 50.7502 19.25 49.184 19.25 47.2502V43.7502H29.75V47.2502C29.75 49.184 28.1837 50.7502 26.25 50.7502Z" stroke="white" stroke-width="3" stroke-miterlimit="10" stroke-linejoin="round"/>
<path d="M36.75 24.4997C36.75 28.9062 34.6745 33.0555 31.15 35.6997L29.75 36.7497V43.7497H19.25V36.7497L17.85 35.6997C14.3255 33.0555 12.25 28.9062 12.25 24.4997C12.25 17.7343 17.7345 12.2498 24.5 12.2498C31.2655 12.2498 36.75 17.7343 36.75 24.4997Z" stroke="white" stroke-width="3" stroke-miterlimit="10" stroke-linejoin="round"/>
<path d="M24.5 7V0" stroke="white" stroke-width="3" stroke-miterlimit="10" stroke-linejoin="round"/>
<path d="M12.1275 12.1258L7.17673 7.17505" stroke="white" stroke-width="3" stroke-miterlimit="10" stroke-linejoin="round"/>
<path d="M36.8725 12.1258L41.8232 7.17505" stroke="white" stroke-width="3" stroke-miterlimit="10" stroke-linejoin="round"/>
<path d="M7 24.5H0" stroke="white" stroke-width="3" stroke-miterlimit="10" stroke-linejoin="round"/>
<path d="M42 24.5H49" stroke="white" stroke-width="3" stroke-miterlimit="10" stroke-linejoin="round"/>
</svg>
