<svg width="115" height="252" viewBox="0 0 115 252" fill="none" xmlns="http://www.w3.org/2000/svg">
<g id="man with bottle">
<g id="man">
<g id="body">
<rect id="stomach" x="23.0635" y="70.9019" width="43.5661" height="73.4643" rx="21" fill="#0C5E70"/>
<ellipse id="waist" cx="44.8465" cy="137.532" rx="21.783" ry="19.6474" fill="black"/>
<g id="arms">
<g id="left arm">
<path id="venstre hand" d="M5.96829 151.2C5.96829 154.974 7.05685 158.034 4.69794 158.034C2.33903 158.034 0.426758 154.974 0.426758 151.2C0.426758 147.426 2.33903 144.366 4.69794 144.366C7.05685 144.366 5.96829 147.426 5.96829 151.2Z" fill="#F8C09D"/>
<ellipse id="venstre skulder" cx="23.0638" cy="82.007" rx="8.54236" ry="9.3966" fill="#0C5E70"/>
<rect id="venstre arm" x="14.3672" y="82.0068" width="8.54236" height="65.7762" transform="rotate(12.6169 14.3672 82.0068)" fill="#0C5E70"/>
</g>
<g id="right arm">
<path id="right hand" d="M84.1906 148.642C84.3144 144.87 83.3269 141.776 85.6845 141.854C88.0422 141.931 89.853 145.052 89.7291 148.824C89.6053 152.596 87.5936 155.592 85.236 155.514C82.8784 155.437 84.0667 152.414 84.1906 148.642Z" fill="#F8C09D"/>
<ellipse id="r skulder" cx="67.4847" cy="82.007" rx="8.54236" ry="9.3966" fill="#0C5E70"/>
<rect id="r arm" x="67.4844" y="82.9922" width="8.54236" height="65.7762" transform="rotate(-12.4316 67.4844 82.9922)" fill="#0C5E70"/>
</g>
</g>
<g id="right foot">
<rect id="h&#195;&#184;yre bein" x="47.8359" y="123.01" width="14.522" height="117.885" fill="black"/>
<rect id="h&#195;&#184;yre sko" x="57.2324" y="242.604" width="20.5017" height="9.3966" rx="4.6983" fill="#4E3333"/>
<rect id="h&#195;&#184;yre sko_2" x="50.3984" y="238.332" width="9.3966" height="13.6678" fill="#4E3333"/>
</g>
<g id="left foot ">
<rect id="venstre bein " x="27.334" y="123.01" width="14.522" height="117.885" fill="black"/>
<rect id="venstre sko" x="11.1045" y="242.603" width="20.5017" height="9.3966" rx="4.6983" fill="#4E3333"/>
<rect id="venstre sko_2" x="29.8975" y="238.332" width="9.3966" height="13.6678" fill="#4E3333"/>
</g>
<rect id="mage" x="23.0625" y="111.051" width="43.5661" height="24.7729" fill="#0C5E70"/>
</g>
<g id="head">
<path id="face" d="M67.0564 39.2951L65.3479 50.4002L59.7954 57.2341L51.6801 62.7866H50.8259H35.4496L27.7615 57.2341L22.6361 49.546L22.209 18.7935H67.0564V39.2951Z" fill="#F8C09D"/>
<path id="skinn to" d="M32.9408 38.3865C33.4432 37.3624 34.9013 37.3574 35.4108 38.378V38.378C35.8672 39.2923 35.2045 40.3679 34.1827 40.3714V40.3714C33.1608 40.3749 32.4907 39.3039 32.9408 38.3865V38.3865Z" fill="#EF927D"/>
<path id="hair" d="M14.5205 10.6358V28.2259L22.4527 26.5896V19.6354H66.2885V26.5896H70.0459V0H29.5499L26.2101 0.818142L23.7052 6.13606H18.2779L14.5205 10.6358Z" fill="#5A3636"/>
<path id="nose" d="M44.4191 37.5952L46.654 42.0722L42.2153 42.0875L44.4191 37.5952Z" fill="#EF927D"/>
<path id="skinn" d="M53.4437 38.3865C53.9461 37.3624 55.4043 37.3574 55.9137 38.378V38.378C56.3701 39.2923 55.7075 40.3679 54.6856 40.3714V40.3714C53.6637 40.3749 52.9937 39.3039 53.4437 38.3865V38.3865Z" fill="#EF927D"/>
<path id="munn" d="M52.6668 45.2844C52.6668 45.5203 48.8422 48.3622 44.1244 48.3622C39.4066 48.3622 35.582 44.9453 35.582 45.2844C35.582 45.6235 39.4066 49.1282 44.1244 49.1282C48.8422 49.1282 52.6668 46.1336 52.6668 45.2844Z" fill="#EF927D"/>
<g id="eyes">
<g id="l eye">
<ellipse id="h&#195;&#184;yre &#195;&#184;yet" cx="34.5956" cy="33.7428" rx="2.13559" ry="2.98983" fill="black"/>
<circle id="venstre hvite &#195;&#184;yet" cx="34.5954" cy="33.7428" r="0.427391" fill="white"/>
</g>
<g id="r eye">
<ellipse id="h&#195;&#184;yre &#195;&#184;yet_2" cx="54.243" cy="33.7428" rx="2.13559" ry="2.98983" fill="black"/>
<circle id="h&#195;&#184;yre hvit &#195;&#184;yet" cx="54.2428" cy="33.7428" r="0.427391" fill="white"/>
</g>
</g>
<g id="ears">
<g id="left e">
<circle id="venstre &#195;&#184;re" cx="21.3564" cy="31.6068" r="6.83389" fill="#F8C09D"/>
<rect id="farge &#195;&#184;re" x="18.7939" y="29.0439" width="3.41695" height="3.41695" fill="#F3AA8E"/>
<rect id="farge &#195;&#184;re_2" x="17.085" y="30.7524" width="3.41695" height="3.41695" fill="#F4AF91"/>
</g>
<g id="right e">
<circle id="h&#195;&#184;yre &#195;&#184;re" cx="68.3398" cy="31.6068" r="6.83389" fill="#F8C09D"/>
<rect id="farge &#195;&#184;re_3" x="67.4854" y="29.0439" width="3.41695" height="3.41695" fill="#F3AA8E"/>
<rect id="farge &#195;&#184;re_4" x="65.7773" y="30.7524" width="3.41695" height="3.41695" fill="#F4AF91"/>
</g>
</g>
<rect id="hals" x="36.7305" y="60.6504" width="15.3763" height="12.8135" fill="#F8C09D"/>
</g>
</g>
<g id="plastic-flask">
<path id="Vector 20" d="M73.579 152.691C70.4738 152.352 67.7275 153.426 65.0709 154.853C65.0185 157.122 64.8786 161.818 64.7385 162.455C64.5985 163.092 66.8818 167.424 68.0409 169.51L82.4005 166.612L84.6981 163.773L88.8624 162.339L99.1518 162.731L99.7711 162.197C100.655 161.221 102.724 158.966 103.927 157.759C105.129 156.551 105.253 156.544 105.165 156.692L106.408 157.128L107.454 150.848C106.506 150.087 104.466 148.3 103.896 147.242C103.325 146.184 101.881 145.749 101.23 145.664L98.7487 146.294L96.6217 146.835L93.4312 147.646C92.0132 148.006 86.7133 155.367 86.0896 154.398C85.5907 153.623 82.8633 153.088 81.562 152.918C79.9361 152.955 76.0632 152.962 73.579 152.691Z" fill="#E1F6F7" stroke="#E1F6F7"/>
<path id="Rectangle 59" d="M107.225 150.329L111.287 150.99L112.289 154.934L110.146 158L106.084 157.339L107.225 150.329Z" fill="#4474AF"/>
<path id="Vector 13" d="M79.2653 160.884L75.3134 153.35L79.8487 152.686L83.4851 153.55L85.4816 156.205C85.4356 155.246 88.1224 153.062 91.3112 149.773C96.3816 144.542 93.5646 150.493 92.0231 152.574C90.7898 154.239 88.6004 156.635 87.6599 157.625L85.4535 159.312L79.2653 160.884Z" fill="#A4D5DB"/>
<path id="Vector 21" d="M65.3324 155.033L69.0695 156.145C69.1726 156.596 69.4737 158.757 69.8767 163.836L69.0999 168.45L64.7929 161.805L65.3324 155.033Z" fill="#A4D5DB"/>
<path id="Vector 23" d="M72.0003 162.645C72.0003 162.645 69.2331 161.929 70.3097 163.14C71.3864 164.351 70.1145 164.552 69.9297 166.613C69.9297 166.613 69.6879 168.548 70.2714 168.699C70.855 168.85 72.0447 166.514 72.2305 165.705C72.4163 164.897 72.0003 162.645 72.0003 162.645Z" fill="#C3E7EC"/>
<path id="Vector 22" d="M85.7891 158.239C86.343 158.895 85.4026 157.607 82.8156 159.386L80.3517 159.85L82.663 157.265C83.2426 156.469 85.346 157.714 85.7891 158.239Z" fill="#C3E7EC"/>
</g>
</g>
</svg>
