<svg width="337" height="528" viewBox="0 0 337 528" fill="none" xmlns="http://www.w3.org/2000/svg">
<rect x="84.0708" y="148.556" width="91.2814" height="153.925" rx="21" fill="#0C7010"/>
<ellipse cx="129.711" cy="288.163" rx="45.6407" ry="41.1661" fill="black"/>
<rect x="135.976" y="257.735" width="30.4271" height="246.997" fill="black"/>
<rect x="155.664" y="508.312" width="42.9559" height="19.6881" rx="9.84407" fill="#4E3333"/>
<rect x="141.345" y="499.363" width="19.6881" height="28.6373" fill="#4E3333"/>
<rect x="93.0198" y="257.735" width="30.4271" height="246.997" fill="black"/>
<rect x="59.0134" y="508.312" width="42.9559" height="19.6881" rx="9.84407" fill="#4E3333"/>
<rect x="98.3896" y="499.363" width="19.6881" height="28.6373" fill="#4E3333"/>
<rect x="84.0708" y="232.678" width="91.2814" height="51.9051" fill="#0C7010"/>
<path d="M176.247 82.3322L172.668 105.6L161.034 119.919L144.03 131.552H142.241H110.024L93.9151 119.919L83.1762 103.81L82.2812 39.3762H176.247V82.3322Z" fill="#F8C09D"/>
<path d="M104.769 80.4292C105.822 78.2835 108.877 78.2729 109.944 80.4114V80.4114C110.901 82.3271 109.512 84.5806 107.371 84.588V84.588C105.23 84.5954 103.826 82.3515 104.769 80.4292V80.4292Z" fill="#EF927D"/>
<path d="M66.1726 22.2847V59.14L82.7925 55.7116V41.1409H174.639V55.7116H182.512V0H97.6629L90.665 1.7142L85.4167 12.8565H74.0452L66.1726 22.2847Z" fill="#5A3636"/>
<path d="M128.816 78.7713L133.499 88.1518L124.199 88.1839L128.816 78.7713Z" fill="#EF927D"/>
<path d="M147.725 80.4292C148.778 78.2835 151.833 78.2729 152.9 80.4114V80.4114C153.856 82.3271 152.468 84.5806 150.327 84.588V84.588C148.186 84.5954 146.782 82.3515 147.725 80.4292V80.4292Z" fill="#EF927D"/>
<path d="M147.584 97.2763C147.576 97.7704 139.468 103.595 129.584 103.436C119.7 103.277 111.803 95.9901 111.792 96.7005C111.78 97.4108 119.7 112.6 129.584 112.759C139.468 112.918 147.555 99.0553 147.584 97.2763Z" fill="#FFFCFB"/>
<ellipse cx="108.234" cy="70.6982" rx="4.47458" ry="6.26441" fill="black"/>
<circle cx="108.234" cy="70.6984" r="0.894915" fill="white"/>
<ellipse cx="149.4" cy="70.6982" rx="4.47458" ry="6.26441" fill="black"/>
<circle cx="149.4" cy="70.6984" r="0.894915" fill="white"/>
<circle cx="80.4912" cy="66.2239" r="14.3186" fill="#F8C09D"/>
<rect x="75.1218" y="60.8542" width="7.15932" height="7.15932" fill="#F3AA8E"/>
<rect x="71.542" y="64.4338" width="7.15932" height="7.15932" fill="#F4AF91"/>
<circle cx="178.932" cy="66.2239" r="14.3186" fill="#F8C09D"/>
<rect x="177.142" y="60.8542" width="7.15932" height="7.15932" fill="#F3AA8E"/>
<rect x="173.562" y="64.4338" width="7.15932" height="7.15932" fill="#F4AF91"/>
<rect x="112.708" y="127.078" width="32.2169" height="26.8475" fill="#F8C09D"/>
<rect x="92.9224" y="158.194" width="23.0599" height="91.1957" rx="6.22128" transform="rotate(57.8623 92.9224 158.194)" fill="#0C7010" stroke="#014858"/>
<rect x="84.7249" y="267.568" width="23.0599" height="91.1957" rx="6.22128" transform="rotate(140.121 84.7249 267.568)" fill="#0C7010" stroke="#014858"/>
<path d="M85.521 306.535L70.132 307.021L82.1888 293.317L78.3512 283.863L68.6163 275.532L78.4078 269.185L96.5295 295.882L85.521 306.535Z" fill="#F8C09D"/>
<rect x="149.956" y="174.385" width="22.291" height="100.087" rx="6.22128" transform="rotate(-46.5141 149.956 174.385)" fill="#0C7010" stroke="#014858"/>
<rect x="272.408" y="167.16" width="23.0599" height="91.1957" rx="6.22128" transform="rotate(48.9354 272.408 167.16)" fill="#0C7010" stroke="#014858"/>
<path d="M285.276 181.667L282.592 187.036L268.273 181.667L266.483 164.664L260.219 145.87L266.483 145.87L270.958 158.399L288.163 143.186L298.007 134.237L302.482 138.712L292.638 149.451L304.965 164.664L285.276 181.667Z" fill="#F7B28F"/>
</svg>
