<svg width="155" height="244" viewBox="0 0 155 244" fill="none" xmlns="http://www.w3.org/2000/svg">
<rect x="38.7803" y="68.5247" width="42.1056" height="71.0016" rx="21" fill="#0C7010"/>
<ellipse cx="59.8331" cy="132.921" rx="21.0528" ry="18.9888" fill="black"/>
<rect x="62.7227" y="118.886" width="14.0352" height="113.933" fill="black"/>
<rect x="71.8047" y="234.47" width="19.8144" height="9.08161" rx="4.5408" fill="#4E3333"/>
<rect x="65.1992" y="230.343" width="9.08161" height="13.2096" fill="#4E3333"/>
<rect x="42.9082" y="118.886" width="14.0352" height="113.933" fill="black"/>
<rect x="27.2217" y="234.471" width="19.8144" height="9.08161" rx="4.5408" fill="#4E3333"/>
<rect x="45.3848" y="230.343" width="9.08161" height="13.2096" fill="#4E3333"/>
<rect x="38.7803" y="107.328" width="42.1056" height="23.9424" fill="#0C7010"/>
<path d="M81.2981 37.9777L79.6469 48.7105L74.2805 55.3153L66.4373 60.6818H65.6117H50.7509L43.3205 55.3153L38.3669 47.8849L37.9541 18.1633H81.2981V37.9777Z" fill="#F8C09D"/>
<path d="M48.3257 37.1001C48.8113 36.1103 50.2205 36.1055 50.7129 37.0919V37.0919C51.154 37.9756 50.5135 39.0151 49.5259 39.0185V39.0185C48.5383 39.0219 47.8907 37.9868 48.3257 37.1001V37.1001Z" fill="#EF927D"/>
<path d="M30.5234 10.2793V27.2797L38.1897 25.6983V18.9772H80.5561V25.6983H84.1875V0H45.049L41.8211 0.790716L39.4002 5.93037H34.1548L30.5234 10.2793Z" fill="#5A3636"/>
<path d="M59.4182 36.335L61.5781 40.6619L57.2882 40.6767L59.4182 36.335Z" fill="#EF927D"/>
<path d="M68.1401 37.1001C68.6257 36.1103 70.0349 36.1055 70.5273 37.0919V37.0919C70.9684 37.9756 70.328 39.0151 69.3404 39.0185V39.0185C68.3528 39.0219 67.7052 37.9868 68.1401 37.1001V37.1001Z" fill="#EF927D"/>
<path d="M68.0759 44.8707C68.0722 45.0987 64.3322 47.7855 59.7731 47.7122C55.2141 47.6388 51.5713 44.2775 51.566 44.6051C51.5608 44.9328 55.2141 51.9393 59.7731 52.0127C64.3322 52.086 68.0627 45.6914 68.0759 44.8707Z" fill="#FFFCFB"/>
<ellipse cx="49.9253" cy="32.611" rx="2.064" ry="2.8896" fill="black"/>
<circle cx="49.9255" cy="32.611" r="0.4128" fill="white"/>
<ellipse cx="68.9146" cy="32.611" rx="2.064" ry="2.8896" fill="black"/>
<circle cx="68.9148" cy="32.611" r="0.4128" fill="white"/>
<circle cx="37.1263" cy="30.5472" r="6.6048" fill="#F8C09D"/>
<rect x="34.6494" y="28.0703" width="3.3024" height="3.3024" fill="#F3AA8E"/>
<rect x="32.998" y="29.7217" width="3.3024" height="3.3024" fill="#F4AF91"/>
<circle cx="82.5345" cy="30.5472" r="6.6048" fill="#F8C09D"/>
<rect x="81.709" y="28.0703" width="3.3024" height="3.3024" fill="#F3AA8E"/>
<rect x="80.0576" y="29.7219" width="3.3024" height="3.3024" fill="#F4AF91"/>
<rect x="51.9893" y="58.6177" width="14.8608" height="12.384" fill="#F8C09D"/>
<rect x="42.9355" y="72.6528" width="11.0982" height="42.5274" rx="5.54909" transform="rotate(57.8623 42.9355 72.6528)" fill="#0C7010"/>
<rect x="42.9355" y="72.6528" width="11.0982" height="42.5274" rx="5.54909" transform="rotate(57.8623 42.9355 72.6528)" stroke="#014858"/>
<rect x="39.4062" y="123.451" width="11.0982" height="42.5274" rx="5.54909" transform="rotate(140.121 39.4062 123.451)" fill="#0C7010"/>
<rect x="39.4062" y="123.451" width="11.0982" height="42.5274" rx="5.54909" transform="rotate(140.121 39.4062 123.451)" stroke="#014858"/>
<path d="M39.4488 141.396L32.3502 141.62L37.9117 135.299L36.1415 130.938L31.6511 127.095L36.1676 124.168L44.5267 136.483L39.4488 141.396Z" fill="#F8C09D"/>
<rect x="68.8457" y="80.448" width="10.7435" height="46.6288" rx="5.37174" transform="rotate(-46.5141 68.8457 80.448)" fill="#0C7010"/>
<rect x="68.8457" y="80.448" width="10.7435" height="46.6288" rx="5.37174" transform="rotate(-46.5141 68.8457 80.448)" stroke="#014858"/>
<rect x="125.678" y="76.781" width="11.0982" height="42.5274" rx="5.54909" transform="rotate(48.9354 125.678 76.781)" fill="#0C7010"/>
<rect x="125.678" y="76.781" width="11.0982" height="42.5274" rx="5.54909" transform="rotate(48.9354 125.678 76.781)" stroke="#014858"/>
<path d="M131.591 83.7984L130.352 86.2752L123.747 83.7984L122.922 75.9552L120.032 67.2864L122.922 67.2864L124.986 73.0655L132.922 66.0484L137.463 61.9204L139.527 63.9844L134.986 68.938L140.672 75.9552L131.591 83.7984Z" fill="#F7B28F"/>
</svg>
