<svg width="80" height="225" viewBox="0 0 80 225" fill="none" xmlns="http://www.w3.org/2000/svg">
<g id="man">
<g id="body">
<rect id="stomach" x="20.5039" y="63.0332" width="38.7312" height="65.3114" rx="19.3656" fill="#0C5E70"/>
<ellipse id="waist" cx="39.8695" cy="122.269" rx="19.3656" ry="17.467" fill="black"/>
<g id="arms">
<g id="left arm">
<path id="venstre hand" d="M5.30643 134.42C5.30643 137.775 6.27418 140.495 4.17706 140.495C2.07994 140.495 0.379883 137.775 0.379883 134.42C0.379883 131.064 2.07994 128.344 4.17706 128.344C6.27418 128.344 5.30643 131.064 5.30643 134.42Z" fill="#F8C09D"/>
<ellipse id="venstre skulder" cx="20.5045" cy="72.9055" rx="7.59435" ry="8.35378" fill="#0C5E70"/>
<rect id="venstre arm" x="12.7734" y="72.9053" width="7.59435" height="58.4765" transform="rotate(12.6169 12.7734 72.9053)" fill="#0C5E70"/>
</g>
<g id="right arm">
<path id="right hand" d="M74.8477 132.146C74.9579 128.792 74.0799 126.042 76.1759 126.11C78.2719 126.179 79.8817 128.954 79.7716 132.307C79.6615 135.661 77.8731 138.324 75.7771 138.255C73.6811 138.186 74.7376 135.499 74.8477 132.146Z" fill="#F8C09D"/>
<ellipse id="r skulder" cx="59.9957" cy="72.9055" rx="7.59435" ry="8.35378" fill="#0C5E70"/>
<rect id="r arm" x="59.9951" y="73.7812" width="7.59435" height="58.4765" transform="rotate(-12.4316 59.9951 73.7812)" fill="#0C5E70"/>
</g>
</g>
<g id="right foot">
<rect id="h&#195;&#184;yre bein" x="42.5273" y="109.359" width="12.9104" height="104.802" fill="black"/>
<rect id="h&#195;&#184;yre sko" x="50.8809" y="215.68" width="18.2264" height="8.35378" rx="4.17689" fill="#4E3333"/>
<rect id="h&#195;&#184;yre sko_2" x="44.8057" y="211.882" width="8.35378" height="12.151" fill="#4E3333"/>
</g>
<g id="left foot ">
<rect id="venstre bein " x="24.3008" y="109.359" width="12.9104" height="104.802" fill="black"/>
<rect id="venstre sko" x="9.87207" y="215.68" width="18.2264" height="8.35378" rx="4.17689" fill="#4E3333"/>
<rect id="venstre sko_2" x="26.5791" y="211.882" width="8.35378" height="12.151" fill="#4E3333"/>
</g>
<rect id="mage" x="20.5039" y="98.7271" width="38.7312" height="22.0236" fill="#0C5E70"/>
</g>
<g id="head">
<path id="face" d="M59.6145 34.9344L58.0956 44.8071L53.1593 50.8826L45.9446 55.8189H45.1852H31.5154L24.6805 50.8826L20.1239 44.0477L19.7441 16.708H59.6145V34.9344Z" fill="#F8C09D"/>
<path id="skinn to" d="M29.2847 34.1267C29.7313 33.2162 31.0276 33.2117 31.4806 34.1191V34.1191C31.8863 34.9319 31.2972 35.8881 30.3887 35.8913V35.8913C29.4803 35.8944 28.8846 34.9423 29.2847 34.1267V34.1267Z" fill="#EF927D"/>
<path id="hair" d="M12.9092 9.4555V25.0934L19.9611 23.6387V17.4563H58.9321V23.6387H62.2724V0H26.2707L23.3014 0.727346L21.0745 5.45509H16.2496L12.9092 9.4555Z" fill="#5A3636"/>
<path id="nose" d="M39.4892 33.4228L41.476 37.403L37.5299 37.4166L39.4892 33.4228Z" fill="#EF927D"/>
<path id="skinn" d="M47.5122 34.1267C47.9589 33.2162 49.2552 33.2117 49.7081 34.1191V34.1191C50.1138 34.9319 49.5247 35.8881 48.6163 35.8913V35.8913C47.7078 35.8944 47.1121 34.9423 47.5122 34.1267V34.1267Z" fill="#EF927D"/>
<path id="munn" d="M46.8215 40.2588C46.8215 40.4685 43.4214 42.9951 39.2272 42.9951C35.0329 42.9951 31.6328 39.9574 31.6328 40.2588C31.6328 40.5603 35.0329 43.6761 39.2272 43.6761C43.4214 43.6761 46.8215 41.0138 46.8215 40.2588Z" fill="#EF927D"/>
<g id="eyes">
<g id="l eye">
<ellipse id="h&#195;&#184;yre &#195;&#184;yet" cx="30.756" cy="29.9979" rx="1.89859" ry="2.65802" fill="black"/>
<circle id="venstre hvite &#195;&#184;yet" cx="30.7559" cy="29.9981" r="0.37996" fill="white"/>
</g>
<g id="r eye">
<ellipse id="h&#195;&#184;yre &#195;&#184;yet_2" cx="48.2238" cy="29.9984" rx="1.89859" ry="2.65802" fill="black"/>
<circle id="h&#195;&#184;yre hvit &#195;&#184;yet" cx="48.2237" cy="29.9986" r="0.37996" fill="white"/>
</g>
</g>
<g id="ears">
<g id="left e">
<circle id="venstre &#195;&#184;re" cx="18.9856" cy="28.0989" r="6.07548" fill="#F8C09D"/>
<rect id="farge &#195;&#184;re" x="16.708" y="25.8203" width="3.03774" height="3.03774" fill="#F3AA8E"/>
<rect id="farge &#195;&#184;re_2" x="15.1885" y="27.3394" width="3.03774" height="3.03774" fill="#F4AF91"/>
</g>
<g id="right e">
<circle id="h&#195;&#184;yre &#195;&#184;re" cx="60.7552" cy="28.0989" r="6.07548" fill="#F8C09D"/>
<rect id="farge &#195;&#184;re_3" x="59.9951" y="25.8203" width="3.03774" height="3.03774" fill="#F3AA8E"/>
<rect id="farge &#195;&#184;re_4" x="58.4775" y="27.3394" width="3.03774" height="3.03774" fill="#F4AF91"/>
</g>
</g>
<rect id="hals" x="32.6543" y="53.9194" width="13.6698" height="11.3915" fill="#F8C09D"/>
</g>
</g>
</svg>
