<svg width="104" height="120" viewBox="0 0 104 120" fill="none" xmlns="http://www.w3.org/2000/svg">
<g id="liten b&#195;&#165;t langst ">
<path id="Ellipse 22" d="M12.1795 73.5843C13.5352 77.9886 15.9032 82.3309 19.1485 86.3631C22.3937 90.3952 26.4525 94.0384 31.0932 97.0846C35.7339 100.131 40.8655 102.52 46.1952 104.117C51.5249 105.713 56.9481 106.485 62.1554 106.388C67.3626 106.292 72.2519 105.329 76.5439 103.554C80.836 101.78 84.4469 99.2282 87.1704 96.0457C89.8938 92.8631 91.6766 89.1117 92.4168 85.0057C93.1571 80.8997 92.8403 76.5194 91.4847 72.1151L51.8321 72.8497L12.1795 73.5843Z" fill="#580D0D"/>
<rect id="Rectangle 58" x="51.664" y="21" width="2" height="59" fill="#601A1A"/>
<path id="Polygon 98" d="M87.5099 32.9887L52.2691 62.4987L50.7752 5.36057L87.5099 32.9887Z" fill="#5F5555"/>
</g>
</svg>
