<svg width="180" height="172" viewBox="0 0 180 172" fill="none" xmlns="http://www.w3.org/2000/svg">
<g id="oil 1" clip-path="url(#clip0_131_40)">
<g id="Group">
<g id="Group_2">
<path id="oil" d="M96.372 65.2798C96.372 62.0147 95.8604 58.8681 94.935 55.8887C94.0773 50.0628 92.1441 44.2128 89.2573 38.8516C75.4674 13.2758 55.1893 -3 55.1893 -3C55.1893 -3 54.9009 10.8011 43.7899 23.107C23.2043 45.8934 27.3397 68.8465 27.3397 68.8465L27.3435 68.8502C29.2072 85.4407 43.8981 98.3649 61.7543 98.3649C80.8715 98.3617 96.372 83.5533 96.372 65.2798ZM44.465 41.391C44.0364 41.6511 34.4363 47.7089 35.7574 67.4734C35.8194 68.4565 35.0428 69.3071 34.0082 69.3718C33.9682 69.3718 33.93 69.3745 33.8895 69.3745C32.9074 69.3745 32.0888 68.6447 32.0249 67.7021C30.5498 45.5986 42.0183 38.6311 42.5084 38.3459C43.3852 37.8238 44.5403 38.0949 45.0829 38.94C45.6154 39.7773 45.3427 40.8725 44.465 41.391Z" fill="black"/>
<path id="oil_2" d="M143.196 111.225C143.196 109.283 142.892 107.419 142.34 105.645C141.828 102.179 140.683 98.7053 138.966 95.519C130.771 80.3193 118.721 70.6479 118.721 70.6479C118.721 70.6479 118.549 78.8487 111.94 86.1625C99.7071 99.7039 102.168 113.341 102.168 113.341V113.349C103.274 123.206 112.008 130.884 122.617 130.884C133.985 130.882 143.196 122.081 143.196 111.225ZM112.349 97.0274C112.095 97.1823 106.392 100.783 107.176 112.527C107.212 113.115 106.747 113.62 106.132 113.655C106.111 113.655 106.085 113.655 106.063 113.655C105.479 113.655 104.992 113.223 104.952 112.66C104.079 99.5285 110.895 95.3855 111.184 95.2161C111.707 94.9072 112.393 95.0644 112.716 95.565C113.03 96.0671 112.869 96.7204 112.349 97.0274Z" fill="black"/>
<path class="oil__oil_3" d="M113.462 154.623C113.11 152.243 112.321 149.853 111.136 147.66C105.496 137.195 97.2041 130.54 97.2041 130.54C97.2041 130.54 97.0878 136.186 92.5405 141.22C84.1185 150.537 85.8115 159.925 85.8115 159.925V159.929C86.5747 166.715 92.5867 172 99.8864 172C107.704 172 114.046 165.941 114.046 158.474C114.05 157.132 113.838 155.847 113.462 154.623ZM92.8213 148.697C92.6458 148.805 88.7187 151.283 89.258 159.366C89.2827 159.768 88.9657 160.115 88.5433 160.142C88.528 160.142 88.508 160.142 88.4937 160.142C88.0894 160.142 87.7571 159.841 87.7295 159.454C87.1287 150.419 91.8182 147.565 92.0208 147.45C92.3798 147.233 92.8499 147.346 93.0697 147.687C93.2895 148.036 93.1769 148.484 92.8213 148.697Z" fill="black"/>
</g>
</g>
</g>
<defs>
<clipPath id="clip0_131_40">
<rect width="180" height="172" fill="white"/>
</clipPath>
</defs>
</svg>
