<svg width="70" height="99" viewBox="0 0 70 99" fill="none" xmlns="http://www.w3.org/2000/svg">
<path id="oil" d="M69.372 65.2798C69.372 62.0147 68.8604 58.8681 67.935 55.8887C67.0773 50.0628 65.1441 44.2128 62.2573 38.8516C48.4674 13.2758 28.1893 -3 28.1893 -3C28.1893 -3 27.9009 10.8011 16.7899 23.107C-3.7957 45.8934 0.339731 68.8465 0.339731 68.8465L0.343547 68.8502C2.20721 85.4407 16.8981 98.3649 34.7543 98.3649C53.8715 98.3617 69.372 83.5533 69.372 65.2798ZM17.465 41.391C17.0364 41.6511 7.43633 47.7089 8.75744 67.4734C8.81942 68.4565 8.04278 69.3071 7.0082 69.3718C6.96816 69.3718 6.93001 69.3745 6.88949 69.3745C5.90736 69.3745 5.08876 68.6447 5.02487 67.7021C3.54977 45.5986 15.0183 38.6311 15.5084 38.3459C16.3852 37.8238 17.5403 38.0949 18.0829 38.94C18.6154 39.7773 18.3427 40.8725 17.465 41.391Z" fill="black"/>
</svg>
