<svg width="43" height="61" viewBox="0 0 43 61" fill="none" xmlns="http://www.w3.org/2000/svg">
<path id="oil" d="M42.1959 41.2253C42.1959 39.2828 41.8917 37.419 41.3401 35.6446C40.8281 32.1795 39.6834 28.7053 37.9656 25.519C29.771 10.3193 17.7214 0.647949 17.7214 0.647949C17.7214 0.647949 17.5492 8.84871 10.9404 16.1625C-1.29286 29.7039 1.16771 43.3415 1.16771 43.3415V43.3488C2.27379 53.2055 11.0076 60.8842 21.617 60.8842C32.9849 60.8824 42.1959 52.0812 42.1959 41.2253ZM11.3494 27.0274C11.0953 27.1823 5.39229 30.7827 6.17561 42.5269C6.21184 43.115 5.74748 43.6203 5.13245 43.6554C5.11148 43.6554 5.08478 43.6554 5.06333 43.6554C4.47882 43.6554 3.99157 43.223 3.95152 42.6604C3.07857 29.5285 9.89531 25.3855 10.1837 25.2161C10.7072 24.9072 11.3933 25.0644 11.7161 25.565C12.0298 26.0671 11.8691 26.7204 11.3494 27.0274Z" fill="black"/>
</svg>
