<svg width="30" height="42" viewBox="0 0 30 42" fill="none" xmlns="http://www.w3.org/2000/svg">
<path id="oil" d="M28.4617 24.6234C28.1099 22.2426 27.3208 19.8531 26.1361 17.6604C20.4965 7.19546 12.2041 0.539551 12.2041 0.539551C12.2041 0.539551 12.0878 6.18637 7.54047 11.2195C-0.881532 20.5374 0.81145 29.9253 0.81145 29.9253V29.929C1.57475 36.7152 7.58671 42.0003 14.8864 42.0003C22.7043 42.0003 29.0458 35.9407 29.0458 28.4743C29.0496 27.1318 28.8379 25.8466 28.4617 24.6234ZM7.82127 18.6973C7.64582 18.8048 3.71874 21.2827 4.25796 29.3664C4.28275 29.7682 3.9657 30.1153 3.54329 30.1422C3.52804 30.1422 3.50801 30.1422 3.49371 30.1422C3.08941 30.1422 2.75711 29.8411 2.72946 29.4538C2.12874 20.4189 6.81817 17.5652 7.02079 17.4499C7.37979 17.2326 7.84988 17.3456 8.06967 17.6873C8.28946 18.0363 8.17694 18.4836 7.82127 18.6973Z" fill="black"/>
</svg>
