<svg width="104" height="96" viewBox="0 0 104 96" fill="none" xmlns="http://www.w3.org/2000/svg">
<g id="question-marks">
<path id="?" d="M52.9484 53.0247L52.8857 52.4372C52.6096 49.7086 52.6341 47.5118 52.9592 45.8467C53.2993 44.1799 53.8842 42.8071 54.7137 41.7281C55.5416 40.634 56.5818 39.6011 57.8342 38.6293C58.6921 37.9587 59.4464 37.2458 60.0972 36.4906C60.7614 35.7187 61.2594 34.8884 61.5912 33.9997C61.9214 33.0959 62.0302 32.1167 61.9176 31.0621C61.7905 29.8719 61.4016 28.8697 60.7509 28.0553C60.1001 27.241 59.2745 26.6435 58.2738 26.2627C57.2883 25.8803 56.2155 25.7511 55.0554 25.8749C53.9857 25.9891 52.9937 26.3312 52.0793 26.9012C51.1784 27.4545 50.4615 28.232 49.9284 29.2336C49.4088 30.2186 49.187 31.4232 49.2629 32.8474L41.2177 33.7064C40.9874 30.8358 41.4247 28.3663 42.5295 26.298C43.6494 24.228 45.2427 22.5951 47.3092 21.3992C49.3908 20.2018 51.7499 19.4623 54.3864 19.1808C57.264 18.8736 59.849 19.1081 62.1413 19.8843C64.4487 20.6589 66.3123 21.9151 67.732 23.653C69.1653 25.3742 70.0178 27.5079 70.2897 30.054C70.473 31.7715 70.3584 33.338 69.9457 34.7534C69.5481 36.1673 68.9009 37.4554 68.0041 38.6178C67.1072 39.7801 66.01 40.8496 64.7124 41.8262C63.5725 42.7098 62.6543 43.6002 61.9577 44.4974C61.2762 45.393 60.8059 46.4108 60.5466 47.5508C60.3009 48.6742 60.2557 50.0351 60.4111 51.6337L60.4738 52.2213L52.9484 53.0247ZM58.3862 66.7066C57.0302 66.8514 55.8112 66.4939 54.7289 65.6343C53.6467 64.7746 53.0316 63.6517 52.8836 62.2657C52.7389 60.9097 53.1047 59.6974 53.981 58.6286C54.8573 57.5598 55.9735 56.9531 57.3294 56.8083C58.6703 56.6652 59.8818 57.0234 60.964 57.8831C62.0613 58.7411 62.6824 59.8481 62.8271 61.2041C62.9252 62.1231 62.781 62.9842 62.3944 63.7873C62.0228 64.5889 61.4845 65.2559 60.7795 65.7883C60.0879 66.304 59.2901 66.6101 58.3862 66.7066Z" fill="black"/>
<path id="?_2" d="M88.445 77.3798L88.4097 77.0493C88.2544 75.5145 88.2682 74.2788 88.451 73.3422C88.6424 72.4046 88.9713 71.6324 89.4379 71.0254C89.9037 70.41 90.4887 69.829 91.1932 69.2824C91.6758 68.9051 92.1001 68.5041 92.4662 68.0794C92.8398 67.6452 93.1199 67.1782 93.3066 66.6782C93.4923 66.1699 93.5535 65.6191 93.4901 65.0258C93.4186 64.3563 93.1999 63.7926 92.8339 63.3345C92.4678 62.8765 92.0034 62.5404 91.4405 62.3262C90.8861 62.1111 90.2827 62.0384 89.6301 62.108C89.0285 62.1723 88.4704 62.3647 87.9561 62.6853C87.4494 62.9966 87.0461 63.4339 86.7462 63.9973C86.454 64.5514 86.3292 65.229 86.3718 66.0301L81.8464 66.5132C81.7169 64.8985 81.9629 63.5095 82.5843 62.346C83.2143 61.1816 84.1105 60.2631 85.2729 59.5905C86.4438 58.9169 87.7708 58.501 89.2539 58.3426C90.8725 58.1698 92.3265 58.3017 93.616 58.7383C94.9139 59.174 95.9621 59.8806 96.7608 60.8582C97.567 61.8264 98.0465 63.0266 98.1994 64.4588C98.3026 65.4249 98.2381 66.306 98.006 67.1022C97.7823 67.8975 97.4182 68.622 96.9138 69.2759C96.4093 69.9297 95.7921 70.5313 95.0622 71.0807C94.421 71.5777 93.9045 72.0785 93.5127 72.5832C93.1294 73.087 92.8648 73.6595 92.719 74.3007C92.5807 74.9326 92.5553 75.6982 92.6427 76.5974L92.678 76.9279L88.445 77.3798ZM91.5037 85.0759C90.741 85.1573 90.0553 84.9562 89.4465 84.4727C88.8378 83.9891 88.4918 83.3575 88.4085 82.5778C88.3271 81.8151 88.5329 81.1332 89.0258 80.532C89.5187 79.9308 90.1466 79.5895 90.9093 79.5081C91.6635 79.4276 92.345 79.6291 92.9538 80.1126C93.571 80.5953 93.9203 81.218 94.0018 81.9807C94.0569 82.4976 93.9758 82.982 93.7583 83.4338C93.5493 83.8846 93.2465 84.2598 92.85 84.5593C92.4609 84.8494 92.0122 85.0216 91.5037 85.0759Z" fill="black"/>
<path id="?_3" d="M12.7399 65.3486L12.7046 65.0181C12.5493 63.4833 12.5631 62.2475 12.746 61.3109C12.9373 60.3734 13.2663 59.6011 13.7329 58.9942C14.1986 58.3788 14.7837 57.7977 15.4881 57.2511C15.9707 56.8739 16.395 56.4729 16.7611 56.0481C17.1347 55.6139 17.4149 55.1469 17.6015 54.647C17.7872 54.1386 17.8484 53.5878 17.785 52.9946C17.7136 52.3251 17.4948 51.7613 17.1288 51.3033C16.7627 50.8452 16.2983 50.5091 15.7354 50.2949C15.1811 50.0798 14.5776 50.0071 13.9251 50.0768C13.3234 50.141 12.7654 50.3335 12.251 50.6541C11.7443 50.9653 11.341 51.4026 11.0412 51.9661C10.7489 52.5201 10.6241 53.1977 10.6668 53.9988L6.14135 54.482C6.01182 52.8673 6.25779 51.4782 6.87927 50.3148C7.50922 49.1504 8.40541 48.2319 9.56784 47.5592C10.7387 46.8857 12.0657 46.4697 13.5488 46.3114C15.1674 46.1386 16.6215 46.2705 17.9109 46.7071C19.2088 47.1428 20.2571 47.8494 21.0557 48.827C21.8619 49.7951 22.3414 50.9953 22.4944 52.4275C22.5975 53.3936 22.533 54.2748 22.3009 55.071C22.0772 55.8662 21.7132 56.5908 21.2087 57.2446C20.7042 57.8985 20.0871 58.5001 19.3572 59.0494C18.716 59.5464 18.1995 60.0473 17.8076 60.5519C17.4243 61.0557 17.1597 61.6282 17.0139 62.2695C16.8756 62.9014 16.8502 63.6669 16.9377 64.5661L16.973 64.8966L12.7399 65.3486ZM15.7986 73.0446C15.0359 73.1261 14.3502 72.925 13.7414 72.4414C13.1327 71.9579 12.7867 71.3262 12.7035 70.5466C12.622 69.7839 12.8278 69.1019 13.3207 68.5007C13.8137 67.8996 14.4415 67.5583 15.2042 67.4768C15.9584 67.3963 16.6399 67.5978 17.2487 68.0814C17.8659 68.564 18.2152 69.1867 18.2967 69.9494C18.3519 70.4664 18.2707 70.9507 18.0532 71.4025C17.8443 71.8534 17.5415 72.2286 17.1449 72.528C16.7559 72.8181 16.3071 72.9903 15.7986 73.0446Z" fill="black"/>
</g>
</svg>
