<svg width="8379" height="197" viewBox="0 0 8379 197" fill="none" xmlns="http://www.w3.org/2000/svg">
<path d="M0 197V20.2805C121.329 32.4702 242.657 44.66 354.444 40.3087C466.232 35.9574 568.478 15.0649 687.5 14.9789C806.522 14.8929 942.32 35.6132 1072.5 32.6508C1202.68 29.6884 1327.24 3.04325 1454.44 0.25226C1581.65 -2.53873 1711.49 18.5245 1839.44 29.1164C1967.4 39.7084 2093.48 39.8291 2200 35.0071C2306.52 30.1851 2393.47 20.4203 2508.61 22.6367C2623.75 24.8532 2767.07 39.0508 2887.5 37.9524C3007.93 36.8541 3105.48 20.4597 3238.89 11.4445C3372.3 2.42924 3541.58 0.793058 3663.61 6.14291C3785.64 11.4928 3860.42 23.8287 3975.28 27.3493C4090.13 30.8699 4245.07 25.5752 4400 20.2805V197H0Z" fill="#0693E3" fill-opacity="0.4"/>
<path d="M0 197V79.1867C123.207 73.2953 246.414 67.404 357.5 66.8163C468.586 66.2285 567.551 70.9444 681.389 76.2413C795.226 81.5383 923.936 87.4163 1060.28 93.9133C1196.62 100.41 1340.59 107.526 1485 100.393C1629.41 93.2598 1774.25 71.8777 1888.33 72.7069C2002.42 73.5362 2085.74 96.5769 2206.11 100.982C2326.48 105.387 2483.91 91.1568 2615.56 83.8992C2747.2 76.6415 2853.07 76.3567 2957.78 73.8851C3062.48 71.4134 3166.03 66.755 3272.5 73.296C3378.97 79.837 3488.38 97.5774 3630 99.8039C3771.62 102.03 3945.46 88.7429 4079.17 82.721C4212.87 76.6992 4306.43 77.9429 4400 79.1867V197H0Z" fill="#0693E3" fill-opacity="0.53"/>
<path d="M0 197V138.094C129.127 149.007 258.254 159.92 369.722 156.355C481.191 152.789 575.001 134.745 708.889 125.134C842.777 115.524 1016.74 114.346 1142.78 122.189C1268.81 130.032 1346.92 146.894 1451.39 151.642C1555.86 156.39 1686.71 149.024 1821.11 140.45C1955.52 131.876 2093.49 122.093 2203.06 126.901C2312.62 131.71 2393.79 151.109 2520.83 155.177C2647.87 159.244 2820.78 147.979 2966.94 147.519C3113.11 147.059 3232.52 157.403 3330.56 154.587C3428.59 151.772 3505.26 135.795 3611.67 135.148C3718.07 134.502 3854.21 149.185 3990.56 152.231C4126.9 155.277 4263.45 146.685 4400 138.094V197H0Z" fill="#0693E3"/>
</svg>
